<svg width="22" height="22" viewBox="0 0 22 22" fill="none" xmlns="http://www.w3.org/2000/svg">
<path fill-rule="evenodd" clip-rule="evenodd" d="M13.1872 11.3057C13.0608 10.9482 12.8267 10.6386 12.517 10.4197C12.2074 10.2008 11.8375 10.0833 11.4583 10.0833V9.625H10.5417V10.0833C10.0554 10.0833 9.58912 10.2765 9.2453 10.6203C8.90148 10.9641 8.70833 11.4304 8.70833 11.9167C8.70833 12.4029 8.90148 12.8692 9.2453 13.213C9.58912 13.5568 10.0554 13.75 10.5417 13.75V15.5833C10.1429 15.5833 9.80329 15.329 9.67679 14.9724C9.65802 14.914 9.62774 14.8601 9.58775 14.8136C9.54775 14.7672 9.49885 14.7292 9.44394 14.702C9.38902 14.6748 9.32921 14.6589 9.26804 14.6552C9.20686 14.6516 9.14557 14.6602 9.08779 14.6806C9.03001 14.701 8.9769 14.7328 8.93162 14.7741C8.88634 14.8154 8.84981 14.8653 8.82417 14.921C8.79853 14.9767 8.78432 15.0369 8.78237 15.0982C8.78043 15.1594 8.79078 15.2204 8.81283 15.2776C8.9392 15.6352 9.17332 15.9447 9.48295 16.1636C9.79257 16.3825 10.1625 16.5001 10.5417 16.5V16.9583H11.4583V16.5C11.9446 16.5 12.4109 16.3068 12.7547 15.963C13.0985 15.6192 13.2917 15.1529 13.2917 14.6667C13.2917 14.1804 13.0985 13.7141 12.7547 13.3703C12.4109 13.0265 11.9446 12.8333 11.4583 12.8333V11C11.6479 11 11.8328 11.0587 11.9876 11.1681C12.1424 11.2775 12.2595 11.4322 12.3227 11.611C12.3632 11.7256 12.4476 11.8194 12.5573 11.8719C12.6116 11.8978 12.6705 11.9128 12.7306 11.916C12.7907 11.9193 12.8508 11.9106 12.9076 11.8905C12.9643 11.8705 13.0166 11.8395 13.0614 11.7992C13.1061 11.759 13.1425 11.7103 13.1685 11.656C13.1945 11.6017 13.2095 11.5428 13.2127 11.4827C13.2159 11.4226 13.2072 11.3625 13.1872 11.3057ZM10.5417 11C10.2985 11 10.0654 11.0966 9.89348 11.2685C9.72157 11.4404 9.62499 11.6736 9.62499 11.9167C9.62499 12.1598 9.72157 12.3929 9.89348 12.5648C10.0654 12.7368 10.2985 12.8333 10.5417 12.8333V11ZM11.4583 15.5833C11.7014 15.5833 11.9346 15.4868 12.1065 15.3148C12.2784 15.1429 12.375 14.9098 12.375 14.6667C12.375 14.4236 12.2784 14.1904 12.1065 14.0185C11.9346 13.8466 11.7014 13.75 11.4583 13.75V15.5833Z" fill="white"/>
<path fill-rule="evenodd" clip-rule="evenodd" d="M6.02846 3.95129C7.15321 3.40083 8.99846 2.75 11.0179 2.75C12.9951 2.75 14.7918 3.37379 15.9106 3.91692L15.9738 3.94763C16.3112 4.11446 16.5834 4.27213 16.775 4.4L15.0819 6.875C18.9851 10.8653 22 19.2486 11.0179 19.2486C0.0357509 19.2486 2.96954 11.0174 6.90663 6.875L5.22454 4.4C5.35425 4.31521 5.51879 4.21667 5.71496 4.11217C5.81213 4.05992 5.91663 4.00599 6.02846 3.95129ZM13.9938 6.84246L15.3491 4.86108C14.0887 4.95183 12.589 5.24792 11.1453 5.66592C10.114 5.96383 8.96821 5.91846 7.90717 5.72275C7.63978 5.67324 7.37423 5.61423 7.11104 5.54583L7.99104 6.84154C9.87708 7.513 12.1073 7.513 13.9938 6.84246ZM7.46167 7.62208C9.66854 8.47458 12.3209 8.47458 14.5278 7.62117C15.4487 8.59243 16.2193 9.69592 16.814 10.895C17.4336 12.1591 17.771 13.4228 17.716 14.5118C17.6628 15.5627 17.2494 16.4606 16.3052 17.1279C15.3212 17.8232 13.6661 18.332 11.0174 18.332C8.36596 18.332 6.70313 17.8319 5.70992 17.1444C4.75888 16.4858 4.34133 15.5998 4.28221 14.5631C4.22033 13.486 4.55033 12.2288 5.16771 10.956C5.75667 9.74233 6.57846 8.57404 7.46167 7.62208ZM6.93458 4.54483C7.30125 4.65392 7.68442 4.74879 8.07308 4.82075C9.0585 5.00225 10.0467 5.02883 10.89 4.78454C11.8727 4.49813 12.8723 4.27296 13.8829 4.11033C13.0396 3.85642 12.0533 3.66667 11.0174 3.66667C9.43846 3.66667 7.96583 4.10713 6.93458 4.54483Z" fill="white"/>
</svg>
