<svg width="20" height="20" viewBox="0 0 20 20" fill="none" xmlns="http://www.w3.org/2000/svg">
<path fill-rule="evenodd" clip-rule="evenodd" d="M9.95251 1.0415H10.0475C11.9717 1.0415 13.4792 1.0415 14.6558 1.19984C15.8592 1.3615 16.8092 1.69984 17.555 2.44484C18.3008 3.19067 18.6383 4.14067 18.8 5.34484C18.9583 6.52067 18.9583 8.02817 18.9583 9.95234V10.0473C18.9583 11.9715 18.9583 13.479 18.8 14.6557C18.6383 15.859 18.3 16.809 17.555 17.5548C16.8092 18.3007 15.8592 18.6382 14.655 18.7998C13.4792 18.9582 11.9717 18.9582 10.0475 18.9582H9.95251C8.02834 18.9582 6.52084 18.9582 5.34417 18.7998C4.14084 18.6382 3.19084 18.2998 2.44501 17.5548C1.69917 16.809 1.36167 15.859 1.20001 14.6548C1.04167 13.479 1.04167 11.9715 1.04167 10.0473V9.95234C1.04167 8.02817 1.04167 6.52067 1.20001 5.344C1.36167 4.14067 1.70001 3.19067 2.44501 2.44484C3.19084 1.699 4.14084 1.3615 5.34501 1.19984C6.52084 1.0415 8.02834 1.0415 9.95251 1.0415ZM5.51084 2.43817C4.44584 2.5815 3.80334 2.85484 3.32917 3.329C2.85417 3.804 2.58167 4.44567 2.43834 5.5115C2.29334 6.59484 2.29167 8.01817 2.29167 9.99984C2.29167 11.9815 2.29334 13.4048 2.43834 14.4882C2.58167 15.554 2.855 16.1965 3.32917 16.6715C3.80417 17.1457 4.44584 17.4182 5.51167 17.5615C6.595 17.7065 8.01834 17.7082 10 17.7082C11.9817 17.7082 13.405 17.7065 14.4883 17.5615C15.5542 17.4182 16.1967 17.1448 16.6717 16.6707C17.1458 16.1957 17.4183 15.554 17.5617 14.4882C17.7067 13.4048 17.7083 11.9815 17.7083 9.99984C17.7083 8.01817 17.7067 6.59484 17.5617 5.5115C17.4183 4.44567 17.145 3.80317 16.6708 3.32817C16.1958 2.854 15.5542 2.5815 14.4883 2.43817C13.405 2.29317 11.9817 2.2915 10 2.2915C8.01834 2.2915 6.59417 2.29317 5.51084 2.43817Z" fill="white"/>
<path fill-rule="evenodd" clip-rule="evenodd" d="M6.66667 4.7915C6.83243 4.7915 6.9914 4.85735 7.10861 4.97456C7.22582 5.09177 7.29167 5.25074 7.29167 5.4165V6.45817H8.33333C8.49909 6.45817 8.65806 6.52402 8.77527 6.64123C8.89248 6.75844 8.95833 6.91741 8.95833 7.08317C8.95833 7.24893 8.89248 7.4079 8.77527 7.52511C8.65806 7.64232 8.49909 7.70817 8.33333 7.70817H7.29167V8.74984C7.29167 8.9156 7.22582 9.07457 7.10861 9.19178C6.9914 9.30899 6.83243 9.37484 6.66667 9.37484C6.50091 9.37484 6.34194 9.30899 6.22472 9.19178C6.10751 9.07457 6.04167 8.9156 6.04167 8.74984V7.70817H5C4.83424 7.70817 4.67527 7.64232 4.55806 7.52511C4.44085 7.4079 4.375 7.24893 4.375 7.08317C4.375 6.91741 4.44085 6.75844 4.55806 6.64123C4.67527 6.52402 4.83424 6.45817 5 6.45817H6.04167V5.4165C6.04167 5.25074 6.10751 5.09177 6.22472 4.97456C6.34194 4.85735 6.50091 4.7915 6.66667 4.7915ZM11.0417 7.08317C11.0417 6.91741 11.1075 6.75844 11.2247 6.64123C11.3419 6.52402 11.5009 6.45817 11.6667 6.45817H15C15.1658 6.45817 15.3247 6.52402 15.4419 6.64123C15.5592 6.75844 15.625 6.91741 15.625 7.08317C15.625 7.24893 15.5592 7.4079 15.4419 7.52511C15.3247 7.64232 15.1658 7.70817 15 7.70817H11.6667C11.5009 7.70817 11.3419 7.64232 11.2247 7.52511C11.1075 7.4079 11.0417 7.24893 11.0417 7.08317ZM11.0417 12.0832C11.0417 11.9174 11.1075 11.7584 11.2247 11.6412C11.3419 11.524 11.5009 11.4582 11.6667 11.4582H15C15.1658 11.4582 15.3247 11.524 15.4419 11.6412C15.5592 11.7584 15.625 11.9174 15.625 12.0832C15.625 12.2489 15.5592 12.4079 15.4419 12.5251C15.3247 12.6423 15.1658 12.7082 15 12.7082H11.6667C11.5009 12.7082 11.3419 12.6423 11.2247 12.5251C11.1075 12.4079 11.0417 12.2489 11.0417 12.0832ZM4.975 11.6415C5.09219 11.5245 5.25104 11.4587 5.41667 11.4587C5.58229 11.4587 5.74115 11.5245 5.85833 11.6415L6.66667 12.4498L7.475 11.6415C7.53222 11.5801 7.60122 11.5308 7.67788 11.4967C7.75455 11.4625 7.83731 11.4442 7.92123 11.4427C8.00515 11.4412 8.08851 11.4566 8.16633 11.4881C8.24415 11.5195 8.31485 11.5663 8.3742 11.6256C8.43355 11.685 8.48033 11.7557 8.51177 11.8335C8.5432 11.9113 8.55864 11.9947 8.55716 12.0786C8.55568 12.1625 8.53731 12.2453 8.50315 12.322C8.46899 12.3986 8.41974 12.4676 8.35833 12.5248L7.55 13.3332L8.35833 14.1415C8.41974 14.1987 8.46899 14.2677 8.50315 14.3444C8.53731 14.4211 8.55568 14.5038 8.55716 14.5877C8.55864 14.6717 8.5432 14.755 8.51177 14.8328C8.48033 14.9107 8.43355 14.9814 8.3742 15.0407C8.31485 15.1001 8.24415 15.1468 8.16633 15.1783C8.08851 15.2097 8.00515 15.2251 7.92123 15.2237C7.83731 15.2222 7.75455 15.2038 7.67788 15.1697C7.60122 15.1355 7.53222 15.0862 7.475 15.0248L6.66667 14.2165L5.85833 15.0248C5.73985 15.1352 5.58315 15.1953 5.42123 15.1925C5.25931 15.1896 5.10483 15.124 4.99032 15.0095C4.8758 14.895 4.81021 14.7405 4.80735 14.5786C4.8045 14.4167 4.8646 14.26 4.975 14.1415L5.78333 13.3332L4.975 12.5248C4.85796 12.4076 4.79222 12.2488 4.79222 12.0832C4.79222 11.9175 4.85796 11.7587 4.975 11.6415ZM11.0417 14.5832C11.0417 14.4174 11.1075 14.2584 11.2247 14.1412C11.3419 14.024 11.5009 13.9582 11.6667 13.9582H15C15.1658 13.9582 15.3247 14.024 15.4419 14.1412C15.5592 14.2584 15.625 14.4174 15.625 14.5832C15.625 14.7489 15.5592 14.9079 15.4419 15.0251C15.3247 15.1423 15.1658 15.2082 15 15.2082H11.6667C11.5009 15.2082 11.3419 15.1423 11.2247 15.0251C11.1075 14.9079 11.0417 14.7489 11.0417 14.5832Z" fill="white"/>
</svg>
