<svg width="24" height="24" viewBox="0 0 24 24" fill="none" xmlns="http://www.w3.org/2000/svg">
<path d="M13.47 8.52991C13.3963 8.46125 13.3372 8.37845 13.2962 8.28645C13.2552 8.19445 13.2332 8.09513 13.2314 7.99443C13.2296 7.89373 13.2481 7.7937 13.2859 7.70031C13.3236 7.60692 13.3797 7.52209 13.451 7.45087C13.5222 7.37965 13.607 7.32351 13.7004 7.28579C13.7938 7.24807 13.8938 7.22954 13.9945 7.23132C14.0952 7.23309 14.1945 7.25514 14.2865 7.29613C14.3785 7.33712 14.4613 7.39622 14.53 7.46991L18.53 11.4699C18.6704 11.6105 18.7493 11.8012 18.7493 11.9999C18.7493 12.1987 18.6704 12.3893 18.53 12.5299L14.53 16.5299C14.4613 16.6036 14.3785 16.6627 14.2865 16.7037C14.1945 16.7447 14.0952 16.7667 13.9945 16.7685C13.8938 16.7703 13.7938 16.7518 13.7004 16.714C13.607 16.6763 13.5222 16.6202 13.451 16.5489C13.3797 16.4777 13.3236 16.3929 13.2859 16.2995C13.2481 16.2061 13.2296 16.1061 13.2314 16.0054C13.2332 15.9047 13.2552 15.8054 13.2962 15.7134C13.3372 15.6214 13.3963 15.5386 13.47 15.4699L16.19 12.7499L6.49999 12.7499C6.30108 12.7499 6.11031 12.6709 5.96966 12.5302C5.82901 12.3896 5.74999 12.1988 5.74999 11.9999C5.74999 11.801 5.82901 11.6102 5.96966 11.4696C6.11031 11.3289 6.30108 11.2499 6.49999 11.2499L16.19 11.2499L13.47 8.52991Z" fill="white"/>
</svg>
