<svg width="42" height="42" viewBox="0 0 42 42" fill="none" xmlns="http://www.w3.org/2000/svg">
<rect x="0.3" y="0.3" width="41.4" height="41.4" rx="20.7" fill="#E9B1FF" fill-opacity="0.1"/>
<rect x="0.3" y="0.3" width="41.4" height="41.4" rx="20.7" stroke="url(#paint0_linear_561_3791)" stroke-width="0.6"/>
<path d="M13.9567 19.1124C14.3299 17.7193 15.1079 16.4682 16.1922 15.5173C17.2765 14.5664 18.6185 13.9583 20.0484 13.7701C21.4782 13.5819 22.9318 13.822 24.2253 14.4599C25.5188 15.0979 26.594 16.105 27.315 17.3541L27.5942 17.9866M27.5942 17.9866C27.789 17.9544 27.9661 17.854 28.0939 17.7034C28.2216 17.5528 28.2917 17.3616 28.2917 17.1641V13.7083M27.5942 17.9866C27.5497 17.9938 27.5044 17.9974 27.4583 17.9974H24.0025M13.7083 28.2916V24.8358C13.7083 24.6148 13.7961 24.4028 13.9524 24.2465C14.1087 24.0902 14.3206 24.0024 14.5417 24.0024M14.5417 24.0024H17.9975M14.5417 24.0024L14.685 24.6458C15.406 25.8948 16.4812 26.902 17.7747 27.54C19.0682 28.1779 20.5217 28.418 21.9516 28.2298C23.3815 28.0416 24.7235 27.4335 25.8078 26.4826C26.8921 25.5317 27.6701 24.2805 28.0433 22.8874" stroke="white" stroke-width="1.375" stroke-linecap="round" stroke-linejoin="round"/>
<defs>
<linearGradient id="paint0_linear_561_3791" x1="10.0435" y1="3.65217" x2="33.3261" y2="40.1739" gradientUnits="userSpaceOnUse">
<stop stop-color="#DBA0FF"/>
<stop offset="1" stop-color="#7A27EF"/>
</linearGradient>
</defs>
</svg>
