<svg width="42" height="42" viewBox="0 0 42 42" fill="none" xmlns="http://www.w3.org/2000/svg">
<rect x="0.3" y="0.3" width="41.4" height="41.4" rx="20.7" fill="#E9B1FF" fill-opacity="0.1"/>
<rect x="0.3" y="0.3" width="41.4" height="41.4" rx="20.7" stroke="url(#paint0_linear_561_3788)" stroke-width="0.6"/>
<path d="M13.6667 17.1922C13.6667 16.6752 13.843 16.2404 14.1956 15.8878C14.5482 15.5352 14.983 15.3589 15.5 15.3589H26.5C27.017 15.3589 27.4518 15.5352 27.8044 15.8878C28.157 16.2404 28.3333 16.6752 28.3333 17.1922V18.6736C28.8503 18.6736 29.2851 18.8499 29.6377 19.2025C29.9904 19.5551 30.1667 19.9899 30.1667 20.5069V25.0902C30.1667 25.6072 29.9904 26.042 29.6377 26.3946C29.2851 26.7472 28.8503 26.9236 28.3333 26.9236H13.6667C13.1497 26.9236 12.7149 26.7472 12.3622 26.3946C12.0096 26.042 11.8333 25.6066 11.8333 25.0884V20.5051C11.8333 19.9887 12.0096 19.5542 12.3622 19.2016C12.7149 18.8489 13.1497 18.6729 13.6667 18.6736V17.1922ZM14.5833 17.1922V18.9486C14.8583 19.1026 15.0799 19.318 15.2479 19.5948C15.416 19.8722 15.5 20.1763 15.5 20.5069V22.7986H26.5V20.5069C26.5 20.1769 26.584 19.8729 26.7521 19.5948C26.9201 19.3167 27.1417 19.101 27.4167 18.9476V17.1931C27.4167 16.9334 27.3287 16.7159 27.1527 16.5405C26.9767 16.3651 26.7591 16.2768 26.5 16.2756H15.5C15.2403 16.2756 15.0227 16.3636 14.8473 16.5396C14.6719 16.7156 14.5839 16.9331 14.5833 17.1922ZM27.4167 23.7152H14.5833V20.5069C14.5833 20.3847 14.5604 20.2661 14.5146 20.1512C14.4687 20.0363 14.4037 19.937 14.3193 19.8533C14.235 19.7696 14.1357 19.7048 14.0214 19.659C13.9071 19.6131 13.7889 19.5902 13.6667 19.5902C13.4069 19.5902 13.1891 19.6779 13.0131 19.8533C12.8371 20.0287 12.7494 20.2466 12.75 20.5069V25.0902C12.75 25.3499 12.8377 25.5675 13.0131 25.7429C13.1885 25.9183 13.4063 26.0063 13.6667 26.0069H28.3333C28.5931 26.0069 28.8109 25.9189 28.9869 25.7429C29.1629 25.5669 29.2506 25.3493 29.25 25.0902V20.5069C29.25 20.2472 29.162 20.0293 28.986 19.8533C28.81 19.6773 28.5924 19.5893 28.3333 19.5893C28.2111 19.5893 28.0929 19.6125 27.9786 19.659C27.8643 19.7054 27.765 19.7702 27.6807 19.8533C27.5963 19.9364 27.5312 20.0357 27.4854 20.1512C27.4396 20.2667 27.4167 20.3853 27.4167 20.5069V23.7152Z" fill="white"/>
<defs>
<linearGradient id="paint0_linear_561_3788" x1="10.0435" y1="3.65217" x2="33.3261" y2="40.1739" gradientUnits="userSpaceOnUse">
<stop stop-color="#DBA0FF"/>
<stop offset="1" stop-color="#7A27EF"/>
</linearGradient>
</defs>
</svg>
