<svg width="42" height="42" viewBox="0 0 42 42" fill="none" xmlns="http://www.w3.org/2000/svg">
<rect x="0.3" y="0.3" width="41.4" height="41.4" rx="20.7" fill="#E9B1FF" fill-opacity="0.1"/>
<rect x="0.3" y="0.3" width="41.4" height="41.4" rx="20.7" stroke="url(#paint0_linear_2291_1986)" stroke-width="0.6"/>
<g clip-path="url(#clip0_2291_1986)">
<path d="M13.5833 15.2917V11.625M13.5833 19.4583V21.9583M18.1667 21.625V19.125M18.1667 27.0417V30.375M23.8333 25.875V29.2083M25.875 16.7083L28.375 13.7083M28.375 13.7083L30.875 16.7083M28.375 13.7083V26.7083M15.0417 18.625C15.0417 19.125 14.7083 19.4583 14.2083 19.4583H12.9583C12.4583 19.4583 12.125 19.125 12.125 18.625V16.125C12.125 15.625 12.4583 15.2917 12.9583 15.2917H14.2083C14.7083 15.2917 15.0417 15.625 15.0417 16.125V18.625ZM19.625 26.2083C19.625 26.7083 19.2917 27.0417 18.7917 27.0417H17.5417C17.0417 27.0417 16.7083 26.7083 16.7083 26.2083V22.4583C16.7083 21.9583 17.0417 21.625 17.5417 21.625H18.7917C19.2917 21.625 19.625 21.9583 19.625 22.4583V26.2083ZM25.2917 25.0417C25.2917 25.5417 24.9583 25.875 24.4583 25.875H23.2083C22.7083 25.875 22.375 25.5417 22.375 25.0417V21.7083C22.375 21.2083 22.7083 20.875 23.2083 20.875H24.4583C24.9583 20.875 25.2917 21.2083 25.2917 21.7083V25.0417Z" stroke="white" stroke-width="1.4375" stroke-miterlimit="10" stroke-linecap="round" stroke-linejoin="round"/>
</g>
<defs>
<linearGradient id="paint0_linear_2291_1986" x1="10.0435" y1="3.65217" x2="33.3261" y2="40.1739" gradientUnits="userSpaceOnUse">
<stop stop-color="#DBA0FF"/>
<stop offset="1" stop-color="#7A27EF"/>
</linearGradient>
<clipPath id="clip0_2291_1986">
<rect width="20" height="20" fill="white" transform="translate(11.5 11)"/>
</clipPath>
</defs>
</svg>
