<svg width="42" height="42" viewBox="0 0 42 42" fill="none" xmlns="http://www.w3.org/2000/svg">
<rect x="0.3" y="0.3" width="41.4" height="41.4" rx="20.7" fill="#E9B1FF" fill-opacity="0.1"/>
<rect x="0.3" y="0.3" width="41.4" height="41.4" rx="20.7" stroke="url(#paint0_linear_561_3783)" stroke-width="0.6"/>
<path d="M18.75 17.6667H25.4167M18.75 21H20.8333M25.4167 21H23.3333M18.75 24.3333H20.8333M25.4167 24.3333H23.3333M15.8333 17.25H15C13.4283 17.25 12.6433 17.25 12.155 17.7383C11.6667 18.2267 11.6667 19.0117 11.6667 20.5833V26C11.6667 26.5525 11.8862 27.0824 12.2769 27.4731C12.6676 27.8638 13.1975 28.0833 13.75 28.0833C14.3025 28.0833 14.8324 27.8638 15.2231 27.4731C15.6138 27.0824 15.8333 26.5525 15.8333 26V17.25Z" stroke="white" stroke-width="1.375" stroke-linecap="round" stroke-linejoin="round"/>
<path d="M23.3333 13.9167H19.1667C18.3917 13.9167 18.0042 13.9167 17.6867 14.0017C17.2626 14.1153 16.8759 14.3385 16.5655 14.6489C16.2551 14.9593 16.0319 15.346 15.9183 15.7701C15.8333 16.0876 15.8333 16.4751 15.8333 17.2501V26.0001C15.8333 26.2737 15.7794 26.5446 15.6747 26.7973C15.5701 27.0501 15.4166 27.2798 15.2231 27.4732C15.0297 27.6667 14.8 27.8201 14.5473 27.9248C14.2945 28.0295 14.0236 28.0834 13.75 28.0834H23.3333C25.69 28.0834 26.8692 28.0834 27.6008 27.3509C28.3333 26.6192 28.3333 25.4401 28.3333 23.0834V18.9167C28.3333 16.5601 28.3333 15.3809 27.6008 14.6492C26.8692 13.9167 25.69 13.9167 23.3333 13.9167Z" stroke="white" stroke-width="1.375" stroke-linecap="round" stroke-linejoin="round"/>
<defs>
<linearGradient id="paint0_linear_561_3783" x1="10.0435" y1="3.65217" x2="33.3261" y2="40.1739" gradientUnits="userSpaceOnUse">
<stop stop-color="#DBA0FF"/>
<stop offset="1" stop-color="#7A27EF"/>
</linearGradient>
</defs>
</svg>
