<svg width="42" height="42" viewBox="0 0 42 42" fill="none" xmlns="http://www.w3.org/2000/svg">
<rect x="0.3" y="0.3" width="41.4" height="41.4" rx="20.7" fill="#E9B1FF" fill-opacity="0.1"/>
<rect x="0.3" y="0.3" width="41.4" height="41.4" rx="20.7" stroke="url(#paint0_linear_2291_1979)" stroke-width="0.6"/>
<path d="M27.0133 22.9167C27.2964 22.9167 27.5768 22.9725 27.8384 23.0809C28.1001 23.1892 28.3378 23.3481 28.538 23.5483C28.7382 23.7485 28.897 23.9862 29.0054 24.2478C29.1138 24.5094 29.1695 24.7898 29.1695 25.073V25.9393C29.1697 26.4574 29.0578 26.9693 28.8416 27.4401C28.6254 27.9108 28.31 28.3293 27.917 28.6667C26.4172 29.9547 24.2696 30.5834 21.5 30.5834C18.7304 30.5834 16.5857 29.9547 15.0887 28.6667C14.6963 28.3295 14.3813 27.9115 14.1652 27.4412C13.9492 26.971 13.8373 26.4597 13.8372 25.9422V25.072C13.8374 24.5003 14.0647 23.9521 14.469 23.548C14.8734 23.1438 15.4217 22.9167 15.9934 22.9167H27.0133ZM27.0133 24.3542H15.9924C15.8018 24.3542 15.619 24.43 15.4842 24.5648C15.3494 24.6996 15.2737 24.8824 15.2737 25.073V25.9422C15.2737 26.5699 15.5487 27.167 16.025 27.5771C17.2306 28.614 19.0476 29.1459 21.5 29.1459C23.9524 29.1459 25.7722 28.6121 26.9817 27.5742C27.2172 27.3717 27.4062 27.1207 27.5357 26.8383C27.6652 26.556 27.7322 26.249 27.732 25.9384V25.0711C27.732 24.8805 27.6563 24.6976 27.5215 24.5628C27.3867 24.4281 27.2039 24.3523 27.0133 24.3523M21.5 11.4167C21.6737 11.4168 21.8415 11.4797 21.9724 11.5938C22.1033 11.708 22.1884 11.8657 22.212 12.0377L22.2187 12.1355L22.2178 12.8533H25.5719C26.1438 12.8533 26.6923 13.0805 27.0966 13.4848C27.501 13.8892 27.7282 14.4377 27.7282 15.0095V19.3268C27.7282 19.8987 27.501 20.4472 27.0966 20.8515C26.6923 21.2559 26.1438 21.4831 25.5719 21.4831H17.4261C16.8542 21.4831 16.3058 21.2559 15.9014 20.8515C15.497 20.4472 15.2699 19.8987 15.2699 19.3268V15.0105C15.2699 14.7273 15.3257 14.4468 15.4341 14.1851C15.5425 13.9234 15.7014 13.6857 15.9018 13.4855C16.1021 13.2852 16.3399 13.1264 16.6016 13.0181C16.8633 12.9098 17.1438 12.8541 17.4271 12.8542L20.7812 12.8533V12.1355C20.7813 11.9617 20.8443 11.7937 20.9587 11.6628C21.073 11.5319 21.231 11.4469 21.4032 11.4235L21.5 11.4167ZM25.5729 14.2917H17.4271C17.2365 14.2917 17.0536 14.3675 16.9188 14.5023C16.784 14.6371 16.7083 14.8199 16.7083 15.0105V19.3268C16.7083 19.7236 17.0303 20.0456 17.4271 20.0456H25.5729C25.7635 20.0456 25.9464 19.9699 26.0811 19.8351C26.2159 19.7003 26.2917 19.5175 26.2917 19.3268V15.0105C26.2917 14.8199 26.2159 14.6371 26.0811 14.5023C25.9464 14.3675 25.7635 14.2917 25.5729 14.2917ZM19.3437 15.7292C19.505 15.7228 19.6658 15.749 19.8167 15.8062C19.9675 15.8635 20.1052 15.9506 20.2216 16.0624C20.3379 16.1742 20.4305 16.3083 20.4937 16.4567C20.557 16.6052 20.5896 16.7649 20.5896 16.9262C20.5896 17.0876 20.557 17.2472 20.4937 17.3957C20.4305 17.5441 20.3379 17.6782 20.2216 17.79C20.1052 17.9018 19.9675 17.9889 19.8167 18.0462C19.6658 18.1034 19.505 18.1296 19.3437 18.1232C19.0346 18.1108 18.7422 17.9793 18.5278 17.7562C18.3135 17.533 18.1937 17.2356 18.1937 16.9262C18.1937 16.6168 18.3135 16.3194 18.5278 16.0963C18.7422 15.8731 19.0346 15.7416 19.3437 15.7292ZM23.6486 15.7292C23.8098 15.7228 23.9706 15.749 24.1215 15.8062C24.2723 15.8635 24.4101 15.9506 24.5264 16.0624C24.6428 16.1742 24.7353 16.3083 24.7986 16.4567C24.8618 16.6052 24.8944 16.7649 24.8944 16.9262C24.8944 17.0876 24.8618 17.2472 24.7986 17.3957C24.7353 17.5441 24.6428 17.6782 24.5264 17.79C24.4101 17.9018 24.2723 17.9889 24.1215 18.0462C23.9706 18.1034 23.8098 18.1296 23.6486 18.1232C23.3394 18.1108 23.047 17.9793 22.8327 17.7562C22.6183 17.533 22.4986 17.2356 22.4986 16.9262C22.4986 16.6168 22.6183 16.3194 22.8327 16.0963C23.047 15.8731 23.3394 15.7416 23.6486 15.7292Z" fill="white"/>
<defs>
<linearGradient id="paint0_linear_2291_1979" x1="10.0435" y1="3.65217" x2="33.3261" y2="40.1739" gradientUnits="userSpaceOnUse">
<stop stop-color="#DBA0FF"/>
<stop offset="1" stop-color="#7A27EF"/>
</linearGradient>
</defs>
</svg>
