<svg width="228" height="52" viewBox="0 0 228 52" fill="none" xmlns="http://www.w3.org/2000/svg">
<rect x="1" y="1" width="226" height="50" rx="9" fill="url(#paint0_linear_561_3750)"/>
<rect x="1" y="1" width="226" height="50" rx="9" stroke="url(#paint1_linear_561_3750)" stroke-width="2"/>
<g filter="url(#filter0_d_561_3750)">
<path d="M38.575 33V19.25H43.075C46.8417 19.25 48.725 20.6 48.725 23.3C48.7417 25.0333 48.125 26.2 46.875 26.8C45.6417 27.3833 44.0583 27.6833 42.125 27.7C41.9417 27.7 41.7417 27.6917 41.525 27.675C41.3083 27.6583 41.1417 27.6417 41.025 27.625V33H38.575ZM42.825 21.45H41.025V25.4C41.175 25.4 41.3833 25.4167 41.65 25.45L42.225 25.475C43.4917 25.475 44.475 25.3417 45.175 25.075C45.8917 24.7917 46.25 24.2167 46.25 23.35C46.25 22.6 45.9417 22.1 45.325 21.85C44.725 21.5833 43.8917 21.45 42.825 21.45ZM49.6687 33L54.8438 19.25H57.2187L62.3937 33H59.9188L58.5187 29.375H53.4437L52.0688 33H49.6687ZM54.2187 27.175H57.7187L55.9687 22.025L54.2187 27.175ZM67.7477 26.775L62.8977 19.25H65.6227L69.0977 24.575L72.5977 19.25H75.3477L70.1977 26.775V33H67.7477V26.775ZM81.2898 33L86.4648 19.25H88.8398L94.0148 33H91.5398L90.1398 29.375H85.0648L83.6898 33H81.2898ZM85.8398 27.175H89.3398L87.5898 22.025L85.8398 27.175ZM102.794 21.625C102.26 21.4917 101.702 21.425 101.119 21.425C100.269 21.425 99.6021 21.575 99.1187 21.875C98.6354 22.175 98.3938 22.5833 98.3938 23.1C98.3938 23.5333 98.6104 23.875 99.0437 24.125C99.4937 24.375 100.194 24.65 101.144 24.95C102.11 25.25 102.902 25.5417 103.519 25.825C104.152 26.1083 104.694 26.525 105.144 27.075C105.594 27.625 105.819 28.325 105.819 29.175C105.819 29.875 105.627 30.5333 105.244 31.15C104.86 31.75 104.235 32.25 103.369 32.65C102.519 33.0333 101.427 33.225 100.094 33.225C99.3104 33.225 98.5937 33.15 97.9437 33C97.2937 32.8333 96.5354 32.5833 95.6687 32.25L95.3437 32.1L96.1687 29.875L96.5437 30.025C98.0604 30.5917 99.3104 30.875 100.294 30.875C101.194 30.875 101.919 30.725 102.469 30.425C103.019 30.1083 103.294 29.6917 103.294 29.175C103.31 28.675 103.094 28.3 102.644 28.05C102.194 27.7833 101.469 27.5 100.469 27.2C99.5188 26.9 98.7354 26.6083 98.1187 26.325C97.5021 26.0417 96.9771 25.6333 96.5437 25.1C96.1104 24.55 95.8938 23.85 95.8938 23C95.8938 22.25 96.1021 21.5833 96.5188 21C96.9354 20.4167 97.5354 19.9583 98.3187 19.625C99.1021 19.2917 100.01 19.125 101.044 19.125C101.927 19.125 102.677 19.2 103.294 19.35C103.91 19.4833 104.51 19.65 105.094 19.85L105.369 19.95L104.569 22.175C103.935 21.925 103.344 21.7417 102.794 21.625ZM117.357 26.775L112.507 19.25H115.232L118.707 24.575L122.207 19.25H124.957L119.807 26.775V33H117.357V26.775ZM129.416 19.975C130.45 19.375 131.6 19.075 132.866 19.075C134.133 19.075 135.275 19.3583 136.291 19.925C137.325 20.4917 138.141 21.3 138.741 22.35C139.341 23.4 139.641 24.6167 139.641 26C139.641 27.3833 139.341 28.625 138.741 29.725C138.158 30.8083 137.341 31.6583 136.291 32.275C135.258 32.875 134.091 33.175 132.791 33.175C131.625 33.175 130.525 32.9083 129.491 32.375C128.475 31.825 127.65 31.0167 127.016 29.95C126.383 28.8833 126.066 27.6083 126.066 26.125C126.066 24.7417 126.366 23.5167 126.966 22.45C127.566 21.3833 128.383 20.5583 129.416 19.975ZM134.841 21.85C134.175 21.5167 133.483 21.35 132.766 21.35C132.033 21.35 131.35 21.5167 130.716 21.85C130.083 22.1667 129.566 22.675 129.166 23.375C128.766 24.0583 128.566 24.925 128.566 25.975C128.566 26.9583 128.758 27.825 129.141 28.575C129.525 29.3083 130.05 29.875 130.716 30.275C131.383 30.675 132.125 30.875 132.941 30.875C133.658 30.875 134.333 30.7083 134.966 30.375C135.616 30.0417 136.141 29.5167 136.541 28.8C136.941 28.0833 137.141 27.1917 137.141 26.125C137.141 25.0417 136.925 24.1417 136.491 23.425C136.058 22.7083 135.508 22.1833 134.841 21.85ZM151.358 32.35C150.541 32.9333 149.299 33.225 147.633 33.225C145.999 33.225 144.766 32.9333 143.933 32.35C143.116 31.7667 142.591 31.1083 142.358 30.375C142.141 29.6417 142.033 28.8583 142.033 28.025V19.25H144.458V27.9C144.458 28.3 144.499 28.6917 144.583 29.075C144.733 29.675 145.074 30.1417 145.608 30.475C146.141 30.7917 146.816 30.95 147.633 30.95C148.483 30.95 149.174 30.7917 149.708 30.475C150.241 30.1417 150.591 29.675 150.758 29.075C150.808 28.725 150.833 28.3333 150.833 27.9V19.25H153.283V28.025C153.283 28.8583 153.166 29.6417 152.933 30.375C152.716 31.1083 152.191 31.7667 151.358 32.35ZM167.509 25.325H173.509V31.575C172.292 32.625 170.584 33.175 168.384 33.225C166.817 33.225 165.492 32.8833 164.409 32.2C163.325 31.5 162.517 30.6083 161.984 29.525C161.45 28.4417 161.184 27.3083 161.184 26.125C161.184 24.8917 161.467 23.7417 162.034 22.675C162.6 21.6083 163.425 20.75 164.509 20.1C165.609 19.45 166.9 19.125 168.384 19.125C170.017 19.125 171.542 19.5333 172.959 20.35L173.309 20.55L172.284 22.425L171.934 22.275C171.467 22.025 170.925 21.8167 170.309 21.65C169.709 21.4667 169.092 21.375 168.459 21.375C167.625 21.375 166.842 21.5667 166.109 21.95C165.375 22.3167 164.784 22.8583 164.334 23.575C163.884 24.275 163.659 25.0917 163.659 26.025C163.659 26.9583 163.875 27.8 164.309 28.55C164.759 29.3 165.367 29.8917 166.134 30.325C166.917 30.7417 167.8 30.95 168.784 30.95C169.317 30.95 169.75 30.9083 170.084 30.825C170.434 30.7417 170.775 30.6083 171.109 30.425V27.5H167.509V25.325ZM178.987 19.975C180.02 19.375 181.17 19.075 182.437 19.075C183.703 19.075 184.845 19.3583 185.862 19.925C186.895 20.4917 187.712 21.3 188.312 22.35C188.912 23.4 189.212 24.6167 189.212 26C189.212 27.3833 188.912 28.625 188.312 29.725C187.728 30.8083 186.912 31.6583 185.862 32.275C184.828 32.875 183.662 33.175 182.362 33.175C181.195 33.175 180.095 32.9083 179.062 32.375C178.045 31.825 177.22 31.0167 176.587 29.95C175.953 28.8833 175.637 27.6083 175.637 26.125C175.637 24.7417 175.937 23.5167 176.537 22.45C177.137 21.3833 177.953 20.5583 178.987 19.975ZM184.412 21.85C183.745 21.5167 183.053 21.35 182.337 21.35C181.603 21.35 180.92 21.5167 180.287 21.85C179.653 22.1667 179.137 22.675 178.737 23.375C178.337 24.0583 178.137 24.925 178.137 25.975C178.137 26.9583 178.328 27.825 178.712 28.575C179.095 29.3083 179.62 29.875 180.287 30.275C180.953 30.675 181.695 30.875 182.512 30.875C183.228 30.875 183.903 30.7083 184.537 30.375C185.187 30.0417 185.712 29.5167 186.112 28.8C186.512 28.0833 186.712 27.1917 186.712 26.125C186.712 25.0417 186.495 24.1417 186.062 23.425C185.628 22.7083 185.078 22.1833 184.412 21.85Z" fill="white"/>
</g>
<defs>
<filter id="filter0_d_561_3750" x="34.575" y="17.075" width="158.637" height="22.15" filterUnits="userSpaceOnUse" color-interpolation-filters="sRGB">
<feFlood flood-opacity="0" result="BackgroundImageFix"/>
<feColorMatrix in="SourceAlpha" type="matrix" values="0 0 0 0 0 0 0 0 0 0 0 0 0 0 0 0 0 0 127 0" result="hardAlpha"/>
<feOffset dy="2"/>
<feGaussianBlur stdDeviation="2"/>
<feComposite in2="hardAlpha" operator="out"/>
<feColorMatrix type="matrix" values="0 0 0 0 0 0 0 0 0 0 0 0 0 0 0 0 0 0 0.25 0"/>
<feBlend mode="normal" in2="BackgroundImageFix" result="effect1_dropShadow_561_3750"/>
<feBlend mode="normal" in="SourceGraphic" in2="effect1_dropShadow_561_3750" result="shape"/>
</filter>
<linearGradient id="paint0_linear_561_3750" x1="8.63637" y1="-97.24" x2="274.872" y2="183.247" gradientUnits="userSpaceOnUse">
<stop stop-color="#F6E6FF"/>
<stop offset="0.25" stop-color="#D692FF"/>
<stop offset="0.5" stop-color="#8148ED"/>
<stop offset="0.75" stop-color="#4829C3"/>
<stop offset="1" stop-color="#090422"/>
</linearGradient>
<linearGradient id="paint1_linear_561_3750" x1="0" y1="26" x2="228" y2="26" gradientUnits="userSpaceOnUse">
<stop stop-color="#6E40E1"/>
<stop offset="1" stop-color="#7A27EF"/>
</linearGradient>
</defs>
</svg>
