<svg width="106" height="104" viewBox="0 0 106 104" fill="none" xmlns="http://www.w3.org/2000/svg">
<path d="M37.0195 42.8925C36.8722 43.7112 36.6954 44.5537 36.5115 45.3779C34.7425 52.6995 32.6285 60.4605 27.508 65.5142C26.5214 66.4163 25.4053 67.1397 24.1834 67.5748C18.7381 69.2493 12.3907 67.2029 6.68635 65.1514C5.8971 64.8513 5.11065 64.5394 4.3336 64.1971C5.04801 64.6571 5.78261 65.0848 6.52676 65.4962C11.961 68.3114 18.1063 71.1758 24.8094 69.4127C26.3366 68.916 27.709 68.0418 28.8563 66.9914C34.7228 61.1032 36.1283 52.9757 36.8873 45.4343C36.9533 44.5876 37.0048 43.7248 37.0195 42.8925Z" fill="white"/>
<path d="M12.1304 60.7749C11.8612 60.8309 11.5934 60.8899 11.327 60.9519C8.92986 61.5099 6.6501 62.311 4.48775 63.3552C4.21821 63.4854 3.9505 63.6193 3.68462 63.757L2.82699 64.1419L3.21654 65.0579C4.14659 66.9439 5.26468 68.7435 6.57081 70.4569C6.7366 70.6744 6.90542 70.8905 7.07727 71.1052C7.02661 70.8349 6.97292 70.566 6.91619 70.2985C6.46933 68.1909 5.83443 66.1695 5.01148 64.2344L4.5434 65.5353C4.81659 65.4127 5.08795 65.2864 5.35748 65.1562C7.51983 64.112 9.56476 62.8246 11.4923 61.2941C11.7064 61.124 11.9192 60.951 12.1304 60.7749Z" fill="white"/>
<path d="M24.7088 21.3241L25.2782 19.199L36.3381 22.1625L35.7687 24.2875L31.422 23.1229L28.4327 34.2793L26.0662 33.6452L29.0555 22.4888L24.7088 21.3241ZM36.611 26.532L38.2531 26.972L38.3617 27.7258C39.3616 27.4071 40.3445 27.3771 41.3104 27.6359C41.9061 27.7955 42.4372 28.0673 42.9037 28.4511L41.882 30.429L41.7789 30.4273C41.3178 29.9587 40.7009 29.6208 39.9282 29.4138C39.3969 29.2714 38.8661 29.2241 38.3357 29.2718L36.4204 36.4196L34.1264 35.8049L36.611 26.532ZM44.8227 38.7486L43.1733 28.2904L45.8054 28.9957L46.6737 36.8635L51.0697 30.4062L53.4845 31.0533L43.9921 43.7801L41.4083 43.0878L44.8227 38.7486ZM60.1366 32.8357L61.7787 33.2757L61.8873 34.0295C63.1243 33.7915 64.2661 33.8128 65.3125 34.0932C66.2945 34.3563 66.9688 34.7699 67.3353 35.334C67.7179 35.9024 67.8959 36.4936 67.8694 37.1077C67.859 37.726 67.7568 38.3974 67.5626 39.1219L66.1521 44.3862L63.858 43.7715L65.3462 38.2174C65.4756 37.7345 65.4713 37.2674 65.3334 36.8164C65.1954 36.3653 64.8125 36.0556 64.1847 35.8874C63.6212 35.7364 62.8273 35.7049 61.803 35.7928L59.946 42.7233L57.6519 42.1086L60.1366 32.8357ZM75.367 46.4412C74.5347 46.6496 73.6437 46.6265 72.6938 46.372C71.744 46.1175 70.9608 45.6919 70.3442 45.0953C69.748 44.487 69.3457 43.7666 69.1374 42.9344C68.9451 42.1064 68.9741 41.2255 69.2243 40.2918C69.6254 38.7946 70.375 37.7359 71.473 37.1156C72.5752 36.4792 73.8508 36.3551 75.2997 36.7433C76.7486 37.1316 77.7832 37.8747 78.4035 38.9726C79.0399 40.0749 79.1618 41.3585 78.7693 42.8235C78.5148 43.7733 78.0892 44.5565 77.4926 45.1731C76.9121 45.7941 76.2036 46.2168 75.367 46.4412ZM76.2671 39.7978C75.9587 39.1458 75.4664 38.7292 74.7903 38.548C74.1302 38.3711 73.4956 38.4858 72.8864 38.8919C72.2933 39.3024 71.8694 39.9826 71.6149 40.9324C71.3647 41.8661 71.3939 42.659 71.7023 43.311C72.015 43.947 72.5094 44.3555 73.1856 44.5367C73.8939 44.7265 74.5345 44.6221 75.1072 44.2234C75.696 43.829 76.1176 43.1569 76.3721 42.2071C76.6309 41.2411 76.5959 40.4381 76.2671 39.7978ZM83.6869 46.367L87.4723 40.1603L90.0078 40.8397L90.1586 48.1011L93.8715 41.8749L96.3347 42.5349L90.5176 50.9149L88.3201 50.3261L88.0274 43.2078L84.1666 49.2132L81.945 48.6179L81.1213 38.4585L83.5844 39.1185L83.6869 46.367Z" fill="white"/>
</svg>
