<svg width="200" height="139" viewBox="0 0 200 139" fill="none" xmlns="http://www.w3.org/2000/svg">
<g filter="url(#filter0_d_561_3514)">
<rect x="8" y="4" width="184" height="122.115" rx="10" fill="url(#paint0_radial_561_3514)" fill-opacity="0.2" shape-rendering="crispEdges"/>
<rect x="8.5" y="4.5" width="183" height="121.115" rx="9.5" stroke="url(#paint1_radial_561_3514)" shape-rendering="crispEdges"/>
<path d="M39.5 64.95V59.7L54.9 45.975C56.1 44.9083 56.9333 43.9 57.4 42.95C57.8667 42 58.1 41.0833 58.1 40.2C58.1 39 57.8417 37.9333 57.325 37C56.8083 36.05 56.0917 35.3 55.175 34.75C54.275 34.2 53.2333 33.925 52.05 33.925C50.8 33.925 49.6917 34.2167 48.725 34.8C47.775 35.3667 47.0333 36.125 46.5 37.075C45.9667 38.025 45.7167 39.05 45.75 40.15H39.55C39.55 37.75 40.0833 35.6583 41.15 33.875C42.2333 32.0917 43.7167 30.7083 45.6 29.725C47.5 28.7417 49.6917 28.25 52.175 28.25C54.475 28.25 56.5417 28.7667 58.375 29.8C60.2083 30.8167 61.65 32.2333 62.7 34.05C63.75 35.85 64.275 37.925 64.275 40.275C64.275 41.9917 64.0417 43.4333 63.575 44.6C63.1083 45.7667 62.4083 46.8417 61.475 47.825C60.5583 48.8083 59.4167 49.9 58.05 51.1L47.125 60.775L46.575 59.275H64.275V64.95H39.5ZM84.2586 65V59.05H68.3086V53.425L79.8336 29H86.7086L75.1836 53.425H84.2586V44.05H90.3586V53.425H93.7336V59.05H90.3586V65H84.2586ZM108.829 29H114.879L105.279 65H99.2285L108.829 29ZM123.184 65L135.584 34.7H119.859V29H142.034V34.7L129.684 65H123.184Z" fill="white"/>
<path d="M36.935 91L41.03 81.9H42.694L46.802 91H45.034L41.511 82.797H42.187L38.677 91H36.935ZM38.82 88.894L39.275 87.568H44.189L44.644 88.894H38.82ZM49.4238 91L46.4468 84.058H48.1368L50.6978 90.181H49.8658L52.5178 84.058H54.0778L51.1008 91H49.4238ZM59.2846 91V89.596L59.1936 89.297V86.84C59.1936 86.3633 59.0506 85.995 58.7646 85.735C58.4786 85.4663 58.0453 85.332 57.4646 85.332C57.0746 85.332 56.689 85.3927 56.3076 85.514C55.935 85.6353 55.6186 85.8043 55.3586 86.021L54.7216 84.838C55.0943 84.552 55.5363 84.3397 56.0476 84.201C56.5676 84.0537 57.105 83.98 57.6596 83.98C58.665 83.98 59.4406 84.2227 59.9866 84.708C60.5413 85.1847 60.8186 85.9257 60.8186 86.931V91H59.2846ZM57.1006 91.091C56.5806 91.091 56.1256 91.0043 55.7356 90.831C55.3456 90.649 55.0423 90.402 54.8256 90.09C54.6176 89.7693 54.5136 89.4097 54.5136 89.011C54.5136 88.621 54.6046 88.27 54.7866 87.958C54.9773 87.646 55.285 87.399 55.7096 87.217C56.1343 87.035 56.6976 86.944 57.3996 86.944H59.4146V88.023H57.5166C56.962 88.023 56.5893 88.114 56.3986 88.296C56.208 88.4693 56.1126 88.686 56.1126 88.946C56.1126 89.2407 56.2296 89.4747 56.4636 89.648C56.6976 89.8213 57.0226 89.908 57.4386 89.908C57.8373 89.908 58.1926 89.817 58.5046 89.635C58.8253 89.453 59.055 89.1843 59.1936 88.829L59.4666 89.804C59.3106 90.2113 59.029 90.5277 58.6216 90.753C58.223 90.9783 57.716 91.091 57.1006 91.091ZM63.0341 91V84.058H64.6591V91H63.0341ZM63.8531 82.914C63.5498 82.914 63.2985 82.8187 63.0991 82.628C62.9085 82.4373 62.8131 82.2077 62.8131 81.939C62.8131 81.6617 62.9085 81.432 63.0991 81.25C63.2985 81.0593 63.5498 80.964 63.8531 80.964C64.1565 80.964 64.4035 81.055 64.5941 81.237C64.7935 81.4103 64.8931 81.6313 64.8931 81.9C64.8931 82.186 64.7978 82.4287 64.6071 82.628C64.4165 82.8187 64.1651 82.914 63.8531 82.914ZM66.9219 91V81.354H68.5469V91H66.9219ZM75.0868 91V89.596L74.9958 89.297V86.84C74.9958 86.3633 74.8528 85.995 74.5668 85.735C74.2808 85.4663 73.8474 85.332 73.2668 85.332C72.8768 85.332 72.4911 85.3927 72.1098 85.514C71.7371 85.6353 71.4208 85.8043 71.1608 86.021L70.5238 84.838C70.8964 84.552 71.3384 84.3397 71.8498 84.201C72.3698 84.0537 72.9071 83.98 73.4618 83.98C74.4671 83.98 75.2428 84.2227 75.7888 84.708C76.3434 85.1847 76.6208 85.9257 76.6208 86.931V91H75.0868ZM72.9028 91.091C72.3828 91.091 71.9278 91.0043 71.5378 90.831C71.1478 90.649 70.8444 90.402 70.6278 90.09C70.4198 89.7693 70.3158 89.4097 70.3158 89.011C70.3158 88.621 70.4068 88.27 70.5888 87.958C70.7794 87.646 71.0871 87.399 71.5118 87.217C71.9364 87.035 72.4998 86.944 73.2018 86.944H75.2168V88.023H73.3188C72.7641 88.023 72.3914 88.114 72.2008 88.296C72.0101 88.4693 71.9148 88.686 71.9148 88.946C71.9148 89.2407 72.0318 89.4747 72.2658 89.648C72.4998 89.8213 72.8248 89.908 73.2408 89.908C73.6394 89.908 73.9948 89.817 74.3068 89.635C74.6274 89.453 74.8571 89.1843 74.9958 88.829L75.2688 89.804C75.1128 90.2113 74.8311 90.5277 74.4238 90.753C74.0251 90.9783 73.5181 91.091 72.9028 91.091ZM82.6842 91.091C82.0949 91.091 81.5706 90.961 81.1112 90.701C80.6519 90.441 80.2879 90.051 80.0192 89.531C79.7592 89.0023 79.6292 88.335 79.6292 87.529C79.6292 86.7143 79.7636 86.047 80.0322 85.527C80.3096 85.007 80.6779 84.6213 81.1372 84.37C81.6052 84.11 82.1209 83.98 82.6842 83.98C83.3689 83.98 83.9712 84.1273 84.4912 84.422C85.0199 84.7167 85.4359 85.1283 85.7392 85.657C86.0512 86.1857 86.2072 86.8097 86.2072 87.529C86.2072 88.2483 86.0512 88.8723 85.7392 89.401C85.4359 89.9297 85.0199 90.3457 84.4912 90.649C83.9712 90.9437 83.3689 91.091 82.6842 91.091ZM78.8362 91V81.354H80.4612V85.67L80.3312 87.516L80.3832 89.362V91H78.8362ZM82.5022 89.7C82.8922 89.7 83.2389 89.6133 83.5422 89.44C83.8542 89.2667 84.1012 89.0153 84.2832 88.686C84.4652 88.3567 84.5562 87.971 84.5562 87.529C84.5562 87.0783 84.4652 86.6927 84.2832 86.372C84.1012 86.0427 83.8542 85.7913 83.5422 85.618C83.2389 85.4447 82.8922 85.358 82.5022 85.358C82.1122 85.358 81.7612 85.4447 81.4492 85.618C81.1372 85.7913 80.8902 86.0427 80.7082 86.372C80.5262 86.6927 80.4352 87.0783 80.4352 87.529C80.4352 87.971 80.5262 88.3567 80.7082 88.686C80.8902 89.0153 81.1372 89.2667 81.4492 89.44C81.7612 89.6133 82.1122 89.7 82.5022 89.7ZM87.8783 91V81.354H89.5033V91H87.8783ZM95.0292 91.091C94.2578 91.091 93.5818 90.9393 93.0012 90.636C92.4292 90.324 91.9828 89.8993 91.6622 89.362C91.3502 88.8247 91.1942 88.2137 91.1942 87.529C91.1942 86.8357 91.3458 86.2247 91.6492 85.696C91.9612 85.1587 92.3858 84.7383 92.9232 84.435C93.4692 84.1317 94.0888 83.98 94.7822 83.98C95.4582 83.98 96.0605 84.1273 96.5892 84.422C97.1178 84.7167 97.5338 85.1327 97.8372 85.67C98.1405 86.2073 98.2922 86.84 98.2922 87.568C98.2922 87.6373 98.2878 87.7153 98.2792 87.802C98.2792 87.8887 98.2748 87.971 98.2662 88.049H92.4812V86.97H97.4082L96.7712 87.308C96.7798 86.9093 96.6975 86.5583 96.5242 86.255C96.3508 85.9517 96.1125 85.7133 95.8092 85.54C95.5145 85.3667 95.1722 85.28 94.7822 85.28C94.3835 85.28 94.0325 85.3667 93.7292 85.54C93.4345 85.7133 93.2005 85.956 93.0272 86.268C92.8625 86.5713 92.7802 86.931 92.7802 87.347V87.607C92.7802 88.023 92.8755 88.3913 93.0662 88.712C93.2568 89.0327 93.5255 89.2797 93.8722 89.453C94.2188 89.6263 94.6175 89.713 95.0682 89.713C95.4582 89.713 95.8092 89.6523 96.1212 89.531C96.4332 89.4097 96.7105 89.219 96.9532 88.959L97.8242 89.96C97.5122 90.324 97.1178 90.6057 96.6412 90.805C96.1732 90.9957 95.6358 91.091 95.0292 91.091ZM41.251 107.091C40.523 107.091 39.873 106.939 39.301 106.636C38.7377 106.324 38.2957 105.899 37.975 105.362C37.6543 104.825 37.494 104.214 37.494 103.529C37.494 102.836 37.6543 102.225 37.975 101.696C38.2957 101.159 38.7377 100.738 39.301 100.435C39.873 100.132 40.523 99.98 41.251 99.98C41.927 99.98 42.5207 100.119 43.032 100.396C43.552 100.665 43.9463 101.063 44.215 101.592L42.967 102.32C42.759 101.991 42.5033 101.748 42.2 101.592C41.9053 101.436 41.5847 101.358 41.238 101.358C40.8393 101.358 40.4797 101.445 40.159 101.618C39.8383 101.791 39.587 102.043 39.405 102.372C39.223 102.693 39.132 103.078 39.132 103.529C39.132 103.98 39.223 104.37 39.405 104.699C39.587 105.02 39.8383 105.267 40.159 105.44C40.4797 105.613 40.8393 105.7 41.238 105.7C41.5847 105.7 41.9053 105.622 42.2 105.466C42.5033 105.31 42.759 105.067 42.967 104.738L44.215 105.466C43.9463 105.986 43.552 106.389 43.032 106.675C42.5207 106.952 41.927 107.091 41.251 107.091ZM48.6877 107.091C48.0984 107.091 47.5784 106.983 47.1277 106.766C46.677 106.541 46.326 106.203 46.0747 105.752C45.8234 105.293 45.6977 104.716 45.6977 104.023V100.058H47.3227V103.802C47.3227 104.426 47.4614 104.894 47.7387 105.206C48.0247 105.509 48.4277 105.661 48.9477 105.661C49.329 105.661 49.6584 105.583 49.9357 105.427C50.2217 105.271 50.4427 105.037 50.5987 104.725C50.7634 104.413 50.8457 104.027 50.8457 103.568V100.058H52.4707V107H50.9237V105.128L51.1967 105.7C50.9627 106.151 50.6204 106.497 50.1697 106.74C49.719 106.974 49.225 107.091 48.6877 107.091ZM56.8733 107.091C56.2927 107.091 55.7337 107.017 55.1963 106.87C54.6677 106.714 54.2473 106.528 53.9353 106.311L54.5593 105.076C54.8713 105.275 55.244 105.44 55.6773 105.57C56.1107 105.7 56.544 105.765 56.9773 105.765C57.4887 105.765 57.857 105.696 58.0823 105.557C58.3163 105.418 58.4333 105.232 58.4333 104.998C58.4333 104.807 58.3553 104.664 58.1993 104.569C58.0433 104.465 57.8397 104.387 57.5883 104.335C57.337 104.283 57.0553 104.235 56.7433 104.192C56.44 104.149 56.1323 104.092 55.8203 104.023C55.517 103.945 55.2397 103.837 54.9883 103.698C54.737 103.551 54.5333 103.356 54.3773 103.113C54.2213 102.87 54.1433 102.55 54.1433 102.151C54.1433 101.709 54.269 101.328 54.5203 101.007C54.7717 100.678 55.1227 100.426 55.5733 100.253C56.0327 100.071 56.5743 99.98 57.1983 99.98C57.6663 99.98 58.1387 100.032 58.6153 100.136C59.092 100.24 59.4863 100.387 59.7983 100.578L59.1743 101.813C58.845 101.614 58.5113 101.479 58.1733 101.41C57.844 101.332 57.5147 101.293 57.1853 101.293C56.6913 101.293 56.323 101.367 56.0803 101.514C55.8463 101.661 55.7293 101.848 55.7293 102.073C55.7293 102.281 55.8073 102.437 55.9633 102.541C56.1193 102.645 56.323 102.727 56.5743 102.788C56.8257 102.849 57.103 102.901 57.4063 102.944C57.7183 102.979 58.026 103.035 58.3293 103.113C58.6327 103.191 58.91 103.299 59.1613 103.438C59.4213 103.568 59.6293 103.754 59.7853 103.997C59.9413 104.24 60.0193 104.556 60.0193 104.946C60.0193 105.379 59.8893 105.756 59.6293 106.077C59.378 106.398 59.0183 106.649 58.5503 106.831C58.0823 107.004 57.5233 107.091 56.8733 107.091ZM64.1618 107.091C63.3991 107.091 62.8098 106.896 62.3938 106.506C61.9778 106.107 61.7698 105.522 61.7698 104.751V98.524H63.3948V104.712C63.3948 105.041 63.4771 105.297 63.6418 105.479C63.8151 105.661 64.0534 105.752 64.3568 105.752C64.7208 105.752 65.0241 105.657 65.2668 105.466L65.7218 106.623C65.5311 106.779 65.2971 106.896 65.0198 106.974C64.7424 107.052 64.4564 107.091 64.1618 107.091ZM60.6258 101.41V100.11H65.2538V101.41H60.6258ZM70.08 107.091C69.3694 107.091 68.7367 106.939 68.182 106.636C67.6274 106.324 67.1897 105.899 66.869 105.362C66.5484 104.825 66.388 104.214 66.388 103.529C66.388 102.836 66.5484 102.225 66.869 101.696C67.1897 101.159 67.6274 100.738 68.182 100.435C68.7367 100.132 69.3694 99.98 70.08 99.98C70.7994 99.98 71.4364 100.132 71.991 100.435C72.5544 100.738 72.992 101.154 73.304 101.683C73.6247 102.212 73.785 102.827 73.785 103.529C73.785 104.214 73.6247 104.825 73.304 105.362C72.992 105.899 72.5544 106.324 71.991 106.636C71.4364 106.939 70.7994 107.091 70.08 107.091ZM70.08 105.7C70.4787 105.7 70.834 105.613 71.146 105.44C71.458 105.267 71.7007 105.015 71.874 104.686C72.056 104.357 72.147 103.971 72.147 103.529C72.147 103.078 72.056 102.693 71.874 102.372C71.7007 102.043 71.458 101.791 71.146 101.618C70.834 101.445 70.483 101.358 70.093 101.358C69.6944 101.358 69.339 101.445 69.027 101.618C68.7237 101.791 68.481 102.043 68.299 102.372C68.117 102.693 68.026 103.078 68.026 103.529C68.026 103.971 68.117 104.357 68.299 104.686C68.481 105.015 68.7237 105.267 69.027 105.44C69.339 105.613 69.69 105.7 70.08 105.7ZM84.2309 99.98C84.7856 99.98 85.2753 100.088 85.6999 100.305C86.1333 100.522 86.4713 100.855 86.7139 101.306C86.9566 101.748 87.0779 102.32 87.0779 103.022V107H85.4529V103.23C85.4529 102.615 85.3186 102.155 85.0499 101.852C84.7813 101.549 84.3956 101.397 83.8929 101.397C83.5376 101.397 83.2213 101.475 82.9439 101.631C82.6753 101.787 82.4629 102.017 82.3069 102.32C82.1596 102.623 82.0859 103.009 82.0859 103.477V107H80.4609V103.23C80.4609 102.615 80.3266 102.155 80.0579 101.852C79.7893 101.549 79.4036 101.397 78.9009 101.397C78.5456 101.397 78.2293 101.475 77.9519 101.631C77.6833 101.787 77.4709 102.017 77.3149 102.32C77.1676 102.623 77.0939 103.009 77.0939 103.477V107H75.4689V100.058H77.0159V101.904L76.7429 101.358C76.9769 100.907 77.3149 100.565 77.7569 100.331C78.2076 100.097 78.7189 99.98 79.2909 99.98C79.9409 99.98 80.5043 100.14 80.9809 100.461C81.4663 100.782 81.7869 101.267 81.9429 101.917L81.3059 101.696C81.5313 101.176 81.9039 100.76 82.4239 100.448C82.9439 100.136 83.5463 99.98 84.2309 99.98ZM92.5602 107.091C91.7888 107.091 91.1128 106.939 90.5322 106.636C89.9602 106.324 89.5138 105.899 89.1932 105.362C88.8812 104.825 88.7252 104.214 88.7252 103.529C88.7252 102.836 88.8768 102.225 89.1802 101.696C89.4922 101.159 89.9168 100.738 90.4542 100.435C91.0002 100.132 91.6198 99.98 92.3132 99.98C92.9892 99.98 93.5915 100.127 94.1202 100.422C94.6488 100.717 95.0648 101.133 95.3682 101.67C95.6715 102.207 95.8232 102.84 95.8232 103.568C95.8232 103.637 95.8188 103.715 95.8102 103.802C95.8102 103.889 95.8058 103.971 95.7972 104.049H90.0122V102.97H94.9392L94.3022 103.308C94.3108 102.909 94.2285 102.558 94.0552 102.255C93.8818 101.952 93.6435 101.713 93.3402 101.54C93.0455 101.367 92.7032 101.28 92.3132 101.28C91.9145 101.28 91.5635 101.367 91.2602 101.54C90.9655 101.713 90.7315 101.956 90.5582 102.268C90.3935 102.571 90.3112 102.931 90.3112 103.347V103.607C90.3112 104.023 90.4065 104.391 90.5972 104.712C90.7878 105.033 91.0565 105.28 91.4032 105.453C91.7498 105.626 92.1485 105.713 92.5992 105.713C92.9892 105.713 93.3402 105.652 93.6522 105.531C93.9642 105.41 94.2415 105.219 94.4842 104.959L95.3552 105.96C95.0432 106.324 94.6488 106.606 94.1722 106.805C93.7042 106.996 93.1668 107.091 92.5602 107.091ZM97.5141 107V100.058H99.0611V101.969L98.8791 101.41C99.0871 100.942 99.4121 100.587 99.8541 100.344C100.305 100.101 100.864 99.98 101.531 99.98V101.527C101.462 101.51 101.397 101.501 101.336 101.501C101.275 101.492 101.215 101.488 101.154 101.488C100.539 101.488 100.049 101.67 99.6851 102.034C99.3211 102.389 99.1391 102.922 99.1391 103.633V107H97.5141ZM108.971 107.091C108.39 107.091 107.831 107.017 107.294 106.87C106.765 106.714 106.345 106.528 106.033 106.311L106.657 105.076C106.969 105.275 107.342 105.44 107.775 105.57C108.208 105.7 108.642 105.765 109.075 105.765C109.586 105.765 109.955 105.696 110.18 105.557C110.414 105.418 110.531 105.232 110.531 104.998C110.531 104.807 110.453 104.664 110.297 104.569C110.141 104.465 109.937 104.387 109.686 104.335C109.435 104.283 109.153 104.235 108.841 104.192C108.538 104.149 108.23 104.092 107.918 104.023C107.615 103.945 107.337 103.837 107.086 103.698C106.835 103.551 106.631 103.356 106.475 103.113C106.319 102.87 106.241 102.55 106.241 102.151C106.241 101.709 106.367 101.328 106.618 101.007C106.869 100.678 107.22 100.426 107.671 100.253C108.13 100.071 108.672 99.98 109.296 99.98C109.764 99.98 110.236 100.032 110.713 100.136C111.19 100.24 111.584 100.387 111.896 100.578L111.272 101.813C110.943 101.614 110.609 101.479 110.271 101.41C109.942 101.332 109.612 101.293 109.283 101.293C108.789 101.293 108.421 101.367 108.178 101.514C107.944 101.661 107.827 101.848 107.827 102.073C107.827 102.281 107.905 102.437 108.061 102.541C108.217 102.645 108.421 102.727 108.672 102.788C108.923 102.849 109.201 102.901 109.504 102.944C109.816 102.979 110.124 103.035 110.427 103.113C110.73 103.191 111.008 103.299 111.259 103.438C111.519 103.568 111.727 103.754 111.883 103.997C112.039 104.24 112.117 104.556 112.117 104.946C112.117 105.379 111.987 105.756 111.727 106.077C111.476 106.398 111.116 106.649 110.648 106.831C110.18 107.004 109.621 107.091 108.971 107.091ZM116.909 107.091C116.138 107.091 115.462 106.939 114.881 106.636C114.309 106.324 113.863 105.899 113.542 105.362C113.23 104.825 113.074 104.214 113.074 103.529C113.074 102.836 113.226 102.225 113.529 101.696C113.841 101.159 114.266 100.738 114.803 100.435C115.349 100.132 115.969 99.98 116.662 99.98C117.338 99.98 117.941 100.127 118.469 100.422C118.998 100.717 119.414 101.133 119.717 101.67C120.021 102.207 120.172 102.84 120.172 103.568C120.172 103.637 120.168 103.715 120.159 103.802C120.159 103.889 120.155 103.971 120.146 104.049H114.361V102.97H119.288L118.651 103.308C118.66 102.909 118.578 102.558 118.404 102.255C118.231 101.952 117.993 101.713 117.689 101.54C117.395 101.367 117.052 101.28 116.662 101.28C116.264 101.28 115.913 101.367 115.609 101.54C115.315 101.713 115.081 101.956 114.907 102.268C114.743 102.571 114.66 102.931 114.66 103.347V103.607C114.66 104.023 114.756 104.391 114.946 104.712C115.137 105.033 115.406 105.28 115.752 105.453C116.099 105.626 116.498 105.713 116.948 105.713C117.338 105.713 117.689 105.652 118.001 105.531C118.313 105.41 118.591 105.219 118.833 104.959L119.704 105.96C119.392 106.324 118.998 106.606 118.521 106.805C118.053 106.996 117.516 107.091 116.909 107.091ZM121.863 107V100.058H123.41V101.969L123.228 101.41C123.436 100.942 123.761 100.587 124.203 100.344C124.654 100.101 125.213 99.98 125.88 99.98V101.527C125.811 101.51 125.746 101.501 125.685 101.501C125.625 101.492 125.564 101.488 125.503 101.488C124.888 101.488 124.398 101.67 124.034 102.034C123.67 102.389 123.488 102.922 123.488 103.633V107H121.863ZM129.489 107L126.512 100.058H128.202L130.763 106.181H129.931L132.583 100.058H134.143L131.166 107H129.489ZM135.288 107V100.058H136.913V107H135.288ZM136.107 98.914C135.804 98.914 135.553 98.8187 135.353 98.628C135.163 98.4373 135.067 98.2077 135.067 97.939C135.067 97.6617 135.163 97.432 135.353 97.25C135.553 97.0593 135.804 96.964 136.107 96.964C136.411 96.964 136.658 97.055 136.848 97.237C137.048 97.4103 137.147 97.6313 137.147 97.9C137.147 98.186 137.052 98.4287 136.861 98.628C136.671 98.8187 136.419 98.914 136.107 98.914ZM142.361 107.091C141.633 107.091 140.983 106.939 140.411 106.636C139.848 106.324 139.406 105.899 139.085 105.362C138.764 104.825 138.604 104.214 138.604 103.529C138.604 102.836 138.764 102.225 139.085 101.696C139.406 101.159 139.848 100.738 140.411 100.435C140.983 100.132 141.633 99.98 142.361 99.98C143.037 99.98 143.631 100.119 144.142 100.396C144.662 100.665 145.056 101.063 145.325 101.592L144.077 102.32C143.869 101.991 143.613 101.748 143.31 101.592C143.015 101.436 142.695 101.358 142.348 101.358C141.949 101.358 141.59 101.445 141.269 101.618C140.948 101.791 140.697 102.043 140.515 102.372C140.333 102.693 140.242 103.078 140.242 103.529C140.242 103.98 140.333 104.37 140.515 104.699C140.697 105.02 140.948 105.267 141.269 105.44C141.59 105.613 141.949 105.7 142.348 105.7C142.695 105.7 143.015 105.622 143.31 105.466C143.613 105.31 143.869 105.067 144.077 104.738L145.325 105.466C145.056 105.986 144.662 106.389 144.142 106.675C143.631 106.952 143.037 107.091 142.361 107.091ZM150.021 107.091C149.25 107.091 148.574 106.939 147.993 106.636C147.421 106.324 146.975 105.899 146.654 105.362C146.342 104.825 146.186 104.214 146.186 103.529C146.186 102.836 146.338 102.225 146.641 101.696C146.953 101.159 147.378 100.738 147.915 100.435C148.461 100.132 149.081 99.98 149.774 99.98C150.45 99.98 151.053 100.127 151.581 100.422C152.11 100.717 152.526 101.133 152.829 101.67C153.133 102.207 153.284 102.84 153.284 103.568C153.284 103.637 153.28 103.715 153.271 103.802C153.271 103.889 153.267 103.971 153.258 104.049H147.473V102.97H152.4L151.763 103.308C151.772 102.909 151.69 102.558 151.516 102.255C151.343 101.952 151.105 101.713 150.801 101.54C150.507 101.367 150.164 101.28 149.774 101.28C149.376 101.28 149.025 101.367 148.721 101.54C148.427 101.713 148.193 101.956 148.019 102.268C147.855 102.571 147.772 102.931 147.772 103.347V103.607C147.772 104.023 147.868 104.391 148.058 104.712C148.249 105.033 148.518 105.28 148.864 105.453C149.211 105.626 149.61 105.713 150.06 105.713C150.45 105.713 150.801 105.652 151.113 105.531C151.425 105.41 151.703 105.219 151.945 104.959L152.816 105.96C152.504 106.324 152.11 106.606 151.633 106.805C151.165 106.996 150.628 107.091 150.021 107.091ZM157.12 107.091C156.539 107.091 155.98 107.017 155.443 106.87C154.914 106.714 154.494 106.528 154.182 106.311L154.806 105.076C155.118 105.275 155.491 105.44 155.924 105.57C156.357 105.7 156.791 105.765 157.224 105.765C157.735 105.765 158.104 105.696 158.329 105.557C158.563 105.418 158.68 105.232 158.68 104.998C158.68 104.807 158.602 104.664 158.446 104.569C158.29 104.465 158.086 104.387 157.835 104.335C157.584 104.283 157.302 104.235 156.99 104.192C156.687 104.149 156.379 104.092 156.067 104.023C155.764 103.945 155.486 103.837 155.235 103.698C154.984 103.551 154.78 103.356 154.624 103.113C154.468 102.87 154.39 102.55 154.39 102.151C154.39 101.709 154.516 101.328 154.767 101.007C155.018 100.678 155.369 100.426 155.82 100.253C156.279 100.071 156.821 99.98 157.445 99.98C157.913 99.98 158.385 100.032 158.862 100.136C159.339 100.24 159.733 100.387 160.045 100.578L159.421 101.813C159.092 101.614 158.758 101.479 158.42 101.41C158.091 101.332 157.761 101.293 157.432 101.293C156.938 101.293 156.57 101.367 156.327 101.514C156.093 101.661 155.976 101.848 155.976 102.073C155.976 102.281 156.054 102.437 156.21 102.541C156.366 102.645 156.57 102.727 156.821 102.788C157.072 102.849 157.35 102.901 157.653 102.944C157.965 102.979 158.273 103.035 158.576 103.113C158.879 103.191 159.157 103.299 159.408 103.438C159.668 103.568 159.876 103.754 160.032 103.997C160.188 104.24 160.266 104.556 160.266 104.946C160.266 105.379 160.136 105.756 159.876 106.077C159.625 106.398 159.265 106.649 158.797 106.831C158.329 107.004 157.77 107.091 157.12 107.091Z" fill="white"/>
</g>
<defs>
<filter id="filter0_d_561_3514" x="0" y="0" width="200" height="138.115" filterUnits="userSpaceOnUse" color-interpolation-filters="sRGB">
<feFlood flood-opacity="0" result="BackgroundImageFix"/>
<feColorMatrix in="SourceAlpha" type="matrix" values="0 0 0 0 0 0 0 0 0 0 0 0 0 0 0 0 0 0 127 0" result="hardAlpha"/>
<feOffset dy="4"/>
<feGaussianBlur stdDeviation="4"/>
<feComposite in2="hardAlpha" operator="out"/>
<feColorMatrix type="matrix" values="0 0 0 0 0.24896 0 0 0 0 0.0514945 0 0 0 0 0.45412 0 0 0 0.4 0"/>
<feBlend mode="normal" in2="BackgroundImageFix" result="effect1_dropShadow_561_3514"/>
<feBlend mode="normal" in="SourceGraphic" in2="effect1_dropShadow_561_3514" result="shape"/>
</filter>
<radialGradient id="paint0_radial_561_3514" cx="0" cy="0" r="1" gradientUnits="userSpaceOnUse" gradientTransform="translate(154.5 65.3735) rotate(167.925) scale(102.774 102.774)">
<stop stop-color="#7000FF"/>
<stop offset="1" stop-color="#1E0933"/>
</radialGradient>
<radialGradient id="paint1_radial_561_3514" cx="0" cy="0" r="1" gradientTransform="matrix(60.3633 61.0577 -92 102.725 68.3633 65.0577)" gradientUnits="userSpaceOnUse">
<stop stop-color="#E9B1FF"/>
<stop offset="1" stop-color="#3B0F69"/>
</radialGradient>
</defs>
</svg>
