<svg width="200" height="139" viewBox="0 0 200 139" fill="none" xmlns="http://www.w3.org/2000/svg">
<g filter="url(#filter0_d_561_3508)">
<rect x="8" y="4" width="184" height="122.115" rx="10" fill="url(#paint0_radial_561_3508)" fill-opacity="0.2" shape-rendering="crispEdges"/>
<rect x="8.5" y="4.5" width="183" height="121.115" rx="9.5" stroke="url(#paint1_radial_561_3508)" shape-rendering="crispEdges"/>
<path d="M45.5 64.95V59.7L60.9 45.975C62.1 44.9083 62.9333 43.9 63.4 42.95C63.8667 42 64.1 41.0833 64.1 40.2C64.1 39 63.8417 37.9333 63.325 37C62.8083 36.05 62.0917 35.3 61.175 34.75C60.275 34.2 59.2333 33.925 58.05 33.925C56.8 33.925 55.6917 34.2167 54.725 34.8C53.775 35.3667 53.0333 36.125 52.5 37.075C51.9667 38.025 51.7167 39.05 51.75 40.15H45.55C45.55 37.75 46.0833 35.6583 47.15 33.875C48.2333 32.0917 49.7167 30.7083 51.6 29.725C53.5 28.7417 55.6917 28.25 58.175 28.25C60.475 28.25 62.5417 28.7667 64.375 29.8C66.2083 30.8167 67.65 32.2333 68.7 34.05C69.75 35.85 70.275 37.925 70.275 40.275C70.275 41.9917 70.0417 43.4333 69.575 44.6C69.1083 45.7667 68.4083 46.8417 67.475 47.825C66.5583 48.8083 65.4167 49.9 64.05 51.1L53.125 60.775L52.575 59.275H70.275V64.95H45.5ZM86.9602 65.75C85.1268 65.75 83.4185 65.375 81.8352 64.625C80.2518 63.8583 78.8852 62.8083 77.7352 61.475C76.6018 60.1417 75.7852 58.5917 75.2852 56.825L81.0852 55.275C81.3185 56.2417 81.7435 57.075 82.3602 57.775C82.9935 58.475 83.7268 59.0167 84.5602 59.4C85.4102 59.7833 86.2852 59.975 87.1852 59.975C88.3518 59.975 89.4185 59.6917 90.3852 59.125C91.3518 58.5583 92.1185 57.8 92.6852 56.85C93.2518 55.8833 93.5352 54.8167 93.5352 53.65C93.5352 52.4833 93.2435 51.425 92.6602 50.475C92.0935 49.5083 91.3268 48.75 90.3602 48.2C89.3935 47.6333 88.3352 47.35 87.1852 47.35C85.8018 47.35 84.6518 47.6 83.7352 48.1C82.8352 48.6 82.1435 49.1333 81.6602 49.7L76.5102 48.05L77.6102 29H97.1602V34.65H80.8352L83.0852 32.525L82.2852 45.775L81.1852 44.425C82.1185 43.575 83.2018 42.9417 84.4352 42.525C85.6685 42.1083 86.8602 41.9 88.0102 41.9C90.2602 41.9 92.2518 42.4167 93.9852 43.45C95.7352 44.4667 97.1018 45.8583 98.0852 47.625C99.0852 49.3917 99.5852 51.4 99.5852 53.65C99.5852 55.9 99.0018 57.9417 97.8352 59.775C96.6685 61.5917 95.1268 63.0417 93.2102 64.125C91.3102 65.2083 89.2268 65.75 86.9602 65.75ZM114.032 58.3V49.35H105.082V44.625H114.032V35.7H118.757V44.625H127.657V49.35H118.757V58.3H114.032Z" fill="white"/>
<path d="M44.1025 89V79.375H47.3575C48.6292 79.375 49.6442 79.6025 50.4025 80.0575C51.1725 80.5008 51.715 81.0608 52.03 81.7375C52.345 82.4142 52.5025 83.1317 52.5025 83.89C52.5025 85.045 52.2283 86.0658 51.68 86.9525C51.1433 87.8392 50.2567 88.4575 49.02 88.8075C48.6467 88.8892 48.2733 88.9417 47.9 88.965C47.5383 88.9883 47.0717 89 46.5 89H44.1025ZM49.895 81.7375C49.3233 81.1892 48.4892 80.915 47.3925 80.915H45.8175V87.4425H46.9375C47.6842 87.4425 48.355 87.3492 48.95 87.1625C49.545 86.9758 50.0058 86.5617 50.3325 85.92C50.4492 85.745 50.5483 85.5058 50.63 85.2025C50.7117 84.8875 50.7525 84.5258 50.7525 84.1175C50.7525 83.0675 50.4667 82.2742 49.895 81.7375ZM55.2817 82.6125C55.7601 82.3208 56.2734 82.175 56.8217 82.175C57.8367 82.175 58.6126 82.49 59.1492 83.12C59.6976 83.7383 59.9717 84.59 59.9717 85.675V86.3225H55.4042C55.4509 86.8942 55.6492 87.2908 55.9992 87.5125C56.3492 87.7342 56.8451 87.845 57.4867 87.845C58.1634 87.845 58.7817 87.775 59.3417 87.635L59.6392 88.7725C58.8809 89.0408 58.0876 89.175 57.2592 89.175C56.1042 89.175 55.2234 88.8542 54.6167 88.2125C54.0101 87.5708 53.7067 86.725 53.7067 85.675C53.7067 84.975 53.8526 84.3625 54.1442 83.8375C54.4359 83.3008 54.8151 82.8925 55.2817 82.6125ZM57.9067 83.925C57.6384 83.6333 57.2884 83.4875 56.8567 83.4875C56.5067 83.4875 56.1859 83.6333 55.8942 83.925C55.6142 84.2167 55.4626 84.625 55.4392 85.15H58.3092C58.3092 84.6133 58.1751 84.205 57.9067 83.925ZM65.8627 82.455V79.375H67.5427V89H66.3352L66.2127 88.6325C65.6177 88.9825 65.0168 89.1575 64.4102 89.1575C63.3485 89.1575 62.5085 88.8425 61.8902 88.2125C61.2835 87.5825 60.9802 86.7308 60.9802 85.6575C60.9802 84.8525 61.1493 84.1875 61.4877 83.6625C61.8377 83.1375 62.2635 82.7583 62.7652 82.525C63.2668 82.2917 63.7685 82.175 64.2702 82.175C64.9118 82.175 65.4427 82.2683 65.8627 82.455ZM65.8627 83.715C65.5127 83.5633 65.1102 83.4875 64.6552 83.4875C63.3602 83.4875 62.7127 84.24 62.7127 85.745C62.7127 86.4917 62.8935 87.0283 63.2552 87.355C63.6168 87.6817 64.101 87.845 64.7077 87.845C65.1393 87.845 65.5243 87.7342 65.8627 87.5125V83.715ZM69.3282 89V82.28H71.0082V89H69.3282ZM69.4157 80.8275C69.6257 81.0375 69.8765 81.1425 70.1682 81.1425C70.4715 81.1425 70.7224 81.0375 70.9207 80.8275C71.1307 80.6175 71.2357 80.3667 71.2357 80.075C71.2357 79.7717 71.1307 79.5208 70.9207 79.3225C70.7224 79.1125 70.4715 79.0075 70.1682 79.0075C69.8765 79.0075 69.6257 79.1125 69.4157 79.3225C69.2057 79.5208 69.1007 79.7717 69.1007 80.075C69.1007 80.3667 69.2057 80.6175 69.4157 80.8275ZM74.6088 84.0825C74.2705 84.4792 74.1013 85.01 74.1013 85.675C74.1013 86.3167 74.2822 86.8417 74.6438 87.25C75.0055 87.6467 75.5013 87.845 76.1313 87.845C76.4463 87.845 76.7205 87.8158 76.9538 87.7575C77.1988 87.6875 77.5313 87.5825 77.9513 87.4425L78.4238 88.5275C78.0738 88.7258 77.6947 88.8833 77.2863 89C76.8897 89.1167 76.4113 89.175 75.8513 89.175C74.8013 89.175 73.9555 88.8542 73.3138 88.2125C72.6838 87.5708 72.3688 86.725 72.3688 85.675C72.3688 84.59 72.6838 83.7383 73.3138 83.12C73.9438 82.49 74.7897 82.175 75.8513 82.175C76.388 82.175 76.843 82.2275 77.2163 82.3325C77.6013 82.4375 78.0038 82.5892 78.4238 82.7875L77.9513 83.89C77.5313 83.75 77.1988 83.6508 76.9538 83.5925C76.7205 83.5225 76.4463 83.4875 76.1313 83.4875C75.4663 83.4875 74.9588 83.6858 74.6088 84.0825ZM79.878 82.63C80.788 82.3267 81.5346 82.175 82.118 82.175C83.2496 82.175 84.0371 82.4083 84.4805 82.875C84.9355 83.3417 85.163 84.0067 85.163 84.87V89H83.833L83.6405 88.5275C83.1155 88.9475 82.4621 89.1575 81.6805 89.1575C80.9571 89.1575 80.3796 88.9708 79.948 88.5975C79.5163 88.2242 79.3005 87.7458 79.3005 87.1625C79.3005 86.5092 79.5396 86.0017 80.018 85.64C80.508 85.2667 81.2021 85.0567 82.1005 85.01L83.413 84.94C83.413 84.3567 83.308 83.96 83.098 83.75C82.888 83.54 82.4738 83.435 81.8555 83.435C81.3305 83.435 80.7588 83.5517 80.1405 83.785L79.878 82.63ZM83.168 87.6875C83.3196 87.6058 83.4246 87.5475 83.483 87.5125V86.0775L82.293 86.165C81.418 86.2117 80.9805 86.5033 80.9805 87.04C80.9805 87.3083 81.0796 87.5183 81.278 87.67C81.4763 87.8217 81.7505 87.8975 82.1005 87.8975C82.3338 87.8975 82.5321 87.88 82.6955 87.845C82.8588 87.81 83.0163 87.7575 83.168 87.6875ZM89.9897 87.7925C90.328 87.7925 90.7597 87.7225 91.2847 87.5825L91.5122 88.7725C91.1039 88.8892 90.7539 88.9825 90.4622 89.0525C90.1822 89.1225 89.9022 89.1575 89.6222 89.1575C88.6539 89.1575 88.0064 88.9533 87.6797 88.545C87.3647 88.1367 87.2072 87.5708 87.2072 86.8475V83.5925H86.0872V82.28H87.2072V80.355H88.8872V82.28H91.2147V83.5925H88.8872V86.8125C88.8872 87.4658 89.2547 87.7925 89.9897 87.7925ZM93.8227 82.6125C94.3011 82.3208 94.8144 82.175 95.3627 82.175C96.3777 82.175 97.1536 82.49 97.6902 83.12C98.2386 83.7383 98.5127 84.59 98.5127 85.675V86.3225H93.9452C93.9919 86.8942 94.1902 87.2908 94.5402 87.5125C94.8902 87.7342 95.3861 87.845 96.0277 87.845C96.7044 87.845 97.3227 87.775 97.8827 87.635L98.1802 88.7725C97.4219 89.0408 96.6286 89.175 95.8002 89.175C94.6452 89.175 93.7644 88.8542 93.1577 88.2125C92.5511 87.5708 92.2477 86.725 92.2477 85.675C92.2477 84.975 92.3936 84.3625 92.6852 83.8375C92.9769 83.3008 93.3561 82.8925 93.8227 82.6125ZM96.4477 83.925C96.1794 83.6333 95.8294 83.4875 95.3977 83.4875C95.0477 83.4875 94.7269 83.6333 94.4352 83.925C94.1552 84.2167 94.0036 84.625 93.9802 85.15H96.8502C96.8502 84.6133 96.7161 84.205 96.4477 83.925ZM104.404 82.455V79.375H106.084V89H104.876L104.754 88.6325C104.159 88.9825 103.558 89.1575 102.951 89.1575C101.89 89.1575 101.05 88.8425 100.431 88.2125C99.8245 87.5825 99.5212 86.7308 99.5212 85.6575C99.5212 84.8525 99.6903 84.1875 100.029 83.6625C100.379 83.1375 100.805 82.7583 101.306 82.525C101.808 82.2917 102.31 82.175 102.811 82.175C103.453 82.175 103.984 82.2683 104.404 82.455ZM104.404 83.715C104.054 83.5633 103.651 83.4875 103.196 83.4875C101.901 83.4875 101.254 84.24 101.254 85.745C101.254 86.4917 101.435 87.0283 101.796 87.355C102.158 87.6817 102.642 87.845 103.249 87.845C103.68 87.845 104.065 87.7342 104.404 87.5125V83.715ZM44.1025 105V95.375H47.2525C49.8892 95.375 51.2075 96.32 51.2075 98.21C51.2192 99.4233 50.7875 100.24 49.9125 100.66C49.0492 101.068 47.9408 101.278 46.5875 101.29C46.4592 101.29 46.3192 101.284 46.1675 101.273C46.0158 101.261 45.8992 101.249 45.8175 101.238V105H44.1025ZM47.0775 96.915H45.8175V99.68C45.9225 99.68 46.0683 99.6917 46.255 99.715L46.6575 99.7325C47.5442 99.7325 48.2325 99.6392 48.7225 99.4525C49.2242 99.2542 49.475 98.8517 49.475 98.245C49.475 97.72 49.2592 97.37 48.8275 97.195C48.4075 97.0083 47.8242 96.915 47.0775 96.915ZM52.4631 98.28H53.6531L53.8631 98.77C54.4815 98.3733 55.1406 98.175 55.8406 98.175C56.2723 98.175 56.6806 98.2625 57.0656 98.4375L56.7331 99.96L56.6631 99.9775C56.2665 99.7442 55.7881 99.6275 55.2281 99.6275C54.8431 99.6275 54.4756 99.6917 54.1256 99.82V105H52.4631V98.28ZM63.0112 104.72C62.4862 105.012 61.8796 105.157 61.1912 105.157C60.5029 105.157 59.8962 105.012 59.3713 104.72C58.8579 104.417 58.4554 104.003 58.1637 103.477C57.8837 102.953 57.7437 102.352 57.7437 101.675C57.7437 100.59 58.0587 99.7383 58.6887 99.12C59.3187 98.49 60.1587 98.175 61.2087 98.175C62.2587 98.175 63.0929 98.49 63.7112 99.12C64.3412 99.75 64.6562 100.596 64.6562 101.658C64.6562 102.346 64.5104 102.953 64.2188 103.477C63.9387 104.003 63.5362 104.417 63.0112 104.72ZM62.4163 100.065C62.0896 99.68 61.6813 99.4875 61.1912 99.4875C60.7129 99.4875 60.3046 99.68 59.9662 100.065C59.6396 100.45 59.4762 100.987 59.4762 101.675C59.4762 102.352 59.6396 102.883 59.9662 103.268C60.2929 103.641 60.7012 103.828 61.1912 103.828C61.7046 103.828 62.1188 103.641 62.4338 103.268C62.7604 102.894 62.9237 102.363 62.9237 101.675C62.9237 100.975 62.7546 100.438 62.4163 100.065ZM65.4558 98.28H66.5758V97.755C66.5758 97.1717 66.7624 96.6175 67.1358 96.0925C67.5208 95.5675 68.2499 95.305 69.3233 95.305C69.8599 95.305 70.4316 95.3925 71.0383 95.5675L71.2833 95.655L71.0208 96.8625L70.7408 96.775C70.4024 96.6817 70.0583 96.635 69.7083 96.635C69.2533 96.635 68.8916 96.7283 68.6233 96.915C68.3666 97.1017 68.2383 97.3642 68.2383 97.7025V98.28H70.7408V99.5925H68.2383V105H66.5758V99.5925H65.4558V98.28ZM72.7817 98.6125C73.2601 98.3208 73.7734 98.175 74.3217 98.175C75.3367 98.175 76.1126 98.49 76.6492 99.12C77.1976 99.7383 77.4717 100.59 77.4717 101.675V102.323H72.9042C72.9509 102.894 73.1492 103.291 73.4992 103.513C73.8492 103.734 74.3451 103.845 74.9867 103.845C75.6634 103.845 76.2817 103.775 76.8417 103.635L77.1392 104.773C76.3809 105.041 75.5876 105.175 74.7592 105.175C73.6042 105.175 72.7234 104.854 72.1167 104.213C71.5101 103.571 71.2067 102.725 71.2067 101.675C71.2067 100.975 71.3526 100.362 71.6442 99.8375C71.9359 99.3008 72.3151 98.8925 72.7817 98.6125ZM75.4067 99.925C75.1384 99.6333 74.7884 99.4875 74.3567 99.4875C74.0067 99.4875 73.6859 99.6333 73.3942 99.925C73.1142 100.217 72.9626 100.625 72.9392 101.15H75.8092C75.8092 100.613 75.6751 100.205 75.4067 99.925ZM81.1227 105.157C80.2593 105.157 79.3902 104.953 78.5152 104.545L78.9877 103.233C79.3843 103.373 79.7868 103.489 80.1952 103.582C80.6035 103.676 80.9418 103.723 81.2102 103.723C81.7002 103.723 82.0443 103.67 82.2427 103.565C82.441 103.46 82.5402 103.297 82.5402 103.075C82.5402 102.923 82.4468 102.801 82.2602 102.708C82.0735 102.614 81.7643 102.498 81.3327 102.358C80.8193 102.206 80.3877 102.054 80.0377 101.903C79.6877 101.739 79.3843 101.506 79.1277 101.203C78.871 100.888 78.7427 100.491 78.7427 100.013C78.7427 99.5458 78.9352 99.1258 79.3202 98.7525C79.7052 98.3675 80.4635 98.175 81.5952 98.175C81.9568 98.175 82.3418 98.2158 82.7502 98.2975C83.1702 98.3792 83.526 98.4667 83.8177 98.56L83.3977 99.855C82.6743 99.645 82.0793 99.54 81.6127 99.54C81.0993 99.54 80.7552 99.5867 80.5802 99.68C80.4052 99.7733 80.3177 99.9075 80.3177 100.083C80.3177 100.269 80.4227 100.421 80.6327 100.538C80.8543 100.654 81.1985 100.782 81.6652 100.923C82.1785 101.074 82.5985 101.226 82.9252 101.378C83.2635 101.529 83.5493 101.745 83.7827 102.025C84.0277 102.305 84.1502 102.661 84.1502 103.092C84.1502 103.617 83.9227 104.096 83.4677 104.528C83.0243 104.948 82.2427 105.157 81.1227 105.157ZM87.7945 105.157C86.9312 105.157 86.062 104.953 85.187 104.545L85.6595 103.233C86.0562 103.373 86.4587 103.489 86.867 103.582C87.2754 103.676 87.6137 103.723 87.882 103.723C88.372 103.723 88.7162 103.67 88.9145 103.565C89.1129 103.46 89.212 103.297 89.212 103.075C89.212 102.923 89.1187 102.801 88.932 102.708C88.7454 102.614 88.4362 102.498 88.0045 102.358C87.4912 102.206 87.0595 102.054 86.7095 101.903C86.3595 101.739 86.0562 101.506 85.7995 101.203C85.5429 100.888 85.4145 100.491 85.4145 100.013C85.4145 99.5458 85.607 99.1258 85.992 98.7525C86.377 98.3675 87.1354 98.175 88.267 98.175C88.6287 98.175 89.0137 98.2158 89.422 98.2975C89.842 98.3792 90.1979 98.4667 90.4895 98.56L90.0695 99.855C89.3462 99.645 88.7512 99.54 88.2845 99.54C87.7712 99.54 87.427 99.5867 87.252 99.68C87.077 99.7733 86.9895 99.9075 86.9895 100.083C86.9895 100.269 87.0945 100.421 87.3045 100.538C87.5262 100.654 87.8704 100.782 88.337 100.923C88.8504 101.074 89.2704 101.226 89.597 101.378C89.9354 101.529 90.2212 101.745 90.4545 102.025C90.6995 102.305 90.822 102.661 90.822 103.092C90.822 103.617 90.5945 104.096 90.1395 104.528C89.6962 104.948 88.9145 105.157 87.7945 105.157ZM92.1739 105V98.28H93.8539V105H92.1739ZM92.2614 96.8275C92.4714 97.0375 92.7222 97.1425 93.0139 97.1425C93.3172 97.1425 93.5681 97.0375 93.7664 96.8275C93.9764 96.6175 94.0814 96.3667 94.0814 96.075C94.0814 95.7717 93.9764 95.5208 93.7664 95.3225C93.5681 95.1125 93.3172 95.0075 93.0139 95.0075C92.7222 95.0075 92.4714 95.1125 92.2614 95.3225C92.0514 95.5208 91.9464 95.7717 91.9464 96.075C91.9464 96.3667 92.0514 96.6175 92.2614 96.8275ZM100.5 104.72C99.9745 105.012 99.3679 105.157 98.6795 105.157C97.9912 105.157 97.3845 105.012 96.8595 104.72C96.3462 104.417 95.9437 104.003 95.652 103.477C95.372 102.953 95.232 102.352 95.232 101.675C95.232 100.59 95.547 99.7383 96.177 99.12C96.807 98.49 97.647 98.175 98.697 98.175C99.747 98.175 100.581 98.49 101.2 99.12C101.83 99.75 102.145 100.596 102.145 101.658C102.145 102.346 101.999 102.953 101.707 103.477C101.427 104.003 101.025 104.417 100.5 104.72ZM99.9045 100.065C99.5779 99.68 99.1695 99.4875 98.6795 99.4875C98.2012 99.4875 97.7929 99.68 97.4545 100.065C97.1279 100.45 96.9645 100.987 96.9645 101.675C96.9645 102.352 97.1279 102.883 97.4545 103.268C97.7812 103.641 98.1895 103.828 98.6795 103.828C99.1929 103.828 99.607 103.641 99.922 103.268C100.249 102.894 100.412 102.363 100.412 101.675C100.412 100.975 100.243 100.438 99.9045 100.065ZM103.487 98.28H104.677L104.887 98.77C105.68 98.385 106.456 98.1925 107.214 98.1925C107.926 98.1925 108.457 98.35 108.807 98.665C109.168 98.98 109.396 99.3475 109.489 99.7675C109.594 100.188 109.647 100.66 109.647 101.185V105H107.984V100.975C107.984 100.625 107.897 100.31 107.722 100.03C107.547 99.75 107.232 99.61 106.777 99.61C106.368 99.61 105.826 99.7325 105.149 99.9775V105H103.487V98.28ZM111.542 98.63C112.452 98.3267 113.199 98.175 113.782 98.175C114.914 98.175 115.701 98.4083 116.145 98.875C116.6 99.3417 116.827 100.007 116.827 100.87V105H115.497L115.305 104.528C114.78 104.948 114.126 105.157 113.345 105.157C112.621 105.157 112.044 104.971 111.612 104.598C111.18 104.224 110.965 103.746 110.965 103.163C110.965 102.509 111.204 102.002 111.682 101.64C112.172 101.267 112.866 101.057 113.765 101.01L115.077 100.94C115.077 100.357 114.972 99.96 114.762 99.75C114.552 99.54 114.138 99.435 113.52 99.435C112.995 99.435 112.423 99.5517 111.805 99.785L111.542 98.63ZM114.832 103.688C114.984 103.606 115.089 103.548 115.147 103.513V102.078L113.957 102.165C113.082 102.212 112.645 102.503 112.645 103.04C112.645 103.308 112.744 103.518 112.942 103.67C113.14 103.822 113.415 103.898 113.765 103.898C113.998 103.898 114.196 103.88 114.36 103.845C114.523 103.81 114.68 103.758 114.832 103.688ZM120.324 103.582C120.44 103.758 120.645 103.845 120.936 103.845C121.17 103.845 121.438 103.804 121.741 103.723V104.825C121.263 105.047 120.761 105.157 120.236 105.157C119.093 105.157 118.521 104.528 118.521 103.268V95.375H120.166V102.778C120.166 103.128 120.219 103.396 120.324 103.582ZM125.009 105.157C124.146 105.157 123.277 104.953 122.402 104.545L122.874 103.233C123.271 103.373 123.674 103.489 124.082 103.582C124.49 103.676 124.829 103.723 125.097 103.723C125.587 103.723 125.931 103.67 126.129 103.565C126.328 103.46 126.427 103.297 126.427 103.075C126.427 102.923 126.334 102.801 126.147 102.708C125.96 102.614 125.651 102.498 125.219 102.358C124.706 102.206 124.274 102.054 123.924 101.903C123.574 101.739 123.271 101.506 123.014 101.203C122.758 100.888 122.629 100.491 122.629 100.013C122.629 99.5458 122.822 99.1258 123.207 98.7525C123.592 98.3675 124.35 98.175 125.482 98.175C125.844 98.175 126.229 98.2158 126.637 98.2975C127.057 98.3792 127.413 98.4667 127.704 98.56L127.284 99.855C126.561 99.645 125.966 99.54 125.499 99.54C124.986 99.54 124.642 99.5867 124.467 99.68C124.292 99.7733 124.204 99.9075 124.204 100.083C124.204 100.269 124.309 100.421 124.519 100.538C124.741 100.654 125.085 100.782 125.552 100.923C126.065 101.074 126.485 101.226 126.812 101.378C127.15 101.529 127.436 101.745 127.669 102.025C127.914 102.305 128.037 102.661 128.037 103.092C128.037 103.617 127.809 104.096 127.354 104.528C126.911 104.948 126.129 105.157 125.009 105.157Z" fill="white"/>
</g>
<defs>
<filter id="filter0_d_561_3508" x="0" y="0" width="200" height="138.115" filterUnits="userSpaceOnUse" color-interpolation-filters="sRGB">
<feFlood flood-opacity="0" result="BackgroundImageFix"/>
<feColorMatrix in="SourceAlpha" type="matrix" values="0 0 0 0 0 0 0 0 0 0 0 0 0 0 0 0 0 0 127 0" result="hardAlpha"/>
<feOffset dy="4"/>
<feGaussianBlur stdDeviation="4"/>
<feComposite in2="hardAlpha" operator="out"/>
<feColorMatrix type="matrix" values="0 0 0 0 0.24896 0 0 0 0 0.0514945 0 0 0 0 0.45412 0 0 0 0.4 0"/>
<feBlend mode="normal" in2="BackgroundImageFix" result="effect1_dropShadow_561_3508"/>
<feBlend mode="normal" in="SourceGraphic" in2="effect1_dropShadow_561_3508" result="shape"/>
</filter>
<radialGradient id="paint0_radial_561_3508" cx="0" cy="0" r="1" gradientUnits="userSpaceOnUse" gradientTransform="translate(154.5 65.3735) rotate(167.925) scale(102.774 102.774)">
<stop stop-color="#7000FF"/>
<stop offset="1" stop-color="#1E0933"/>
</radialGradient>
<radialGradient id="paint1_radial_561_3508" cx="0" cy="0" r="1" gradientTransform="matrix(60.3633 61.0577 -92 102.725 68.3633 65.0577)" gradientUnits="userSpaceOnUse">
<stop stop-color="#E9B1FF"/>
<stop offset="1" stop-color="#3B0F69"/>
</radialGradient>
</defs>
</svg>
