<svg width="200" height="139" viewBox="0 0 200 139" fill="none" xmlns="http://www.w3.org/2000/svg">
<g filter="url(#filter0_d_561_3511)">
<rect x="8" y="4" width="184" height="122.115" rx="10" fill="url(#paint0_radial_561_3511)" fill-opacity="0.2" shape-rendering="crispEdges"/>
<rect x="8.5" y="4.5" width="183" height="121.115" rx="9.5" stroke="url(#paint1_radial_561_3511)" shape-rendering="crispEdges"/>
<path d="M54.8 65.675C53 65.675 51.3 65.325 49.7 64.625C48.1 63.925 46.7083 62.9333 45.525 61.65C44.3583 60.3667 43.5167 58.85 43 57.1L48.825 55.525C49.2417 56.9583 50 58.0667 51.1 58.85C52.2167 59.6167 53.4417 59.9917 54.775 59.975C55.9583 59.975 57.0167 59.7 57.95 59.15C58.8833 58.6 59.6167 57.8583 60.15 56.925C60.6833 55.975 60.95 54.9167 60.95 53.75C60.95 51.9667 60.375 50.475 59.225 49.275C58.075 48.075 56.5917 47.475 54.775 47.475C54.225 47.475 53.6833 47.55 53.15 47.7C52.6333 47.85 52.1333 48.0583 51.65 48.325L48.9 43.575L61 33.225L61.525 34.675H44.4V29H66.475V34.7L56.75 44.05L56.7 42.275C58.8833 42.425 60.7417 43.0333 62.275 44.1C63.825 45.1667 65.0083 46.5417 65.825 48.225C66.6583 49.9083 67.075 51.75 67.075 53.75C67.075 56.0167 66.5167 58.05 65.4 59.85C64.3 61.65 62.8167 63.075 60.95 64.125C59.1 65.1583 57.05 65.675 54.8 65.675Z" fill="white"/>
<path d="M42.1025 89V79.375H45.3575C46.6292 79.375 47.6442 79.6025 48.4025 80.0575C49.1725 80.5008 49.715 81.0608 50.03 81.7375C50.345 82.4142 50.5025 83.1317 50.5025 83.89C50.5025 85.045 50.2283 86.0658 49.68 86.9525C49.1433 87.8392 48.2567 88.4575 47.02 88.8075C46.6467 88.8892 46.2733 88.9417 45.9 88.965C45.5383 88.9883 45.0717 89 44.5 89H42.1025ZM47.895 81.7375C47.3233 81.1892 46.4892 80.915 45.3925 80.915H43.8175V87.4425H44.9375C45.6842 87.4425 46.355 87.3492 46.95 87.1625C47.545 86.9758 48.0058 86.5617 48.3325 85.92C48.4492 85.745 48.5483 85.5058 48.63 85.2025C48.7117 84.8875 48.7525 84.5258 48.7525 84.1175C48.7525 83.0675 48.4667 82.2742 47.895 81.7375ZM53.2817 82.6125C53.7601 82.3208 54.2734 82.175 54.8217 82.175C55.8367 82.175 56.6126 82.49 57.1492 83.12C57.6976 83.7383 57.9717 84.59 57.9717 85.675V86.3225H53.4042C53.4509 86.8942 53.6492 87.2908 53.9992 87.5125C54.3492 87.7342 54.8451 87.845 55.4867 87.845C56.1634 87.845 56.7817 87.775 57.3417 87.635L57.6392 88.7725C56.8809 89.0408 56.0876 89.175 55.2592 89.175C54.1042 89.175 53.2234 88.8542 52.6167 88.2125C52.0101 87.5708 51.7067 86.725 51.7067 85.675C51.7067 84.975 51.8526 84.3625 52.1442 83.8375C52.4359 83.3008 52.8151 82.8925 53.2817 82.6125ZM55.9067 83.925C55.6384 83.6333 55.2884 83.4875 54.8567 83.4875C54.5067 83.4875 54.1859 83.6333 53.8942 83.925C53.6142 84.2167 53.4626 84.625 53.4392 85.15H56.3092C56.3092 84.6133 56.1751 84.205 55.9067 83.925ZM63.8627 82.455V79.375H65.5427V89H64.3352L64.2127 88.6325C63.6177 88.9825 63.0168 89.1575 62.4102 89.1575C61.3485 89.1575 60.5085 88.8425 59.8902 88.2125C59.2835 87.5825 58.9802 86.7308 58.9802 85.6575C58.9802 84.8525 59.1493 84.1875 59.4877 83.6625C59.8377 83.1375 60.2635 82.7583 60.7652 82.525C61.2668 82.2917 61.7685 82.175 62.2702 82.175C62.9118 82.175 63.4427 82.2683 63.8627 82.455ZM63.8627 83.715C63.5127 83.5633 63.1102 83.4875 62.6552 83.4875C61.3602 83.4875 60.7127 84.24 60.7127 85.745C60.7127 86.4917 60.8935 87.0283 61.2552 87.355C61.6168 87.6817 62.101 87.845 62.7077 87.845C63.1393 87.845 63.5243 87.7342 63.8627 87.5125V83.715ZM67.3282 89V82.28H69.0082V89H67.3282ZM67.4157 80.8275C67.6257 81.0375 67.8765 81.1425 68.1682 81.1425C68.4715 81.1425 68.7224 81.0375 68.9207 80.8275C69.1307 80.6175 69.2357 80.3667 69.2357 80.075C69.2357 79.7717 69.1307 79.5208 68.9207 79.3225C68.7224 79.1125 68.4715 79.0075 68.1682 79.0075C67.8765 79.0075 67.6257 79.1125 67.4157 79.3225C67.2057 79.5208 67.1007 79.7717 67.1007 80.075C67.1007 80.3667 67.2057 80.6175 67.4157 80.8275ZM72.6088 84.0825C72.2705 84.4792 72.1013 85.01 72.1013 85.675C72.1013 86.3167 72.2822 86.8417 72.6438 87.25C73.0055 87.6467 73.5013 87.845 74.1313 87.845C74.4463 87.845 74.7205 87.8158 74.9538 87.7575C75.1988 87.6875 75.5313 87.5825 75.9513 87.4425L76.4238 88.5275C76.0738 88.7258 75.6947 88.8833 75.2863 89C74.8897 89.1167 74.4113 89.175 73.8513 89.175C72.8013 89.175 71.9555 88.8542 71.3138 88.2125C70.6838 87.5708 70.3688 86.725 70.3688 85.675C70.3688 84.59 70.6838 83.7383 71.3138 83.12C71.9438 82.49 72.7897 82.175 73.8513 82.175C74.388 82.175 74.843 82.2275 75.2163 82.3325C75.6013 82.4375 76.0038 82.5892 76.4238 82.7875L75.9513 83.89C75.5313 83.75 75.1988 83.6508 74.9538 83.5925C74.7205 83.5225 74.4463 83.4875 74.1313 83.4875C73.4663 83.4875 72.9588 83.6858 72.6088 84.0825ZM77.878 82.63C78.788 82.3267 79.5346 82.175 80.118 82.175C81.2496 82.175 82.0371 82.4083 82.4805 82.875C82.9355 83.3417 83.163 84.0067 83.163 84.87V89H81.833L81.6405 88.5275C81.1155 88.9475 80.4621 89.1575 79.6805 89.1575C78.9571 89.1575 78.3796 88.9708 77.948 88.5975C77.5163 88.2242 77.3005 87.7458 77.3005 87.1625C77.3005 86.5092 77.5396 86.0017 78.018 85.64C78.508 85.2667 79.2021 85.0567 80.1005 85.01L81.413 84.94C81.413 84.3567 81.308 83.96 81.098 83.75C80.888 83.54 80.4738 83.435 79.8555 83.435C79.3305 83.435 78.7588 83.5517 78.1405 83.785L77.878 82.63ZM81.168 87.6875C81.3196 87.6058 81.4246 87.5475 81.483 87.5125V86.0775L80.293 86.165C79.418 86.2117 78.9805 86.5033 78.9805 87.04C78.9805 87.3083 79.0796 87.5183 79.278 87.67C79.4763 87.8217 79.7505 87.8975 80.1005 87.8975C80.3338 87.8975 80.5321 87.88 80.6955 87.845C80.8588 87.81 81.0163 87.7575 81.168 87.6875ZM87.9897 87.7925C88.328 87.7925 88.7597 87.7225 89.2847 87.5825L89.5122 88.7725C89.1039 88.8892 88.7539 88.9825 88.4622 89.0525C88.1822 89.1225 87.9022 89.1575 87.6222 89.1575C86.6539 89.1575 86.0064 88.9533 85.6797 88.545C85.3647 88.1367 85.2072 87.5708 85.2072 86.8475V83.5925H84.0872V82.28H85.2072V80.355H86.8872V82.28H89.2147V83.5925H86.8872V86.8125C86.8872 87.4658 87.2547 87.7925 87.9897 87.7925ZM91.8227 82.6125C92.3011 82.3208 92.8144 82.175 93.3627 82.175C94.3777 82.175 95.1536 82.49 95.6902 83.12C96.2386 83.7383 96.5127 84.59 96.5127 85.675V86.3225H91.9452C91.9919 86.8942 92.1902 87.2908 92.5402 87.5125C92.8902 87.7342 93.3861 87.845 94.0277 87.845C94.7044 87.845 95.3227 87.775 95.8827 87.635L96.1802 88.7725C95.4219 89.0408 94.6286 89.175 93.8002 89.175C92.6452 89.175 91.7644 88.8542 91.1577 88.2125C90.5511 87.5708 90.2477 86.725 90.2477 85.675C90.2477 84.975 90.3936 84.3625 90.6852 83.8375C90.9769 83.3008 91.3561 82.8925 91.8227 82.6125ZM94.4477 83.925C94.1794 83.6333 93.8294 83.4875 93.3977 83.4875C93.0477 83.4875 92.7269 83.6333 92.4352 83.925C92.1552 84.2167 92.0036 84.625 91.9802 85.15H94.8502C94.8502 84.6133 94.7161 84.205 94.4477 83.925ZM102.404 82.455V79.375H104.084V89H102.876L102.754 88.6325C102.159 88.9825 101.558 89.1575 100.951 89.1575C99.8895 89.1575 99.0495 88.8425 98.4312 88.2125C97.8245 87.5825 97.5212 86.7308 97.5212 85.6575C97.5212 84.8525 97.6903 84.1875 98.0287 83.6625C98.3787 83.1375 98.8045 82.7583 99.3062 82.525C99.8078 82.2917 100.31 82.175 100.811 82.175C101.453 82.175 101.984 82.2683 102.404 82.455ZM102.404 83.715C102.054 83.5633 101.651 83.4875 101.196 83.4875C99.9012 83.4875 99.2537 84.24 99.2537 85.745C99.2537 86.4917 99.4345 87.0283 99.7962 87.355C100.158 87.6817 100.642 87.845 101.249 87.845C101.68 87.845 102.065 87.7342 102.404 87.5125V83.715ZM111.912 79.8825C112.636 79.4625 113.441 79.2525 114.327 79.2525C115.214 79.2525 116.013 79.4508 116.725 79.8475C117.448 80.2442 118.02 80.81 118.44 81.545C118.86 82.28 119.07 83.1317 119.07 84.1C119.07 85.0683 118.86 85.9375 118.44 86.7075C118.031 87.4658 117.46 88.0608 116.725 88.4925C116.001 88.9125 115.185 89.1225 114.275 89.1225C113.458 89.1225 112.688 88.9358 111.965 88.5625C111.253 88.1775 110.676 87.6117 110.232 86.865C109.789 86.1183 109.567 85.2258 109.567 84.1875C109.567 83.2192 109.777 82.3617 110.197 81.615C110.617 80.8683 111.189 80.2908 111.912 79.8825ZM115.71 81.195C115.243 80.9617 114.759 80.845 114.257 80.845C113.744 80.845 113.266 80.9617 112.822 81.195C112.379 81.4167 112.017 81.7725 111.737 82.2625C111.457 82.7408 111.317 83.3475 111.317 84.0825C111.317 84.7708 111.451 85.3775 111.72 85.9025C111.988 86.4158 112.356 86.8125 112.822 87.0925C113.289 87.3725 113.808 87.5125 114.38 87.5125C114.881 87.5125 115.354 87.3958 115.797 87.1625C116.252 86.9292 116.62 86.5617 116.9 86.06C117.18 85.5583 117.32 84.9342 117.32 84.1875C117.32 83.4292 117.168 82.7992 116.865 82.2975C116.561 81.7958 116.176 81.4283 115.71 81.195ZM120.044 82.28H121.164V81.755C121.164 81.1717 121.35 80.6175 121.724 80.0925C122.109 79.5675 122.838 79.305 123.911 79.305C124.448 79.305 125.02 79.3925 125.626 79.5675L125.871 79.655L125.609 80.8625L125.329 80.775C124.99 80.6817 124.646 80.635 124.296 80.635C123.841 80.635 123.48 80.7283 123.211 80.915C122.955 81.1017 122.826 81.3642 122.826 81.7025V82.28H125.329V83.5925H122.826V89H121.164V83.5925H120.044V82.28ZM131.762 80.8275C131.972 81.0375 132.223 81.1425 132.515 81.1425C132.818 81.1425 133.069 81.0375 133.267 80.8275C133.477 80.6175 133.582 80.3667 133.582 80.075C133.582 79.7717 133.477 79.5208 133.267 79.3225C133.069 79.1125 132.818 79.0075 132.515 79.0075C132.223 79.0075 131.972 79.1125 131.762 79.3225C131.552 79.5208 131.447 79.7717 131.447 80.075C131.447 80.3667 131.552 80.6175 131.762 80.8275ZM125.567 82.28H126.687V81.755C126.687 81.1717 126.874 80.6175 127.247 80.0925C127.632 79.5675 128.361 79.305 129.435 79.305C129.89 79.305 130.345 79.3633 130.8 79.48L130.572 80.705C130.292 80.6583 130.041 80.635 129.82 80.635C129.365 80.635 129.003 80.7283 128.735 80.915C128.478 81.1017 128.35 81.3642 128.35 81.7025V82.28H130.677V83.5925H128.35V89H126.687V83.5925H125.567V82.28ZM131.675 89V82.28H133.355V89H131.675ZM136.962 84.0825C136.624 84.4792 136.455 85.01 136.455 85.675C136.455 86.3167 136.636 86.8417 136.997 87.25C137.359 87.6467 137.855 87.845 138.485 87.845C138.8 87.845 139.074 87.8158 139.307 87.7575C139.552 87.6875 139.885 87.5825 140.305 87.4425L140.777 88.5275C140.427 88.7258 140.048 88.8833 139.64 89C139.243 89.1167 138.765 89.175 138.205 89.175C137.155 89.175 136.309 88.8542 135.667 88.2125C135.037 87.5708 134.722 86.725 134.722 85.675C134.722 84.59 135.037 83.7383 135.667 83.12C136.297 82.49 137.143 82.175 138.205 82.175C138.742 82.175 139.197 82.2275 139.57 82.3325C139.955 82.4375 140.357 82.5892 140.777 82.7875L140.305 83.89C139.885 83.75 139.552 83.6508 139.307 83.5925C139.074 83.5225 138.8 83.4875 138.485 83.4875C137.82 83.4875 137.312 83.6858 136.962 84.0825ZM143.229 82.6125C143.707 82.3208 144.221 82.175 144.769 82.175C145.784 82.175 146.56 82.49 147.096 83.12C147.645 83.7383 147.919 84.59 147.919 85.675V86.3225H143.351C143.398 86.8942 143.596 87.2908 143.946 87.5125C144.296 87.7342 144.792 87.845 145.434 87.845C146.111 87.845 146.729 87.775 147.289 87.635L147.586 88.7725C146.828 89.0408 146.035 89.175 145.206 89.175C144.051 89.175 143.171 88.8542 142.564 88.2125C141.957 87.5708 141.654 86.725 141.654 85.675C141.654 84.975 141.8 84.3625 142.091 83.8375C142.383 83.3008 142.762 82.8925 143.229 82.6125ZM145.854 83.925C145.586 83.6333 145.236 83.4875 144.804 83.4875C144.454 83.4875 144.133 83.6333 143.841 83.925C143.561 84.2167 143.41 84.625 143.386 85.15H146.256C146.256 84.6133 146.122 84.205 145.854 83.925ZM151.57 89.1575C150.707 89.1575 149.837 88.9533 148.962 88.545L149.435 87.2325C149.832 87.3725 150.234 87.4892 150.642 87.5825C151.051 87.6758 151.389 87.7225 151.657 87.7225C152.147 87.7225 152.492 87.67 152.69 87.565C152.888 87.46 152.987 87.2967 152.987 87.075C152.987 86.9233 152.894 86.8008 152.707 86.7075C152.521 86.6142 152.212 86.4975 151.78 86.3575C151.267 86.2058 150.835 86.0542 150.485 85.9025C150.135 85.7392 149.832 85.5058 149.575 85.2025C149.318 84.8875 149.19 84.4908 149.19 84.0125C149.19 83.5458 149.382 83.1258 149.767 82.7525C150.152 82.3675 150.911 82.175 152.042 82.175C152.404 82.175 152.789 82.2158 153.197 82.2975C153.617 82.3792 153.973 82.4667 154.265 82.56L153.845 83.855C153.122 83.645 152.527 83.54 152.06 83.54C151.547 83.54 151.202 83.5867 151.027 83.68C150.852 83.7733 150.765 83.9075 150.765 84.0825C150.765 84.2692 150.87 84.4208 151.08 84.5375C151.302 84.6542 151.646 84.7825 152.112 84.9225C152.626 85.0742 153.046 85.2258 153.372 85.3775C153.711 85.5292 153.997 85.745 154.23 86.025C154.475 86.305 154.597 86.6608 154.597 87.0925C154.597 87.6175 154.37 88.0958 153.915 88.5275C153.472 88.9475 152.69 89.1575 151.57 89.1575ZM42.085 98.63C42.995 98.3267 43.7417 98.175 44.325 98.175C45.4567 98.175 46.2442 98.4083 46.6875 98.875C47.1425 99.3417 47.37 100.007 47.37 100.87V105H46.04L45.8475 104.528C45.3225 104.948 44.6692 105.157 43.8875 105.157C43.1642 105.157 42.5867 104.971 42.155 104.598C41.7233 104.224 41.5075 103.746 41.5075 103.163C41.5075 102.509 41.7467 102.002 42.225 101.64C42.715 101.267 43.4092 101.057 44.3075 101.01L45.62 100.94C45.62 100.357 45.515 99.96 45.305 99.75C45.095 99.54 44.6808 99.435 44.0625 99.435C43.5375 99.435 42.9658 99.5517 42.3475 99.785L42.085 98.63ZM45.375 103.688C45.5267 103.606 45.6317 103.548 45.69 103.513V102.078L44.5 102.165C43.625 102.212 43.1875 102.503 43.1875 103.04C43.1875 103.308 43.2867 103.518 43.485 103.67C43.6833 103.822 43.9575 103.898 44.3075 103.898C44.5408 103.898 44.7392 103.88 44.9025 103.845C45.0658 103.81 45.2233 103.758 45.375 103.688ZM48.9592 98.28H50.1492L50.3592 98.77C50.9776 98.3733 51.6367 98.175 52.3367 98.175C52.7684 98.175 53.1767 98.2625 53.5617 98.4375L53.2292 99.96L53.1592 99.9775C52.7626 99.7442 52.2842 99.6275 51.7242 99.6275C51.3392 99.6275 50.9717 99.6917 50.6217 99.82V105H48.9592V98.28ZM59.5073 104.72C58.9823 105.012 58.3757 105.157 57.6873 105.157C56.999 105.157 56.3923 105.012 55.8673 104.72C55.354 104.417 54.9515 104.003 54.6598 103.477C54.3798 102.953 54.2398 102.352 54.2398 101.675C54.2398 100.59 54.5548 99.7383 55.1848 99.12C55.8148 98.49 56.6548 98.175 57.7048 98.175C58.7548 98.175 59.589 98.49 60.2073 99.12C60.8373 99.75 61.1523 100.596 61.1523 101.658C61.1523 102.346 61.0065 102.953 60.7148 103.477C60.4348 104.003 60.0323 104.417 59.5073 104.72ZM58.9123 100.065C58.5857 99.68 58.1773 99.4875 57.6873 99.4875C57.209 99.4875 56.8007 99.68 56.4623 100.065C56.1357 100.45 55.9723 100.987 55.9723 101.675C55.9723 102.352 56.1357 102.883 56.4623 103.268C56.789 103.641 57.1973 103.828 57.6873 103.828C58.2007 103.828 58.6148 103.641 58.9298 103.268C59.2565 102.894 59.4198 102.363 59.4198 101.675C59.4198 100.975 59.2507 100.438 58.9123 100.065ZM68.4969 105.017H67.3419L67.1319 104.528C66.6885 104.738 66.3094 104.895 65.9944 105C65.691 105.105 65.341 105.157 64.9444 105.157C63.9294 105.157 63.2644 104.866 62.9494 104.283C62.646 103.688 62.4944 102.964 62.4944 102.113V98.28H64.1569V102.34C64.1569 102.702 64.2444 103.023 64.4194 103.303C64.5944 103.583 64.9152 103.723 65.3819 103.723C65.8952 103.723 66.3852 103.588 66.8519 103.32V98.28H68.4969V105.017ZM70.178 98.28H71.368L71.578 98.77C72.3713 98.385 73.1471 98.1925 73.9055 98.1925C74.6171 98.1925 75.148 98.35 75.498 98.665C75.8596 98.98 76.0871 99.3475 76.1805 99.7675C76.2855 100.188 76.338 100.66 76.338 101.185V105H74.6755V100.975C74.6755 100.625 74.588 100.31 74.413 100.03C74.238 99.75 73.923 99.61 73.468 99.61C73.0596 99.61 72.5171 99.7325 71.8405 99.9775V105H70.178V98.28ZM82.5384 98.455V95.375H84.2184V105H83.0109L82.8884 104.633C82.2934 104.982 81.6926 105.157 81.0859 105.157C80.0243 105.157 79.1843 104.843 78.5659 104.213C77.9593 103.583 77.6559 102.731 77.6559 101.658C77.6559 100.853 77.8251 100.188 78.1634 99.6625C78.5134 99.1375 78.9393 98.7583 79.4409 98.525C79.9426 98.2917 80.4443 98.175 80.9459 98.175C81.5876 98.175 82.1184 98.2683 82.5384 98.455ZM82.5384 99.715C82.1884 99.5633 81.7859 99.4875 81.3309 99.4875C80.0359 99.4875 79.3884 100.24 79.3884 101.745C79.3884 102.492 79.5693 103.028 79.9309 103.355C80.2926 103.682 80.7768 103.845 81.3834 103.845C81.8151 103.845 82.2001 103.734 82.5384 103.513V99.715ZM93.062 103.793C93.4003 103.793 93.832 103.723 94.357 103.582L94.5845 104.773C94.1761 104.889 93.8261 104.983 93.5345 105.052C93.2545 105.122 92.9745 105.157 92.6945 105.157C91.7261 105.157 91.0786 104.953 90.752 104.545C90.437 104.137 90.2795 103.571 90.2795 102.847V99.5925H89.1595V98.28H90.2795V96.355H91.9595V98.28H94.287V99.5925H91.9595V102.812C91.9595 103.466 92.327 103.793 93.062 103.793ZM99.975 99.9775C99.8117 99.7208 99.4908 99.5925 99.0125 99.5925C98.5808 99.5925 98.05 99.715 97.42 99.96V105H95.74V95.375H97.42V98.63C98.12 98.3383 98.7967 98.1925 99.45 98.1925C100.453 98.1925 101.112 98.4783 101.427 99.05C101.742 99.6217 101.9 100.333 101.9 101.185V105H100.22V100.958C100.22 100.549 100.138 100.223 99.975 99.9775ZM104.756 98.6125C105.235 98.3208 105.748 98.175 106.296 98.175C107.311 98.175 108.087 98.49 108.624 99.12C109.172 99.7383 109.446 100.59 109.446 101.675V102.323H104.879C104.925 102.894 105.124 103.291 105.474 103.513C105.824 103.734 106.32 103.845 106.961 103.845C107.638 103.845 108.256 103.775 108.816 103.635L109.114 104.773C108.355 105.041 107.562 105.175 106.734 105.175C105.579 105.175 104.698 104.854 104.091 104.213C103.485 103.571 103.181 102.725 103.181 101.675C103.181 100.975 103.327 100.362 103.619 99.8375C103.91 99.3008 104.29 98.8925 104.756 98.6125ZM107.381 99.925C107.113 99.6333 106.763 99.4875 106.331 99.4875C105.981 99.4875 105.66 99.6333 105.369 99.925C105.089 100.217 104.937 100.625 104.914 101.15H107.784C107.784 100.613 107.65 100.205 107.381 99.925ZM117.25 103.163L118.685 98.28H120.523L121.94 103.163L123.323 98.28H125.108L122.693 105H121.1L119.613 100.24L118.09 105H116.48L114.083 98.28H115.868L117.25 103.163ZM131.175 104.72C130.65 105.012 130.044 105.157 129.355 105.157C128.667 105.157 128.06 105.012 127.535 104.72C127.022 104.417 126.619 104.003 126.328 103.477C126.048 102.953 125.908 102.352 125.908 101.675C125.908 100.59 126.223 99.7383 126.853 99.12C127.483 98.49 128.323 98.175 129.373 98.175C130.423 98.175 131.257 98.49 131.875 99.12C132.505 99.75 132.82 100.596 132.82 101.658C132.82 102.346 132.674 102.953 132.383 103.477C132.103 104.003 131.7 104.417 131.175 104.72ZM130.58 100.065C130.254 99.68 129.845 99.4875 129.355 99.4875C128.877 99.4875 128.469 99.68 128.13 100.065C127.804 100.45 127.64 100.987 127.64 101.675C127.64 102.352 127.804 102.883 128.13 103.268C128.457 103.641 128.865 103.828 129.355 103.828C129.869 103.828 130.283 103.641 130.598 103.268C130.924 102.894 131.088 102.363 131.088 101.675C131.088 100.975 130.919 100.438 130.58 100.065ZM134.162 98.28H135.352L135.562 98.77C136.181 98.3733 136.84 98.175 137.54 98.175C137.972 98.175 138.38 98.2625 138.765 98.4375L138.432 99.96L138.362 99.9775C137.966 99.7442 137.487 99.6275 136.927 99.6275C136.542 99.6275 136.175 99.6917 135.825 99.82V105H134.162V98.28ZM141.648 103.582C141.765 103.758 141.969 103.845 142.26 103.845C142.494 103.845 142.762 103.804 143.065 103.723V104.825C142.587 105.047 142.085 105.157 141.56 105.157C140.417 105.157 139.845 104.528 139.845 103.268V95.375H141.49V102.778C141.49 103.128 141.543 103.396 141.648 103.582ZM148.574 98.455V95.375H150.254V105H149.046L148.924 104.633C148.329 104.982 147.728 105.157 147.121 105.157C146.059 105.157 145.219 104.843 144.601 104.213C143.994 103.583 143.691 102.731 143.691 101.658C143.691 100.853 143.86 100.188 144.199 99.6625C144.549 99.1375 144.974 98.7583 145.476 98.525C145.978 98.2917 146.479 98.175 146.981 98.175C147.623 98.175 148.154 98.2683 148.574 98.455ZM148.574 99.715C148.224 99.5633 147.821 99.4875 147.366 99.4875C146.071 99.4875 145.424 100.24 145.424 101.745C145.424 102.492 145.604 103.028 145.966 103.355C146.328 103.682 146.812 103.845 147.419 103.845C147.85 103.845 148.235 103.734 148.574 103.513V99.715Z" fill="white"/>
</g>
<defs>
<filter id="filter0_d_561_3511" x="0" y="0" width="200" height="138.115" filterUnits="userSpaceOnUse" color-interpolation-filters="sRGB">
<feFlood flood-opacity="0" result="BackgroundImageFix"/>
<feColorMatrix in="SourceAlpha" type="matrix" values="0 0 0 0 0 0 0 0 0 0 0 0 0 0 0 0 0 0 127 0" result="hardAlpha"/>
<feOffset dy="4"/>
<feGaussianBlur stdDeviation="4"/>
<feComposite in2="hardAlpha" operator="out"/>
<feColorMatrix type="matrix" values="0 0 0 0 0.24896 0 0 0 0 0.0514945 0 0 0 0 0.45412 0 0 0 0.4 0"/>
<feBlend mode="normal" in2="BackgroundImageFix" result="effect1_dropShadow_561_3511"/>
<feBlend mode="normal" in="SourceGraphic" in2="effect1_dropShadow_561_3511" result="shape"/>
</filter>
<radialGradient id="paint0_radial_561_3511" cx="0" cy="0" r="1" gradientUnits="userSpaceOnUse" gradientTransform="translate(154.5 65.3735) rotate(167.925) scale(102.774 102.774)">
<stop stop-color="#7000FF"/>
<stop offset="1" stop-color="#1E0933"/>
</radialGradient>
<radialGradient id="paint1_radial_561_3511" cx="0" cy="0" r="1" gradientTransform="matrix(60.3633 61.0577 -92 102.725 68.3633 65.0577)" gradientUnits="userSpaceOnUse">
<stop stop-color="#E9B1FF"/>
<stop offset="1" stop-color="#3B0F69"/>
</radialGradient>
</defs>
</svg>
