<svg width="24" height="24" viewBox="0 0 24 24" fill="none" xmlns="http://www.w3.org/2000/svg">
<path d="M18.935 13.945L18.265 10.297C17.975 8.721 17.83 7.933 17.257 7.467C16.684 7.001 15.86 7 14.213 7H9.787C8.14 7 7.317 7 6.743 7.467C6.17 7.933 6.025 8.721 5.735 10.297L5.065 13.945C4.465 17.216 4.164 18.852 5.089 19.925C6.014 21 7.724 21 11.142 21H12.858C16.276 21 17.986 21 18.911 19.926C19.836 18.852 19.536 17.216 18.935 13.946V13.945Z" stroke="white" stroke-width="1.5" stroke-linecap="round"/>
<path d="M12 10.5V17M9.5 15L12 17.5L14.5 15" stroke="white" stroke-width="1.5" stroke-linecap="round" stroke-linejoin="round"/>
<path d="M21 11C21.1545 10.9229 21.2946 10.8197 21.414 10.695C22 10.089 22 9.11 22 7.152C22 5.194 22 4.216 21.414 3.608C20.828 3 19.886 3 18 3H6C4.114 3 3.172 3 2.586 3.608C2 4.216 2 5.195 2 7.152C2 9.109 2 10.088 2.586 10.695C2.706 10.8203 2.844 10.922 3 11" stroke="white" stroke-width="1.5" stroke-linecap="round"/>
</svg>
