<svg width="24" height="24" viewBox="0 0 24 24" fill="none" xmlns="http://www.w3.org/2000/svg">
<path d="M11.9995 2.49951C14.5191 2.49951 16.9357 3.50112 18.7173 5.28271C20.4987 7.06421 21.4994 9.48014 21.4995 11.9995C21.4995 14.5191 20.4989 16.9357 18.7173 18.7173C16.9357 20.4989 14.5191 21.4995 11.9995 21.4995C9.48014 21.4994 7.06421 20.4987 5.28271 18.7173C3.50112 16.9357 2.49951 14.5191 2.49951 11.9995C2.49962 9.4801 3.50121 7.06422 5.28271 5.28271C7.06422 3.50121 9.4801 2.49962 11.9995 2.49951ZM11.9995 4.69971C10.0636 4.69981 8.2073 5.46946 6.83838 6.83838C5.46946 8.2073 4.69981 10.0636 4.69971 11.9995C4.69971 13.9356 5.46936 15.7926 6.83838 17.1616C8.20729 18.5305 10.0636 19.3002 11.9995 19.3003C13.9356 19.3003 15.7926 18.5306 17.1616 17.1616C18.5306 15.7926 19.3003 13.9356 19.3003 11.9995C19.3002 10.0636 18.5305 8.20729 17.1616 6.83838C15.7926 5.46936 13.9356 4.69971 11.9995 4.69971Z" fill="white" stroke="#5003AE" stroke-width="0.2"/>
<path d="M17.9402 4.95996C18.2317 4.96001 18.5113 5.07617 18.7175 5.28223C18.9237 5.48851 19.0398 5.76887 19.0398 6.06055C19.0397 6.35206 18.9236 6.63172 18.7175 6.83789L6.83862 18.7168C6.63119 18.917 6.35347 19.0279 6.06519 19.0254C5.77677 19.0229 5.50058 18.9071 5.29663 18.7031C5.09279 18.4992 4.97687 18.2229 4.97437 17.9346C4.97195 17.6463 5.08364 17.3685 5.28394 17.1611L5.28296 17.1602L17.1619 5.28223C17.3681 5.07601 17.6485 4.95996 17.9402 4.95996Z" fill="white" stroke="#5003AE" stroke-width="0.2"/>
</svg>
