<svg width="28" height="28" viewBox="0 0 28 28" fill="none" xmlns="http://www.w3.org/2000/svg">
<path fill-rule="evenodd" clip-rule="evenodd" d="M16.7836 14.3891C16.6228 13.9341 16.3248 13.5401 15.9307 13.2615C15.5366 12.9828 15.0659 12.8333 14.5833 12.8333V12.25H13.4166V12.8333C12.7977 12.8333 12.2043 13.0792 11.7667 13.5168C11.3291 13.9543 11.0833 14.5478 11.0833 15.1667C11.0833 15.7855 11.3291 16.379 11.7667 16.8166C12.2043 17.2542 12.7977 17.5 13.4166 17.5V19.8333C12.9091 19.8333 12.4768 19.5096 12.3158 19.0557C12.2919 18.9815 12.2534 18.9128 12.2025 18.8537C12.1516 18.7946 12.0894 18.7463 12.0195 18.7117C11.9496 18.6771 11.8735 18.6568 11.7956 18.6521C11.7178 18.6474 11.6397 18.6584 11.5662 18.6844C11.4927 18.7104 11.4251 18.7508 11.3674 18.8034C11.3098 18.856 11.2633 18.9195 11.2307 18.9904C11.1981 19.0612 11.18 19.1379 11.1775 19.2159C11.175 19.2938 11.1882 19.3715 11.2163 19.4442C11.3771 19.8993 11.6751 20.2932 12.0691 20.5719C12.4632 20.8505 12.934 21.0001 13.4166 21V21.5833H14.5833V21C15.2021 21 15.7956 20.7542 16.2332 20.3166C16.6708 19.879 16.9166 19.2855 16.9166 18.6667C16.9166 18.0478 16.6708 17.4543 16.2332 17.0168C15.7956 16.5792 15.2021 16.3333 14.5833 16.3333V14C14.8245 13.9999 15.0599 14.0747 15.2569 14.2139C15.4539 14.3532 15.603 14.5501 15.6834 14.7776C15.7349 14.9235 15.8423 15.0429 15.9819 15.1097C16.051 15.1427 16.126 15.1618 16.2025 15.1659C16.279 15.17 16.3555 15.1589 16.4278 15.1334C16.5 15.1079 16.5665 15.0684 16.6235 15.0172C16.6805 14.966 16.7268 14.9041 16.7598 14.8349C16.7929 14.7658 16.812 14.6909 16.816 14.6144C16.8201 14.5379 16.8091 14.4613 16.7836 14.3891ZM13.4166 14C13.1072 14 12.8104 14.1229 12.5916 14.3417C12.3728 14.5605 12.2499 14.8572 12.2499 15.1667C12.2499 15.4761 12.3728 15.7728 12.5916 15.9916C12.8104 16.2104 13.1072 16.3333 13.4166 16.3333V14ZM14.5833 19.8333C14.8927 19.8333 15.1894 19.7104 15.4082 19.4916C15.627 19.2728 15.7499 18.9761 15.7499 18.6667C15.7499 18.3572 15.627 18.0605 15.4082 17.8417C15.1894 17.6229 14.8927 17.5 14.5833 17.5V19.8333Z" fill="white"/>
<path fill-rule="evenodd" clip-rule="evenodd" d="M7.67249 5.02892C9.10399 4.32833 11.4525 3.5 14.0227 3.5C16.5392 3.5 18.8258 4.29392 20.2497 4.98517L20.3302 5.02425C20.7596 5.23658 21.1061 5.43725 21.3499 5.6L19.1951 8.75C24.1627 13.8285 27.9999 24.4982 14.0227 24.4982C0.0454078 24.4982 3.77932 14.0222 8.79016 8.75L6.64932 5.6C6.81441 5.49208 7.02382 5.36667 7.27349 5.23367C7.39716 5.16717 7.53016 5.09853 7.67249 5.02892ZM17.8102 8.70858L19.5352 6.18683C17.931 6.30233 16.0223 6.67917 14.1848 7.21117C12.8723 7.59033 11.414 7.53258 10.0636 7.2835C9.72326 7.22049 9.38529 7.14539 9.05032 7.05833L10.1703 8.70742C12.5707 9.562 15.4092 9.562 17.8102 8.70858ZM9.49657 9.70083C12.3053 10.7858 15.6811 10.7858 18.4898 9.69967C19.6619 10.9358 20.6427 12.3403 21.3995 13.8664C22.1882 15.4752 22.6175 17.0835 22.5475 18.4695C22.4798 19.8071 21.9537 20.9498 20.752 21.7992C19.4996 22.6841 17.3932 23.3316 14.0221 23.3316C10.6475 23.3316 8.53116 22.6952 7.26707 21.8202C6.05666 20.9819 5.52524 19.8543 5.44999 18.5348C5.37124 17.164 5.79124 15.5639 6.57699 13.944C7.32657 12.3993 8.37249 10.9124 9.49657 9.70083ZM8.82574 5.78433C9.29241 5.92317 9.78007 6.04392 10.2747 6.1355C11.5289 6.3665 12.7866 6.40033 13.8599 6.08942C15.1107 5.72489 16.3828 5.43832 17.6691 5.23133C16.5957 4.90817 15.3404 4.66667 14.0221 4.66667C12.0125 4.66667 10.1382 5.22725 8.82574 5.78433Z" fill="white"/>
</svg>
