<?xml version="1.0" encoding="UTF-8"?><svg id="b" xmlns="http://www.w3.org/2000/svg" width="1177.36" height="296" viewBox="0 0 1177.36 296"><defs><style>.d{fill:#fff;stroke-width:0px;}</style></defs><g id="c"><path class="d" d="M458.36,262.51h27.29v25.3c-2.1,1.13-4.2,2.16-6.3,3.1-2.1.94-4.35,1.74-6.74,2.42-2.39.68-5,1.21-7.83,1.6-2.83.39-6,.58-9.52.58-5.65,0-10.86-.79-15.63-2.38-4.77-1.58-8.89-3.81-12.36-6.69-3.47-2.88-6.18-6.35-8.12-10.42-1.94-4.07-2.91-8.58-2.91-13.52,0-5.23.97-10.02,2.91-14.35,1.94-4.33,4.64-8.05,8.09-11.15,3.46-3.1,7.57-5.51,12.33-7.22,4.77-1.71,9.98-2.57,15.63-2.57,3.33,0,6.53.45,9.62,1.36,3.09.9,5.94,2.1,8.55,3.59,2.62,1.49,4.98,3.19,7.08,5.11,2.1,1.92,3.83,3.9,5.19,5.94l-6.64,6.06c-1.39-1.97-2.84-3.8-4.36-5.48-1.52-1.68-3.13-3.14-4.85-4.39-1.71-1.24-3.55-2.22-5.5-2.93-1.96-.71-4.05-1.07-6.28-1.07-3.39,0-6.55.61-9.48,1.84-2.92,1.23-5.46,3-7.61,5.31-2.15,2.31-3.83,5.15-5.04,8.51-1.21,3.36-1.82,7.17-1.82,11.44s.65,8.03,1.94,11.29c1.29,3.26,3.05,6.01,5.28,8.24,2.23,2.23,4.84,3.92,7.83,5.06,2.99,1.15,6.2,1.72,9.62,1.72,2.04,0,3.96-.27,5.77-.8,1.81-.53,3.47-1.35,4.99-2.45v-17.45h-11.15v-5.62Z"/><path class="d" d="M521.54,228.82h16.14v42.26c0,2.52.4,4.9,1.19,7.12.79,2.23,1.92,4.18,3.39,5.84,1.47,1.66,3.25,2.98,5.33,3.95,2.08.97,4.43,1.45,7.05,1.45s4.86-.48,6.93-1.45c2.07-.97,3.83-2.29,5.28-3.95,1.45-1.66,2.58-3.61,3.37-5.84.79-2.23,1.19-4.6,1.19-7.12v-42.26h10.18v42.26c0,3.39-.57,6.6-1.72,9.62-1.15,3.02-2.95,5.66-5.4,7.92-2.46,2.26-5.61,4.06-9.45,5.38-3.85,1.32-8.47,1.99-13.86,1.99-4.81,0-9.07-.66-12.77-1.99-3.7-1.32-6.79-3.13-9.28-5.4-2.49-2.28-4.37-4.94-5.65-7.97-1.28-3.04-1.91-6.27-1.91-9.69v-42.12Z"/><path class="d" d="M617.92,228.82h24.72c4.27,0,7.99.44,11.17,1.33,3.18.89,5.83,2.13,7.95,3.73,2.12,1.6,3.71,3.5,4.77,5.69,1.07,2.2,1.6,4.59,1.6,7.17,0,1.87-.36,3.64-1.09,5.31-.73,1.66-1.74,3.2-3.05,4.6-1.31,1.41-2.89,2.65-4.75,3.73-1.86,1.08-3.9,1.98-6.13,2.69l23.41,31.45h-17.54l-22.05-29.71h-2.86v29.71h-16.14v-65.72ZM634.06,259.07h3.49c1.97,0,3.8-.27,5.48-.82,1.68-.55,3.13-1.33,4.36-2.35,1.23-1.02,2.19-2.27,2.88-3.76.69-1.49,1.04-3.17,1.04-5.04,0-1.75-.27-3.34-.8-4.8-.53-1.45-1.27-2.71-2.21-3.76-.94-1.05-2.07-1.87-3.39-2.45-1.32-.58-2.76-.87-4.31-.87h-6.54v23.85Z"/><path class="d" d="M701.07,228.82h16.14v42.26c0,2.52.4,4.9,1.19,7.12.79,2.23,1.92,4.18,3.39,5.84,1.47,1.66,3.25,2.98,5.33,3.95,2.08.97,4.43,1.45,7.05,1.45s4.86-.48,6.93-1.45c2.07-.97,3.83-2.29,5.28-3.95,1.45-1.66,2.58-3.61,3.37-5.84.79-2.23,1.19-4.6,1.19-7.12v-42.26h10.18v42.26c0,3.39-.57,6.6-1.72,9.62-1.15,3.02-2.95,5.66-5.4,7.92-2.46,2.26-5.61,4.06-9.45,5.38-3.85,1.32-8.47,1.99-13.86,1.99-4.81,0-9.07-.66-12.77-1.99-3.7-1.32-6.79-3.13-9.28-5.4-2.49-2.28-4.37-4.94-5.65-7.97-1.28-3.04-1.91-6.27-1.91-9.69v-42.12Z"/><polygon class="d" points="291.85 80.53 202.53 80.53 202.53 22.56 173.5 22.56 173.5 166.34 202.53 166.34 202.53 108.37 291.85 108.37 291.85 166.34 320.86 166.34 320.86 22.56 291.85 22.56 291.85 80.53"/><path class="d" d="M643.69,103.95c0,11.95-3.5,20.84-10.39,26.4-7,5.67-18.17,8.55-33.18,8.55s-26.22-2.91-33.29-8.64c-6.96-5.62-10.48-14.49-10.48-26.31V22.56h-29.03v81.59c0,12.94,2.93,24.3,8.73,33.72,5.8,9.44,14.27,16.72,25.17,21.66,10.79,4.9,23.89,7.38,38.89,7.38s27.87-2.48,38.62-7.38c10.84-4.94,19.25-12.24,24.98-21.69,5.71-9.42,8.62-20.75,8.62-33.7V22.56h-28.63v81.4h-.02Z"/><path class="d" d="M832.73,103.23c5.92-7.81,8.92-17.63,8.92-29.2,0-16.51-6.54-29.39-19.46-38.28-12.69-8.74-30.9-13.18-54.14-13.18h-65.31v143.76h29.03V50.4h36.49c14.74,0,26.01,2.12,33.54,6.32,7.29,4.07,10.84,9.74,10.84,17.31,0,8.62-3.77,14.73-11.55,18.67-8.05,4.1-21.21,5.58-39.11,5.58h-20.09l76.27,67.41.48.42,43.01.23-52.41-46.66c10.2-3.8,18.11-9.32,23.53-16.47"/><path class="d" d="M989.4,103.95c0,11.95-3.5,20.84-10.39,26.4-7,5.67-18.17,8.55-33.18,8.55s-26.23-2.91-33.29-8.64c-6.96-5.62-10.48-14.49-10.48-26.31V22.56h-29.03v81.59c0,12.94,2.93,24.3,8.73,33.72,5.8,9.44,14.27,16.72,25.17,21.66,10.79,4.9,23.88,7.38,38.89,7.38s27.87-2.48,38.62-7.38c10.84-4.94,19.25-12.24,24.98-21.69,5.71-9.42,8.62-20.75,8.62-33.7V22.56h-28.63v81.4h-.02Z"/><path class="d" d="M1167.39,100.6c-6.41-5.77-14.27-10.02-23.4-12.67-8.92-2.57-21.31-5.35-36.79-8.28-10.81-1.95-18.59-4.16-23.13-6.58-4.15-2.21-6.18-4.94-6.18-8.38,0-4.1,3.16-7.49,9.38-10.1,6.72-2.8,15.71-4.22,26.71-4.22,6.89,0,13.89.98,20.81,2.91s14.69,5.22,23.08,9.76l1.18.64,17.5-19.16-1.01-1.17c-2.78-3.2-7.67-6.49-14.55-9.74-6.77-3.2-14.52-5.88-23.06-7.96-8.56-2.06-16.74-3.12-24.33-3.12-12.73,0-24.07,1.7-33.73,5.05-9.76,3.4-17.39,8.3-22.7,14.6-5.38,6.37-8.1,13.94-8.1,22.51,0,10.63,3.37,19.08,10.01,25.06,6.47,5.84,14.25,10.06,23.13,12.56,8.69,2.44,21.19,5.16,37.19,8.06,10.79,1.93,18.55,4.12,23.04,6.47,4.09,2.14,6.07,4.8,6.07,8.08,0,4.14-3.06,7.38-9.36,9.89-6.72,2.67-15.98,4.05-27.53,4.05-9.34,0-18.36-1.53-26.79-4.56-8.43-3.01-16.15-7.43-22.92-13.09l-.97-.83-21.31,14.24,1.16,1.46c7.88,9.95,18,17.65,30.1,22.9,12.04,5.22,25.76,7.87,40.75,7.87,13.26,0,24.9-1.66,34.62-4.94,9.82-3.31,17.54-8.15,22.89-14.37,5.44-6.3,8.2-13.92,8.2-22.64,0-10.25-3.33-18.44-9.93-24.38"/><polygon class="d" points="114.39 22.56 30.61 22.56 30.61 0 0 22.56 0 50.4 58.08 50.4 58.08 166.34 87.11 166.34 87.11 50.4 145 50.4 145 22.56 114.39 0 114.39 22.56"/><polygon class="d" points="372.29 166.34 429.13 63.04 450.74 102.64 465.54 129.84 485.08 166.34 515.33 166.34 437.69 23.38 437.22 22.56 420.86 22.56 342.04 166.34 372.29 166.34"/></g></svg>