<svg width="243" height="60" viewBox="0 0 243 60" fill="none" xmlns="http://www.w3.org/2000/svg">
<rect x="0.319068" y="0.319068" width="241.853" height="58.9212" rx="11.3495" fill="url(#paint0_radial_596_4564)" stroke="#00B67B" stroke-width="0.638136"/>
<g clip-path="url(#clip0_596_4564)">
<mask id="mask0_596_4564" style="mask-type:luminance" maskUnits="userSpaceOnUse" x="16" y="20" width="73" height="20">
<path d="M16.1914 20.3911H88.0291V39.1673H16.1914V20.3911Z" fill="white"/>
</mask>
<g mask="url(#mask0_596_4564)">
<path d="M35.0625 26.9626H42.3301V28.4002H39.479V36.4094H37.9136V28.3709H35.0625V26.9626ZM42.0227 29.5444H43.3644V30.8646H43.3923C43.4482 30.6886 43.5321 30.5125 43.6439 30.3365C43.7557 30.1605 43.9234 29.9844 44.0911 29.8671C44.2588 29.7204 44.4545 29.6031 44.6502 29.515C44.8458 29.427 45.0695 29.3684 45.2931 29.3684H45.6285C45.6844 29.3684 45.7683 29.3977 45.8242 29.3977V30.8352C45.7124 30.8059 45.6285 30.8059 45.5167 30.7766C45.4049 30.7766 45.321 30.7472 45.2092 30.7472C44.9577 30.7472 44.734 30.8059 44.5384 30.8939C44.3148 30.9819 44.147 31.158 43.9793 31.334C43.8116 31.5394 43.6998 31.7741 43.588 32.0674C43.5041 32.3608 43.4482 32.6835 43.4482 33.0649V36.3214H42.0227V29.5444ZM52.4489 36.3801H51.0233V35.4413H50.9954C50.8277 35.7933 50.5481 36.0574 50.2127 36.2627C49.8773 36.4681 49.5139 36.5855 49.1505 36.5855C48.284 36.5855 47.669 36.3801 47.3057 35.9107C46.9143 35.4706 46.7466 34.7959 46.7466 33.8864V29.5444H48.1722V33.7397C48.1722 34.3264 48.284 34.7665 48.5076 35.0012C48.7312 35.2359 49.0387 35.3826 49.43 35.3826C49.7375 35.3826 49.9891 35.3239 50.1848 35.2359C50.3804 35.1479 50.5481 35.0012 50.66 34.8545C50.7997 34.7078 50.8836 34.5025 50.9395 34.2678C50.9954 34.0331 51.0233 33.7984 51.0233 33.5343V29.5737H52.4489V36.3801ZM54.8808 34.1798C54.9367 34.6198 55.0764 34.9132 55.356 35.1186C55.6355 35.2946 55.9709 35.3826 56.3622 35.3826C56.502 35.3826 56.6418 35.3826 56.8095 35.3533C56.9772 35.3239 57.1449 35.2946 57.2847 35.2359C57.4244 35.1772 57.5642 35.0892 57.6481 34.9719C57.7319 34.8545 57.7878 34.7078 57.7878 34.5025C57.7878 34.2971 57.704 34.1504 57.5922 34.0331C57.4524 33.9157 57.3126 33.8277 57.117 33.7397C56.9213 33.681 56.6977 33.593 56.4461 33.5343L55.6914 33.3583C55.4119 33.2996 55.1603 33.2116 54.9087 33.1236C54.6572 33.0356 54.4335 32.9182 54.2379 32.7715C54.0422 32.6249 53.8745 32.4195 53.7627 32.1848C53.6509 31.9501 53.595 31.6567 53.595 31.334C53.595 30.9526 53.6788 30.6592 53.8465 30.3952C54.0142 30.1311 54.2379 29.9551 54.4894 29.7791C54.769 29.6324 55.0485 29.515 55.3839 29.4564C55.7193 29.3977 56.0268 29.3684 56.3063 29.3684C56.6418 29.3684 56.9772 29.3977 57.2567 29.4857C57.5642 29.5444 57.8437 29.6911 58.0953 29.8378C58.3469 30.0138 58.5425 30.2191 58.7103 30.4832C58.878 30.7472 58.9898 31.0699 59.0177 31.4513H57.5083C57.4524 31.0993 57.2847 30.8352 57.0331 30.7179C56.7815 30.6005 56.502 30.5419 56.1945 30.5419C56.0827 30.5419 55.9709 30.5419 55.8312 30.5712C55.6914 30.6005 55.5516 30.6299 55.4398 30.6592C55.328 30.7179 55.2162 30.7766 55.1323 30.8646C55.0485 30.9526 54.9926 31.0699 54.9926 31.2166C54.9926 31.3927 55.0485 31.5394 55.1882 31.6567C55.3001 31.7741 55.4678 31.8621 55.6634 31.9501C55.8591 32.0088 56.0827 32.0968 56.3343 32.1554C56.5859 32.2141 56.8374 32.2728 57.117 32.3315C57.3685 32.3901 57.6201 32.4782 57.8717 32.5662C58.1233 32.6542 58.3469 32.7715 58.5425 32.9182C58.7382 33.0649 58.9059 33.2703 59.0177 33.4756C59.1295 33.681 59.2134 33.9744 59.2134 34.3264C59.2134 34.7372 59.1295 35.0599 58.9339 35.3533C58.7662 35.6467 58.5146 35.852 58.263 36.028C57.9835 36.2041 57.676 36.3214 57.3126 36.4094C56.9772 36.4974 56.6418 36.5268 56.2784 36.5268C55.8591 36.5268 55.4957 36.4681 55.1323 36.3801C54.7969 36.2921 54.4894 36.1454 54.2379 35.94C53.9863 35.7347 53.7906 35.5 53.6229 35.2066C53.4831 34.9132 53.3993 34.5612 53.3993 34.1504L54.8808 34.1798ZM59.6047 29.5444H60.6949V27.4907H62.1204V29.5444H63.4063V30.6592H62.1204V34.2971C62.1204 34.4438 62.1204 34.5905 62.1484 34.7078C62.1484 34.8252 62.2043 34.9132 62.2323 35.0012C62.2882 35.0892 62.3441 35.1479 62.4279 35.1772C62.5118 35.2066 62.6515 35.2359 62.8193 35.2359H63.1267C63.2385 35.2359 63.3224 35.2066 63.4342 35.1772V36.3508C63.2665 36.3801 63.1267 36.3801 62.959 36.4094C62.8193 36.4388 62.6515 36.4388 62.4838 36.4388C62.0925 36.4388 61.813 36.4094 61.5614 36.3214C61.3378 36.2627 61.1421 36.1454 61.0303 35.9987C60.8905 35.852 60.8067 35.676 60.7508 35.4413C60.6949 35.2359 60.6669 34.9719 60.6669 34.6785V30.6886H59.5768L59.6047 29.5444ZM64.4405 29.5444H65.8102V30.4832H65.8381C66.0338 30.0725 66.3133 29.8084 66.6767 29.6324C67.0401 29.4564 67.4314 29.3684 67.8507 29.3684C68.3538 29.3684 68.8011 29.4564 69.1924 29.6617C69.5837 29.8378 69.8912 30.1018 70.1428 30.4539C70.3944 30.7766 70.59 31.1873 70.7018 31.598C70.8416 32.0381 70.8975 32.5075 70.8975 33.0062C70.8975 33.4756 70.8416 33.9157 70.7298 34.3264C70.618 34.7665 70.4503 35.1479 70.2267 35.4706C70.003 35.7933 69.6956 36.0574 69.3601 36.2627C68.9967 36.4681 68.6054 36.5561 68.1023 36.5561C67.9066 36.5561 67.683 36.5268 67.4873 36.4974C67.2916 36.4681 67.068 36.3801 66.8724 36.2921C66.6767 36.2041 66.509 36.0867 66.3413 35.94C66.1735 35.7933 66.0338 35.6467 65.922 35.4706H65.894V38.8738H64.4685V29.5444H64.4405ZM69.444 32.9769C69.444 32.6835 69.416 32.3608 69.3322 32.0674C69.2483 31.7741 69.1365 31.51 68.9967 31.3046C68.857 31.0699 68.6613 30.8939 68.4377 30.7766C68.2141 30.6299 67.9625 30.5712 67.655 30.5712C67.0401 30.5712 66.5928 30.7766 66.2854 31.2166C65.9779 31.6567 65.8381 32.2435 65.8381 32.9769C65.8381 33.329 65.8661 33.6517 65.9499 33.9451C66.0338 34.2384 66.1456 34.5025 66.3133 34.7078C66.481 34.9132 66.6487 35.0892 66.8724 35.2066C67.096 35.3239 67.3476 35.3826 67.655 35.3826C67.9905 35.3826 68.27 35.3239 68.4936 35.1772C68.7172 35.0306 68.9129 34.8545 69.0527 34.6198C69.1924 34.3851 69.3042 34.1504 69.3601 33.857C69.416 33.5637 69.444 33.2703 69.444 32.9769ZM71.9597 26.9626H73.3853V28.4002H71.9597V26.9626ZM71.9597 29.5444H73.3853V36.3801H71.9597V29.5444ZM74.6711 26.9626H76.0967V36.3801H74.6711V26.9626ZM80.5131 36.5561C79.9821 36.5561 79.5348 36.4681 79.1155 36.2921C78.6962 36.1161 78.3608 35.852 78.0813 35.5586C77.8018 35.2359 77.5781 34.8545 77.4384 34.4145C77.2986 33.9744 77.2148 33.4756 77.2148 32.9769C77.2148 32.4488 77.2986 31.9794 77.4384 31.5394C77.5781 31.0993 77.8018 30.7179 78.0813 30.3952C78.3608 30.0725 78.6962 29.8378 79.1155 29.6617C79.5348 29.4857 79.9821 29.3977 80.5131 29.3977C81.0442 29.3977 81.4915 29.4857 81.9108 29.6617C82.3301 29.8378 82.6655 30.1018 82.945 30.3952C83.2245 30.7179 83.4482 31.0993 83.5879 31.5394C83.7277 31.9794 83.8115 32.4488 83.8115 32.9769C83.8115 33.505 83.7277 33.9744 83.5879 34.4145C83.4482 34.8545 83.2245 35.2359 82.945 35.5586C82.6655 35.8814 82.3301 36.1161 81.9108 36.2921C81.4915 36.4681 81.0442 36.5561 80.5131 36.5561ZM80.5131 35.3826C80.8206 35.3826 81.1001 35.3239 81.3517 35.1772C81.5753 35.0306 81.771 34.8545 81.9387 34.6198C82.0785 34.3851 82.1903 34.1211 82.2741 33.857C82.3301 33.5637 82.386 33.2703 82.386 32.9769C82.386 32.6835 82.358 32.3901 82.2741 32.0968C82.2182 31.8034 82.0785 31.5394 81.9387 31.334C81.799 31.0993 81.6033 30.9233 81.3517 30.7766C81.1281 30.6299 80.8486 30.5712 80.5131 30.5712C80.2057 30.5712 79.9261 30.6299 79.6746 30.7766C79.451 30.9233 79.2553 31.0993 79.0876 31.334C78.9478 31.5687 78.836 31.8034 78.7521 32.0968C78.6962 32.3901 78.6403 32.6835 78.6403 32.9769C78.6403 33.2703 78.6683 33.5637 78.7521 33.857C78.808 34.1504 78.9478 34.4145 79.0876 34.6198C79.2273 34.8545 79.423 35.0306 79.6746 35.1772C79.9261 35.3239 80.2057 35.3826 80.5131 35.3826ZM84.2029 29.5444H85.293V27.4907H86.7186V29.5444H88.0044V30.6592H86.7186V34.2971C86.7186 34.4438 86.7186 34.5905 86.7465 34.7078C86.7465 34.8252 86.8024 34.9132 86.8304 35.0012C86.8863 35.0892 86.9422 35.1479 87.0261 35.1772C87.1099 35.2066 87.2497 35.2359 87.4174 35.2359H87.7249C87.8367 35.2359 87.9205 35.2066 88.0323 35.1772V36.3508C87.8646 36.3801 87.7249 36.3801 87.5572 36.4094C87.4174 36.4388 87.2497 36.4388 87.082 36.4388C86.6906 36.4388 86.4111 36.4094 86.1595 36.3214C85.9359 36.2627 85.7402 36.1454 85.6284 35.9987C85.4887 35.852 85.4048 35.676 85.3489 35.4413C85.293 35.2359 85.2651 34.9719 85.2651 34.6785V30.6886H84.1749L84.2029 29.5444Z" fill="white"/>
<path d="M33.3821 26.9628H26.8133L24.8008 20.3911L22.7602 26.9628L16.1914 26.9335L21.5024 30.9821L19.4618 37.5244L24.7728 33.4758L30.0838 37.5244L28.0432 30.9821L33.3821 26.9628Z" fill="#04DA8D"/>
<path d="M28.5464 32.4784L28.0992 30.9822L24.8008 33.4759L28.5464 32.4784Z" fill="#005128"/>
</g>
</g>
<path d="M103.518 20.4045V22.1403H105.56V22.9316H103.518V24.7439H105.816V25.5352H102.548V19.6133H105.816V20.4045H103.518ZM109.018 23.1613L110.533 25.5352H109.435L108.423 23.9441L107.47 25.5352H106.457L107.972 23.2294L106.457 20.847H107.555L108.567 22.4381L109.52 20.847H110.533L109.018 23.1613ZM110.933 23.1868C110.933 22.7047 111.029 22.2821 111.222 21.9191C111.421 21.5504 111.693 21.2667 112.039 21.0682C112.385 20.8697 112.782 20.7704 113.23 20.7704C113.797 20.7704 114.265 20.9065 114.634 21.1788C115.008 21.4454 115.261 21.8283 115.391 22.3275H114.345C114.26 22.0949 114.124 21.9134 113.936 21.7829C113.749 21.6525 113.514 21.5872 113.23 21.5872C112.833 21.5872 112.515 21.729 112.277 22.0126C112.045 22.2906 111.928 22.682 111.928 23.1868C111.928 23.6917 112.045 24.0859 112.277 24.3695C112.515 24.6531 112.833 24.7949 113.23 24.7949C113.792 24.7949 114.163 24.5482 114.345 24.0547H115.391C115.255 24.5312 115 24.9112 114.626 25.1948C114.251 25.4728 113.786 25.6117 113.23 25.6117C112.782 25.6117 112.385 25.5125 112.039 25.3139C111.693 25.1097 111.421 24.8261 111.222 24.4631C111.029 24.0944 110.933 23.669 110.933 23.1868ZM120.655 23.0762C120.655 23.252 120.643 23.4109 120.621 23.5527H117.039C117.067 23.9271 117.206 24.2277 117.456 24.4546C117.705 24.6815 118.011 24.7949 118.374 24.7949C118.896 24.7949 119.265 24.5765 119.481 24.1398H120.527C120.385 24.5709 120.127 24.9254 119.753 25.2033C119.384 25.4756 118.925 25.6117 118.374 25.6117C117.926 25.6117 117.524 25.5125 117.166 25.3139C116.815 25.1097 116.537 24.8261 116.332 24.4631C116.134 24.0944 116.035 23.669 116.035 23.1868C116.035 22.7047 116.131 22.2821 116.324 21.9191C116.522 21.5504 116.798 21.2667 117.149 21.0682C117.507 20.8697 117.915 20.7704 118.374 20.7704C118.817 20.7704 119.211 20.8668 119.557 21.0597C119.903 21.2526 120.173 21.5248 120.365 21.8765C120.558 22.2225 120.655 22.6224 120.655 23.0762ZM119.642 22.7699C119.637 22.4125 119.509 22.1261 119.259 21.9105C119.01 21.695 118.701 21.5872 118.332 21.5872C117.997 21.5872 117.711 21.695 117.473 21.9105C117.234 22.1204 117.093 22.4069 117.047 22.7699H119.642ZM122.579 19.2389V25.5352H121.609V19.2389H122.579ZM124.823 19.2389V25.5352H123.853V19.2389H124.823ZM130.393 23.0762C130.393 23.252 130.382 23.4109 130.359 23.5527H126.777C126.805 23.9271 126.944 24.2277 127.194 24.4546C127.443 24.6815 127.75 24.7949 128.113 24.7949C128.635 24.7949 129.003 24.5765 129.219 24.1398H130.265C130.124 24.5709 129.865 24.9254 129.491 25.2033C129.122 25.4756 128.663 25.6117 128.113 25.6117C127.665 25.6117 127.262 25.5125 126.904 25.3139C126.553 25.1097 126.275 24.8261 126.071 24.4631C125.872 24.0944 125.773 23.669 125.773 23.1868C125.773 22.7047 125.869 22.2821 126.062 21.9191C126.261 21.5504 126.536 21.2667 126.887 21.0682C127.245 20.8697 127.653 20.7704 128.113 20.7704C128.555 20.7704 128.949 20.8668 129.295 21.0597C129.641 21.2526 129.911 21.5248 130.104 21.8765C130.297 22.2225 130.393 22.6224 130.393 23.0762ZM129.38 22.7699C129.375 22.4125 129.247 22.1261 128.998 21.9105C128.748 21.695 128.439 21.5872 128.07 21.5872C127.735 21.5872 127.449 21.695 127.211 21.9105C126.973 22.1204 126.831 22.4069 126.785 22.7699H129.38ZM133.713 20.7704C134.082 20.7704 134.411 20.847 134.7 21.0001C134.995 21.1533 135.225 21.3802 135.389 21.6808C135.554 21.9814 135.636 22.3445 135.636 22.7699V25.5352H134.674V22.9145C134.674 22.4948 134.569 22.1743 134.359 21.9531C134.15 21.7262 133.863 21.6127 133.5 21.6127C133.137 21.6127 132.848 21.7262 132.632 21.9531C132.422 22.1743 132.317 22.4948 132.317 22.9145V25.5352H131.347V20.847H132.317V21.383C132.476 21.1902 132.678 21.0398 132.922 20.9321C133.171 20.8243 133.435 20.7704 133.713 20.7704ZM138.005 21.6383V24.2334C138.005 24.4092 138.044 24.5368 138.124 24.6162C138.209 24.69 138.351 24.7269 138.549 24.7269H139.145V25.5352H138.379C137.942 25.5352 137.608 25.4331 137.375 25.2289C137.142 25.0246 137.026 24.6928 137.026 24.2334V21.6383H136.473V20.847H137.026V19.6813H138.005V20.847H139.145V21.6383H138.005Z" fill="white"/>
<path d="M105.988 39.2155C106.23 39.2538 106.45 39.3527 106.648 39.5122C106.853 39.6718 107.012 39.8696 107.127 40.1057C107.248 40.3418 107.309 40.5939 107.309 40.8619C107.309 41.2001 107.223 41.5064 107.05 41.7808C106.878 42.0488 106.626 42.2626 106.294 42.4221C105.969 42.5753 105.583 42.6519 105.136 42.6519H102.647V35.9801H105.04C105.493 35.9801 105.879 36.0567 106.198 36.2099C106.517 36.3566 106.757 36.5577 106.916 36.8129C107.076 37.0682 107.156 37.3553 107.156 37.6744C107.156 38.07 107.047 38.3987 106.83 38.6603C106.62 38.9156 106.339 39.1006 105.988 39.2155ZM103.518 38.8613H104.983C105.391 38.8613 105.707 38.7656 105.93 38.5742C106.154 38.3827 106.265 38.1179 106.265 37.7797C106.265 37.4415 106.154 37.1767 105.93 36.9852C105.707 36.7938 105.385 36.698 104.964 36.698H103.518V38.8613ZM105.059 41.934C105.493 41.934 105.831 41.8319 106.074 41.6276C106.316 41.4234 106.438 41.1395 106.438 40.7757C106.438 40.4056 106.31 40.1153 106.055 39.9047C105.8 39.6877 105.458 39.5792 105.031 39.5792H103.518V41.934H105.059ZM108.192 40.01C108.192 39.4739 108.301 39.0049 108.518 38.6029C108.735 38.1945 109.031 37.8786 109.408 37.6553C109.791 37.4319 110.215 37.3202 110.681 37.3202C111.14 37.3202 111.539 37.4191 111.877 37.617C112.216 37.8148 112.468 38.0637 112.634 38.3636V37.4064H113.514V42.6519H112.634V41.6755C112.461 41.9818 112.203 42.2371 111.858 42.4413C111.52 42.6391 111.124 42.738 110.671 42.738C110.205 42.738 109.784 42.6231 109.408 42.3934C109.031 42.1637 108.735 41.8414 108.518 41.4266C108.301 41.0118 108.192 40.5396 108.192 40.01ZM112.634 40.0195C112.634 39.6239 112.554 39.2793 112.394 38.9858C112.235 38.6922 112.018 38.4689 111.743 38.3157C111.475 38.1562 111.179 38.0764 110.853 38.0764C110.528 38.0764 110.231 38.153 109.963 38.3062C109.695 38.4593 109.481 38.6827 109.322 38.9762C109.162 39.2697 109.082 39.6143 109.082 40.01C109.082 40.412 109.162 40.763 109.322 41.0629C109.481 41.3564 109.695 41.583 109.963 41.7425C110.231 41.8957 110.528 41.9722 110.853 41.9722C111.179 41.9722 111.475 41.8957 111.743 41.7425C112.018 41.583 112.235 41.3564 112.394 41.0629C112.554 40.763 112.634 40.4152 112.634 40.0195ZM116.843 42.738C116.441 42.738 116.081 42.671 115.761 42.537C115.442 42.3966 115.19 42.2052 115.005 41.9627C114.82 41.7138 114.718 41.4298 114.699 41.1108H115.599C115.624 41.3724 115.746 41.5862 115.962 41.7521C116.186 41.918 116.476 42.001 116.834 42.001C117.165 42.001 117.427 41.9276 117.618 41.7808C117.81 41.634 117.906 41.449 117.906 41.2256C117.906 40.9959 117.804 40.8268 117.599 40.7183C117.395 40.6034 117.079 40.4918 116.652 40.3833C116.262 40.2812 115.943 40.1791 115.694 40.077C115.452 39.9685 115.241 39.8122 115.063 39.6079C114.89 39.3974 114.804 39.123 114.804 38.7848C114.804 38.5167 114.884 38.2711 115.044 38.0477C115.203 37.8244 115.43 37.6489 115.723 37.5212C116.017 37.3872 116.352 37.3202 116.728 37.3202C117.309 37.3202 117.778 37.467 118.135 37.7605C118.493 38.0541 118.684 38.4561 118.71 38.9666H117.839C117.819 38.6922 117.708 38.4721 117.504 38.3062C117.306 38.1402 117.038 38.0573 116.7 38.0573C116.387 38.0573 116.138 38.1243 115.953 38.2583C115.768 38.3923 115.675 38.5678 115.675 38.7848C115.675 38.957 115.73 39.1006 115.838 39.2155C115.953 39.324 116.093 39.4133 116.259 39.4835C116.432 39.5473 116.668 39.6207 116.968 39.7037C117.344 39.8058 117.65 39.9079 117.886 40.01C118.123 40.1057 118.324 40.2525 118.49 40.4503C118.662 40.6481 118.751 40.9066 118.758 41.2256C118.758 41.5128 118.678 41.7712 118.518 42.001C118.359 42.2307 118.132 42.4126 117.839 42.5466C117.551 42.6742 117.22 42.738 116.843 42.738ZM124.773 39.8281C124.773 39.994 124.764 40.1695 124.744 40.3546H120.552C120.584 40.8715 120.759 41.2767 121.078 41.5702C121.404 41.8574 121.796 42.001 122.256 42.001C122.632 42.001 122.945 41.9148 123.194 41.7425C123.449 41.5638 123.628 41.3277 123.73 41.0342H124.668C124.528 41.5383 124.247 41.9499 123.826 42.269C123.404 42.5817 122.881 42.738 122.256 42.738C121.758 42.738 121.311 42.6263 120.916 42.403C120.526 42.1796 120.22 41.8638 119.997 41.4554C119.773 41.0406 119.662 40.562 119.662 40.0195C119.662 39.4771 119.77 39.0017 119.987 38.5933C120.204 38.1849 120.507 37.8722 120.897 37.6553C121.292 37.4319 121.745 37.3202 122.256 37.3202C122.753 37.3202 123.194 37.4287 123.577 37.6457C123.96 37.8626 124.253 38.1626 124.457 38.5455C124.668 38.922 124.773 39.3495 124.773 39.8281ZM123.873 39.6462C123.873 39.3144 123.8 39.0304 123.653 38.7943C123.506 38.5518 123.305 38.37 123.05 38.2487C122.801 38.1211 122.524 38.0573 122.217 38.0573C121.777 38.0573 121.401 38.1977 121.088 38.4784C120.782 38.7592 120.606 39.1485 120.561 39.6462H123.873ZM125.597 40.01C125.597 39.4739 125.706 39.0049 125.923 38.6029C126.14 38.1945 126.437 37.8786 126.813 37.6553C127.196 37.4319 127.624 37.3202 128.096 37.3202C128.504 37.3202 128.884 37.416 129.235 37.6074C129.586 37.7925 129.854 38.0381 130.039 38.3444V35.5686H130.92V42.6519H130.039V41.6659C129.867 41.9786 129.611 42.2371 129.273 42.4413C128.935 42.6391 128.539 42.738 128.086 42.738C127.62 42.738 127.196 42.6231 126.813 42.3934C126.437 42.1637 126.14 41.8414 125.923 41.4266C125.706 41.0118 125.597 40.5396 125.597 40.01ZM130.039 40.0195C130.039 39.6239 129.959 39.2793 129.8 38.9858C129.64 38.6922 129.423 38.4689 129.149 38.3157C128.881 38.1562 128.584 38.0764 128.259 38.0764C127.933 38.0764 127.636 38.153 127.368 38.3062C127.1 38.4593 126.887 38.6827 126.727 38.9762C126.567 39.2697 126.488 39.6143 126.488 40.01C126.488 40.412 126.567 40.763 126.727 41.0629C126.887 41.3564 127.1 41.583 127.368 41.7425C127.636 41.8957 127.933 41.9722 128.259 41.9722C128.584 41.9722 128.881 41.8957 129.149 41.7425C129.423 41.583 129.64 41.3564 129.8 41.0629C129.959 40.763 130.039 40.4152 130.039 40.0195ZM137.231 42.738C136.74 42.738 136.293 42.6263 135.891 42.403C135.495 42.1796 135.183 41.8638 134.953 41.4554C134.73 41.0406 134.618 40.562 134.618 40.0195C134.618 39.4835 134.733 39.0113 134.963 38.6029C135.199 38.1881 135.518 37.8722 135.92 37.6553C136.322 37.4319 136.772 37.3202 137.269 37.3202C137.767 37.3202 138.217 37.4319 138.619 37.6553C139.021 37.8722 139.337 38.1849 139.567 38.5933C139.803 39.0017 139.921 39.4771 139.921 40.0195C139.921 40.562 139.8 41.0406 139.557 41.4554C139.321 41.8638 138.999 42.1796 138.59 42.403C138.182 42.6263 137.729 42.738 137.231 42.738ZM137.231 41.9722C137.544 41.9722 137.837 41.8989 138.112 41.7521C138.386 41.6053 138.606 41.3852 138.772 41.0916C138.945 40.7981 139.031 40.4407 139.031 40.0195C139.031 39.5984 138.948 39.241 138.782 38.9475C138.616 38.6539 138.399 38.437 138.131 38.2966C137.863 38.1498 137.573 38.0764 137.26 38.0764C136.941 38.0764 136.647 38.1498 136.379 38.2966C136.118 38.437 135.907 38.6539 135.748 38.9475C135.588 39.241 135.508 39.5984 135.508 40.0195C135.508 40.4471 135.585 40.8076 135.738 41.1012C135.897 41.3947 136.108 41.6149 136.37 41.7617C136.631 41.902 136.918 41.9722 137.231 41.9722ZM143.622 37.3107C144.26 37.3107 144.777 37.5053 145.173 37.8946C145.568 38.2774 145.766 38.8326 145.766 39.5601V42.6519H144.905V39.6845C144.905 39.1613 144.774 38.7624 144.512 38.488C144.25 38.2072 143.893 38.0669 143.44 38.0669C142.981 38.0669 142.614 38.2104 142.339 38.4976C142.071 38.7848 141.937 39.2027 141.937 39.7515V42.6519H141.066V37.4064H141.937V38.153C142.11 37.885 142.342 37.6776 142.636 37.5308C142.936 37.384 143.265 37.3107 143.622 37.3107ZM150.612 38.2583C150.765 37.9584 150.982 37.7254 151.263 37.5595C151.55 37.3936 151.898 37.3107 152.306 37.3107V38.2104H152.076C151.1 38.2104 150.612 38.7401 150.612 39.7994V42.6519H149.741V37.4064H150.612V38.2583ZM158.098 39.8281C158.098 39.994 158.088 40.1695 158.069 40.3546H153.876C153.908 40.8715 154.084 41.2767 154.403 41.5702C154.728 41.8574 155.121 42.001 155.58 42.001C155.957 42.001 156.269 41.9148 156.518 41.7425C156.774 41.5638 156.952 41.3277 157.054 41.0342H157.992C157.852 41.5383 157.571 41.9499 157.15 42.269C156.729 42.5817 156.206 42.738 155.58 42.738C155.083 42.738 154.636 42.6263 154.24 42.403C153.851 42.1796 153.545 41.8638 153.321 41.4554C153.098 41.0406 152.986 40.562 152.986 40.0195C152.986 39.4771 153.095 39.0017 153.312 38.5933C153.529 38.1849 153.832 37.8722 154.221 37.6553C154.617 37.4319 155.07 37.3202 155.58 37.3202C156.078 37.3202 156.518 37.4287 156.901 37.6457C157.284 37.8626 157.578 38.1626 157.782 38.5455C157.992 38.922 158.098 39.3495 158.098 39.8281ZM157.198 39.6462C157.198 39.3144 157.125 39.0304 156.978 38.7943C156.831 38.5518 156.63 38.37 156.375 38.2487C156.126 38.1211 155.848 38.0573 155.542 38.0573C155.102 38.0573 154.725 38.1977 154.412 38.4784C154.106 38.7592 153.931 39.1485 153.886 39.6462H157.198ZM161.2 41.8478L162.827 37.4064H163.756L161.698 42.6519H160.683L158.625 37.4064H159.563L161.2 41.8478ZM165.063 36.5545C164.897 36.5545 164.757 36.497 164.642 36.3822C164.527 36.2673 164.469 36.1269 164.469 35.961C164.469 35.7951 164.527 35.6547 164.642 35.5398C164.757 35.425 164.897 35.3675 165.063 35.3675C165.222 35.3675 165.356 35.425 165.465 35.5398C165.58 35.6547 165.637 35.7951 165.637 35.961C165.637 36.1269 165.58 36.2673 165.465 36.3822C165.356 36.497 165.222 36.5545 165.063 36.5545ZM165.484 37.4064V42.6519H164.613V37.4064H165.484ZM171.755 39.8281C171.755 39.994 171.745 40.1695 171.726 40.3546H167.533C167.565 40.8715 167.741 41.2767 168.06 41.5702C168.385 41.8574 168.778 42.001 169.237 42.001C169.614 42.001 169.926 41.9148 170.175 41.7425C170.431 41.5638 170.609 41.3277 170.711 41.0342H171.649C171.509 41.5383 171.228 41.9499 170.807 42.269C170.386 42.5817 169.863 42.738 169.237 42.738C168.739 42.738 168.293 42.6263 167.897 42.403C167.508 42.1796 167.202 41.8638 166.978 41.4554C166.755 41.0406 166.643 40.562 166.643 40.0195C166.643 39.4771 166.752 39.0017 166.969 38.5933C167.186 38.1849 167.489 37.8722 167.878 37.6553C168.274 37.4319 168.727 37.3202 169.237 37.3202C169.735 37.3202 170.175 37.4287 170.558 37.6457C170.941 37.8626 171.235 38.1626 171.439 38.5455C171.649 38.922 171.755 39.3495 171.755 39.8281ZM170.855 39.6462C170.855 39.3144 170.782 39.0304 170.635 38.7943C170.488 38.5518 170.287 38.37 170.032 38.2487C169.783 38.1211 169.505 38.0573 169.199 38.0573C168.759 38.0573 168.382 38.1977 168.069 38.4784C167.763 38.7592 167.588 39.1485 167.543 39.6462H170.855ZM179.892 37.4064L178.255 42.6519H177.355L176.092 38.488L174.828 42.6519H173.929L172.282 37.4064H173.172L174.379 41.8095L175.68 37.4064H176.571L177.844 41.8191L179.031 37.4064H179.892ZM182.613 42.738C182.211 42.738 181.851 42.671 181.532 42.537C181.213 42.3966 180.961 42.2052 180.776 41.9627C180.591 41.7138 180.488 41.4298 180.469 41.1108H181.369C181.395 41.3724 181.516 41.5862 181.733 41.7521C181.956 41.918 182.247 42.001 182.604 42.001C182.936 42.001 183.197 41.9276 183.389 41.7808C183.58 41.634 183.676 41.449 183.676 41.2256C183.676 40.9959 183.574 40.8268 183.37 40.7183C183.165 40.6034 182.85 40.4918 182.422 40.3833C182.033 40.2812 181.714 40.1791 181.465 40.077C181.222 39.9685 181.012 39.8122 180.833 39.6079C180.661 39.3974 180.575 39.123 180.575 38.7848C180.575 38.5167 180.654 38.2711 180.814 38.0477C180.973 37.8244 181.2 37.6489 181.494 37.5212C181.787 37.3872 182.122 37.3202 182.499 37.3202C183.079 37.3202 183.548 37.467 183.906 37.7605C184.263 38.0541 184.454 38.4561 184.48 38.9666H183.609C183.59 38.6922 183.478 38.4721 183.274 38.3062C183.076 38.1402 182.808 38.0573 182.47 38.0573C182.157 38.0573 181.908 38.1243 181.723 38.2583C181.538 38.3923 181.446 38.5678 181.446 38.7848C181.446 38.957 181.5 39.1006 181.608 39.2155C181.723 39.324 181.864 39.4133 182.03 39.4835C182.202 39.5473 182.438 39.6207 182.738 39.7037C183.114 39.8058 183.421 39.9079 183.657 40.01C183.893 40.1057 184.094 40.2525 184.26 40.4503C184.432 40.6481 184.521 40.9066 184.528 41.2256C184.528 41.5128 184.448 41.7712 184.289 42.001C184.129 42.2307 183.902 42.4126 183.609 42.5466C183.322 42.6742 182.99 42.738 182.613 42.738Z" fill="#7EC3B0"/>
<path d="M141.29 24.1759V23.123L144.42 18.6433H145.98V23.0081H146.822V24.1759H145.98V25.5352H144.64V24.1759H141.29ZM144.726 20.0791L142.764 23.0081H144.726V20.0791ZM148.422 25.6022C148.18 25.6022 147.979 25.5288 147.819 25.382C147.666 25.2289 147.589 25.0406 147.589 24.8173C147.589 24.5939 147.666 24.4088 147.819 24.2621C147.979 24.1089 148.18 24.0323 148.422 24.0323C148.658 24.0323 148.853 24.1089 149.006 24.2621C149.159 24.4088 149.236 24.5939 149.236 24.8173C149.236 25.0406 149.159 25.2289 149.006 25.382C148.853 25.5288 148.658 25.6022 148.422 25.6022ZM150.105 24.1759V23.123L153.235 18.6433H154.795V23.0081H155.637V24.1759H154.795V25.5352H153.455V24.1759H150.105ZM153.541 20.0791L151.579 23.0081H153.541V20.0791Z" fill="#04DA8D"/>
<rect x="165.551" y="15.5688" width="10.6962" height="10.6962" rx="1.2971" fill="white" fill-opacity="0.4"/>
<path d="M171.063 22.5276L169.397 23.4749C169.348 23.4977 169.302 23.5069 169.26 23.5026C169.219 23.498 169.178 23.4844 169.139 23.4619C169.099 23.4389 169.069 23.4063 169.049 23.3643C169.028 23.3222 169.026 23.2763 169.043 23.2264L169.487 21.4502L168.02 20.2531C167.978 20.2214 167.951 20.1835 167.938 20.1394C167.925 20.0953 167.928 20.0531 167.946 20.0128C167.965 19.9725 167.991 19.9393 168.022 19.9134C168.054 19.8883 168.097 19.8713 168.151 19.8624L170.087 19.7034L170.842 18.0214C170.862 17.9738 170.892 17.9395 170.932 17.9185C170.971 17.8975 171.015 17.887 171.063 17.887C171.112 17.887 171.156 17.8975 171.196 17.9185C171.235 17.9395 171.265 17.9738 171.285 18.0214L172.04 19.7034L173.976 19.8624C174.03 19.8711 174.073 19.8882 174.105 19.9138C174.136 19.9392 174.162 19.9722 174.181 20.0128C174.199 20.0531 174.202 20.0953 174.189 20.1394C174.176 20.1835 174.149 20.2214 174.107 20.2531L172.64 21.4502L173.084 23.2264C173.101 23.2757 173.099 23.3215 173.079 23.3638C173.058 23.4062 173.028 23.4388 172.988 23.4615C172.949 23.4846 172.909 23.4983 172.867 23.5026C172.825 23.5069 172.78 23.4977 172.731 23.4749L171.063 22.5276Z" fill="white"/>
<rect x="177.543" y="15.5688" width="10.6962" height="10.6962" rx="1.2971" fill="white" fill-opacity="0.4"/>
<path d="M183.056 22.5276L181.389 23.4749C181.34 23.4977 181.294 23.5069 181.252 23.5026C181.211 23.498 181.17 23.4844 181.131 23.4619C181.091 23.4389 181.061 23.4063 181.041 23.3643C181.021 23.3222 181.019 23.2763 181.035 23.2264L181.479 21.4502L180.012 20.2531C179.97 20.2214 179.943 20.1835 179.93 20.1394C179.917 20.0953 179.92 20.0531 179.939 20.0128C179.958 19.9725 179.983 19.9393 180.014 19.9134C180.046 19.8883 180.089 19.8713 180.143 19.8624L182.079 19.7034L182.834 18.0214C182.855 17.9738 182.885 17.9395 182.924 17.9185C182.963 17.8975 183.007 17.887 183.056 17.887C183.104 17.887 183.148 17.8975 183.188 17.9185C183.227 17.9395 183.257 17.9738 183.277 18.0214L184.032 19.7034L185.968 19.8624C186.022 19.8711 186.065 19.8882 186.097 19.9138C186.129 19.9392 186.154 19.9722 186.173 20.0128C186.192 20.0531 186.194 20.0953 186.181 20.1394C186.168 20.1835 186.141 20.2214 186.1 20.2531L184.632 21.4502L185.076 23.2264C185.093 23.2757 185.091 23.3215 185.071 23.3638C185.05 23.4062 185.02 23.4388 184.98 23.4615C184.941 23.4846 184.901 23.4983 184.859 23.5026C184.817 23.5069 184.772 23.4977 184.723 23.4749L183.056 22.5276Z" fill="white"/>
<rect x="189.535" y="15.731" width="10.3721" height="10.3721" rx="1.29651" fill="white" fill-opacity="0.4"/>
<path d="M194.723 22.6895L193.154 23.6368C193.108 23.6595 193.065 23.6688 193.026 23.6644C192.987 23.6598 192.948 23.6463 192.911 23.6238C192.874 23.6008 192.845 23.5682 192.826 23.5261C192.807 23.4841 192.806 23.4381 192.821 23.3883L193.239 21.6121L191.858 20.415C191.819 20.3833 191.793 20.3454 191.781 20.3013C191.769 20.2572 191.771 20.215 191.789 20.1747C191.807 20.1343 191.831 20.1012 191.861 20.0753C191.891 20.0502 191.931 20.0332 191.982 20.0243L193.804 19.8652L194.514 18.1832C194.534 18.1357 194.562 18.1014 194.599 18.0804C194.636 18.0593 194.677 18.0488 194.723 18.0488C194.769 18.0488 194.81 18.0593 194.847 18.0804C194.884 18.1014 194.913 18.1357 194.932 18.1832L195.642 19.8652L197.464 20.0243C197.515 20.0329 197.555 20.0501 197.585 20.0757C197.615 20.1011 197.639 20.134 197.657 20.1747C197.674 20.215 197.677 20.2572 197.665 20.3013C197.652 20.3454 197.627 20.3833 197.588 20.415L196.207 21.6121L196.624 23.3883C196.641 23.4375 196.639 23.4834 196.62 23.5257C196.6 23.5681 196.572 23.6006 196.534 23.6234C196.498 23.6464 196.459 23.6601 196.42 23.6644C196.381 23.6688 196.338 23.6595 196.292 23.6368L194.723 22.6895Z" fill="white"/>
<rect x="201.203" y="15.5688" width="10.6962" height="10.6962" rx="1.2971" fill="white" fill-opacity="0.4"/>
<path d="M206.716 22.5276L205.049 23.4749C205 23.4977 204.954 23.5069 204.913 23.5026C204.871 23.498 204.83 23.4844 204.791 23.4619C204.751 23.4389 204.721 23.4063 204.701 23.3643C204.681 23.3222 204.679 23.2763 204.695 23.2264L205.139 21.4502L203.672 20.2531C203.631 20.2214 203.603 20.1835 203.59 20.1394C203.577 20.0953 203.58 20.0531 203.599 20.0128C203.618 19.9725 203.643 19.9393 203.675 19.9134C203.706 19.8883 203.749 19.8713 203.803 19.8624L205.739 19.7034L206.494 18.0214C206.515 17.9738 206.545 17.9395 206.584 17.9185C206.623 17.8975 206.667 17.887 206.716 17.887C206.764 17.887 206.809 17.8975 206.848 17.9185C206.887 17.9395 206.917 17.9738 206.938 18.0214L207.692 19.7034L209.628 19.8624C209.682 19.8711 209.725 19.8882 209.757 19.9138C209.789 19.9392 209.814 19.9722 209.833 20.0128C209.852 20.0531 209.855 20.0953 209.841 20.1394C209.828 20.1835 209.801 20.2214 209.76 20.2531L208.293 21.4502L208.736 23.2264C208.753 23.2757 208.752 23.3215 208.731 23.3638C208.711 23.4062 208.68 23.4388 208.641 23.4615C208.601 23.4846 208.561 23.4983 208.519 23.5026C208.477 23.5069 208.432 23.4977 208.383 23.4749L206.716 22.5276Z" fill="white"/>
<rect x="213.199" y="15.5688" width="10.6962" height="10.6962" rx="1.2971" fill="url(#paint1_linear_596_4564)"/>
<path d="M218.712 22.5276L217.045 23.4749C216.996 23.4977 216.951 23.5069 216.909 23.5026C216.867 23.498 216.826 23.4844 216.787 23.4619C216.747 23.4389 216.717 23.4063 216.697 23.3643C216.677 23.3222 216.675 23.2763 216.691 23.2264L217.135 21.4502L215.668 20.2531C215.627 20.2214 215.599 20.1835 215.586 20.1394C215.573 20.0953 215.576 20.0531 215.595 20.0128C215.614 19.9725 215.639 19.9393 215.671 19.9134C215.703 19.8883 215.745 19.8713 215.799 19.8624L217.735 19.7034L218.49 18.0214C218.511 17.9738 218.541 17.9395 218.58 17.9185C218.619 17.8975 218.663 17.887 218.712 17.887C218.761 17.887 218.805 17.8975 218.844 17.9185C218.884 17.9395 218.913 17.9738 218.934 18.0214L219.689 19.7034L221.624 19.8624C221.678 19.8711 221.721 19.8882 221.753 19.9138C221.785 19.9392 221.81 19.9722 221.829 20.0128C221.848 20.0531 221.851 20.0953 221.837 20.1394C221.824 20.1835 221.797 20.2214 221.756 20.2531L220.289 21.4502L220.732 23.2264C220.749 23.2757 220.748 23.3215 220.727 23.3638C220.707 23.4062 220.677 23.4388 220.637 23.4615C220.598 23.4846 220.557 23.4983 220.515 23.5026C220.473 23.5069 220.428 23.4977 220.379 23.4749L218.712 22.5276Z" fill="white"/>
<defs>
<radialGradient id="paint0_radial_596_4564" cx="0" cy="0" r="1" gradientUnits="userSpaceOnUse" gradientTransform="translate(121.246 67.9349) rotate(90) scale(37.3328 99.2562)">
<stop stop-color="#015235"/>
<stop offset="1" stop-color="#1B092E"/>
</radialGradient>
<linearGradient id="paint1_linear_596_4564" x1="223.895" y1="20.9169" x2="213.199" y2="20.9169" gradientUnits="userSpaceOnUse">
<stop stop-color="white" stop-opacity="0"/>
<stop offset="1" stop-color="white" stop-opacity="0.4"/>
</linearGradient>
<clipPath id="clip0_596_4564">
<rect width="72.3883" height="19.1441" fill="white" transform="translate(15.9688 20.2075)"/>
</clipPath>
</defs>
</svg>
