<svg width="28" height="28" viewBox="0 0 28 28" fill="none" xmlns="http://www.w3.org/2000/svg">
<path d="M18.6663 7.00004C18.6663 4.79971 18.6663 3.70071 17.9827 3.01704C17.299 2.33337 16.2 2.33337 13.9997 2.33337C11.7993 2.33337 10.7003 2.33337 10.0167 3.01704C9.33301 3.70071 9.33301 4.79971 9.33301 7.00004M2.33301 16.3334C2.33301 11.9339 2.33301 9.73354 3.70034 8.36737C5.06767 7.00121 7.26684 7.00004 11.6663 7.00004H16.333C20.7325 7.00004 22.9328 7.00004 24.299 8.36737C25.6652 9.73471 25.6663 11.9339 25.6663 16.3334C25.6663 20.7329 25.6663 22.9332 24.299 24.2994C22.9317 25.6655 20.7325 25.6667 16.333 25.6667H11.6663C7.26684 25.6667 5.06651 25.6667 3.70034 24.2994C2.33417 22.932 2.33301 20.7329 2.33301 16.3334Z" stroke="white" stroke-width="1.75"/>
<path d="M13.9993 20.2219C15.2885 20.2219 16.3327 19.3516 16.3327 18.2782C16.3327 17.2049 15.2885 16.3334 13.9993 16.3334C12.7102 16.3334 11.666 15.4631 11.666 14.3886C11.666 13.3152 12.7102 12.4449 13.9993 12.4449M13.9993 20.2219C12.7102 20.2219 11.666 19.3516 11.666 18.2782M13.9993 20.2219V21.0001M13.9993 12.4449V11.6667M13.9993 12.4449C15.2885 12.4449 16.3327 13.3152 16.3327 14.3886" stroke="white" stroke-width="1.75" stroke-linecap="round"/>
</svg>
