<svg width="28" height="28" viewBox="0 0 28 28" fill="none" xmlns="http://www.w3.org/2000/svg">
<path fill-rule="evenodd" clip-rule="evenodd" d="M9.42186 8.47004L9.53269 8.56688L19.433 18.466C19.5628 18.5957 19.6602 18.7541 19.7172 18.9284C19.7743 19.1027 19.7895 19.288 19.7615 19.4693C19.7336 19.6505 19.6633 19.8227 19.5563 19.9717C19.4494 20.1207 19.3088 20.2424 19.146 20.3269L19.0107 20.3852L6.89486 24.85C4.61753 25.69 2.39969 23.5492 3.09153 21.2754L3.14986 21.105L7.61353 8.98921C7.67254 8.82872 7.76611 8.68316 7.88762 8.56284C8.00912 8.44252 8.15559 8.35038 8.31666 8.29294C8.47772 8.23551 8.64944 8.21418 8.81967 8.23047C8.98989 8.24676 9.15445 8.30027 9.30169 8.38721L9.42186 8.47004ZM9.17219 11.5057L5.33969 21.9124C5.30406 22.0092 5.29475 22.1137 5.3127 22.2153C5.33065 22.3169 5.37522 22.4119 5.44188 22.4907C5.50853 22.5694 5.59488 22.6291 5.69211 22.6636C5.78934 22.6981 5.89398 22.7062 5.99536 22.687L6.08869 22.6602L16.493 18.8265L9.17219 11.5057ZM19.958 13.538C21.0209 13.594 22.478 13.818 23.745 14.5787C24.0019 14.731 24.1906 14.976 24.2722 15.2632C24.3539 15.5504 24.3223 15.858 24.184 16.1226C24.0457 16.3873 23.8112 16.5888 23.5288 16.6857C23.2464 16.7827 22.9375 16.7676 22.6659 16.6437L22.5445 16.5795C21.7489 16.1012 20.7315 15.9145 19.8355 15.8679C19.4663 15.8475 19.0962 15.849 18.7272 15.8725L18.3585 15.9087C18.0542 15.948 17.7466 15.8658 17.5025 15.6799C17.2583 15.494 17.0972 15.2194 17.0541 14.9156C17.011 14.6117 17.0893 14.3032 17.2721 14.0567C17.4549 13.8102 17.7274 13.6457 18.0307 13.5987C18.6697 13.5163 19.3151 13.4956 19.958 13.5369M22.3205 10.2865C22.6178 10.2872 22.9036 10.4012 23.1196 10.6055C23.3356 10.8097 23.4655 11.0887 23.4828 11.3854C23.5 11.6822 23.4034 11.9743 23.2125 12.2022C23.0217 12.4301 22.751 12.5766 22.4559 12.6117L22.3205 12.6199H21.4945C21.1973 12.6193 20.9115 12.5052 20.6955 12.301C20.4795 12.0967 20.3496 11.8178 20.3323 11.521C20.315 11.2242 20.4117 10.9321 20.6025 10.7042C20.7934 10.4763 21.064 10.3298 21.3592 10.2947L21.4945 10.2865H22.3205ZM18.6082 9.39171C18.8091 9.5926 18.9297 9.85989 18.9476 10.1434C18.9654 10.4269 18.8792 10.7072 18.705 10.9317L18.6082 11.0414L17.3715 12.2792C17.1621 12.4907 16.8797 12.6141 16.5822 12.6242C16.2847 12.6343 15.9947 12.5303 15.7713 12.3335C15.548 12.1367 15.4084 11.862 15.381 11.5656C15.3535 11.2693 15.4404 10.9736 15.6239 10.7392L15.7207 10.6295L16.9574 9.39288C17.0657 9.2844 17.1944 9.19835 17.336 9.13964C17.4776 9.08093 17.6295 9.05071 17.7828 9.05071C17.9361 9.05071 18.0879 9.08093 18.2295 9.13964C18.3712 9.19835 18.4998 9.28324 18.6082 9.39171ZM15.59 3.24921C16.1127 4.81954 15.8327 6.53921 15.506 7.74088C15.3105 8.4903 15.0408 9.21839 14.701 9.91438C14.5629 10.1913 14.3204 10.402 14.0269 10.5001C13.7333 10.5983 13.4129 10.5758 13.1359 10.4376C12.859 10.2995 12.6483 10.057 12.5502 9.76345C12.4521 9.46994 12.4745 9.14947 12.6127 8.87254C12.8841 8.31358 13.0991 7.7289 13.2544 7.12721C13.5192 6.15654 13.6522 5.10304 13.448 4.23971L13.3769 3.98771C13.326 3.84181 13.3047 3.68726 13.314 3.53303C13.3234 3.37881 13.3633 3.22798 13.4315 3.08931C13.4996 2.95063 13.5946 2.82687 13.711 2.72522C13.8273 2.62356 13.9627 2.54603 14.1093 2.49712C14.2558 2.44821 14.4107 2.42891 14.5647 2.44032C14.7188 2.45174 14.8691 2.49364 15.0069 2.56361C15.1446 2.63358 15.2671 2.73022 15.3672 2.84791C15.4673 2.96561 15.5431 3.10201 15.59 3.24921ZM21.9075 6.09354C22.1262 6.31233 22.2491 6.60902 22.2491 6.91838C22.2491 7.22774 22.1262 7.52443 21.9075 7.74321L21.0827 8.56804C20.9751 8.67947 20.8463 8.76835 20.704 8.8295C20.5617 8.89064 20.4086 8.92282 20.2537 8.92417C20.0988 8.92552 19.9451 8.896 19.8017 8.83734C19.6584 8.77868 19.5281 8.69205 19.4186 8.58251C19.309 8.47296 19.2224 8.3427 19.1637 8.19932C19.1051 8.05595 19.0756 7.90232 19.0769 7.74741C19.0782 7.5925 19.1104 7.43941 19.1716 7.29707C19.2327 7.15474 19.3216 7.026 19.433 6.91838L20.2579 6.09354C20.4766 5.87483 20.7733 5.75196 21.0827 5.75196C21.3921 5.75196 21.6887 5.87483 21.9075 6.09354Z" fill="white"/>
</svg>
