<svg width="23" height="23" viewBox="0 0 23 23" fill="none" xmlns="http://www.w3.org/2000/svg">
<path d="M18.9006 7.00176C19.7892 7.00125 20.6448 7.33876 21.2937 7.94583C21.9427 8.5529 22.3364 9.38408 22.395 10.2708L22.402 10.5004V18.9004C22.4022 19.789 22.0643 20.6444 21.457 21.293C20.8496 21.9417 20.0183 22.3351 19.1316 22.3934L18.902 22.4004H10.502C9.61342 22.4005 8.75803 22.0626 8.10936 21.4553C7.46069 20.848 7.06732 20.0167 7.00902 19.13L7.00202 18.9004V10.5004C7.00189 9.61176 7.33975 8.75637 7.94708 8.1077C8.55441 7.45903 9.38573 7.06566 10.2724 7.00736L10.5006 7.00176H18.9006ZM18.9006 8.40176H10.5034C9.98161 8.40176 9.47848 8.59602 9.09207 8.94671C8.70567 9.2974 8.46367 9.77939 8.41322 10.2988L8.40342 10.5004V18.9004C8.40345 19.4224 8.59791 19.9257 8.94889 20.3122C9.29987 20.6986 9.7822 20.9404 10.3018 20.9906L10.5034 21.0004H18.9034C19.4255 21.0003 19.9288 20.8059 20.3152 20.4549C20.7016 20.1039 20.9435 19.6216 20.9936 19.102L21.0006 18.9018V10.5018C21.0006 9.97973 20.8061 9.47642 20.4552 9.08998C20.1042 8.70354 19.6218 8.46168 19.1022 8.41156L18.9006 8.40176ZM14.702 9.80176C14.8659 9.80171 15.0245 9.85912 15.1504 9.96401C15.2762 10.0689 15.3613 10.2146 15.3908 10.3758L15.4006 10.5018V13.999H18.902C19.0769 13.9986 19.2457 14.0638 19.3749 14.1817C19.5042 14.2995 19.5846 14.4615 19.6004 14.6357C19.6163 14.8099 19.5663 14.9837 19.4603 15.1229C19.3544 15.2621 19.2001 15.3566 19.028 15.3878L18.902 15.399H15.4006L15.402 18.899C15.4023 19.0739 15.3372 19.2426 15.2193 19.3719C15.1015 19.5011 14.9395 19.5816 14.7653 19.5974C14.5911 19.6132 14.4173 19.5632 14.2781 19.4573C14.1389 19.3513 14.0444 19.1971 14.0132 19.025L14.002 18.899L14.0006 15.4018H10.502C10.3271 15.4021 10.1584 15.3369 10.0291 15.2191C9.89986 15.1012 9.8194 14.9392 9.8036 14.765C9.78779 14.5908 9.83778 14.417 9.94373 14.2778C10.0497 14.1386 10.2039 14.0441 10.376 14.013L10.502 14.0018H14.0006L14.002 10.5018C14.002 10.3161 14.0758 10.1381 14.207 10.0068C14.3383 9.87551 14.5164 9.80176 14.702 9.80176ZM14.9288 2.37336L14.996 2.59456L15.801 5.60036H14.3506L13.6436 2.95576C13.5084 2.45163 13.1904 2.0159 12.7514 1.73352C12.3124 1.45114 11.784 1.34235 11.2692 1.42836L11.0718 1.47036L2.95742 3.64596C2.45357 3.78113 2.01805 4.099 1.73571 4.53766C1.45336 4.97632 1.34439 5.50437 1.43002 6.01896L1.47202 6.21776L3.64762 14.3308C3.76388 14.7649 4.01633 15.1502 4.36788 15.4302C4.71942 15.7102 5.15151 15.87 5.60062 15.8862V17.2862C4.88554 17.2711 4.19223 17.0374 3.61403 16.6163C3.03583 16.1953 2.60049 15.6073 2.36662 14.9314L2.29382 14.6934L0.119623 6.58036C-0.110708 5.72211 -0.00595983 4.80837 0.412621 4.02451C0.831203 3.24064 1.53227 2.64534 2.37362 2.35936L2.59482 2.29356L10.7078 0.119364C11.5281 -0.100513 12.4002 -0.014686 13.1619 0.360852C13.9235 0.73639 14.5226 1.37602 14.8476 2.16056L14.9288 2.37336Z" fill="white"/>
</svg>
