<svg width="22" height="23" viewBox="0 0 22 23" fill="none" xmlns="http://www.w3.org/2000/svg">
<path d="M11.0007 10.9134C10.1702 9.22582 7.90965 6.07961 5.80773 4.52903C3.79382 3.04361 3.02657 3.29949 2.52332 3.53907C1.94032 3.81219 1.83398 4.74848 1.83398 5.29761C1.83398 5.84865 2.12273 9.8104 2.31065 10.4726C2.93398 12.6576 5.14682 13.3955 7.18732 13.1588C4.19898 13.6217 1.5434 14.7592 5.02398 18.8111C8.85382 22.9559 10.2728 17.9227 11.0007 15.3707C11.7285 17.9227 12.5663 22.7747 16.9077 18.8111C20.1673 15.3707 17.8032 13.6217 14.8149 13.1588C16.8545 13.3955 19.0682 12.6576 19.6906 10.4726C19.8786 9.81136 20.1673 5.84865 20.1673 5.29857C20.1673 4.74753 20.061 3.81315 19.478 3.53715C18.9747 3.29949 18.2075 3.04169 16.1936 4.52711C14.0917 6.08057 11.8302 9.22678 11.0007 10.9134Z" fill="white"/>
</svg>
