<svg width="22" height="22" viewBox="0 0 22 22" fill="none" xmlns="http://www.w3.org/2000/svg">
<path d="M11.9416 1.83325C12.9728 1.836 13.4962 1.8415 13.9481 1.85434L14.126 1.86075C14.3313 1.86809 14.5339 1.87725 14.7786 1.88825C15.754 1.93409 16.4195 2.08809 17.0034 2.3145C17.6084 2.54734 18.1181 2.86267 18.6277 3.37142C19.094 3.82951 19.4547 4.38385 19.6846 4.99575C19.9111 5.57967 20.0651 6.24517 20.1109 7.22142C20.1219 7.46525 20.1311 7.66783 20.1384 7.87408L20.1439 8.05192C20.1576 8.50292 20.1631 9.02633 20.165 10.0576L20.1659 10.7414V11.9422C20.1681 12.6109 20.1611 13.2795 20.1448 13.9479L20.1393 14.1257C20.132 14.332 20.1228 14.5346 20.1118 14.7784C20.066 15.7547 19.9101 16.4192 19.6846 17.0041C19.4547 17.616 19.094 18.1703 18.6277 18.6284C18.1696 19.0947 17.6153 19.4554 17.0034 19.6853C16.4195 19.9117 15.754 20.0657 14.7786 20.1116L14.126 20.1391L13.9481 20.1446C13.4962 20.1574 12.9728 20.1638 11.9416 20.1657L11.2577 20.1666H10.0578C9.38888 20.1689 8.71995 20.1619 8.05122 20.1455L7.87339 20.14C7.65578 20.1318 7.43822 20.1223 7.22072 20.1116C6.24539 20.0657 5.57989 19.9117 4.99505 19.6853C4.38348 19.4553 3.82946 19.0946 3.37164 18.6284C2.905 18.1704 2.54399 17.6161 2.3138 17.0041C2.08739 16.4202 1.93339 15.7547 1.88755 14.7784L1.86005 14.1257L1.85547 13.9479C1.83857 13.2795 1.83093 12.6109 1.83255 11.9422V10.0576C1.83002 9.38897 1.83674 8.72035 1.85272 8.05192L1.85914 7.87408C1.86647 7.66783 1.87564 7.46525 1.88664 7.22142C1.93247 6.24517 2.08647 5.58058 2.31289 4.99575C2.54361 4.3836 2.90526 3.82923 3.37255 3.37142C3.83011 2.90534 4.38381 2.54465 4.99505 2.3145C5.57989 2.08809 6.24447 1.93409 7.22072 1.88825C7.46456 1.87725 7.66806 1.86809 7.87339 1.86075L8.05122 1.85525C8.71965 1.83897 9.38827 1.83194 10.0569 1.83417L11.9416 1.83325ZM10.9992 6.41658C9.78365 6.41658 8.61786 6.89947 7.75832 7.75901C6.89877 8.61855 6.41589 9.78434 6.41589 10.9999C6.41589 12.2155 6.89877 13.3813 7.75832 14.2408C8.61786 15.1004 9.78365 15.5832 10.9992 15.5832C12.2148 15.5832 13.3806 15.1004 14.2401 14.2408C15.0997 13.3813 15.5826 12.2155 15.5826 10.9999C15.5826 9.78434 15.0997 8.61855 14.2401 7.75901C13.3806 6.89947 12.2148 6.41658 10.9992 6.41658ZM10.9992 8.24992C11.3604 8.24986 11.718 8.32093 12.0516 8.45907C12.3853 8.59722 12.6885 8.79973 12.9439 9.05505C13.1993 9.31037 13.4019 9.61349 13.5402 9.94711C13.6784 10.2807 13.7496 10.6383 13.7497 10.9995C13.7497 11.3606 13.6787 11.7182 13.5405 12.0519C13.4024 12.3855 13.1999 12.6887 12.9446 12.9441C12.6892 13.1995 12.3861 13.4022 12.0525 13.5404C11.7189 13.6787 11.3613 13.7499 11.0001 13.7499C10.2708 13.7499 9.57132 13.4602 9.0556 12.9445C8.53987 12.4287 8.25014 11.7293 8.25014 10.9999C8.25014 10.2706 8.53987 9.5711 9.0556 9.05537C9.57132 8.53965 10.2708 8.24992 11.0001 8.24992M15.8126 5.04158C15.5087 5.04158 15.2173 5.16231 15.0024 5.37719C14.7875 5.59208 14.6668 5.88352 14.6668 6.18742C14.6668 6.49131 14.7875 6.78276 15.0024 6.99764C15.2173 7.21253 15.5087 7.33325 15.8126 7.33325C16.1165 7.33325 16.408 7.21253 16.6229 6.99764C16.8378 6.78276 16.9585 6.49131 16.9585 6.18742C16.9585 5.88352 16.8378 5.59208 16.6229 5.37719C16.408 5.16231 16.1165 5.04158 15.8126 5.04158Z" fill="white"/>
</svg>
