<svg width="211" height="42" viewBox="0 0 211 42" fill="none" xmlns="http://www.w3.org/2000/svg">
<path d="M128.802 0.0800781C138.547 0.0801786 145.269 6.39743 145.269 15.665C145.269 24.9327 138.557 31.3672 128.812 31.3672C123.748 31.3672 119.727 29.6034 116.896 26.8916V41.7578H110.767V6.5791H107.268V0.970703H111.056C113.817 0.970703 115.853 2.43896 116.591 4.79785C119.438 1.93828 123.582 0.0830466 128.805 0.0830078L128.802 0.0800781ZM16.2314 0.0800781C22.1255 0.0801577 27.3752 1.73368 30.3555 4.3916L27.2021 9.23047C25.4512 8.05437 21.4238 5.80957 16.2871 5.80957C4.14687 5.80972 5.72188 12.8926 11.5596 12.8926H21.4209V12.8896C37.0037 12.8897 36.7678 31.3507 16.3408 31.3643C9.28042 31.3643 2.98037 28.4144 0 25.7598L3.15332 20.917C4.90428 22.2174 9.92458 25.6415 16.2871 25.6416C29.0092 25.6416 27.9592 18.498 21.54 18.498H11.6191C-3.49839 18.4979 -3.26199 0.0800781 16.2314 0.0800781ZM53.4033 0.0830078C59.0052 0.0830078 64.2022 2.56657 67.5879 5.27832L64.0127 10.2949C61.6204 8.05362 57.6525 5.80957 53.3896 5.80957C45.9208 5.80973 41.1367 9.87239 41.1367 15.7158C41.1369 21.5592 45.9812 25.6318 53.4502 25.6318C57.7693 25.6317 61.7394 23.3972 64.1416 21.1426L67.8164 26.0449C64.434 28.76 59.2376 31.3574 53.5195 31.3574C42.306 31.3574 34.9033 24.9962 34.9033 15.7285C34.9036 6.4611 42.1965 0.0830337 53.4033 0.0830078ZM87.3691 0.0830078C98.2838 0.0830078 105.753 6.38759 105.753 15.6553C105.753 24.9228 98.3435 31.3574 87.3691 31.3574C76.3951 31.3572 68.8098 24.9262 68.8096 15.6689C68.8096 6.41148 76.395 0.0831946 87.3691 0.0830078ZM166.281 0.0800781C176.787 0.0800781 183.964 6.39736 183.974 15.665V18.501H155.041C156.45 22.9298 161.317 25.8193 168.148 25.8193C173.053 25.8193 176.551 24.1093 178.711 21.7471L182.393 26.6367C179.233 29.3518 174.222 31.3574 168.212 31.3574C156.829 31.3574 148.482 24.9962 148.482 15.7285C148.483 6.46114 155.779 0.0831817 166.284 0.0830078L166.281 0.0800781ZM87.3691 5.8125C80.1196 5.81267 75.0567 9.65032 75.0566 15.6113C75.0566 21.5723 80.1295 25.6453 87.3691 25.6455V25.6348C94.4296 25.6348 99.5107 21.4549 99.5107 15.6113C99.5107 9.7678 94.619 5.8125 87.3691 5.8125ZM128.044 5.79883C121.389 5.79884 116.897 9.63659 116.896 15.5977C116.896 21.5588 121.389 25.6318 128.044 25.6318C134.407 25.6318 139.012 21.5723 139.019 15.5977C139.018 9.75419 134.699 5.79883 128.044 5.79883ZM166.225 5.63086C160.115 5.63092 156.041 8.53783 154.925 13.0674H177.436C176.352 8.4974 172.238 5.63086 166.225 5.63086ZM191.106 0.00976562C192.651 0.00976562 193.599 0.780038 193.599 1.93262C193.598 2.8162 193.001 3.45492 192.127 3.61621V3.64648C193.19 3.73727 193.874 4.38584 193.874 5.38379C193.874 6.67723 192.715 7.53709 191.07 7.53711C189.426 7.53711 188.409 6.64358 188.339 5.31641H189.765C189.808 5.92446 190.303 6.32422 191.087 6.32422C191.871 6.3242 192.356 5.90062 192.356 5.28906C192.356 4.63056 191.867 4.23047 191.063 4.23047H190.184V3.1416L190.187 3.13867H191.051C191.732 3.13848 192.19 2.72842 192.19 2.13379C192.19 1.53911 191.781 1.16602 191.04 1.16602C190.349 1.16613 189.891 1.57945 189.851 2.21094H188.479C188.532 0.877162 189.562 0.00989418 191.106 0.00976562ZM197.702 0.00292969C199.061 0.00308798 200.121 0.816747 200.32 1.99609H198.854C198.712 1.51563 198.253 1.19637 197.695 1.19629C196.702 1.19629 196.101 2.16073 196.134 3.78711H196.163C196.449 3.08146 197.15 2.61427 198.061 2.61426C199.413 2.61426 200.416 3.6226 200.416 4.99023C200.416 6.47197 199.276 7.53711 197.682 7.53711C196.658 7.53706 195.815 7.0666 195.316 6.20996H195.312C194.917 5.60175 194.715 4.78483 194.715 3.82715C194.715 1.44142 195.861 0.00292969 197.702 0.00292969ZM204.086 0C205.87 4.89819e-05 206.963 1.42472 206.963 3.75C206.963 6.07521 205.877 7.53022 204.086 7.53027C202.407 7.53027 201.342 6.26325 201.215 4.18066L201.202 3.75684C201.202 1.42816 202.302 0 204.086 0ZM197.669 3.75C196.925 3.75 196.366 4.29431 196.366 5.02344C196.366 5.75256 196.934 6.3378 197.665 6.33789C198.396 6.33789 198.964 5.7625 198.964 5.04004L198.961 5.03711C198.961 4.29462 198.413 3.7502 197.669 3.75ZM204.086 1.20996C203.242 1.20996 202.717 2.13382 202.717 3.75684C202.717 5.37971 203.235 6.32422 204.086 6.32422C204.936 6.32415 205.448 5.39981 205.448 3.75684C205.448 2.12715 204.93 1.21003 204.086 1.20996ZM209.233 0.0957031C210.12 0.0957657 210.804 0.790958 210.805 1.68457C210.805 2.57837 210.117 3.27728 209.233 3.27734C208.35 3.27734 207.665 2.58177 207.665 1.68457C207.665 0.790917 208.346 0.0957031 209.233 0.0957031ZM209.236 0.956055C208.838 0.956194 208.526 1.2816 208.525 1.68457C208.525 2.08772 208.851 2.41782 209.236 2.41797C209.642 2.41797 209.947 2.07772 209.947 1.68457C209.947 1.28151 209.635 0.956055 209.236 0.956055Z" fill="white"/>
</svg>
