<svg width="28" height="28" viewBox="0 0 28 28" fill="none" xmlns="http://www.w3.org/2000/svg">
<path d="M13.3002 4.2C13.4858 4.2 13.6639 4.27375 13.7952 4.40503C13.9264 4.5363 14.0002 4.71435 14.0002 4.9C14.0002 5.08565 13.9264 5.2637 13.7952 5.39497C13.6639 5.52625 13.4858 5.6 13.3002 5.6H8.4002C7.65759 5.6 6.9454 5.895 6.4203 6.4201C5.89519 6.9452 5.6002 7.65739 5.6002 8.4V19.6C5.6002 20.3426 5.89519 21.0548 6.4203 21.5799C6.9454 22.105 7.65759 22.4 8.4002 22.4H19.6002C20.3428 22.4 21.055 22.105 21.5801 21.5799C22.1052 21.0548 22.4002 20.3426 22.4002 19.6V17.5C22.4002 17.3143 22.4739 17.1363 22.6052 17.005C22.7365 16.8737 22.9145 16.8 23.1002 16.8C23.2858 16.8 23.4639 16.8737 23.5952 17.005C23.7264 17.1363 23.8002 17.3143 23.8002 17.5V19.6C23.8002 20.7139 23.3577 21.7822 22.57 22.5698C21.7824 23.3575 20.7141 23.8 19.6002 23.8H8.4002C7.28629 23.8 6.218 23.3575 5.43035 22.5698C4.64269 21.7822 4.2002 20.7139 4.2002 19.6V8.4C4.2002 7.28609 4.64269 6.2178 5.43035 5.43015C6.218 4.6425 7.28629 4.2 8.4002 4.2H13.3002ZM18.616 2.8602C18.7396 2.8051 18.8765 2.78702 19.0102 2.80814C19.1439 2.82926 19.2686 2.88868 19.3692 2.9792L26.3692 9.2792C26.4423 9.34485 26.5007 9.42515 26.5408 9.51487C26.5808 9.6046 26.6015 9.70175 26.6015 9.8C26.6015 9.89825 26.5808 9.9954 26.5408 10.0851C26.5007 10.1749 26.4423 10.2552 26.3692 10.3208L19.3692 16.6208C19.2686 16.7116 19.1438 16.7712 19.01 16.7925C18.8762 16.8137 18.7391 16.7957 18.6153 16.7406C18.4916 16.6854 18.3865 16.5955 18.3128 16.4818C18.2391 16.3681 18.2 16.2355 18.2002 16.1V13.076C16.2402 13.2552 14.4692 14.168 13.0202 15.3272C11.5992 16.4654 10.5352 17.8024 9.9472 18.8048L9.726 19.2122C9.65542 19.353 9.53942 19.4659 9.39675 19.5326C9.25407 19.5994 9.09306 19.616 8.93975 19.5799C8.78643 19.5438 8.64977 19.4571 8.55187 19.3337C8.45396 19.2103 8.40052 19.0575 8.4002 18.9C8.4002 16.0314 8.935 12.9024 10.5254 10.4664C12.0542 8.1312 14.5154 6.5002 18.2002 6.3182V3.5L18.2072 3.3978C18.2245 3.28098 18.271 3.17043 18.3425 3.07644C18.4139 2.98244 18.508 2.90805 18.616 2.8602ZM19.6002 7C19.6002 7.18565 19.5264 7.3637 19.3952 7.49497C19.2639 7.62625 19.0858 7.7 18.9002 7.7C15.277 7.7 13.0524 9.163 11.6986 11.2322C10.7396 12.7008 10.1964 14.5082 9.9542 16.3898C10.5604 15.6618 11.2982 14.9142 12.1452 14.2338C13.9204 12.8142 16.2402 11.6424 18.9002 11.6424C19.0858 11.6424 19.2639 11.7161 19.3952 11.8474C19.5264 11.9787 19.6002 12.1567 19.6002 12.3424V14.5264L24.8502 9.8L19.6002 5.0722V7Z" fill="white"/>
</svg>
