<svg width="28" height="28" viewBox="0 0 28 28" fill="none" xmlns="http://www.w3.org/2000/svg">
<path d="M15.75 22.75H22.75V24.5H15.75V22.75ZM15.75 19.25H26.25V21H15.75V19.25ZM15.75 15.75H26.25V17.5H15.75V15.75Z" fill="white"/>
<path d="M17.9805 9.81487L14.0001 1.75L10.0197 9.81487L1.12012 11.1081L7.56012 17.3863L6.03937 26.25L12.2501 22.9854V21.0079L8.36424 23.051L9.28474 17.682L9.44049 16.7746L8.78162 16.1332L4.88087 12.3296L10.2717 11.5465L11.1817 11.4144L11.5895 10.5893L14.0001 5.70412L16.4107 10.5893L16.8185 11.4144L17.7285 11.5465L24.2507 12.4959L24.5001 10.7625L17.9805 9.81487Z" fill="white"/>
</svg>
