<svg width="28" height="28" viewBox="0 0 28 28" fill="none" xmlns="http://www.w3.org/2000/svg">
<path fill-rule="evenodd" clip-rule="evenodd" d="M9.42186 8.46992L9.53269 8.56676L19.433 18.4659C19.5628 18.5955 19.6602 18.7539 19.7172 18.9282C19.7743 19.1026 19.7895 19.2879 19.7615 19.4691C19.7336 19.6504 19.6633 19.8225 19.5563 19.9715C19.4494 20.1206 19.3088 20.2422 19.146 20.3268L19.0107 20.3851L6.89486 24.8499C4.61753 25.6899 2.39969 23.5491 3.09153 21.2753L3.14986 21.1049L7.61353 8.98909C7.67254 8.8286 7.76611 8.68304 7.88762 8.56271C8.00912 8.44239 8.15559 8.35025 8.31666 8.29282C8.47772 8.23538 8.64944 8.21406 8.81967 8.23035C8.98989 8.24664 9.15445 8.30015 9.30169 8.38709L9.42186 8.46992ZM9.17219 11.5056L5.33969 21.9123C5.30406 22.0091 5.29475 22.1136 5.3127 22.2152C5.33065 22.3168 5.37522 22.4118 5.44188 22.4906C5.50853 22.5693 5.59488 22.629 5.69211 22.6635C5.78934 22.698 5.89398 22.7061 5.99536 22.6869L6.08869 22.6601L16.493 18.8264L9.17219 11.5056ZM19.958 13.5379C21.0209 13.5939 22.478 13.8179 23.745 14.5786C24.0019 14.7309 24.1906 14.9758 24.2722 15.263C24.3539 15.5503 24.3223 15.8579 24.184 16.1225C24.0457 16.3871 23.8112 16.5887 23.5288 16.6856C23.2464 16.7826 22.9375 16.7675 22.6659 16.6436L22.5445 16.5794C21.7489 16.1011 20.7315 15.9144 19.8355 15.8678C19.4663 15.8474 19.0962 15.8489 18.7272 15.8724L18.3585 15.9086C18.0542 15.9479 17.7466 15.8656 17.5025 15.6798C17.2583 15.4939 17.0972 15.2193 17.0541 14.9154C17.011 14.6116 17.0893 14.3031 17.2721 14.0566C17.4549 13.8101 17.7274 13.6455 18.0307 13.5986C18.6697 13.5161 19.3151 13.4954 19.958 13.5368M22.3205 10.2864C22.6178 10.287 22.9036 10.4011 23.1196 10.6053C23.3356 10.8096 23.4655 11.0885 23.4828 11.3853C23.5 11.6821 23.4034 11.9742 23.2125 12.2021C23.0217 12.43 22.751 12.5765 22.4559 12.6116L22.3205 12.6198H21.4945C21.1973 12.6191 20.9115 12.5051 20.6955 12.3008C20.4795 12.0966 20.3496 11.8176 20.3323 11.5209C20.315 11.2241 20.4117 10.932 20.6025 10.7041C20.7934 10.4762 21.064 10.3297 21.3592 10.2946L21.4945 10.2864H22.3205ZM18.6082 9.39159C18.8091 9.59248 18.9297 9.85976 18.9476 10.1433C18.9654 10.4268 18.8792 10.7071 18.705 10.9316L18.6082 11.0413L17.3715 12.2791C17.1621 12.4906 16.8797 12.614 16.5822 12.6241C16.2847 12.6341 15.9947 12.5302 15.7713 12.3334C15.548 12.1366 15.4084 11.8619 15.381 11.5655C15.3535 11.2691 15.4404 10.9735 15.6239 10.7391L15.7207 10.6294L16.9574 9.39276C17.0657 9.28428 17.1944 9.19823 17.336 9.13952C17.4776 9.08081 17.6295 9.05059 17.7828 9.05059C17.9361 9.05059 18.0879 9.08081 18.2295 9.13952C18.3712 9.19823 18.4998 9.28312 18.6082 9.39159ZM15.59 3.24909C16.1127 4.81942 15.8327 6.53909 15.506 7.74076C15.3105 8.49018 15.0408 9.21827 14.701 9.91426C14.5629 10.1912 14.3204 10.4019 14.0269 10.5C13.7333 10.5981 13.4129 10.5757 13.1359 10.4375C12.859 10.2993 12.6483 10.0568 12.5502 9.76333C12.4521 9.46982 12.4745 9.14935 12.6127 8.87242C12.8841 8.31346 13.0991 7.72878 13.2544 7.12709C13.5192 6.15642 13.6522 5.10292 13.448 4.23959L13.3769 3.98759C13.326 3.84168 13.3047 3.68713 13.314 3.53291C13.3234 3.37868 13.3633 3.22786 13.4315 3.08918C13.4996 2.95051 13.5946 2.82675 13.711 2.72509C13.8273 2.62344 13.9627 2.5459 14.1093 2.497C14.2558 2.44809 14.4107 2.42879 14.5647 2.4402C14.7188 2.45161 14.8691 2.49352 15.0069 2.56349C15.1446 2.63346 15.2671 2.7301 15.3672 2.84779C15.4673 2.96548 15.5431 3.10189 15.59 3.24909ZM21.9075 6.09342C22.1262 6.3122 22.2491 6.6089 22.2491 6.91826C22.2491 7.22761 22.1262 7.52431 21.9075 7.74309L21.0827 8.56792C20.9751 8.67935 20.8463 8.76823 20.704 8.82937C20.5617 8.89052 20.4086 8.9227 20.2537 8.92405C20.0988 8.92539 19.9451 8.89587 19.8017 8.83721C19.6584 8.77855 19.5281 8.69192 19.4186 8.58238C19.309 8.47284 19.2224 8.34258 19.1637 8.1992C19.1051 8.05582 19.0756 7.9022 19.0769 7.74729C19.0782 7.59238 19.1104 7.43929 19.1716 7.29695C19.2327 7.15461 19.3216 7.02588 19.433 6.91826L20.2579 6.09342C20.4766 5.87471 20.7733 5.75184 21.0827 5.75184C21.3921 5.75184 21.6887 5.87471 21.9075 6.09342Z" fill="white"/>
</svg>
