<svg width="28" height="28" viewBox="0 0 28 28" fill="none" xmlns="http://www.w3.org/2000/svg">
<path d="M23.3337 10.0001V4.66675M23.3337 4.66675H18.0003M23.3337 4.66675L12.667 15.3334M12.667 10.0001V15.3334M12.667 15.3334H18.0003" stroke="white" stroke-width="1.33333" stroke-linecap="round" stroke-linejoin="round"/>
<path d="M15.3337 4.66675H7.33366C6.62641 4.66675 5.94814 4.9477 5.44804 5.4478C4.94794 5.94789 4.66699 6.62617 4.66699 7.33341V20.6667C4.66699 21.374 4.94794 22.0523 5.44804 22.5524C5.94814 23.0525 6.62641 23.3334 7.33366 23.3334H20.667C21.3742 23.3334 22.0525 23.0525 22.5526 22.5524C23.0527 22.0523 23.3337 21.374 23.3337 20.6667V12.6667" stroke="white" stroke-width="1.33333" stroke-linecap="round" stroke-linejoin="round"/>
</svg>
