<svg width="1203" height="353" viewBox="0 0 1203 353" fill="none" xmlns="http://www.w3.org/2000/svg">
<g opacity="0.4">
<path d="M707.213 54.1812C725.695 54.0796 725.695 54.0796 744.551 53.9759C748.401 53.946 752.251 53.9162 756.218 53.8854C761.022 53.8705 761.022 53.8705 763.291 53.8678C764.832 53.8628 766.374 53.8515 767.915 53.8345C790.459 53.5993 813.746 56.6454 830.801 72.7996C838.64 81.1288 842.77 91.7329 842.684 103.129C842.678 104.09 842.678 104.09 842.672 105.071C842.488 114.297 840.592 122.559 835.872 130.528C835.409 131.318 835.409 131.318 834.937 132.125C834.079 133.504 834.079 133.504 832.594 135.453C832.053 135.453 831.512 135.453 830.955 135.453C830.685 136.266 830.414 137.079 830.136 137.916C829.595 137.916 829.054 137.916 828.497 137.916C828.497 138.458 828.497 139 828.497 139.558C826.71 140.85 824.934 142.036 823.068 143.201C822.562 143.525 822.056 143.849 821.534 144.184C818.475 146.123 815.377 147.842 812.107 149.409C820.645 157.482 820.645 157.482 829.409 165.305C831.313 166.96 833.182 168.65 835.053 170.343C837.495 172.551 839.947 174.746 842.428 176.91C845.59 179.67 848.706 182.479 851.817 185.296C854.506 187.717 857.226 190.102 859.951 192.482C860.388 192.897 860.825 193.312 861.276 193.739C861.276 194.01 861.276 194.281 861.276 194.56C855.52 194.812 849.765 194.983 844.005 195.101C842.05 195.151 840.096 195.218 838.142 195.303C820.143 196.073 820.143 196.073 814.435 191.185C812.412 189.138 810.643 186.946 808.829 184.709C807.279 183.3 805.673 182.044 804.015 180.758C801.002 178.336 798.275 175.826 795.596 173.046C793.779 171.284 791.85 169.722 789.879 168.137C785.347 164.483 781.105 160.579 776.853 156.608C773.492 153.469 770.026 150.46 766.543 147.457C760.938 142.622 755.345 137.777 749.878 132.785C749.456 132.403 749.035 132.021 748.601 131.627C747.627 130.731 746.675 129.811 745.729 128.886C745.729 128.615 745.729 128.344 745.729 128.065C746.735 128.057 747.742 128.05 748.779 128.042C752.597 128.008 756.416 127.954 760.234 127.895C761.871 127.872 763.508 127.854 765.144 127.842C779.945 127.73 796.646 127.525 808.778 117.957C812.931 112.535 813.669 106.879 812.926 100.153C811.764 95.6566 809.434 91.6882 805.446 89.2246C784.22 78.0439 757.661 81.6909 735.076 81.2719C735.076 118.657 735.076 156.042 735.076 194.56C725.881 194.56 716.686 194.56 707.213 194.56C707.213 148.235 707.213 101.91 707.213 54.1812Z" fill="url(#paint0_linear_1609_1567)"/>
<path d="M191.759 54.1816C201.224 54.1816 210.689 54.1816 220.441 54.1816C220.441 72.8742 220.441 91.5668 220.441 110.826C249.106 110.826 277.772 110.826 307.306 110.826C307.306 92.1332 307.306 73.4407 307.306 54.1816C316.5 54.1816 325.695 54.1816 335.168 54.1816C335.168 100.507 335.168 146.832 335.168 194.561C325.974 194.561 316.779 194.561 307.306 194.561C307.306 175.868 307.306 157.176 307.306 137.917C278.64 137.917 249.975 137.917 220.441 137.917C220.441 156.609 220.441 175.302 220.441 194.561C210.976 194.561 201.511 194.561 191.759 194.561C191.759 148.236 191.759 101.911 191.759 54.1816Z" fill="url(#paint1_linear_1609_1567)"/>
<path d="M1132.52 57.4646C1133.11 57.6183 1133.69 57.772 1134.29 57.9304C1146.49 61.2517 1161 65.5904 1168.58 76.346C1168.12 76.8032 1167.65 77.2603 1167.17 77.7313C1161.83 83.0212 1156.82 88.474 1152.19 94.4065C1148.73 93.345 1145.53 91.9898 1142.26 90.4512C1134.77 86.9379 1127.52 84.5866 1119.41 82.9135C1118.76 82.7697 1118.11 82.626 1117.44 82.4779C1104.84 80.1901 1089.6 81.474 1078.4 87.7685C1076.8 88.66 1076.8 88.66 1074.34 89.4809C1073.32 92.5436 1072.99 95.334 1073.52 98.5111C1077.87 104.699 1086.19 106.427 1093.19 108.003C1093.94 108.178 1094.7 108.354 1095.47 108.534C1099.95 109.555 1104.43 110.435 1108.96 111.184C1125.74 113.986 1143.53 117.19 1157.11 128.065C1157.65 128.47 1158.18 128.875 1158.74 129.293C1163.78 133.283 1166.96 138.25 1168.58 144.483C1169.98 157.007 1169.12 166.886 1161.17 176.99C1149.84 189.395 1131.94 194.225 1115.71 195.278C1089.06 196.237 1063.37 192.15 1043.05 173.318C1036.53 167.025 1036.53 167.025 1035.01 163.365C1041.64 158.384 1048.48 153.838 1055.49 149.409C1055.92 149.698 1056.35 149.987 1056.79 150.284C1058.08 151.152 1059.38 152.014 1060.68 152.872C1062.11 153.827 1063.53 154.802 1064.93 155.797C1071.06 159.994 1077.12 162.068 1084.18 164.186C1084.99 164.477 1085.8 164.768 1086.64 165.067C1092.96 167.028 1099.44 166.826 1105.99 166.854C1106.97 166.871 1107.95 166.887 1108.96 166.905C1118.71 166.947 1131.13 165.751 1138.77 159.003C1140.5 155.621 1140.36 152.774 1139.39 149.152C1137.68 147.058 1135.94 146.856 1133.34 146.125C1132.07 145.62 1130.8 145.113 1129.53 144.605C1123.89 142.536 1118.1 141.488 1112.21 140.419C1108.94 139.823 1105.67 139.197 1102.4 138.57C1101.75 138.446 1101.1 138.322 1100.44 138.194C1068.8 132.091 1068.8 132.091 1055.49 121.497C1054.78 120.967 1054.08 120.437 1053.35 119.891C1047.33 114.718 1044.39 106.564 1043.79 98.8286C1043.52 87.6152 1046.13 79.132 1053.64 70.6252C1073.78 51.5819 1107.25 50.7692 1132.52 57.4646Z" fill="url(#paint2_linear_1609_1567)"/>
<path d="M872.749 54.1816C882.214 54.1816 891.679 54.1816 901.43 54.1816C901.442 56.7996 901.454 59.4175 901.467 62.1148C901.508 70.7815 901.563 79.4482 901.624 88.1149C901.66 93.3675 901.692 98.6201 901.714 103.873C901.736 108.946 901.769 114.018 901.81 119.091C901.824 121.022 901.833 122.954 901.838 124.886C901.846 127.599 901.869 130.312 901.896 133.026C901.894 133.818 901.893 134.61 901.892 135.425C901.982 141.994 902.913 148.779 907.321 153.925C909.625 156.666 909.625 156.666 909.625 158.44C910.085 158.668 910.544 158.897 911.018 159.132C912.288 159.772 913.554 160.422 914.814 161.082C924.267 165.974 932.949 166.797 943.429 166.803C944.727 166.818 944.727 166.818 946.051 166.833C957.699 166.855 969.741 165.242 978.462 156.798C983.98 149.989 985.385 142.421 985.372 133.865C985.38 132.999 985.389 132.133 985.397 131.241C985.422 128.403 985.43 125.564 985.437 122.726C985.451 120.749 985.466 118.772 985.482 116.794C985.52 111.608 985.545 106.422 985.566 101.235C985.591 95.9357 985.629 90.6363 985.666 85.3369C985.736 74.9519 985.79 64.5668 985.837 54.1816C995.302 54.1816 1004.77 54.1816 1014.52 54.1816C1014.57 65.0724 1014.62 75.963 1014.65 86.8538C1014.66 91.9121 1014.68 96.9704 1014.7 102.029C1014.73 106.92 1014.75 111.812 1014.75 116.704C1014.76 118.56 1014.77 120.416 1014.78 122.271C1014.96 148.905 1014.96 148.905 1009.4 160.492C1009.15 161.03 1008.9 161.568 1008.65 162.122C1005.68 168.373 1001.55 173.444 996.49 178.142C995.844 178.796 995.844 178.796 995.184 179.463C981.53 192.562 960.663 195.805 942.501 195.614C922.571 195.154 903.16 190.826 888.319 176.5C876.777 164.274 872.594 148.911 872.656 132.467C872.655 131.617 872.655 130.767 872.655 129.892C872.656 127.102 872.662 124.313 872.669 121.524C872.67 119.582 872.671 117.64 872.672 115.699C872.675 110.603 872.683 105.507 872.692 100.411C872.701 95.205 872.704 89.9992 872.709 84.7934C872.717 74.5894 872.732 64.3855 872.749 54.1816Z" fill="url(#paint3_linear_1609_1567)"/>
<path d="M535.941 54.1816C545.406 54.1816 554.872 54.1816 564.623 54.1816C564.635 56.7164 564.647 59.2511 564.66 61.8626C564.701 70.264 564.756 78.6652 564.817 87.0665C564.853 92.1571 564.885 97.2476 564.907 102.338C564.929 107.257 564.962 112.175 565.003 117.093C565.017 118.964 565.026 120.835 565.031 122.705C564.783 142.166 564.783 142.166 574.432 158.414C586.279 168.563 603.274 167.285 617.89 166.649C626.715 165.897 635.983 162.788 642.423 156.49C650.323 145.788 649.635 132.23 649.609 119.6C649.62 117.704 649.633 115.809 649.647 113.913C649.679 108.969 649.688 104.024 649.691 99.0791C649.699 94.0157 649.73 88.9524 649.758 83.8891C649.811 73.9866 649.836 64.0843 649.85 54.1816C659.044 54.1816 668.239 54.1816 677.712 54.1816C677.749 65.3715 677.779 76.5613 677.797 87.7512C677.805 92.9477 677.817 98.1442 677.836 103.341C677.853 108.36 677.863 113.379 677.867 118.399C677.87 120.309 677.876 122.22 677.885 124.13C677.897 126.816 677.899 129.501 677.898 132.187C677.904 132.968 677.91 133.749 677.916 134.554C677.868 150.502 672.509 165.439 661.601 177.164C649.523 188.495 631.896 194.852 615.431 195.382C614.596 195.413 614.596 195.413 613.743 195.446C593.066 196.141 570.371 193.128 554.482 178.655C543.688 168.392 536.824 154.914 535.794 139.875C535.742 137.59 535.738 135.311 535.755 133.026C535.755 132.168 535.755 131.31 535.755 130.426C535.756 127.619 535.769 124.812 535.781 122.005C535.784 120.047 535.787 118.089 535.788 116.132C535.795 111.001 535.811 105.869 535.829 100.738C535.846 95.494 535.853 90.2495 535.861 85.005C535.879 74.7305 535.908 64.4561 535.941 54.1816Z" fill="url(#paint4_linear_1609_1567)"/>
<path d="M53.2663 32.0166C53.2663 39.3311 53.2663 46.6456 53.2663 54.1817C80.0388 54.1817 106.811 54.1817 134.395 54.1817C134.395 47.1381 134.395 40.0946 134.395 32.8375C137.469 34.0692 139.097 34.7595 141.537 36.6856C142.094 37.1181 142.651 37.5506 143.226 37.9962C144.434 38.957 145.637 39.9248 146.834 40.8987C149.755 43.2388 152.412 45.2766 155.887 46.7003C159.031 48.1787 159.031 48.1787 163.896 53.3608C163.896 62.5716 163.896 71.7825 163.896 81.2724C145.507 81.2724 127.118 81.2724 108.172 81.2724C108.172 118.658 108.172 156.043 108.172 194.561C98.7066 194.561 89.2416 194.561 79.4898 194.561C79.4898 157.176 79.4898 119.79 79.4898 81.2724C61.1006 81.2724 42.7114 81.2724 23.765 81.2724C23.765 53.3608 23.765 53.3608 30.0135 46.7933C33.8453 44.6192 33.8453 44.6192 35.7999 43.6644C38.8011 42.1202 41.4076 40.095 44.0984 38.071C45.0062 37.4242 45.9163 36.7805 46.8289 36.1405C48.2603 35.1244 49.6789 34.0896 51.0736 33.0235C52.4469 32.0166 52.4469 32.0166 53.2663 32.0166Z" fill="url(#paint5_linear_1609_1567)"/>
<path d="M432.687 54.1816C438.095 54.1816 443.504 54.1816 449.076 54.1816C449.809 55.551 450.543 56.9203 451.298 58.3312C457.901 70.6617 457.901 70.6617 464.646 82.9142C469.443 91.5059 474.075 100.185 478.723 108.858C485.879 122.214 493.065 135.554 500.324 148.854C502.347 152.561 504.368 156.27 506.389 159.979C506.787 160.71 507.186 161.441 507.596 162.194C509.824 166.286 512.045 170.382 514.257 174.483C514.739 175.376 515.221 176.269 515.717 177.188C516.648 178.914 517.578 180.64 518.506 182.367C518.929 183.149 519.351 183.932 519.785 184.738C520.342 185.772 520.342 185.772 520.909 186.826C521.695 188.245 522.523 189.641 523.379 191.019C524.469 192.919 524.469 192.919 524.469 194.561C514.733 194.561 504.998 194.561 494.967 194.561C493.311 191.479 491.655 188.398 489.948 185.223C489.388 184.181 488.828 183.14 488.251 182.067C485.674 177.273 483.098 172.478 480.524 167.682C474.847 157.106 469.138 146.548 463.387 136.013C462.176 133.79 460.97 131.565 459.765 129.338C458.951 127.837 458.137 126.335 457.322 124.833C456.926 124.101 456.529 123.369 456.121 122.615C453.911 118.554 451.662 114.519 449.368 110.505C448.875 109.642 448.382 108.778 447.874 107.888C446.917 106.216 445.955 104.547 444.989 102.881C444.559 102.13 444.129 101.38 443.686 100.606C443.302 99.9427 442.918 99.2795 442.523 98.5963C441.701 96.87 441.701 96.87 441.701 94.4072C441.16 94.4072 440.619 94.4072 440.062 94.4072C439.866 95.0845 439.669 95.7618 439.467 96.4595C438.24 99.8366 436.615 102.789 434.838 105.9C434.092 107.224 433.348 108.549 432.603 109.873C432.018 110.913 432.018 110.913 431.421 111.973C429.419 115.558 427.471 119.17 425.516 122.781C421.965 129.326 418.355 135.836 414.709 142.329C410.421 149.97 406.217 157.653 402.064 165.368C398.129 172.671 394.113 179.927 390.074 187.172C388.721 189.611 387.369 192.049 385.976 194.561C376.241 194.561 366.505 194.561 356.475 194.561C357.609 191.151 358.554 188.592 360.23 185.537C360.65 184.765 361.071 183.994 361.504 183.199C362.184 181.966 362.184 181.966 362.877 180.708C363.847 178.932 364.817 177.157 365.787 175.381C366.283 174.476 366.779 173.57 367.29 172.637C368.692 170.07 370.082 167.497 371.466 164.921C377.874 152.99 384.481 141.182 391.176 129.411C395.679 121.489 395.679 121.489 399.856 113.391C405.201 102.494 411.428 92.016 417.41 81.4621C419.981 76.9198 422.501 72.3532 424.99 67.7649C426.53 64.9439 428.115 62.1504 429.716 59.3638C430.696 57.6537 431.677 55.9436 432.687 54.1816Z" fill="url(#paint6_linear_1609_1567)"/>
<path d="M624.445 255.31C662.988 255.31 662.988 255.31 670.061 262.239C673.18 265.884 674.09 269.243 673.893 273.944C673.165 278.882 670.98 282.144 667.11 285.222C664.688 286.896 662.684 287.959 659.683 288.147C661.766 291.946 663.962 295.354 666.649 298.768C667.364 299.686 668.079 300.606 668.794 301.525C669.171 302.011 669.549 302.496 669.939 302.996C672.175 305.88 674.384 308.786 676.585 311.697C677.022 312.268 677.459 312.839 677.909 313.427C680.99 317.512 680.99 317.512 680.99 319.342C675.253 319.342 669.517 319.342 663.781 319.342C659.187 315.934 656.416 310.719 653.569 305.855C651.657 302.656 649.489 299.668 647.289 296.664C646.93 296.145 646.571 295.626 646.201 295.091C644.168 292.228 643.562 291.498 640.016 290.61C640.016 300.091 640.016 309.573 640.016 319.342C634.878 319.342 629.739 319.342 624.445 319.342C624.445 298.211 624.445 277.081 624.445 255.31Z" fill="url(#paint7_linear_1609_1567)"/>
<path d="M488.411 261.056C490.994 263.41 493.421 265.873 495.787 268.445C494.389 271.508 492.892 273.137 490.05 275.012C487.267 274.082 486.754 273.359 484.98 271.113C481.244 266.687 476.651 263.105 470.738 262.474C463.781 262.237 458.699 263.497 453.327 268.066C448.221 273.463 446.429 279.592 446.259 286.915C446.511 295.527 448.298 302.325 454.659 308.414C461.328 313.26 467.129 313.455 475.3 312.775C477.734 311.962 477.734 311.962 480.217 311.133C480.217 305.444 480.217 299.755 480.217 293.893C476.701 293.893 473.185 293.893 469.563 293.893C469.563 291.997 469.563 290.101 469.563 288.147C478.217 288.147 486.871 288.147 495.787 288.147C495.787 296.545 495.787 304.943 495.787 313.596C485.307 318.367 477.946 320.592 466.695 320.522C465.756 320.539 464.817 320.555 463.849 320.572C453.744 320.566 444.414 317.277 436.781 310.495C429.821 303.132 427.92 295.537 427.991 285.62C428.373 276.965 431.509 270.509 437.245 263.981C451.254 251.285 473.074 249.806 488.411 261.056Z" fill="url(#paint8_linear_1609_1567)"/>
<path d="M705.574 255.31C710.712 255.31 715.851 255.31 721.144 255.31C721.156 257.347 721.156 257.347 721.168 259.425C721.2 264.481 721.254 269.535 721.315 274.59C721.339 276.775 721.355 278.96 721.367 281.145C721.384 284.292 721.422 287.437 721.465 290.584C721.466 291.556 721.467 292.527 721.468 293.528C721.568 299.262 722.291 302.924 725.242 307.849C725.98 309.081 726.061 309.081 726.88 310.312C728.519 311.543 727.222 311.045 729.339 311.954C730.404 312.411 730.404 312.411 731.49 312.877C736.514 314.182 741.288 314.574 745.985 312.056C750.349 308.766 752.662 304.152 753.491 298.773C753.653 295.983 753.693 293.219 753.684 290.424C753.696 289.415 753.708 288.406 753.721 287.367C753.756 284.172 753.764 280.978 753.77 277.783C753.789 275.605 753.81 273.428 753.833 271.25C753.884 265.937 753.911 260.623 753.924 255.31C757.169 255.31 760.414 255.31 763.758 255.31C763.832 261.39 763.892 267.47 763.927 273.551C763.944 276.375 763.967 279.199 764.005 282.023C764.048 285.278 764.063 288.532 764.078 291.786C764.103 293.291 764.103 293.291 764.129 294.827C764.131 301.894 762.753 306.601 759.097 312.569C751.778 319.703 742.18 321.396 732.362 321.33C724.169 321.07 717.299 318.487 711.311 312.775C707.236 308.162 705.361 303.472 705.388 297.248C705.388 296.312 705.388 295.375 705.389 294.41C705.397 293.412 705.406 292.414 705.414 291.386C705.417 290.354 705.419 289.322 705.421 288.259C705.429 285.53 705.444 282.802 705.462 280.073C705.479 277.283 705.486 274.493 705.494 271.703C705.512 266.238 705.541 260.774 705.574 255.31Z" fill="url(#paint9_linear_1609_1567)"/>
<path d="M531.025 255.31C536.163 255.31 541.301 255.31 546.595 255.31C546.602 256.634 546.61 257.959 546.618 259.324C546.651 264.266 546.705 269.208 546.765 274.149C546.788 276.283 546.805 278.417 546.817 280.551C546.834 283.628 546.873 286.705 546.915 289.782C546.916 290.727 546.917 291.673 546.918 292.647C547.038 299.353 547.866 305.69 552.638 310.722C557.334 313.41 561.731 314.249 567.082 313.596C569.801 312.508 569.801 312.508 571.999 311.133C572.81 310.862 573.621 310.591 574.457 310.312C575.374 308.96 575.374 308.96 576.096 307.028C576.51 306.12 576.924 305.212 577.35 304.277C579.088 299.594 578.947 294.885 578.974 289.943C578.989 288.95 579.003 287.957 579.018 286.934C579.063 283.781 579.09 280.628 579.118 277.475C579.145 275.329 579.173 273.184 579.203 271.039C579.272 265.796 579.327 260.553 579.374 255.31C582.619 255.31 585.864 255.31 589.208 255.31C589.289 261.691 589.348 268.073 589.388 274.455C589.404 276.623 589.427 278.791 589.455 280.959C589.495 284.087 589.513 287.215 589.528 290.343C589.545 291.302 589.562 292.261 589.579 293.249C589.581 300.73 588.465 307.693 583.42 313.493C574.896 321.132 564.04 321.591 553.151 320.984C545.675 319.883 540.307 316.778 535.276 311.184C530.727 304.805 530.688 299.634 530.784 291.947C530.79 290.374 530.79 290.374 530.795 288.769C530.806 285.998 530.828 283.228 530.856 280.457C530.881 277.623 530.892 274.789 530.904 271.954C530.932 266.406 530.974 260.858 531.025 255.31Z" fill="url(#paint10_linear_1609_1567)"/>
<path d="M640.016 261.877C650.669 261.877 650.669 261.877 653.691 263.673C656.561 267.169 657.412 269.291 657.071 273.78C656.604 276.918 656.096 279.149 653.947 281.579C649.079 285.068 646.461 284.863 640.016 284.863C640.016 277.278 640.016 269.692 640.016 261.877Z" fill="#4F1991"/>
</g>
<defs>
<linearGradient id="paint0_linear_1609_1567" x1="784.245" y1="53.8223" x2="784.245" y2="195.679" gradientUnits="userSpaceOnUse">
<stop stop-color="#FEFEFE"/>
<stop offset="1" stop-color="#501B91"/>
</linearGradient>
<linearGradient id="paint1_linear_1609_1567" x1="263.464" y1="54.1816" x2="263.464" y2="194.561" gradientUnits="userSpaceOnUse">
<stop stop-color="#FEFEFE"/>
<stop offset="1" stop-color="#501B91"/>
</linearGradient>
<linearGradient id="paint2_linear_1609_1567" x1="1102.07" y1="53.6523" x2="1102.07" y2="195.408" gradientUnits="userSpaceOnUse">
<stop stop-color="#FEFEFE"/>
<stop offset="1" stop-color="#501B91"/>
</linearGradient>
<linearGradient id="paint3_linear_1609_1567" x1="943.743" y1="54.1816" x2="943.743" y2="195.622" gradientUnits="userSpaceOnUse">
<stop stop-color="#FEFEFE"/>
<stop offset="1" stop-color="#501B91"/>
</linearGradient>
<linearGradient id="paint4_linear_1609_1567" x1="606.831" y1="54.1816" x2="606.831" y2="195.538" gradientUnits="userSpaceOnUse">
<stop stop-color="#FEFEFE"/>
<stop offset="1" stop-color="#501B91"/>
</linearGradient>
<linearGradient id="paint5_linear_1609_1567" x1="93.8307" y1="32.0166" x2="93.8307" y2="194.561" gradientUnits="userSpaceOnUse">
<stop stop-color="#FEFEFE"/>
<stop offset="1" stop-color="#501B91"/>
</linearGradient>
<linearGradient id="paint6_linear_1609_1567" x1="440.472" y1="54.1816" x2="440.472" y2="194.561" gradientUnits="userSpaceOnUse">
<stop stop-color="#FEFEFE"/>
<stop offset="1" stop-color="#501B91"/>
</linearGradient>
<linearGradient id="paint7_linear_1609_1567" x1="652.718" y1="255.31" x2="652.718" y2="319.342" gradientUnits="userSpaceOnUse">
<stop stop-color="#FEFEFE"/>
<stop offset="1" stop-color="#501B91"/>
</linearGradient>
<linearGradient id="paint8_linear_1609_1567" x1="461.888" y1="253.463" x2="461.888" y2="320.572" gradientUnits="userSpaceOnUse">
<stop stop-color="#FDFDFD"/>
<stop offset="1" stop-color="#501B91"/>
</linearGradient>
<linearGradient id="paint9_linear_1609_1567" x1="734.758" y1="255.31" x2="734.758" y2="321.332" gradientUnits="userSpaceOnUse">
<stop stop-color="#FEFEFE"/>
<stop offset="1" stop-color="#501B91"/>
</linearGradient>
<linearGradient id="paint10_linear_1609_1567" x1="560.171" y1="255.31" x2="560.171" y2="321.173" gradientUnits="userSpaceOnUse">
<stop stop-color="#FEFEFE"/>
<stop offset="1" stop-color="#501B91"/>
</linearGradient>
</defs>
</svg>
