<svg width="44" height="44" viewBox="0 0 44 44" fill="none" xmlns="http://www.w3.org/2000/svg">
<path d="M21.9994 20.878C20.3384 17.6495 15.8174 11.6307 11.6135 8.66433C7.58568 5.82267 6.05118 6.31217 5.04468 6.7705C3.87868 7.293 3.66602 9.08417 3.66602 10.1347C3.66602 11.1888 4.24352 18.7678 4.61935 20.0347C5.86602 24.2147 10.2917 25.6263 14.3727 25.1735C8.39602 26.059 3.08485 28.2352 10.046 35.9865C17.7057 43.9157 20.5437 34.287 21.9994 29.4048C23.455 34.287 25.1307 43.5692 33.8134 35.9865C40.3327 29.4048 35.6045 26.059 29.6279 25.1735C33.707 25.6263 38.1345 24.2147 39.3794 20.0347C39.7552 18.7697 40.3327 11.1888 40.3327 10.1365C40.3327 9.08233 40.12 7.29483 38.954 6.76683C37.9475 6.31217 36.413 5.819 32.3852 8.66067C28.1814 11.6325 23.6585 17.6513 21.9994 20.878Z" fill="white"/>
</svg>
