<svg width="44" height="44" viewBox="0 0 44 44" fill="none" xmlns="http://www.w3.org/2000/svg">
<path d="M23.8851 3.66669C25.9476 3.67219 26.9944 3.68319 27.8982 3.70885L28.2539 3.72169C28.6646 3.73635 29.0697 3.75469 29.5592 3.77669C31.5099 3.86835 32.8409 4.17635 34.0087 4.62919C35.2187 5.09485 36.2381 5.72552 37.2574 6.74302C38.19 7.65919 38.9114 8.76788 39.3713 9.99168C39.8241 11.1595 40.1321 12.4905 40.2238 14.443C40.2458 14.9307 40.2641 15.3358 40.2787 15.7483L40.2897 16.104C40.3172 17.006 40.3283 18.0528 40.3319 20.1153L40.3337 21.483V23.8847C40.3382 25.2219 40.3242 26.5592 40.2916 27.896L40.2806 28.2517C40.2659 28.6642 40.2476 29.0693 40.2256 29.557C40.1339 31.5095 39.8223 32.8387 39.3713 34.0083C38.9114 35.2321 38.19 36.3408 37.2574 37.257C36.3412 38.1896 35.2325 38.911 34.0087 39.3708C32.8409 39.8237 31.5099 40.1317 29.5592 40.2233L28.2539 40.2783L27.8982 40.2893C26.9944 40.315 25.9476 40.3278 23.8851 40.3315L22.5174 40.3333H20.1176C18.7797 40.3381 17.4419 40.324 16.1044 40.2912L15.7487 40.2802C15.3135 40.2637 14.8784 40.2447 14.4434 40.2233C12.4927 40.1317 11.1617 39.8237 9.99206 39.3708C8.76892 38.9108 7.66087 38.1894 6.74523 37.257C5.81196 36.341 5.08993 35.2323 4.62956 34.0083C4.17673 32.8405 3.86873 31.5095 3.77706 29.557L3.72206 28.2517L3.71289 27.896C3.6791 26.5592 3.66382 25.2219 3.66706 23.8847V20.1153C3.66198 18.7781 3.67543 17.4409 3.70739 16.104L3.72023 15.7483C3.73489 15.3358 3.75323 14.9307 3.77523 14.443C3.86689 12.4905 4.17489 11.1613 4.62773 9.99168C5.08917 8.76738 5.81247 7.65865 6.74706 6.74302C7.66218 5.81086 8.76957 5.08949 9.99206 4.62919C11.1617 4.17635 12.4909 3.86835 14.4434 3.77669C14.9311 3.75469 15.3381 3.73635 15.7487 3.72169L16.1044 3.71069C17.4413 3.67811 18.7785 3.66406 20.1157 3.66852L23.8851 3.66669ZM22.0004 12.8333C19.5693 12.8333 17.2377 13.7991 15.5186 15.5182C13.7995 17.2373 12.8337 19.5689 12.8337 22C12.8337 24.4312 13.7995 26.7627 15.5186 28.4818C17.2377 30.2009 19.5693 31.1667 22.0004 31.1667C24.4316 31.1667 26.7631 30.2009 28.4822 28.4818C30.2013 26.7627 31.1671 24.4312 31.1671 22C31.1671 19.5689 30.2013 17.2373 28.4822 15.5182C26.7631 13.7991 24.4316 12.8333 22.0004 12.8333ZM22.0004 16.5C22.7227 16.4999 23.4379 16.642 24.1052 16.9183C24.7726 17.1946 25.379 17.5996 25.8898 18.1103C26.4006 18.6209 26.8058 19.2272 27.0823 19.8944C27.3588 20.5617 27.5012 21.2768 27.5013 21.9991C27.5014 22.7214 27.3593 23.4366 27.083 24.1039C26.8067 24.7713 26.4017 25.3776 25.8911 25.8884C25.3804 26.3993 24.7742 26.8045 24.1069 27.081C23.4397 27.3575 22.7245 27.4999 22.0022 27.5C20.5435 27.5 19.1446 26.9205 18.1131 25.8891C17.0817 24.8576 16.5022 23.4587 16.5022 22C16.5022 20.5413 17.0817 19.1424 18.1131 18.1109C19.1446 17.0795 20.5435 16.5 22.0022 16.5M31.6272 10.0834C31.0195 10.0834 30.4366 10.3248 30.0068 10.7546C29.577 11.1843 29.3356 11.7672 29.3356 12.375C29.3356 12.9828 29.577 13.5657 30.0068 13.9955C30.4366 14.4252 31.0195 14.6667 31.6272 14.6667C32.235 14.6667 32.8179 14.4252 33.2477 13.9955C33.6775 13.5657 33.9189 12.9828 33.9189 12.375C33.9189 11.7672 33.6775 11.1843 33.2477 10.7546C32.8179 10.3248 32.235 10.0834 31.6272 10.0834Z" fill="white"/>
</svg>
