<svg width="42" height="42" viewBox="0 0 42 42" fill="none" xmlns="http://www.w3.org/2000/svg">
<path d="M29.0493 10.185C27.8533 8.81917 27.1941 7.06545 27.1943 5.25H21.7868V26.95C21.746 28.1246 21.2505 29.2374 20.4048 30.0536C19.5592 30.8699 18.4296 31.3257 17.2543 31.325C14.7693 31.325 12.7043 29.295 12.7043 26.775C12.7043 23.765 15.6093 21.5075 18.6018 22.435V16.905C12.5643 16.1 7.2793 20.79 7.2793 26.775C7.2793 32.6025 12.1093 36.75 17.2368 36.75C22.7318 36.75 27.1943 32.2875 27.1943 26.775V15.7675C29.387 17.3422 32.0197 18.1871 34.7193 18.1825V12.775C34.7193 12.775 31.4293 12.9325 29.0493 10.185Z" fill="white"/>
</svg>
