<svg width="46" height="46" viewBox="0 0 46 46" fill="none" xmlns="http://www.w3.org/2000/svg">
<path d="M19.1673 28.75L29.1148 23L19.1673 17.25V28.75ZM41.324 13.7425C41.5732 14.6433 41.7457 15.8508 41.8606 17.3841C41.9948 18.9175 42.0523 20.24 42.0523 21.39L42.1673 23C42.1673 27.1975 41.8606 30.2833 41.324 32.2575C40.8448 33.9825 39.7332 35.0941 38.0082 35.5733C37.1073 35.8225 35.459 35.995 32.929 36.11C30.4373 36.2442 28.1565 36.3017 26.0482 36.3017L23.0007 36.4167C14.9698 36.4167 9.96732 36.11 7.99315 35.5733C6.26815 35.0941 5.15648 33.9825 4.67732 32.2575C4.42815 31.3566 4.25565 30.1492 4.14065 28.6158C4.00648 27.0825 3.94898 25.76 3.94898 24.61L3.83398 23C3.83398 18.8025 4.14065 15.7166 4.67732 13.7425C5.15648 12.0175 6.26815 10.9058 7.99315 10.4266C8.89398 10.1775 10.5423 10.005 13.0723 9.88998C15.564 9.75581 17.8448 9.69831 19.9531 9.69831L23.0007 9.58331C31.0315 9.58331 36.034 9.88998 38.0082 10.4266C39.7332 10.9058 40.8448 12.0175 41.324 13.7425Z" fill="white"/>
</svg>
