<svg width="433" height="303" viewBox="0 0 433 303" fill="none" xmlns="http://www.w3.org/2000/svg">
<rect x="0.5" y="74.5" width="357" height="227" rx="24.5" fill="url(#paint0_linear_561_3830)" fill-opacity="0.2" stroke="url(#paint1_linear_561_3830)"/>
<circle cx="65" cy="143" r="32.5" stroke="url(#paint2_linear_561_3830)"/>
<circle cx="65" cy="143" r="27.5" stroke="url(#paint3_linear_561_3830)" stroke-opacity="0.25"/>
<line x1="98" y1="143.5" x2="194" y2="143.5" stroke="url(#paint4_linear_561_3830)"/>
<line x1="32" y1="144.5" x2="-4.37114e-08" y2="144.5" stroke="url(#paint5_linear_561_3830)"/>
<line x1="64.5" y1="110" x2="64.5" y2="74" stroke="url(#paint6_linear_561_3830)"/>
<path d="M60.9375 140.562H66.2188C66.973 140.562 67.6963 140.862 68.2296 141.395C68.7629 141.929 69.0625 142.652 69.0625 143.406C69.0625 144.16 68.7629 144.884 68.2296 145.417C67.6963 145.95 66.973 146.25 66.2188 146.25H65M60.9375 140.562L63.375 138.125M60.9375 140.562L63.375 143M73.125 135.153V153.562L69.0625 151.937L65 153.562L60.9375 151.937L56.875 153.562V135.153C56.875 133.953 57.7482 132.925 58.9409 132.786C62.9668 132.319 67.0332 132.319 71.0591 132.786C72.2508 132.925 73.125 133.953 73.125 135.153Z" stroke="white" stroke-width="2" stroke-linecap="round" stroke-linejoin="round"/>
<path d="M39.325 207.325H45.325V213.575C44.1083 214.625 42.4 215.175 40.2 215.225C38.6333 215.225 37.3083 214.883 36.225 214.2C35.1417 213.5 34.3333 212.608 33.8 211.525C33.2667 210.442 33 209.308 33 208.125C33 206.892 33.2833 205.742 33.85 204.675C34.4167 203.608 35.2417 202.75 36.325 202.1C37.425 201.45 38.7167 201.125 40.2 201.125C41.8333 201.125 43.3583 201.533 44.775 202.35L45.125 202.55L44.1 204.425L43.75 204.275C43.2833 204.025 42.7417 203.817 42.125 203.65C41.525 203.467 40.9083 203.375 40.275 203.375C39.4417 203.375 38.6583 203.567 37.925 203.95C37.1917 204.317 36.6 204.858 36.15 205.575C35.7 206.275 35.475 207.092 35.475 208.025C35.475 208.958 35.6917 209.8 36.125 210.55C36.575 211.3 37.1833 211.892 37.95 212.325C38.7333 212.742 39.6167 212.95 40.6 212.95C41.1333 212.95 41.5667 212.908 41.9 212.825C42.25 212.742 42.5917 212.608 42.925 212.425V209.5H39.325V207.325ZM49.4281 205.875C50.1115 205.458 50.8448 205.25 51.6281 205.25C53.0781 205.25 54.1865 205.7 54.9531 206.6C55.7365 207.483 56.1281 208.7 56.1281 210.25V211.175H49.6031C49.6698 211.992 49.9531 212.558 50.4531 212.875C50.9531 213.192 51.6615 213.35 52.5781 213.35C53.5448 213.35 54.4281 213.25 55.2281 213.05L55.6531 214.675C54.5698 215.058 53.4365 215.25 52.2531 215.25C50.6031 215.25 49.3448 214.792 48.4781 213.875C47.6115 212.958 47.1781 211.75 47.1781 210.25C47.1781 209.25 47.3865 208.375 47.8031 207.625C48.2198 206.858 48.7615 206.275 49.4281 205.875ZM53.1781 207.75C52.7948 207.333 52.2948 207.125 51.6781 207.125C51.1781 207.125 50.7198 207.333 50.3031 207.75C49.9031 208.167 49.6865 208.75 49.6531 209.5H53.7531C53.7531 208.733 53.5615 208.15 53.1781 207.75ZM62.6437 213.275C63.1271 213.275 63.7437 213.175 64.4937 212.975L64.8187 214.675C64.2354 214.842 63.7354 214.975 63.3187 215.075C62.9187 215.175 62.5187 215.225 62.1187 215.225C60.7354 215.225 59.8104 214.933 59.3438 214.35C58.8937 213.767 58.6687 212.958 58.6687 211.925V207.275H57.0687V205.4H58.6687V202.65H61.0687V205.4H64.3937V207.275H61.0687V211.875C61.0687 212.808 61.5937 213.275 62.6437 213.275ZM81.1273 203.45H74.6773V207.525H80.3523V209.775H74.6773V215H72.2273V201.25H81.1273V203.45ZM91.6523 215.025H90.0023L89.7023 214.325C89.069 214.625 88.5273 214.85 88.0773 215C87.644 215.15 87.144 215.225 86.5773 215.225C85.1273 215.225 84.1773 214.808 83.7273 213.975C83.294 213.125 83.0773 212.092 83.0773 210.875V205.4H85.4523V211.2C85.4523 211.717 85.5773 212.175 85.8273 212.575C86.0773 212.975 86.5357 213.175 87.2023 213.175C87.9357 213.175 88.6357 212.983 89.3023 212.6V205.4H91.6523V215.025ZM94.0539 205.4H95.7539L96.0539 206.1C97.1872 205.55 98.2956 205.275 99.3789 205.275C100.396 205.275 101.154 205.5 101.654 205.95C102.171 206.4 102.496 206.925 102.629 207.525C102.779 208.125 102.854 208.8 102.854 209.55V215H100.479V209.25C100.479 208.75 100.354 208.3 100.104 207.9C99.8539 207.5 99.4039 207.3 98.7539 207.3C98.1706 207.3 97.3956 207.475 96.4289 207.825V215H94.0539V205.4ZM111.712 205.65V201.25H114.112V215H112.387L112.212 214.475C111.362 214.975 110.503 215.225 109.637 215.225C108.12 215.225 106.92 214.775 106.037 213.875C105.17 212.975 104.737 211.758 104.737 210.225C104.737 209.075 104.978 208.125 105.462 207.375C105.962 206.625 106.57 206.083 107.287 205.75C108.003 205.417 108.72 205.25 109.437 205.25C110.353 205.25 111.112 205.383 111.712 205.65ZM111.712 207.45C111.212 207.233 110.637 207.125 109.987 207.125C108.137 207.125 107.212 208.2 107.212 210.35C107.212 211.417 107.47 212.183 107.987 212.65C108.503 213.117 109.195 213.35 110.062 213.35C110.678 213.35 111.228 213.192 111.712 212.875V207.45ZM118.412 205.875C119.096 205.458 119.829 205.25 120.612 205.25C122.062 205.25 123.171 205.7 123.937 206.6C124.721 207.483 125.112 208.7 125.112 210.25V211.175H118.587C118.654 211.992 118.937 212.558 119.437 212.875C119.937 213.192 120.646 213.35 121.563 213.35C122.529 213.35 123.412 213.25 124.212 213.05L124.637 214.675C123.554 215.058 122.421 215.25 121.237 215.25C119.587 215.25 118.329 214.792 117.463 213.875C116.596 212.958 116.162 211.75 116.162 210.25C116.162 209.25 116.371 208.375 116.787 207.625C117.204 206.858 117.746 206.275 118.412 205.875ZM122.163 207.75C121.779 207.333 121.279 207.125 120.662 207.125C120.162 207.125 119.704 207.333 119.287 207.75C118.887 208.167 118.671 208.75 118.637 209.5H122.737C122.737 208.733 122.546 208.15 122.163 207.75ZM133.528 205.65V201.25H135.928V215H134.203L134.028 214.475C133.178 214.975 132.32 215.225 131.453 215.225C129.936 215.225 128.736 214.775 127.853 213.875C126.986 212.975 126.553 211.758 126.553 210.225C126.553 209.075 126.795 208.125 127.278 207.375C127.778 206.625 128.386 206.083 129.103 205.75C129.82 205.417 130.536 205.25 131.253 205.25C132.17 205.25 132.928 205.383 133.528 205.65ZM133.528 207.45C133.028 207.233 132.453 207.125 131.803 207.125C129.953 207.125 129.028 208.2 129.028 210.35C129.028 211.417 129.286 212.183 129.803 212.65C130.32 213.117 131.011 213.35 131.878 213.35C132.495 213.35 133.045 213.192 133.528 212.875V207.45Z" fill="white"/>
<path d="M32.98 250V239.92H36.872C36.97 239.92 37.0797 239.925 37.201 239.934C37.327 239.939 37.453 239.953 37.579 239.976C38.1063 240.055 38.552 240.24 38.916 240.529C39.2847 240.814 39.5623 241.173 39.749 241.607C39.9403 242.041 40.036 242.522 40.036 243.049C40.036 243.572 39.9403 244.05 39.749 244.484C39.5577 244.918 39.2777 245.28 38.909 245.569C38.545 245.854 38.1017 246.036 37.579 246.115C37.453 246.134 37.327 246.148 37.201 246.157C37.0797 246.166 36.97 246.171 36.872 246.171H34.009V250H32.98ZM34.009 245.191H36.844C36.928 245.191 37.026 245.186 37.138 245.177C37.25 245.168 37.3597 245.151 37.467 245.128C37.8123 245.053 38.0947 244.911 38.314 244.701C38.538 244.491 38.7037 244.241 38.811 243.952C38.923 243.663 38.979 243.362 38.979 243.049C38.979 242.736 38.923 242.435 38.811 242.146C38.7037 241.852 38.538 241.6 38.314 241.39C38.0947 241.18 37.8123 241.038 37.467 240.963C37.3597 240.94 37.25 240.926 37.138 240.921C37.026 240.912 36.928 240.907 36.844 240.907H34.009V245.191ZM43.2641 250.21C42.6948 250.21 42.2164 250.107 41.8291 249.902C41.4464 249.697 41.1594 249.424 40.9681 249.083C40.7768 248.742 40.6811 248.371 40.6811 247.97C40.6811 247.559 40.7628 247.209 40.9261 246.92C41.0941 246.626 41.3204 246.386 41.6051 246.199C41.8944 246.012 42.2281 245.87 42.6061 245.772C42.9888 245.679 43.4111 245.597 43.8731 245.527C44.3398 245.452 44.7948 245.389 45.2381 245.338C45.6861 245.282 46.0781 245.228 46.4141 245.177L46.0501 245.401C46.0641 244.654 45.9194 244.101 45.6161 243.742C45.3128 243.383 44.7854 243.203 44.0341 243.203C43.5161 243.203 43.0774 243.32 42.7181 243.553C42.3634 243.786 42.1138 244.155 41.9691 244.659L40.9681 244.365C41.1408 243.688 41.4884 243.163 42.0111 242.79C42.5338 242.417 43.2128 242.23 44.0481 242.23C44.7388 242.23 45.3244 242.361 45.8051 242.622C46.2904 242.879 46.6334 243.252 46.8341 243.742C46.9274 243.961 46.9881 244.206 47.0161 244.477C47.0441 244.748 47.0581 245.023 47.0581 245.303V250H46.1411V248.103L46.4071 248.215C46.1504 248.864 45.7514 249.358 45.2101 249.699C44.6688 250.04 44.0201 250.21 43.2641 250.21ZM43.3831 249.321C43.8638 249.321 44.2838 249.235 44.6431 249.062C45.0024 248.889 45.2918 248.654 45.5111 248.355C45.7304 248.052 45.8728 247.711 45.9381 247.333C45.9941 247.09 46.0244 246.824 46.0291 246.535C46.0338 246.241 46.0361 246.022 46.0361 245.877L46.4281 246.08C46.0781 246.127 45.6978 246.173 45.2871 246.22C44.8811 246.267 44.4798 246.32 44.0831 246.381C43.6911 246.442 43.3364 246.514 43.0191 246.598C42.8044 246.659 42.5968 246.745 42.3961 246.857C42.1954 246.964 42.0298 247.109 41.8991 247.291C41.7731 247.473 41.7101 247.699 41.7101 247.97C41.7101 248.189 41.7638 248.402 41.8711 248.607C41.9831 248.812 42.1604 248.983 42.4031 249.118C42.6504 249.253 42.9771 249.321 43.3831 249.321ZM51.7014 250.203C50.8147 250.203 50.0844 250.012 49.5104 249.629C48.9411 249.246 48.5911 248.714 48.4604 248.033L49.5104 247.858C49.6224 248.287 49.8767 248.63 50.2734 248.887C50.6747 249.139 51.1694 249.265 51.7574 249.265C52.3314 249.265 52.7841 249.146 53.1154 248.908C53.4467 248.665 53.6124 248.336 53.6124 247.921C53.6124 247.688 53.5587 247.499 53.4514 247.354C53.3487 247.205 53.1364 247.067 52.8144 246.941C52.4924 246.815 52.0117 246.666 51.3724 246.493C50.6864 246.306 50.1497 246.12 49.7624 245.933C49.3751 245.746 49.0997 245.532 48.9364 245.289C48.7731 245.042 48.6914 244.741 48.6914 244.386C48.6914 243.957 48.8127 243.581 49.0554 243.259C49.2981 242.932 49.6341 242.68 50.0634 242.503C50.4927 242.321 50.9921 242.23 51.5614 242.23C52.1307 242.23 52.6394 242.323 53.0874 242.51C53.5401 242.692 53.9041 242.949 54.1794 243.28C54.4547 243.611 54.6181 243.996 54.6694 244.435L53.6194 244.624C53.5494 244.181 53.3277 243.831 52.9544 243.574C52.5857 243.313 52.1167 243.177 51.5474 243.168C51.0107 243.154 50.5744 243.257 50.2384 243.476C49.9024 243.691 49.7344 243.978 49.7344 244.337C49.7344 244.538 49.7951 244.71 49.9164 244.855C50.0377 244.995 50.2571 245.128 50.5744 245.254C50.8964 245.38 51.3537 245.518 51.9464 245.667C52.6417 245.844 53.1877 246.031 53.5844 246.227C53.9811 246.423 54.2634 246.654 54.4314 246.92C54.5994 247.186 54.6834 247.515 54.6834 247.907C54.6834 248.621 54.4174 249.183 53.8854 249.594C53.3581 250 52.6301 250.203 51.7014 250.203ZM59.0569 250.203C58.1702 250.203 57.4399 250.012 56.8659 249.629C56.2965 249.246 55.9465 248.714 55.8159 248.033L56.8659 247.858C56.9779 248.287 57.2322 248.63 57.6289 248.887C58.0302 249.139 58.5249 249.265 59.1129 249.265C59.6869 249.265 60.1395 249.146 60.4709 248.908C60.8022 248.665 60.9679 248.336 60.9679 247.921C60.9679 247.688 60.9142 247.499 60.8069 247.354C60.7042 247.205 60.4919 247.067 60.1699 246.941C59.8479 246.815 59.3672 246.666 58.7279 246.493C58.0419 246.306 57.5052 246.12 57.1179 245.933C56.7305 245.746 56.4552 245.532 56.2919 245.289C56.1285 245.042 56.0469 244.741 56.0469 244.386C56.0469 243.957 56.1682 243.581 56.4109 243.259C56.6535 242.932 56.9895 242.68 57.4189 242.503C57.8482 242.321 58.3475 242.23 58.9169 242.23C59.4862 242.23 59.9949 242.323 60.4429 242.51C60.8955 242.692 61.2595 242.949 61.5349 243.28C61.8102 243.611 61.9735 243.996 62.0249 244.435L60.9749 244.624C60.9049 244.181 60.6832 243.831 60.3099 243.574C59.9412 243.313 59.4722 243.177 58.9029 243.168C58.3662 243.154 57.9299 243.257 57.5939 243.476C57.2579 243.691 57.0899 243.978 57.0899 244.337C57.0899 244.538 57.1505 244.71 57.2719 244.855C57.3932 244.995 57.6125 245.128 57.9299 245.254C58.2519 245.38 58.7092 245.518 59.3019 245.667C59.9972 245.844 60.5432 246.031 60.9399 246.227C61.3365 246.423 61.6189 246.654 61.7869 246.92C61.9549 247.186 62.0389 247.515 62.0389 247.907C62.0389 248.621 61.7729 249.183 61.2409 249.594C60.7135 250 59.9855 250.203 59.0569 250.203ZM70.5101 250C70.0854 250.089 69.6654 250.124 69.2501 250.105C68.8394 250.086 68.4707 249.998 68.1441 249.839C67.8221 249.68 67.5771 249.433 67.4091 249.097C67.2737 248.817 67.1991 248.535 67.1851 248.25C67.1757 247.961 67.1711 247.632 67.1711 247.263V240.34H68.1931V247.221C68.1931 247.538 68.1954 247.804 68.2001 248.019C68.2094 248.229 68.2584 248.416 68.3471 248.579C68.5151 248.892 68.7811 249.078 69.1451 249.139C69.5137 249.2 69.9687 249.186 70.5101 249.097V250ZM65.5541 243.322V242.44H70.5101V243.322H65.5541ZM77.4595 250V246.143C77.4595 245.723 77.4199 245.338 77.3405 244.988C77.2612 244.633 77.1329 244.325 76.9555 244.064C76.7829 243.798 76.5565 243.593 76.2765 243.448C76.0012 243.303 75.6652 243.231 75.2685 243.231C74.9045 243.231 74.5825 243.294 74.3025 243.42C74.0272 243.546 73.7939 243.728 73.6025 243.966C73.4159 244.199 73.2735 244.484 73.1755 244.82C73.0775 245.156 73.0285 245.539 73.0285 245.968L72.3005 245.807C72.3005 245.032 72.4359 244.381 72.7065 243.854C72.9772 243.327 73.3505 242.928 73.8265 242.657C74.3025 242.386 74.8485 242.251 75.4645 242.251C75.9172 242.251 76.3115 242.321 76.6475 242.461C76.9882 242.601 77.2752 242.79 77.5085 243.028C77.7465 243.266 77.9379 243.539 78.0825 243.847C78.2272 244.15 78.3322 244.475 78.3975 244.82C78.4629 245.161 78.4955 245.501 78.4955 245.842V250H77.4595ZM71.9925 250V239.92H72.9235V245.611H73.0285V250H71.9925ZM83.511 250.21C82.7737 250.21 82.1344 250.047 81.593 249.72C81.0564 249.393 80.6387 248.934 80.34 248.341C80.0414 247.748 79.892 247.053 79.892 246.255C79.892 245.429 80.039 244.715 80.333 244.113C80.627 243.511 81.04 243.047 81.572 242.72C82.1087 242.393 82.741 242.23 83.469 242.23C84.2157 242.23 84.8527 242.403 85.38 242.748C85.9074 243.089 86.3064 243.579 86.577 244.218C86.8477 244.857 86.9714 245.62 86.948 246.507H85.898V246.143C85.8794 245.163 85.667 244.423 85.261 243.924C84.8597 243.425 84.2717 243.175 83.497 243.175C82.685 243.175 82.062 243.439 81.628 243.966C81.1987 244.493 80.984 245.245 80.984 246.22C80.984 247.172 81.1987 247.912 81.628 248.439C82.062 248.962 82.6757 249.223 83.469 249.223C84.0104 249.223 84.4817 249.099 84.883 248.852C85.289 248.6 85.6087 248.238 85.842 247.767L86.801 248.138C86.5024 248.796 86.0614 249.307 85.478 249.671C84.8994 250.03 84.2437 250.21 83.511 250.21ZM80.62 246.507V245.646H86.395V246.507H80.62ZM94.5032 250.21C93.7659 250.21 93.1266 250.047 92.5852 249.72C92.0486 249.393 91.6309 248.934 91.3322 248.341C91.0336 247.748 90.8842 247.053 90.8842 246.255C90.8842 245.429 91.0312 244.715 91.3252 244.113C91.6192 243.511 92.0322 243.047 92.5642 242.72C93.1009 242.393 93.7332 242.23 94.4612 242.23C95.2079 242.23 95.8449 242.403 96.3722 242.748C96.8996 243.089 97.2986 243.579 97.5692 244.218C97.8399 244.857 97.9636 245.62 97.9402 246.507H96.8902V246.143C96.8716 245.163 96.6592 244.423 96.2532 243.924C95.8519 243.425 95.2639 243.175 94.4892 243.175C93.6772 243.175 93.0542 243.439 92.6202 243.966C92.1909 244.493 91.9762 245.245 91.9762 246.22C91.9762 247.172 92.1909 247.912 92.6202 248.439C93.0542 248.962 93.6679 249.223 94.4612 249.223C95.0026 249.223 95.4739 249.099 95.8752 248.852C96.2812 248.6 96.6009 248.238 96.8342 247.767L97.7932 248.138C97.4946 248.796 97.0536 249.307 96.4702 249.671C95.8916 250.03 95.2359 250.21 94.5032 250.21ZM91.6122 246.507V245.646H97.3872V246.507H91.6122ZM101.264 250L98.5202 242.44H99.5632L101.796 248.656L104.015 242.44H105.072L102.328 250H101.264ZM108.069 250.21C107.499 250.21 107.021 250.107 106.634 249.902C106.251 249.697 105.964 249.424 105.773 249.083C105.581 248.742 105.486 248.371 105.486 247.97C105.486 247.559 105.567 247.209 105.731 246.92C105.899 246.626 106.125 246.386 106.41 246.199C106.699 246.012 107.033 245.87 107.411 245.772C107.793 245.679 108.216 245.597 108.678 245.527C109.144 245.452 109.599 245.389 110.043 245.338C110.491 245.282 110.883 245.228 111.219 245.177L110.855 245.401C110.869 244.654 110.724 244.101 110.421 243.742C110.117 243.383 109.59 243.203 108.839 243.203C108.321 243.203 107.882 243.32 107.523 243.553C107.168 243.786 106.918 244.155 106.774 244.659L105.773 244.365C105.945 243.688 106.293 243.163 106.816 242.79C107.338 242.417 108.017 242.23 108.853 242.23C109.543 242.23 110.129 242.361 110.61 242.622C111.095 242.879 111.438 243.252 111.639 243.742C111.732 243.961 111.793 244.206 111.821 244.477C111.849 244.748 111.863 245.023 111.863 245.303V250H110.946V248.103L111.212 248.215C110.955 248.864 110.556 249.358 110.015 249.699C109.473 250.04 108.825 250.21 108.069 250.21ZM108.188 249.321C108.668 249.321 109.088 249.235 109.448 249.062C109.807 248.889 110.096 248.654 110.316 248.355C110.535 248.052 110.677 247.711 110.743 247.333C110.799 247.09 110.829 246.824 110.834 246.535C110.838 246.241 110.841 246.022 110.841 245.877L111.233 246.08C110.883 246.127 110.502 246.173 110.092 246.22C109.686 246.267 109.284 246.32 108.888 246.381C108.496 246.442 108.141 246.514 107.824 246.598C107.609 246.659 107.401 246.745 107.201 246.857C107 246.964 106.834 247.109 106.704 247.291C106.578 247.473 106.515 247.699 106.515 247.97C106.515 248.189 106.568 248.402 106.676 248.607C106.788 248.812 106.965 248.983 107.208 249.118C107.455 249.253 107.782 249.321 108.188 249.321ZM113.825 250V239.71H114.854V250H113.825ZM119.844 250.189C119.391 250.189 118.994 250.119 118.654 249.979C118.318 249.839 118.031 249.65 117.793 249.412C117.559 249.174 117.37 248.903 117.226 248.6C117.081 248.292 116.976 247.968 116.911 247.627C116.845 247.282 116.813 246.939 116.813 246.598V242.44H117.849V246.297C117.849 246.712 117.888 247.097 117.968 247.452C118.047 247.807 118.173 248.117 118.346 248.383C118.523 248.644 118.749 248.847 119.025 248.992C119.305 249.137 119.643 249.209 120.04 249.209C120.404 249.209 120.723 249.146 120.999 249.02C121.279 248.894 121.512 248.714 121.699 248.481C121.89 248.243 122.035 247.956 122.133 247.62C122.231 247.279 122.28 246.897 122.28 246.472L123.008 246.633C123.008 247.408 122.872 248.059 122.602 248.586C122.331 249.113 121.958 249.512 121.482 249.783C121.006 250.054 120.46 250.189 119.844 250.189ZM122.385 250V248.138H122.28V242.44H123.309V250H122.385ZM127.428 250.21C126.859 250.21 126.38 250.107 125.993 249.902C125.61 249.697 125.323 249.424 125.132 249.083C124.941 248.742 124.845 248.371 124.845 247.97C124.845 247.559 124.927 247.209 125.09 246.92C125.258 246.626 125.484 246.386 125.769 246.199C126.058 246.012 126.392 245.87 126.77 245.772C127.153 245.679 127.575 245.597 128.037 245.527C128.504 245.452 128.959 245.389 129.402 245.338C129.85 245.282 130.242 245.228 130.578 245.177L130.214 245.401C130.228 244.654 130.083 244.101 129.78 243.742C129.477 243.383 128.949 243.203 128.198 243.203C127.68 243.203 127.241 243.32 126.882 243.553C126.527 243.786 126.278 244.155 126.133 244.659L125.132 244.365C125.305 243.688 125.652 243.163 126.175 242.79C126.698 242.417 127.377 242.23 128.212 242.23C128.903 242.23 129.488 242.361 129.969 242.622C130.454 242.879 130.797 243.252 130.998 243.742C131.091 243.961 131.152 244.206 131.18 244.477C131.208 244.748 131.222 245.023 131.222 245.303V250H130.305V248.103L130.571 248.215C130.314 248.864 129.915 249.358 129.374 249.699C128.833 250.04 128.184 250.21 127.428 250.21ZM127.547 249.321C128.028 249.321 128.448 249.235 128.807 249.062C129.166 248.889 129.456 248.654 129.675 248.355C129.894 248.052 130.037 247.711 130.102 247.333C130.158 247.09 130.188 246.824 130.193 246.535C130.198 246.241 130.2 246.022 130.2 245.877L130.592 246.08C130.242 246.127 129.862 246.173 129.451 246.22C129.045 246.267 128.644 246.32 128.247 246.381C127.855 246.442 127.5 246.514 127.183 246.598C126.968 246.659 126.761 246.745 126.56 246.857C126.359 246.964 126.194 247.109 126.063 247.291C125.937 247.473 125.874 247.699 125.874 247.97C125.874 248.189 125.928 248.402 126.035 248.607C126.147 248.812 126.324 248.983 126.567 249.118C126.814 249.253 127.141 249.321 127.547 249.321ZM137.16 250C136.736 250.089 136.316 250.124 135.9 250.105C135.49 250.086 135.121 249.998 134.794 249.839C134.472 249.68 134.227 249.433 134.059 249.097C133.924 248.817 133.849 248.535 133.835 248.25C133.826 247.961 133.821 247.632 133.821 247.263V240.34H134.843V247.221C134.843 247.538 134.846 247.804 134.85 248.019C134.86 248.229 134.909 248.416 134.997 248.579C135.165 248.892 135.431 249.078 135.795 249.139C136.164 249.2 136.619 249.186 137.16 249.097V250ZM132.204 243.322V242.44H137.16V243.322H132.204ZM138.79 241.005V239.85H139.819V241.005H138.79ZM138.79 250V242.44H139.819V250H138.79ZM145.075 250.21C144.323 250.21 143.682 250.04 143.15 249.699C142.618 249.358 142.209 248.887 141.925 248.285C141.64 247.683 141.498 246.992 141.498 246.213C141.498 245.42 141.642 244.724 141.932 244.127C142.221 243.53 142.632 243.065 143.164 242.734C143.7 242.398 144.337 242.23 145.075 242.23C145.831 242.23 146.475 242.4 147.007 242.741C147.543 243.077 147.952 243.546 148.232 244.148C148.516 244.745 148.659 245.434 148.659 246.213C148.659 247.006 148.516 247.704 148.232 248.306C147.947 248.903 147.536 249.37 147 249.706C146.463 250.042 145.821 250.21 145.075 250.21ZM145.075 249.223C145.915 249.223 146.54 248.945 146.951 248.39C147.361 247.83 147.567 247.104 147.567 246.213C147.567 245.298 147.359 244.57 146.944 244.029C146.533 243.488 145.91 243.217 145.075 243.217C144.51 243.217 144.043 243.345 143.675 243.602C143.311 243.854 143.038 244.206 142.856 244.659C142.678 245.107 142.59 245.625 142.59 246.213C142.59 247.123 142.8 247.853 143.22 248.404C143.64 248.95 144.258 249.223 145.075 249.223ZM155.663 250V246.143C155.663 245.723 155.623 245.338 155.544 244.988C155.464 244.633 155.336 244.325 155.159 244.064C154.986 243.798 154.76 243.593 154.48 243.448C154.204 243.303 153.868 243.231 153.472 243.231C153.108 243.231 152.786 243.294 152.506 243.42C152.23 243.546 151.997 243.728 151.806 243.966C151.619 244.199 151.477 244.484 151.379 244.82C151.281 245.156 151.232 245.539 151.232 245.968L150.504 245.807C150.504 245.032 150.639 244.381 150.91 243.854C151.18 243.327 151.554 242.928 152.03 242.657C152.506 242.386 153.052 242.251 153.668 242.251C154.12 242.251 154.515 242.321 154.851 242.461C155.191 242.601 155.478 242.79 155.712 243.028C155.95 243.266 156.141 243.539 156.286 243.847C156.43 244.15 156.535 244.475 156.601 244.82C156.666 245.161 156.699 245.501 156.699 245.842V250H155.663ZM150.196 250V242.44H151.127V244.302H151.232V250H150.196ZM163.481 250.21C162.912 250.21 162.433 250.107 162.046 249.902C161.663 249.697 161.376 249.424 161.185 249.083C160.994 248.742 160.898 248.371 160.898 247.97C160.898 247.559 160.98 247.209 161.143 246.92C161.311 246.626 161.537 246.386 161.822 246.199C162.111 246.012 162.445 245.87 162.823 245.772C163.206 245.679 163.628 245.597 164.09 245.527C164.557 245.452 165.012 245.389 165.455 245.338C165.903 245.282 166.295 245.228 166.631 245.177L166.267 245.401C166.281 244.654 166.136 244.101 165.833 243.742C165.53 243.383 165.002 243.203 164.251 243.203C163.733 243.203 163.294 243.32 162.935 243.553C162.58 243.786 162.331 244.155 162.186 244.659L161.185 244.365C161.358 243.688 161.705 243.163 162.228 242.79C162.751 242.417 163.43 242.23 164.265 242.23C164.956 242.23 165.541 242.361 166.022 242.622C166.507 242.879 166.85 243.252 167.051 243.742C167.144 243.961 167.205 244.206 167.233 244.477C167.261 244.748 167.275 245.023 167.275 245.303V250H166.358V248.103L166.624 248.215C166.367 248.864 165.968 249.358 165.427 249.699C164.886 250.04 164.237 250.21 163.481 250.21ZM163.6 249.321C164.081 249.321 164.501 249.235 164.86 249.062C165.219 248.889 165.509 248.654 165.728 248.355C165.947 248.052 166.09 247.711 166.155 247.333C166.211 247.09 166.241 246.824 166.246 246.535C166.251 246.241 166.253 246.022 166.253 245.877L166.645 246.08C166.295 246.127 165.915 246.173 165.504 246.22C165.098 246.267 164.697 246.32 164.3 246.381C163.908 246.442 163.553 246.514 163.236 246.598C163.021 246.659 162.814 246.745 162.613 246.857C162.412 246.964 162.247 247.109 162.116 247.291C161.99 247.473 161.927 247.699 161.927 247.97C161.927 248.189 161.981 248.402 162.088 248.607C162.2 248.812 162.377 248.983 162.62 249.118C162.867 249.253 163.194 249.321 163.6 249.321ZM174.557 250V246.143C174.557 245.723 174.518 245.338 174.438 244.988C174.359 244.633 174.231 244.325 174.053 244.064C173.881 243.798 173.654 243.593 173.374 243.448C173.099 243.303 172.763 243.231 172.366 243.231C172.002 243.231 171.68 243.294 171.4 243.42C171.125 243.546 170.892 243.728 170.7 243.966C170.514 244.199 170.371 244.484 170.273 244.82C170.175 245.156 170.126 245.539 170.126 245.968L169.398 245.807C169.398 245.032 169.534 244.381 169.804 243.854C170.075 243.327 170.448 242.928 170.924 242.657C171.4 242.386 171.946 242.251 172.562 242.251C173.015 242.251 173.409 242.321 173.745 242.461C174.086 242.601 174.373 242.79 174.606 243.028C174.844 243.266 175.036 243.539 175.18 243.847C175.325 244.15 175.43 244.475 175.495 244.82C175.561 245.161 175.593 245.501 175.593 245.842V250H174.557ZM169.09 250V242.44H170.021V244.302H170.126V250H169.09ZM180.302 250.21C179.597 250.21 178.995 250.035 178.496 249.685C177.996 249.33 177.614 248.852 177.348 248.25C177.082 247.648 176.949 246.969 176.949 246.213C176.949 245.462 177.079 244.785 177.341 244.183C177.607 243.581 177.987 243.105 178.482 242.755C178.976 242.405 179.569 242.23 180.26 242.23C180.969 242.23 181.566 242.403 182.052 242.748C182.537 243.093 182.903 243.567 183.151 244.169C183.403 244.766 183.529 245.448 183.529 246.213C183.529 246.964 183.405 247.643 183.158 248.25C182.91 248.852 182.546 249.33 182.066 249.685C181.585 250.035 180.997 250.21 180.302 250.21ZM180.407 249.251C180.943 249.251 181.387 249.12 181.737 248.859C182.087 248.598 182.348 248.238 182.521 247.781C182.693 247.319 182.78 246.796 182.78 246.213C182.78 245.62 182.693 245.098 182.521 244.645C182.348 244.188 182.087 243.831 181.737 243.574C181.391 243.317 180.955 243.189 180.428 243.189C179.886 243.189 179.438 243.322 179.084 243.588C178.729 243.854 178.465 244.216 178.293 244.673C178.125 245.13 178.041 245.644 178.041 246.213C178.041 246.787 178.127 247.305 178.3 247.767C178.477 248.224 178.741 248.586 179.091 248.852C179.441 249.118 179.879 249.251 180.407 249.251ZM182.78 250V244.309H182.668V239.92H183.704V250H182.78ZM191.291 250.203C190.405 250.203 189.674 250.012 189.1 249.629C188.531 249.246 188.181 248.714 188.05 248.033L189.1 247.858C189.212 248.287 189.467 248.63 189.863 248.887C190.265 249.139 190.759 249.265 191.347 249.265C191.921 249.265 192.374 249.146 192.705 248.908C193.037 248.665 193.202 248.336 193.202 247.921C193.202 247.688 193.149 247.499 193.041 247.354C192.939 247.205 192.726 247.067 192.404 246.941C192.082 246.815 191.602 246.666 190.962 246.493C190.276 246.306 189.74 246.12 189.352 245.933C188.965 245.746 188.69 245.532 188.526 245.289C188.363 245.042 188.281 244.741 188.281 244.386C188.281 243.957 188.403 243.581 188.645 243.259C188.888 242.932 189.224 242.68 189.653 242.503C190.083 242.321 190.582 242.23 191.151 242.23C191.721 242.23 192.229 242.323 192.677 242.51C193.13 242.692 193.494 242.949 193.769 243.28C194.045 243.611 194.208 243.996 194.259 244.435L193.209 244.624C193.139 244.181 192.918 243.831 192.544 243.574C192.176 243.313 191.707 243.177 191.137 243.168C190.601 243.154 190.164 243.257 189.828 243.476C189.492 243.691 189.324 243.978 189.324 244.337C189.324 244.538 189.385 244.71 189.506 244.855C189.628 244.995 189.847 245.128 190.164 245.254C190.486 245.38 190.944 245.518 191.536 245.667C192.232 245.844 192.778 246.031 193.174 246.227C193.571 246.423 193.853 246.654 194.021 246.92C194.189 247.186 194.273 247.515 194.273 247.907C194.273 248.621 194.007 249.183 193.475 249.594C192.948 250 192.22 250.203 191.291 250.203ZM199.942 250C199.517 250.089 199.097 250.124 198.682 250.105C198.271 250.086 197.902 249.998 197.576 249.839C197.254 249.68 197.009 249.433 196.841 249.097C196.705 248.817 196.631 248.535 196.617 248.25C196.607 247.961 196.603 247.632 196.603 247.263V240.34H197.625V247.221C197.625 247.538 197.627 247.804 197.632 248.019C197.641 248.229 197.69 248.416 197.779 248.579C197.947 248.892 198.213 249.078 198.577 249.139C198.945 249.2 199.4 249.186 199.942 249.097V250ZM194.986 243.322V242.44H199.942V243.322H194.986ZM203.594 250.21C203.025 250.21 202.547 250.107 202.159 249.902C201.777 249.697 201.49 249.424 201.298 249.083C201.107 248.742 201.011 248.371 201.011 247.97C201.011 247.559 201.093 247.209 201.256 246.92C201.424 246.626 201.651 246.386 201.935 246.199C202.225 246.012 202.558 245.87 202.936 245.772C203.319 245.679 203.741 245.597 204.203 245.527C204.67 245.452 205.125 245.389 205.568 245.338C206.016 245.282 206.408 245.228 206.744 245.177L206.38 245.401C206.394 244.654 206.25 244.101 205.946 243.742C205.643 243.383 205.116 243.203 204.364 243.203C203.846 243.203 203.408 243.32 203.048 243.553C202.694 243.786 202.444 244.155 202.299 244.659L201.298 244.365C201.471 243.688 201.819 243.163 202.341 242.79C202.864 242.417 203.543 242.23 204.378 242.23C205.069 242.23 205.655 242.361 206.135 242.622C206.621 242.879 206.964 243.252 207.164 243.742C207.258 243.961 207.318 244.206 207.346 244.477C207.374 244.748 207.388 245.023 207.388 245.303V250H206.471V248.103L206.737 248.215C206.481 248.864 206.082 249.358 205.54 249.699C204.999 250.04 204.35 250.21 203.594 250.21ZM203.713 249.321C204.194 249.321 204.614 249.235 204.973 249.062C205.333 248.889 205.622 248.654 205.841 248.355C206.061 248.052 206.203 247.711 206.268 247.333C206.324 247.09 206.355 246.824 206.359 246.535C206.364 246.241 206.366 246.022 206.366 245.877L206.758 246.08C206.408 246.127 206.028 246.173 205.617 246.22C205.211 246.267 204.81 246.32 204.413 246.381C204.021 246.442 203.667 246.514 203.349 246.598C203.135 246.659 202.927 246.745 202.726 246.857C202.526 246.964 202.36 247.109 202.229 247.291C202.103 247.473 202.04 247.699 202.04 247.97C202.04 248.189 202.094 248.402 202.201 248.607C202.313 248.812 202.491 248.983 202.733 249.118C202.981 249.253 203.307 249.321 203.713 249.321ZM209.21 250V242.44H210.134V244.26L209.952 244.022C210.036 243.798 210.146 243.593 210.281 243.406C210.417 243.215 210.564 243.058 210.722 242.937C210.918 242.764 211.147 242.634 211.408 242.545C211.67 242.452 211.933 242.398 212.199 242.384C212.465 242.365 212.708 242.384 212.927 242.44V243.406C212.652 243.336 212.351 243.32 212.024 243.357C211.698 243.394 211.397 243.525 211.121 243.749C210.869 243.945 210.68 244.181 210.554 244.456C210.428 244.727 210.344 245.016 210.302 245.324C210.26 245.627 210.239 245.928 210.239 246.227V250H209.21ZM218.371 250C217.947 250.089 217.527 250.124 217.111 250.105C216.701 250.086 216.332 249.998 216.005 249.839C215.683 249.68 215.438 249.433 215.27 249.097C215.135 248.817 215.06 248.535 215.046 248.25C215.037 247.961 215.032 247.632 215.032 247.263V240.34H216.054V247.221C216.054 247.538 216.057 247.804 216.061 248.019C216.071 248.229 216.12 248.416 216.208 248.579C216.376 248.892 216.642 249.078 217.006 249.139C217.375 249.2 217.83 249.186 218.371 249.097V250ZM213.415 243.322V242.44H218.371V243.322H213.415ZM226.78 250C226.355 250.089 225.935 250.124 225.52 250.105C225.109 250.086 224.74 249.998 224.414 249.839C224.092 249.68 223.847 249.433 223.679 249.097C223.543 248.817 223.469 248.535 223.455 248.25C223.445 247.961 223.441 247.632 223.441 247.263V240.34H224.463V247.221C224.463 247.538 224.465 247.804 224.47 248.019C224.479 248.229 224.528 248.416 224.617 248.579C224.785 248.892 225.051 249.078 225.415 249.139C225.783 249.2 226.238 249.186 226.78 249.097V250ZM221.824 243.322V242.44H226.78V243.322H221.824ZM228.269 250V242.44H229.193V244.26L229.011 244.022C229.095 243.798 229.205 243.593 229.34 243.406C229.475 243.215 229.622 243.058 229.781 242.937C229.977 242.764 230.206 242.634 230.467 242.545C230.728 242.452 230.992 242.398 231.258 242.384C231.524 242.365 231.767 242.384 231.986 242.44V243.406C231.711 243.336 231.41 243.32 231.083 243.357C230.756 243.394 230.455 243.525 230.18 243.749C229.928 243.945 229.739 244.181 229.613 244.456C229.487 244.727 229.403 245.016 229.361 245.324C229.319 245.627 229.298 245.928 229.298 246.227V250H228.269ZM235.19 250.21C234.621 250.21 234.142 250.107 233.755 249.902C233.372 249.697 233.085 249.424 232.894 249.083C232.703 248.742 232.607 248.371 232.607 247.97C232.607 247.559 232.689 247.209 232.852 246.92C233.02 246.626 233.246 246.386 233.531 246.199C233.82 246.012 234.154 245.87 234.532 245.772C234.915 245.679 235.337 245.597 235.799 245.527C236.266 245.452 236.721 245.389 237.164 245.338C237.612 245.282 238.004 245.228 238.34 245.177L237.976 245.401C237.99 244.654 237.845 244.101 237.542 243.742C237.239 243.383 236.711 243.203 235.96 243.203C235.442 243.203 235.003 243.32 234.644 243.553C234.289 243.786 234.04 244.155 233.895 244.659L232.894 244.365C233.067 243.688 233.414 243.163 233.937 242.79C234.46 242.417 235.139 242.23 235.974 242.23C236.665 242.23 237.25 242.361 237.731 242.622C238.216 242.879 238.559 243.252 238.76 243.742C238.853 243.961 238.914 244.206 238.942 244.477C238.97 244.748 238.984 245.023 238.984 245.303V250H238.067V248.103L238.333 248.215C238.076 248.864 237.677 249.358 237.136 249.699C236.595 250.04 235.946 250.21 235.19 250.21ZM235.309 249.321C235.79 249.321 236.21 249.235 236.569 249.062C236.928 248.889 237.218 248.654 237.437 248.355C237.656 248.052 237.799 247.711 237.864 247.333C237.92 247.09 237.95 246.824 237.955 246.535C237.96 246.241 237.962 246.022 237.962 245.877L238.354 246.08C238.004 246.127 237.624 246.173 237.213 246.22C236.807 246.267 236.406 246.32 236.009 246.381C235.617 246.442 235.262 246.514 234.945 246.598C234.73 246.659 234.523 246.745 234.322 246.857C234.121 246.964 233.956 247.109 233.825 247.291C233.699 247.473 233.636 247.699 233.636 247.97C233.636 248.189 233.69 248.402 233.797 248.607C233.909 248.812 234.086 248.983 234.329 249.118C234.576 249.253 234.903 249.321 235.309 249.321ZM243.739 250.21C243.035 250.21 242.433 250.035 241.933 249.685C241.434 249.33 241.051 248.852 240.785 248.25C240.519 247.648 240.386 246.969 240.386 246.213C240.386 245.462 240.517 244.785 240.778 244.183C241.044 243.581 241.425 243.105 241.919 242.755C242.414 242.405 243.007 242.23 243.697 242.23C244.407 242.23 245.004 242.403 245.489 242.748C245.975 243.093 246.341 243.567 246.588 244.169C246.84 244.766 246.966 245.448 246.966 246.213C246.966 246.964 246.843 247.643 246.595 248.25C246.348 248.852 245.984 249.33 245.503 249.685C245.023 250.035 244.435 250.21 243.739 250.21ZM243.844 249.251C244.381 249.251 244.824 249.12 245.174 248.859C245.524 248.598 245.786 248.238 245.958 247.781C246.131 247.319 246.217 246.796 246.217 246.213C246.217 245.62 246.131 245.098 245.958 244.645C245.786 244.188 245.524 243.831 245.174 243.574C244.829 243.317 244.393 243.189 243.865 243.189C243.324 243.189 242.876 243.322 242.521 243.588C242.167 243.854 241.903 244.216 241.73 244.673C241.562 245.13 241.478 245.644 241.478 246.213C241.478 246.787 241.565 247.305 241.737 247.767C241.915 248.224 242.178 248.586 242.528 248.852C242.878 249.118 243.317 249.251 243.844 249.251ZM246.217 250V244.309H246.105V239.92H247.141V250H246.217ZM249.245 241.005V239.85H250.274V241.005H249.245ZM249.245 250V242.44H250.274V250H249.245ZM257.833 250V246.143C257.833 245.723 257.793 245.338 257.714 244.988C257.634 244.633 257.506 244.325 257.329 244.064C257.156 243.798 256.93 243.593 256.65 243.448C256.374 243.303 256.038 243.231 255.642 243.231C255.278 243.231 254.956 243.294 254.676 243.42C254.4 243.546 254.167 243.728 253.976 243.966C253.789 244.199 253.647 244.484 253.549 244.82C253.451 245.156 253.402 245.539 253.402 245.968L252.674 245.807C252.674 245.032 252.809 244.381 253.08 243.854C253.35 243.327 253.724 242.928 254.2 242.657C254.676 242.386 255.222 242.251 255.838 242.251C256.29 242.251 256.685 242.321 257.021 242.461C257.361 242.601 257.648 242.79 257.882 243.028C258.12 243.266 258.311 243.539 258.456 243.847C258.6 244.15 258.705 244.475 258.771 244.82C258.836 245.161 258.869 245.501 258.869 245.842V250H257.833ZM252.366 250V242.44H253.297V244.302H253.402V250H252.366ZM263.688 253.57C263.301 253.57 262.918 253.512 262.54 253.395C262.167 253.283 261.821 253.103 261.504 252.856C261.187 252.613 260.921 252.296 260.706 251.904L261.637 251.386C261.847 251.806 262.141 252.107 262.519 252.289C262.902 252.476 263.291 252.569 263.688 252.569C264.234 252.569 264.675 252.466 265.011 252.261C265.352 252.06 265.599 251.762 265.753 251.365C265.907 250.968 265.982 250.474 265.977 249.881V247.865H266.096V242.44H267.013V249.895C267.013 250.11 267.006 250.315 266.992 250.511C266.983 250.712 266.962 250.908 266.929 251.099C266.84 251.664 266.656 252.128 266.376 252.492C266.101 252.856 265.737 253.127 265.284 253.304C264.836 253.481 264.304 253.57 263.688 253.57ZM263.618 250.21C262.913 250.21 262.311 250.035 261.812 249.685C261.313 249.33 260.93 248.852 260.664 248.25C260.398 247.648 260.265 246.969 260.265 246.213C260.265 245.462 260.396 244.785 260.657 244.183C260.923 243.581 261.303 243.105 261.798 242.755C262.293 242.405 262.885 242.23 263.576 242.23C264.285 242.23 264.883 242.403 265.368 242.748C265.853 243.093 266.22 243.567 266.467 244.169C266.719 244.766 266.845 245.448 266.845 246.213C266.845 246.964 266.721 247.643 266.474 248.25C266.227 248.852 265.863 249.33 265.382 249.685C264.901 250.035 264.313 250.21 263.618 250.21ZM263.723 249.251C264.26 249.251 264.703 249.12 265.053 248.859C265.403 248.598 265.664 248.238 265.837 247.781C266.01 247.319 266.096 246.796 266.096 246.213C266.096 245.62 266.01 245.098 265.837 244.645C265.664 244.188 265.403 243.831 265.053 243.574C264.708 243.317 264.271 243.189 263.744 243.189C263.203 243.189 262.755 243.322 262.4 243.588C262.045 243.854 261.782 244.216 261.609 244.673C261.441 245.13 261.357 245.644 261.357 246.213C261.357 246.787 261.443 247.305 261.616 247.767C261.793 248.224 262.057 248.586 262.407 248.852C262.757 249.118 263.196 249.251 263.723 249.251ZM273.383 250L271.073 242.433L272.102 242.44L273.894 248.313L275.693 242.44H276.631L278.43 248.313L280.236 242.44H281.258L278.948 250H278.052L276.162 243.98L274.279 250H273.383ZM282.659 241.005V239.85H283.688V241.005H282.659ZM282.659 250V242.44H283.688V250H282.659ZM289.903 250C289.478 250.089 289.058 250.124 288.643 250.105C288.232 250.086 287.863 249.998 287.537 249.839C287.215 249.68 286.97 249.433 286.802 249.097C286.666 248.817 286.592 248.535 286.578 248.25C286.568 247.961 286.564 247.632 286.564 247.263V240.34H287.586V247.221C287.586 247.538 287.588 247.804 287.593 248.019C287.602 248.229 287.651 248.416 287.74 248.579C287.908 248.892 288.174 249.078 288.538 249.139C288.906 249.2 289.361 249.186 289.903 249.097V250ZM284.947 243.322V242.44H289.903V243.322H284.947ZM296.852 250V246.143C296.852 245.723 296.812 245.338 296.733 244.988C296.654 244.633 296.525 244.325 296.348 244.064C296.175 243.798 295.949 243.593 295.669 243.448C295.394 243.303 295.058 243.231 294.661 243.231C294.297 243.231 293.975 243.294 293.695 243.42C293.42 243.546 293.186 243.728 292.995 243.966C292.808 244.199 292.666 244.484 292.568 244.82C292.47 245.156 292.421 245.539 292.421 245.968L291.693 245.807C291.693 245.032 291.828 244.381 292.099 243.854C292.37 243.327 292.743 242.928 293.219 242.657C293.695 242.386 294.241 242.251 294.857 242.251C295.31 242.251 295.704 242.321 296.04 242.461C296.381 242.601 296.668 242.79 296.901 243.028C297.139 243.266 297.33 243.539 297.475 243.847C297.62 244.15 297.725 244.475 297.79 244.82C297.855 245.161 297.888 245.501 297.888 245.842V250H296.852ZM291.385 250V239.92H292.316V245.611H292.421V250H291.385ZM36.137 270.21C35.3857 270.21 34.744 270.04 34.212 269.699C33.68 269.358 33.2717 268.887 32.987 268.285C32.7023 267.683 32.56 266.992 32.56 266.213C32.56 265.42 32.7047 264.724 32.994 264.127C33.2833 263.53 33.694 263.065 34.226 262.734C34.7627 262.398 35.3997 262.23 36.137 262.23C36.893 262.23 37.537 262.4 38.069 262.741C38.6057 263.077 39.014 263.546 39.294 264.148C39.5787 264.745 39.721 265.434 39.721 266.213C39.721 267.006 39.5787 267.704 39.294 268.306C39.0093 268.903 38.5987 269.37 38.062 269.706C37.5253 270.042 36.8837 270.21 36.137 270.21ZM36.137 269.223C36.977 269.223 37.6023 268.945 38.013 268.39C38.4237 267.83 38.629 267.104 38.629 266.213C38.629 265.298 38.4213 264.57 38.006 264.029C37.5953 263.488 36.9723 263.217 36.137 263.217C35.5723 263.217 35.1057 263.345 34.737 263.602C34.373 263.854 34.1 264.206 33.918 264.659C33.7407 265.107 33.652 265.625 33.652 266.213C33.652 267.123 33.862 267.853 34.282 268.404C34.702 268.95 35.3203 269.223 36.137 269.223ZM44.1562 270.189C43.7035 270.189 43.3068 270.119 42.9662 269.979C42.6302 269.839 42.3432 269.65 42.1052 269.412C41.8718 269.174 41.6828 268.903 41.5382 268.6C41.3935 268.292 41.2885 267.968 41.2232 267.627C41.1578 267.282 41.1252 266.939 41.1252 266.598V262.44H42.1612V266.297C42.1612 266.712 42.2008 267.097 42.2802 267.452C42.3595 267.807 42.4855 268.117 42.6582 268.383C42.8355 268.644 43.0618 268.847 43.3372 268.992C43.6172 269.137 43.9555 269.209 44.3522 269.209C44.7162 269.209 45.0358 269.146 45.3112 269.02C45.5912 268.894 45.8245 268.714 46.0112 268.481C46.2025 268.243 46.3472 267.956 46.4452 267.62C46.5432 267.279 46.5922 266.897 46.5922 266.472L47.3202 266.633C47.3202 267.408 47.1848 268.059 46.9142 268.586C46.6435 269.113 46.2702 269.512 45.7942 269.783C45.3182 270.054 44.7722 270.189 44.1562 270.189ZM46.6972 270V268.138H46.5922V262.44H47.6212V270H46.6972ZM49.5777 270V262.44H50.5017V264.26L50.3197 264.022C50.4037 263.798 50.5133 263.593 50.6487 263.406C50.784 263.215 50.931 263.058 51.0897 262.937C51.2857 262.764 51.5143 262.634 51.7757 262.545C52.037 262.452 52.3007 262.398 52.5667 262.384C52.8327 262.365 53.0753 262.384 53.2947 262.44V263.406C53.0193 263.336 52.7183 263.32 52.3917 263.357C52.065 263.394 51.764 263.525 51.4887 263.749C51.2367 263.945 51.0477 264.181 50.9217 264.456C50.7957 264.727 50.7117 265.016 50.6697 265.324C50.6277 265.627 50.6067 265.928 50.6067 266.227V270H49.5777ZM60.5613 270.21C59.8006 270.21 59.1566 270.04 58.6293 269.699C58.102 269.358 57.7006 268.889 57.4253 268.292C57.1546 267.69 57.0146 266.999 57.0053 266.22C57.0146 265.427 57.1593 264.731 57.4393 264.134C57.7193 263.532 58.123 263.065 58.6503 262.734C59.1776 262.398 59.817 262.23 60.5683 262.23C61.3336 262.23 61.9986 262.417 62.5633 262.79C63.1326 263.163 63.5223 263.674 63.7323 264.323L62.7243 264.645C62.547 264.192 62.2646 263.842 61.8773 263.595C61.4946 263.343 61.056 263.217 60.5613 263.217C60.006 263.217 59.5463 263.345 59.1823 263.602C58.8183 263.854 58.5476 264.206 58.3703 264.659C58.193 265.112 58.102 265.632 58.0973 266.22C58.1066 267.125 58.3166 267.853 58.7273 268.404C59.138 268.95 59.7493 269.223 60.5613 269.223C61.0746 269.223 61.511 269.106 61.8703 268.873C62.2343 268.635 62.5096 268.29 62.6963 267.837L63.7323 268.145C63.4523 268.817 63.0416 269.33 62.5003 269.685C61.959 270.035 61.3126 270.21 60.5613 270.21ZM67.2993 270.21C66.7299 270.21 66.2516 270.107 65.8643 269.902C65.4816 269.697 65.1946 269.424 65.0033 269.083C64.8119 268.742 64.7163 268.371 64.7163 267.97C64.7163 267.559 64.7979 267.209 64.9613 266.92C65.1293 266.626 65.3556 266.386 65.6403 266.199C65.9296 266.012 66.2633 265.87 66.6413 265.772C67.0239 265.679 67.4463 265.597 67.9083 265.527C68.3749 265.452 68.8299 265.389 69.2733 265.338C69.7213 265.282 70.1133 265.228 70.4493 265.177L70.0853 265.401C70.0993 264.654 69.9546 264.101 69.6513 263.742C69.3479 263.383 68.8206 263.203 68.0693 263.203C67.5513 263.203 67.1126 263.32 66.7533 263.553C66.3986 263.786 66.1489 264.155 66.0042 264.659L65.0033 264.365C65.1759 263.688 65.5236 263.163 66.0463 262.79C66.5689 262.417 67.2479 262.23 68.0833 262.23C68.7739 262.23 69.3596 262.361 69.8403 262.622C70.3256 262.879 70.6686 263.252 70.8693 263.742C70.9626 263.961 71.0233 264.206 71.0513 264.477C71.0793 264.748 71.0933 265.023 71.0933 265.303V270H70.1763V268.103L70.4423 268.215C70.1856 268.864 69.7866 269.358 69.2453 269.699C68.7039 270.04 68.0553 270.21 67.2993 270.21ZM67.4183 269.321C67.8989 269.321 68.3189 269.235 68.6783 269.062C69.0376 268.889 69.3269 268.654 69.5463 268.355C69.7656 268.052 69.9079 267.711 69.9733 267.333C70.0293 267.09 70.0596 266.824 70.0643 266.535C70.0689 266.241 70.0713 266.022 70.0713 265.877L70.4633 266.08C70.1133 266.127 69.7329 266.173 69.3223 266.22C68.9163 266.267 68.5149 266.32 68.1183 266.381C67.7263 266.442 67.3716 266.514 67.0543 266.598C66.8396 266.659 66.6319 266.745 66.4313 266.857C66.2306 266.964 66.0649 267.109 65.9343 267.291C65.8083 267.473 65.7453 267.699 65.7453 267.97C65.7453 268.189 65.7989 268.402 65.9062 268.607C66.0183 268.812 66.1956 268.983 66.4383 269.118C66.6856 269.253 67.0123 269.321 67.4183 269.321ZM76.3105 270.21C75.6152 270.21 75.0272 270.035 74.5465 269.685C74.0659 269.33 73.7019 268.852 73.4545 268.25C73.2072 267.643 73.0835 266.964 73.0835 266.213C73.0835 265.448 73.2072 264.766 73.4545 264.169C73.7065 263.567 74.0752 263.093 74.5605 262.748C75.0459 262.403 75.6432 262.23 76.3525 262.23C77.0432 262.23 77.6359 262.405 78.1305 262.755C78.6252 263.105 79.0032 263.581 79.2645 264.183C79.5305 264.785 79.6635 265.462 79.6635 266.213C79.6635 266.969 79.5305 267.648 79.2645 268.25C78.9985 268.852 78.6159 269.33 78.1165 269.685C77.6172 270.035 77.0152 270.21 76.3105 270.21ZM72.9085 273.36V262.44H73.8325V268.131H73.9445V273.36H72.9085ZM76.2055 269.251C76.7329 269.251 77.1715 269.118 77.5215 268.852C77.8715 268.586 78.1329 268.224 78.3055 267.767C78.4829 267.305 78.5715 266.787 78.5715 266.213C78.5715 265.644 78.4852 265.13 78.3125 264.673C78.1399 264.216 77.8762 263.854 77.5215 263.588C77.1715 263.322 76.7259 263.189 76.1845 263.189C75.6572 263.189 75.2185 263.317 74.8685 263.574C74.5232 263.831 74.2642 264.188 74.0915 264.645C73.9189 265.098 73.8325 265.62 73.8325 266.213C73.8325 266.796 73.9189 267.319 74.0915 267.781C74.2642 268.238 74.5255 268.598 74.8755 268.859C75.2255 269.12 75.6689 269.251 76.2055 269.251ZM81.3407 261.005V259.85H82.3697V261.005H81.3407ZM81.3407 270V262.44H82.3697V270H81.3407ZM88.5843 270C88.1596 270.089 87.7396 270.124 87.3243 270.105C86.9136 270.086 86.5449 269.998 86.2183 269.839C85.8963 269.68 85.6513 269.433 85.4833 269.097C85.3479 268.817 85.2733 268.535 85.2593 268.25C85.2499 267.961 85.2453 267.632 85.2453 267.263V260.34H86.2673V267.221C86.2673 267.538 86.2696 267.804 86.2743 268.019C86.2836 268.229 86.3326 268.416 86.4213 268.579C86.5893 268.892 86.8553 269.078 87.2193 269.139C87.5879 269.2 88.0429 269.186 88.5843 269.097V270ZM83.6283 263.322V262.44H88.5843V263.322H83.6283ZM92.2368 270.21C91.6674 270.21 91.1891 270.107 90.8018 269.902C90.4191 269.697 90.1321 269.424 89.9408 269.083C89.7494 268.742 89.6538 268.371 89.6538 267.97C89.6538 267.559 89.7354 267.209 89.8988 266.92C90.0668 266.626 90.2931 266.386 90.5778 266.199C90.8671 266.012 91.2008 265.87 91.5788 265.772C91.9614 265.679 92.3838 265.597 92.8458 265.527C93.3124 265.452 93.7674 265.389 94.2108 265.338C94.6588 265.282 95.0508 265.228 95.3868 265.177L95.0228 265.401C95.0368 264.654 94.8921 264.101 94.5888 263.742C94.2854 263.383 93.7581 263.203 93.0068 263.203C92.4888 263.203 92.0501 263.32 91.6908 263.553C91.3361 263.786 91.0864 264.155 90.9417 264.659L89.9408 264.365C90.1134 263.688 90.4611 263.163 90.9838 262.79C91.5064 262.417 92.1854 262.23 93.0208 262.23C93.7114 262.23 94.2971 262.361 94.7778 262.622C95.2631 262.879 95.6061 263.252 95.8068 263.742C95.9001 263.961 95.9608 264.206 95.9888 264.477C96.0168 264.748 96.0308 265.023 96.0308 265.303V270H95.1138V268.103L95.3798 268.215C95.1231 268.864 94.7241 269.358 94.1828 269.699C93.6414 270.04 92.9928 270.21 92.2368 270.21ZM92.3558 269.321C92.8364 269.321 93.2564 269.235 93.6158 269.062C93.9751 268.889 94.2644 268.654 94.4838 268.355C94.7031 268.052 94.8454 267.711 94.9108 267.333C94.9668 267.09 94.9971 266.824 95.0018 266.535C95.0064 266.241 95.0088 266.022 95.0088 265.877L95.4008 266.08C95.0508 266.127 94.6704 266.173 94.2598 266.22C93.8538 266.267 93.4524 266.32 93.0558 266.381C92.6638 266.442 92.3091 266.514 91.9918 266.598C91.7771 266.659 91.5694 266.745 91.3688 266.857C91.1681 266.964 91.0024 267.109 90.8718 267.291C90.7458 267.473 90.6828 267.699 90.6828 267.97C90.6828 268.189 90.7364 268.402 90.8438 268.607C90.9558 268.812 91.1331 268.983 91.3758 269.118C91.6231 269.253 91.9498 269.321 92.3558 269.321ZM97.993 270V259.71H99.022V270H97.993ZM101.317 270V268.803H102.514V270H101.317Z" fill="#9D63D9"/>
<g filter="url(#filter0_f_561_3830)">
<rect x="170" y="75" width="188" height="153" rx="25" fill="url(#paint7_linear_561_3830)" fill-opacity="0.2"/>
</g>
<path d="M296.601 170.914C294.354 170.914 292.285 170.515 290.395 169.716C288.505 168.918 286.878 167.784 285.513 166.314C284.148 164.823 283.15 163.049 282.52 160.991L286.93 159.668C287.686 161.915 288.925 163.616 290.647 164.771C292.39 165.926 294.354 166.482 296.538 166.44C298.554 166.398 300.286 165.947 301.735 165.086C303.205 164.225 304.329 163.028 305.106 161.495C305.883 159.962 306.271 158.187 306.271 156.171C306.271 153.084 305.368 150.606 303.562 148.737C301.777 146.847 299.415 145.902 296.475 145.902C295.656 145.902 294.795 146.018 293.892 146.249C292.989 146.459 292.149 146.763 291.372 147.162L289.041 143.477L306.681 127.191L307.437 129.081H284.316V124.64H310.524V129.144L295.152 143.823L295.089 141.996C298.239 141.597 301.011 141.954 303.405 143.067C305.799 144.18 307.668 145.881 309.012 148.17C310.377 150.438 311.059 153.105 311.059 156.171C311.059 159.069 310.429 161.631 309.169 163.857C307.93 166.062 306.219 167.795 304.035 169.055C301.851 170.294 299.373 170.914 296.601 170.914Z" fill="#A770E1" fill-opacity="0.3"/>
<defs>
<filter id="filter0_f_561_3830" x="95" y="0" width="338" height="303" filterUnits="userSpaceOnUse" color-interpolation-filters="sRGB">
<feFlood flood-opacity="0" result="BackgroundImageFix"/>
<feBlend mode="normal" in="SourceGraphic" in2="BackgroundImageFix" result="shape"/>
<feGaussianBlur stdDeviation="37.5" result="effect1_foregroundBlur_561_3830"/>
</filter>
<linearGradient id="paint0_linear_561_3830" x1="179" y1="74" x2="179" y2="302" gradientUnits="userSpaceOnUse">
<stop stop-color="#4D1891"/>
<stop offset="1" stop-color="#1E0933"/>
</linearGradient>
<linearGradient id="paint1_linear_561_3830" x1="-2.99361e-07" y1="188" x2="301.584" y2="154.38" gradientUnits="userSpaceOnUse">
<stop stop-color="#A770E1"/>
<stop offset="1" stop-color="#542388"/>
</linearGradient>
<linearGradient id="paint2_linear_561_3830" x1="25.5" y1="103.5" x2="98" y2="176" gradientUnits="userSpaceOnUse">
<stop stop-color="#A770E1"/>
<stop offset="0.5" stop-color="#280D46"/>
<stop offset="1" stop-color="#542388"/>
</linearGradient>
<linearGradient id="paint3_linear_561_3830" x1="46.4081" y1="121.733" x2="82.5919" y2="164.767" gradientUnits="userSpaceOnUse">
<stop stop-color="#A770E1"/>
<stop offset="0.5" stop-color="#230B3E"/>
<stop offset="1" stop-color="#542388"/>
</linearGradient>
<linearGradient id="paint4_linear_561_3830" x1="98" y1="144.5" x2="194" y2="144.5" gradientUnits="userSpaceOnUse">
<stop stop-color="#41196B"/>
<stop offset="1" stop-color="#260C43" stop-opacity="0"/>
</linearGradient>
<linearGradient id="paint5_linear_561_3830" x1="32" y1="143.5" x2="4.37114e-08" y2="143.5" gradientUnits="userSpaceOnUse">
<stop stop-color="#41196B"/>
<stop offset="1" stop-color="#260C43" stop-opacity="0"/>
</linearGradient>
<linearGradient id="paint6_linear_561_3830" x1="65.5" y1="110" x2="65.5" y2="74" gradientUnits="userSpaceOnUse">
<stop stop-color="#41196B"/>
<stop offset="1" stop-color="#260C43" stop-opacity="0"/>
</linearGradient>
<linearGradient id="paint7_linear_561_3830" x1="352.268" y1="75" x2="205.315" y2="224.998" gradientUnits="userSpaceOnUse">
<stop stop-color="#DAB6FF"/>
<stop offset="1" stop-color="#1E0933"/>
</linearGradient>
</defs>
</svg>
