<svg width="433" height="303" viewBox="0 0 433 303" fill="none" xmlns="http://www.w3.org/2000/svg">
<rect x="0.5" y="75.5" width="357" height="227" rx="24.5" fill="url(#paint0_linear_561_3814)" fill-opacity="0.2" stroke="url(#paint1_linear_561_3814)"/>
<circle cx="65" cy="144" r="32.5" stroke="url(#paint2_linear_561_3814)"/>
<circle cx="65" cy="144" r="27.5" stroke="url(#paint3_linear_561_3814)" stroke-opacity="0.25"/>
<line x1="98" y1="144.5" x2="194" y2="144.5" stroke="url(#paint4_linear_561_3814)"/>
<line x1="32" y1="145.5" x2="-4.37114e-08" y2="145.5" stroke="url(#paint5_linear_561_3814)"/>
<line x1="64.5" y1="111" x2="64.5" y2="75" stroke="url(#paint6_linear_561_3814)"/>
<g clip-path="url(#clip0_561_3814)">
<path d="M77.0343 144.958C76.8509 147.262 76.0101 149.465 74.6117 151.305C73.2134 153.145 71.3162 154.545 69.1456 155.338C66.975 156.132 64.6223 156.285 62.3669 155.781C60.1115 155.277 58.0482 154.136 56.4223 152.493C54.7964 150.851 53.676 148.776 53.1944 146.516C52.7129 144.256 52.8902 141.905 53.7055 139.742C54.5208 137.58 55.9397 135.697 57.7937 134.317C59.6477 132.937 61.8587 132.118 64.1643 131.958" stroke="white" stroke-width="2" stroke-linecap="round" stroke-linejoin="round"/>
<path d="M70.1814 146.024C69.8461 146.887 69.3008 147.653 68.595 148.253C67.8892 148.852 67.0451 149.267 66.139 149.458C65.2329 149.649 64.2935 149.612 63.4056 149.349C62.5176 149.085 61.7093 148.605 61.0537 147.951C60.398 147.297 59.9157 146.49 59.6503 145.603C59.385 144.716 59.345 143.776 59.534 142.87C59.7229 141.963 60.1349 141.118 60.7325 140.411C61.3302 139.703 62.0948 139.156 62.9571 138.819M65 144L69.6428 139.357M69.6428 139.357L73.3571 140.286L77.0714 136.571L73.3571 135.643L72.4286 131.929L68.7143 135.643L69.6428 139.357Z" stroke="white" stroke-width="2" stroke-linecap="round" stroke-linejoin="round"/>
</g>
<path d="M33.575 215V201.25H38.075C41.8417 201.25 43.725 202.6 43.725 205.3C43.7417 207.033 43.125 208.2 41.875 208.8C40.6417 209.383 39.0583 209.683 37.125 209.7C36.9417 209.7 36.7417 209.692 36.525 209.675C36.3083 209.658 36.1417 209.642 36.025 209.625V215H33.575ZM37.825 203.45H36.025V207.4C36.175 207.4 36.3833 207.417 36.65 207.45L37.225 207.475C38.4917 207.475 39.475 207.342 40.175 207.075C40.8917 206.792 41.25 206.217 41.25 205.35C41.25 204.6 40.9417 204.1 40.325 203.85C39.725 203.583 38.8917 203.45 37.825 203.45ZM45.5187 205.4H47.2187L47.5187 206.1C48.4021 205.533 49.3437 205.25 50.3437 205.25C50.9604 205.25 51.5437 205.375 52.0937 205.625L51.6187 207.8L51.5187 207.825C50.9521 207.492 50.2687 207.325 49.4687 207.325C48.9187 207.325 48.3937 207.417 47.8937 207.6V215H45.5187V205.4ZM60.5875 214.6C59.8375 215.017 58.9708 215.225 57.9875 215.225C57.0042 215.225 56.1375 215.017 55.3875 214.6C54.6542 214.167 54.0792 213.575 53.6625 212.825C53.2625 212.075 53.0625 211.217 53.0625 210.25C53.0625 208.7 53.5125 207.483 54.4125 206.6C55.3125 205.7 56.5125 205.25 58.0125 205.25C59.5125 205.25 60.7042 205.7 61.5875 206.6C62.4875 207.5 62.9375 208.708 62.9375 210.225C62.9375 211.208 62.7292 212.075 62.3125 212.825C61.9125 213.575 61.3375 214.167 60.5875 214.6ZM59.7375 207.95C59.2708 207.4 58.6875 207.125 57.9875 207.125C57.3042 207.125 56.7208 207.4 56.2375 207.95C55.7708 208.5 55.5375 209.267 55.5375 210.25C55.5375 211.217 55.7708 211.975 56.2375 212.525C56.7042 213.058 57.2875 213.325 57.9875 213.325C58.7208 213.325 59.3125 213.058 59.7625 212.525C60.2292 211.992 60.4625 211.233 60.4625 210.25C60.4625 209.25 60.2208 208.483 59.7375 207.95ZM71.1547 205.4H73.6547L70.0797 215H67.6547L63.9547 205.4H66.6297L68.9047 212.475L71.1547 205.4ZM77.0258 205.875C77.7091 205.458 78.4424 205.25 79.2258 205.25C80.6758 205.25 81.7841 205.7 82.5508 206.6C83.3341 207.483 83.7258 208.7 83.7258 210.25V211.175H77.2008C77.2674 211.992 77.5508 212.558 78.0508 212.875C78.5508 213.192 79.2591 213.35 80.1758 213.35C81.1424 213.35 82.0258 213.25 82.8258 213.05L83.2508 214.675C82.1674 215.058 81.0341 215.25 79.8508 215.25C78.2008 215.25 76.9424 214.792 76.0758 213.875C75.2091 212.958 74.7758 211.75 74.7758 210.25C74.7758 209.25 74.9841 208.375 75.4008 207.625C75.8174 206.858 76.3591 206.275 77.0258 205.875ZM80.7758 207.75C80.3924 207.333 79.8924 207.125 79.2758 207.125C78.7758 207.125 78.3174 207.333 77.9008 207.75C77.5008 208.167 77.2841 208.75 77.2508 209.5H81.3508C81.3508 208.733 81.1591 208.15 80.7758 207.75ZM94.9742 208.775L90.1242 201.25H92.8492L96.3242 206.575L99.8242 201.25H102.574L97.4242 208.775V215H94.9742V208.775ZM110.959 214.6C110.209 215.017 109.342 215.225 108.359 215.225C107.375 215.225 106.509 215.017 105.759 214.6C105.025 214.167 104.45 213.575 104.034 212.825C103.634 212.075 103.434 211.217 103.434 210.25C103.434 208.7 103.884 207.483 104.784 206.6C105.684 205.7 106.884 205.25 108.384 205.25C109.884 205.25 111.075 205.7 111.959 206.6C112.859 207.5 113.309 208.708 113.309 210.225C113.309 211.208 113.1 212.075 112.684 212.825C112.284 213.575 111.709 214.167 110.959 214.6ZM110.109 207.95C109.642 207.4 109.059 207.125 108.359 207.125C107.675 207.125 107.092 207.4 106.609 207.95C106.142 208.5 105.909 209.267 105.909 210.25C105.909 211.217 106.142 211.975 106.609 212.525C107.075 213.058 107.659 213.325 108.359 213.325C109.092 213.325 109.684 213.058 110.134 212.525C110.6 211.992 110.834 211.233 110.834 210.25C110.834 209.25 110.592 208.483 110.109 207.95ZM123.801 215.025H122.151L121.851 214.325C121.217 214.625 120.676 214.85 120.226 215C119.792 215.15 119.292 215.225 118.726 215.225C117.276 215.225 116.326 214.808 115.876 213.975C115.442 213.125 115.226 212.092 115.226 210.875V205.4H117.601V211.2C117.601 211.717 117.726 212.175 117.976 212.575C118.226 212.975 118.684 213.175 119.351 213.175C120.084 213.175 120.784 212.983 121.451 212.6V205.4H123.801V215.025ZM126.202 205.4H127.902L128.202 206.1C129.086 205.533 130.027 205.25 131.027 205.25C131.644 205.25 132.227 205.375 132.777 205.625L132.302 207.8L132.202 207.825C131.636 207.492 130.952 207.325 130.152 207.325C129.602 207.325 129.077 207.417 128.577 207.6V215H126.202V205.4ZM146.954 203.625C146.421 203.492 145.862 203.425 145.279 203.425C144.429 203.425 143.762 203.575 143.279 203.875C142.796 204.175 142.554 204.583 142.554 205.1C142.554 205.533 142.771 205.875 143.204 206.125C143.654 206.375 144.354 206.65 145.304 206.95C146.271 207.25 147.062 207.542 147.679 207.825C148.312 208.108 148.854 208.525 149.304 209.075C149.754 209.625 149.979 210.325 149.979 211.175C149.979 211.875 149.787 212.533 149.404 213.15C149.021 213.75 148.396 214.25 147.529 214.65C146.679 215.033 145.587 215.225 144.254 215.225C143.471 215.225 142.754 215.15 142.104 215C141.454 214.833 140.696 214.583 139.829 214.25L139.504 214.1L140.329 211.875L140.704 212.025C142.221 212.592 143.471 212.875 144.454 212.875C145.354 212.875 146.079 212.725 146.629 212.425C147.179 212.108 147.454 211.692 147.454 211.175C147.471 210.675 147.254 210.3 146.804 210.05C146.354 209.783 145.629 209.5 144.629 209.2C143.679 208.9 142.896 208.608 142.279 208.325C141.662 208.042 141.137 207.633 140.704 207.1C140.271 206.55 140.054 205.85 140.054 205C140.054 204.25 140.262 203.583 140.679 203C141.096 202.417 141.696 201.958 142.479 201.625C143.262 201.292 144.171 201.125 145.204 201.125C146.087 201.125 146.837 201.2 147.454 201.35C148.071 201.483 148.671 201.65 149.254 201.85L149.529 201.95L148.729 204.175C148.096 203.925 147.504 203.742 146.954 203.625ZM152.309 201.25H154.709V215H152.309V201.25ZM154.959 209.725L158.584 205.275H161.484L157.784 209.725L161.659 215H158.759L154.959 209.725ZM163.088 215V205.4H165.488V215H163.088ZM163.213 203.325C163.513 203.625 163.872 203.775 164.288 203.775C164.722 203.775 165.08 203.625 165.363 203.325C165.663 203.025 165.813 202.667 165.813 202.25C165.813 201.817 165.663 201.458 165.363 201.175C165.08 200.875 164.722 200.725 164.288 200.725C163.872 200.725 163.513 200.875 163.213 201.175C162.913 201.458 162.763 201.817 162.763 202.25C162.763 202.667 162.913 203.025 163.213 203.325ZM170.607 212.975C170.774 213.225 171.065 213.35 171.482 213.35C171.815 213.35 172.199 213.292 172.632 213.175V214.75C171.949 215.067 171.232 215.225 170.482 215.225C168.849 215.225 168.032 214.325 168.032 212.525V201.25H170.382V211.825C170.382 212.325 170.457 212.708 170.607 212.975ZM176.701 212.975C176.867 213.225 177.159 213.35 177.576 213.35C177.909 213.35 178.292 213.292 178.726 213.175V214.75C178.042 215.067 177.326 215.225 176.576 215.225C174.942 215.225 174.126 214.325 174.126 212.525V201.25H176.476V211.825C176.476 212.325 176.551 212.708 176.701 212.975ZM183.395 215.225C182.161 215.225 180.92 214.933 179.67 214.35L180.345 212.475C180.911 212.675 181.486 212.842 182.07 212.975C182.653 213.108 183.136 213.175 183.52 213.175C184.22 213.175 184.711 213.1 184.995 212.95C185.278 212.8 185.42 212.567 185.42 212.25C185.42 212.033 185.286 211.858 185.02 211.725C184.753 211.592 184.311 211.425 183.695 211.225C182.961 211.008 182.345 210.792 181.845 210.575C181.345 210.342 180.911 210.008 180.545 209.575C180.178 209.125 179.995 208.558 179.995 207.875C179.995 207.208 180.27 206.608 180.82 206.075C181.37 205.525 182.453 205.25 184.07 205.25C184.586 205.25 185.136 205.308 185.72 205.425C186.32 205.542 186.828 205.667 187.245 205.8L186.645 207.65C185.611 207.35 184.761 207.2 184.095 207.2C183.361 207.2 182.87 207.267 182.62 207.4C182.37 207.533 182.245 207.725 182.245 207.975C182.245 208.242 182.395 208.458 182.695 208.625C183.011 208.792 183.503 208.975 184.17 209.175C184.903 209.392 185.503 209.608 185.97 209.825C186.453 210.042 186.861 210.35 187.195 210.75C187.545 211.15 187.72 211.658 187.72 212.275C187.72 213.025 187.395 213.708 186.745 214.325C186.111 214.925 184.995 215.225 183.395 215.225Z" fill="white"/>
<path d="M35.661 250V240.907H32.14V239.92H40.211V240.907H36.69V250H35.661ZM40.6363 250V242.44H41.5603V244.26L41.3783 244.022C41.4623 243.798 41.5719 243.593 41.7073 243.406C41.8426 243.215 41.9896 243.058 42.1483 242.937C42.3443 242.764 42.5729 242.634 42.8343 242.545C43.0956 242.452 43.3593 242.398 43.6253 242.384C43.8913 242.365 44.1339 242.384 44.3533 242.44V243.406C44.0779 243.336 43.7769 243.32 43.4503 243.357C43.1236 243.394 42.8226 243.525 42.5473 243.749C42.2953 243.945 42.1063 244.181 41.9803 244.456C41.8543 244.727 41.7703 245.016 41.7283 245.324C41.6863 245.627 41.6653 245.928 41.6653 246.227V250H40.6363ZM47.5571 250.21C46.9877 250.21 46.5094 250.107 46.1221 249.902C45.7394 249.697 45.4524 249.424 45.2611 249.083C45.0697 248.742 44.9741 248.371 44.9741 247.97C44.9741 247.559 45.0557 247.209 45.2191 246.92C45.3871 246.626 45.6134 246.386 45.8981 246.199C46.1874 246.012 46.5211 245.87 46.8991 245.772C47.2817 245.679 47.7041 245.597 48.1661 245.527C48.6327 245.452 49.0877 245.389 49.5311 245.338C49.9791 245.282 50.3711 245.228 50.7071 245.177L50.3431 245.401C50.3571 244.654 50.2124 244.101 49.9091 243.742C49.6057 243.383 49.0784 243.203 48.3271 243.203C47.8091 243.203 47.3704 243.32 47.0111 243.553C46.6564 243.786 46.4067 244.155 46.2621 244.659L45.2611 244.365C45.4337 243.688 45.7814 243.163 46.3041 242.79C46.8267 242.417 47.5057 242.23 48.3411 242.23C49.0317 242.23 49.6174 242.361 50.0981 242.622C50.5834 242.879 50.9264 243.252 51.1271 243.742C51.2204 243.961 51.2811 244.206 51.3091 244.477C51.3371 244.748 51.3511 245.023 51.3511 245.303V250H50.4341V248.103L50.7001 248.215C50.4434 248.864 50.0444 249.358 49.5031 249.699C48.9617 250.04 48.3131 250.21 47.5571 250.21ZM47.6761 249.321C48.1567 249.321 48.5767 249.235 48.9361 249.062C49.2954 248.889 49.5847 248.654 49.8041 248.355C50.0234 248.052 50.1657 247.711 50.2311 247.333C50.2871 247.09 50.3174 246.824 50.3221 246.535C50.3267 246.241 50.3291 246.022 50.3291 245.877L50.7211 246.08C50.3711 246.127 49.9907 246.173 49.5801 246.22C49.1741 246.267 48.7727 246.32 48.3761 246.381C47.9841 246.442 47.6294 246.514 47.3121 246.598C47.0974 246.659 46.8897 246.745 46.6891 246.857C46.4884 246.964 46.3227 247.109 46.1921 247.291C46.0661 247.473 46.0031 247.699 46.0031 247.97C46.0031 248.189 46.0567 248.402 46.1641 248.607C46.2761 248.812 46.4534 248.983 46.6961 249.118C46.9434 249.253 47.2701 249.321 47.6761 249.321ZM56.1064 250.21C55.4017 250.21 54.7997 250.035 54.3004 249.685C53.801 249.33 53.4184 248.852 53.1524 248.25C52.8864 247.648 52.7534 246.969 52.7534 246.213C52.7534 245.462 52.884 244.785 53.1454 244.183C53.4114 243.581 53.7917 243.105 54.2864 242.755C54.781 242.405 55.3737 242.23 56.0644 242.23C56.7737 242.23 57.371 242.403 57.8564 242.748C58.3417 243.093 58.708 243.567 58.9554 244.169C59.2074 244.766 59.3334 245.448 59.3334 246.213C59.3334 246.964 59.2097 247.643 58.9624 248.25C58.715 248.852 58.351 249.33 57.8704 249.685C57.3897 250.035 56.8017 250.21 56.1064 250.21ZM56.2114 249.251C56.748 249.251 57.1914 249.12 57.5414 248.859C57.8914 248.598 58.1527 248.238 58.3254 247.781C58.498 247.319 58.5844 246.796 58.5844 246.213C58.5844 245.62 58.498 245.098 58.3254 244.645C58.1527 244.188 57.8914 243.831 57.5414 243.574C57.196 243.317 56.7597 243.189 56.2324 243.189C55.691 243.189 55.243 243.322 54.8884 243.588C54.5337 243.854 54.27 244.216 54.0974 244.673C53.9294 245.13 53.8454 245.644 53.8454 246.213C53.8454 246.787 53.9317 247.305 54.1044 247.767C54.2817 248.224 54.5454 248.586 54.8954 248.852C55.2454 249.118 55.684 249.251 56.2114 249.251ZM58.5844 250V244.309H58.4724V239.92H59.5084V250H58.5844ZM64.6712 250.21C63.9339 250.21 63.2945 250.047 62.7532 249.72C62.2165 249.393 61.7989 248.934 61.5002 248.341C61.2015 247.748 61.0522 247.053 61.0522 246.255C61.0522 245.429 61.1992 244.715 61.4932 244.113C61.7872 243.511 62.2002 243.047 62.7322 242.72C63.2689 242.393 63.9012 242.23 64.6292 242.23C65.3759 242.23 66.0129 242.403 66.5402 242.748C67.0675 243.089 67.4665 243.579 67.7372 244.218C68.0079 244.857 68.1315 245.62 68.1082 246.507H67.0582V246.143C67.0395 245.163 66.8272 244.423 66.4212 243.924C66.0199 243.425 65.4319 243.175 64.6572 243.175C63.8452 243.175 63.2222 243.439 62.7882 243.966C62.3589 244.493 62.1442 245.245 62.1442 246.22C62.1442 247.172 62.3589 247.912 62.7882 248.439C63.2222 248.962 63.8359 249.223 64.6292 249.223C65.1705 249.223 65.6419 249.099 66.0432 248.852C66.4492 248.6 66.7689 248.238 67.0022 247.767L67.9612 248.138C67.6625 248.796 67.2215 249.307 66.6382 249.671C66.0595 250.03 65.4039 250.21 64.6712 250.21ZM61.7802 246.507V245.646H67.5552V246.507H61.7802ZM72.6044 241.005V239.85H73.6334V241.005H72.6044ZM72.6044 250V242.44H73.6334V250H72.6044ZM81.192 250V246.143C81.192 245.723 81.1523 245.338 81.073 244.988C80.9936 244.633 80.8653 244.325 80.688 244.064C80.5153 243.798 80.289 243.593 80.009 243.448C79.7336 243.303 79.3976 243.231 79.001 243.231C78.637 243.231 78.315 243.294 78.035 243.42C77.7596 243.546 77.5263 243.728 77.335 243.966C77.1483 244.199 77.006 244.484 76.908 244.82C76.81 245.156 76.761 245.539 76.761 245.968L76.033 245.807C76.033 245.032 76.1683 244.381 76.439 243.854C76.7096 243.327 77.083 242.928 77.559 242.657C78.035 242.386 78.581 242.251 79.197 242.251C79.6496 242.251 80.044 242.321 80.38 242.461C80.7206 242.601 81.0076 242.79 81.241 243.028C81.479 243.266 81.6703 243.539 81.815 243.847C81.9596 244.15 82.0646 244.475 82.13 244.82C82.1953 245.161 82.228 245.501 82.228 245.842V250H81.192ZM75.725 250V242.44H76.656V244.302H76.761V250H75.725ZM89.0102 250.21C88.4409 250.21 87.9625 250.107 87.5752 249.902C87.1925 249.697 86.9055 249.424 86.7142 249.083C86.5229 248.742 86.4272 248.371 86.4272 247.97C86.4272 247.559 86.5089 247.209 86.6722 246.92C86.8402 246.626 87.0665 246.386 87.3512 246.199C87.6405 246.012 87.9742 245.87 88.3522 245.772C88.7349 245.679 89.1572 245.597 89.6192 245.527C90.0859 245.452 90.5409 245.389 90.9842 245.338C91.4322 245.282 91.8242 245.228 92.1602 245.177L91.7962 245.401C91.8102 244.654 91.6655 244.101 91.3622 243.742C91.0589 243.383 90.5315 243.203 89.7802 243.203C89.2622 243.203 88.8235 243.32 88.4642 243.553C88.1095 243.786 87.8599 244.155 87.7152 244.659L86.7142 244.365C86.8869 243.688 87.2345 243.163 87.7572 242.79C88.2799 242.417 88.9589 242.23 89.7942 242.23C90.4849 242.23 91.0705 242.361 91.5512 242.622C92.0365 242.879 92.3795 243.252 92.5802 243.742C92.6735 243.961 92.7342 244.206 92.7622 244.477C92.7902 244.748 92.8042 245.023 92.8042 245.303V250H91.8872V248.103L92.1532 248.215C91.8965 248.864 91.4975 249.358 90.9562 249.699C90.4149 250.04 89.7662 250.21 89.0102 250.21ZM89.1292 249.321C89.6099 249.321 90.0299 249.235 90.3892 249.062C90.7485 248.889 91.0379 248.654 91.2572 248.355C91.4765 248.052 91.6189 247.711 91.6842 247.333C91.7402 247.09 91.7705 246.824 91.7752 246.535C91.7799 246.241 91.7822 246.022 91.7822 245.877L92.1742 246.08C91.8242 246.127 91.4439 246.173 91.0332 246.22C90.6272 246.267 90.2259 246.32 89.8292 246.381C89.4372 246.442 89.0825 246.514 88.7652 246.598C88.5505 246.659 88.3429 246.745 88.1422 246.857C87.9415 246.964 87.7759 247.109 87.6452 247.291C87.5192 247.473 87.4562 247.699 87.4562 247.97C87.4562 248.189 87.5099 248.402 87.6172 248.607C87.7292 248.812 87.9065 248.983 88.1492 249.118C88.3965 249.253 88.7232 249.321 89.1292 249.321ZM97.4292 250V242.44H98.3532V244.26L98.1712 244.022C98.2552 243.798 98.3649 243.593 98.5002 243.406C98.6356 243.215 98.7826 243.058 98.9412 242.937C99.1372 242.764 99.3659 242.634 99.6272 242.545C99.8886 242.452 100.152 242.398 100.418 242.384C100.684 242.365 100.927 242.384 101.146 242.44V243.406C100.871 243.336 100.57 243.32 100.243 243.357C99.9166 243.394 99.6156 243.525 99.3402 243.749C99.0882 243.945 98.8992 244.181 98.7732 244.456C98.6472 244.727 98.5632 245.016 98.5212 245.324C98.4792 245.627 98.4582 245.928 98.4582 246.227V250H97.4292ZM105.536 250.21C104.799 250.21 104.16 250.047 103.618 249.72C103.082 249.393 102.664 248.934 102.365 248.341C102.067 247.748 101.917 247.053 101.917 246.255C101.917 245.429 102.064 244.715 102.358 244.113C102.652 243.511 103.065 243.047 103.597 242.72C104.134 242.393 104.766 242.23 105.494 242.23C106.241 242.23 106.878 242.403 107.405 242.748C107.933 243.089 108.332 243.579 108.602 244.218C108.873 244.857 108.997 245.62 108.973 246.507H107.923V246.143C107.905 245.163 107.692 244.423 107.286 243.924C106.885 243.425 106.297 243.175 105.522 243.175C104.71 243.175 104.087 243.439 103.653 243.966C103.224 244.493 103.009 245.245 103.009 246.22C103.009 247.172 103.224 247.912 103.653 248.439C104.087 248.962 104.701 249.223 105.494 249.223C106.036 249.223 106.507 249.099 106.908 248.852C107.314 248.6 107.634 248.238 107.867 247.767L108.826 248.138C108.528 248.796 108.087 249.307 107.503 249.671C106.925 250.03 106.269 250.21 105.536 250.21ZM102.645 246.507V245.646H108.42V246.507H102.645ZM112.553 250.21C111.984 250.21 111.505 250.107 111.118 249.902C110.735 249.697 110.448 249.424 110.257 249.083C110.066 248.742 109.97 248.371 109.97 247.97C109.97 247.559 110.052 247.209 110.215 246.92C110.383 246.626 110.609 246.386 110.894 246.199C111.183 246.012 111.517 245.87 111.895 245.772C112.278 245.679 112.7 245.597 113.162 245.527C113.629 245.452 114.084 245.389 114.527 245.338C114.975 245.282 115.367 245.228 115.703 245.177L115.339 245.401C115.353 244.654 115.208 244.101 114.905 243.742C114.602 243.383 114.074 243.203 113.323 243.203C112.805 243.203 112.366 243.32 112.007 243.553C111.652 243.786 111.403 244.155 111.258 244.659L110.257 244.365C110.43 243.688 110.777 243.163 111.3 242.79C111.823 242.417 112.502 242.23 113.337 242.23C114.028 242.23 114.613 242.361 115.094 242.622C115.579 242.879 115.922 243.252 116.123 243.742C116.216 243.961 116.277 244.206 116.305 244.477C116.333 244.748 116.347 245.023 116.347 245.303V250H115.43V248.103L115.696 248.215C115.439 248.864 115.04 249.358 114.499 249.699C113.958 250.04 113.309 250.21 112.553 250.21ZM112.672 249.321C113.153 249.321 113.573 249.235 113.932 249.062C114.291 248.889 114.581 248.654 114.8 248.355C115.019 248.052 115.162 247.711 115.227 247.333C115.283 247.09 115.313 246.824 115.318 246.535C115.323 246.241 115.325 246.022 115.325 245.877L115.717 246.08C115.367 246.127 114.987 246.173 114.576 246.22C114.17 246.267 113.769 246.32 113.372 246.381C112.98 246.442 112.625 246.514 112.308 246.598C112.093 246.659 111.886 246.745 111.685 246.857C111.484 246.964 111.319 247.109 111.188 247.291C111.062 247.473 110.999 247.699 110.999 247.97C110.999 248.189 111.053 248.402 111.16 248.607C111.272 248.812 111.449 248.983 111.692 249.118C111.939 249.253 112.266 249.321 112.672 249.321ZM118.309 250V239.71H119.338V250H118.309ZM121.297 246.031V245.149H125.497V246.031H121.297ZM136.332 250L136.339 245.037C136.339 244.454 136.176 243.996 135.849 243.665C135.527 243.329 135.116 243.161 134.617 243.161C134.332 243.161 134.055 243.226 133.784 243.357C133.513 243.488 133.289 243.698 133.112 243.987C132.939 244.276 132.853 244.654 132.853 245.121L132.244 244.946C132.23 244.405 132.335 243.931 132.559 243.525C132.788 243.119 133.1 242.804 133.497 242.58C133.898 242.351 134.351 242.237 134.855 242.237C135.616 242.237 136.225 242.473 136.682 242.944C137.139 243.411 137.368 244.043 137.368 244.841L137.361 250H136.332ZM127.309 250V242.44H128.233V244.302H128.345V250H127.309ZM131.831 250L131.838 245.107C131.838 244.505 131.677 244.031 131.355 243.686C131.038 243.336 130.618 243.161 130.095 243.161C129.572 243.161 129.15 243.341 128.828 243.7C128.506 244.055 128.345 244.528 128.345 245.121L127.729 244.785C127.729 244.3 127.843 243.866 128.072 243.483C128.301 243.096 128.613 242.792 129.01 242.573C129.407 242.349 129.857 242.237 130.361 242.237C130.842 242.237 131.269 242.34 131.642 242.545C132.02 242.75 132.316 243.049 132.531 243.441C132.746 243.833 132.853 244.309 132.853 244.869L132.846 250H131.831ZM141.346 250.21C140.777 250.21 140.298 250.107 139.911 249.902C139.528 249.697 139.241 249.424 139.05 249.083C138.859 248.742 138.763 248.371 138.763 247.97C138.763 247.559 138.845 247.209 139.008 246.92C139.176 246.626 139.402 246.386 139.687 246.199C139.976 246.012 140.31 245.87 140.688 245.772C141.071 245.679 141.493 245.597 141.955 245.527C142.422 245.452 142.877 245.389 143.32 245.338C143.768 245.282 144.16 245.228 144.496 245.177L144.132 245.401C144.146 244.654 144.001 244.101 143.698 243.742C143.395 243.383 142.867 243.203 142.116 243.203C141.598 243.203 141.159 243.32 140.8 243.553C140.445 243.786 140.196 244.155 140.051 244.659L139.05 244.365C139.223 243.688 139.57 243.163 140.093 242.79C140.616 242.417 141.295 242.23 142.13 242.23C142.821 242.23 143.406 242.361 143.887 242.622C144.372 242.879 144.715 243.252 144.916 243.742C145.009 243.961 145.07 244.206 145.098 244.477C145.126 244.748 145.14 245.023 145.14 245.303V250H144.223V248.103L144.489 248.215C144.232 248.864 143.833 249.358 143.292 249.699C142.751 250.04 142.102 250.21 141.346 250.21ZM141.465 249.321C141.946 249.321 142.366 249.235 142.725 249.062C143.084 248.889 143.374 248.654 143.593 248.355C143.812 248.052 143.955 247.711 144.02 247.333C144.076 247.09 144.106 246.824 144.111 246.535C144.116 246.241 144.118 246.022 144.118 245.877L144.51 246.08C144.16 246.127 143.78 246.173 143.369 246.22C142.963 246.267 142.562 246.32 142.165 246.381C141.773 246.442 141.418 246.514 141.101 246.598C140.886 246.659 140.679 246.745 140.478 246.857C140.277 246.964 140.112 247.109 139.981 247.291C139.855 247.473 139.792 247.699 139.792 247.97C139.792 248.189 139.846 248.402 139.953 248.607C140.065 248.812 140.242 248.983 140.485 249.118C140.732 249.253 141.059 249.321 141.465 249.321ZM146.962 250V242.44H147.886V244.26L147.704 244.022C147.788 243.798 147.898 243.593 148.033 243.406C148.169 243.215 148.316 243.058 148.474 242.937C148.67 242.764 148.899 242.634 149.16 242.545C149.422 242.452 149.685 242.398 149.951 242.384C150.217 242.365 150.46 242.384 150.679 242.44V243.406C150.404 243.336 150.103 243.32 149.776 243.357C149.45 243.394 149.149 243.525 148.873 243.749C148.621 243.945 148.432 244.181 148.306 244.456C148.18 244.727 148.096 245.016 148.054 245.324C148.012 245.627 147.991 245.928 147.991 246.227V250H146.962ZM152 250L152.007 239.92H153.043V246.08L156.417 242.44H157.789L154.247 246.22L158.251 250H156.753L153.043 246.36V250H152ZM162.015 250.21C161.278 250.21 160.638 250.047 160.097 249.72C159.56 249.393 159.143 248.934 158.844 248.341C158.545 247.748 158.396 247.053 158.396 246.255C158.396 245.429 158.543 244.715 158.837 244.113C159.131 243.511 159.544 243.047 160.076 242.72C160.613 242.393 161.245 242.23 161.973 242.23C162.72 242.23 163.357 242.403 163.884 242.748C164.411 243.089 164.81 243.579 165.081 244.218C165.352 244.857 165.475 245.62 165.452 246.507H164.402V246.143C164.383 245.163 164.171 244.423 163.765 243.924C163.364 243.425 162.776 243.175 162.001 243.175C161.189 243.175 160.566 243.439 160.132 243.966C159.703 244.493 159.488 245.245 159.488 246.22C159.488 247.172 159.703 247.912 160.132 248.439C160.566 248.962 161.18 249.223 161.973 249.223C162.514 249.223 162.986 249.099 163.387 248.852C163.793 248.6 164.113 248.238 164.346 247.767L165.305 248.138C165.006 248.796 164.565 249.307 163.982 249.671C163.403 250.03 162.748 250.21 162.015 250.21ZM159.124 246.507V245.646H164.899V246.507H159.124ZM171.121 250C170.697 250.089 170.277 250.124 169.861 250.105C169.451 250.086 169.082 249.998 168.755 249.839C168.433 249.68 168.188 249.433 168.02 249.097C167.885 248.817 167.81 248.535 167.796 248.25C167.787 247.961 167.782 247.632 167.782 247.263V240.34H168.804V247.221C168.804 247.538 168.807 247.804 168.811 248.019C168.821 248.229 168.87 248.416 168.958 248.579C169.126 248.892 169.392 249.078 169.756 249.139C170.125 249.2 170.58 249.186 171.121 249.097V250ZM166.165 243.322V242.44H171.121V243.322H166.165ZM178.613 250.21C177.875 250.21 177.236 250.047 176.695 249.72C176.158 249.393 175.74 248.934 175.442 248.341C175.143 247.748 174.994 247.053 174.994 246.255C174.994 245.429 175.141 244.715 175.435 244.113C175.729 243.511 176.142 243.047 176.674 242.72C177.21 242.393 177.843 242.23 178.571 242.23C179.317 242.23 179.954 242.403 180.482 242.748C181.009 243.089 181.408 243.579 181.679 244.218C181.949 244.857 182.073 245.62 182.05 246.507H181V246.143C180.981 245.163 180.769 244.423 180.363 243.924C179.961 243.425 179.373 243.175 178.599 243.175C177.787 243.175 177.164 243.439 176.73 243.966C176.3 244.493 176.086 245.245 176.086 246.22C176.086 247.172 176.3 247.912 176.73 248.439C177.164 248.962 177.777 249.223 178.571 249.223C179.112 249.223 179.583 249.099 179.985 248.852C180.391 248.6 180.71 248.238 180.944 247.767L181.903 248.138C181.604 248.796 181.163 249.307 180.58 249.671C180.001 250.03 179.345 250.21 178.613 250.21ZM175.722 246.507V245.646H181.497V246.507H175.722ZM188.858 250V246.143C188.858 245.723 188.818 245.338 188.739 244.988C188.66 244.633 188.531 244.325 188.354 244.064C188.181 243.798 187.955 243.593 187.675 243.448C187.4 243.303 187.064 243.231 186.667 243.231C186.303 243.231 185.981 243.294 185.701 243.42C185.426 243.546 185.192 243.728 185.001 243.966C184.814 244.199 184.672 244.484 184.574 244.82C184.476 245.156 184.427 245.539 184.427 245.968L183.699 245.807C183.699 245.032 183.834 244.381 184.105 243.854C184.376 243.327 184.749 242.928 185.225 242.657C185.701 242.386 186.247 242.251 186.863 242.251C187.316 242.251 187.71 242.321 188.046 242.461C188.387 242.601 188.674 242.79 188.907 243.028C189.145 243.266 189.336 243.539 189.481 243.847C189.626 244.15 189.731 244.475 189.796 244.82C189.861 245.161 189.894 245.501 189.894 245.842V250H188.858ZM183.391 250V242.44H184.322V244.302H184.427V250H183.391ZM193.754 250L191.01 242.44H192.053L194.286 248.656L196.505 242.44H197.562L194.818 250H193.754ZM198.96 241.005V239.85H199.989V241.005H198.96ZM198.96 250V242.44H199.989V250H198.96ZM202.087 250V242.44H203.011V244.26L202.829 244.022C202.913 243.798 203.023 243.593 203.158 243.406C203.294 243.215 203.441 243.058 203.599 242.937C203.795 242.764 204.024 242.634 204.285 242.545C204.547 242.452 204.81 242.398 205.076 242.384C205.342 242.365 205.585 242.384 205.804 242.44V243.406C205.529 243.336 205.228 243.32 204.901 243.357C204.575 243.394 204.274 243.525 203.998 243.749C203.746 243.945 203.557 244.181 203.431 244.456C203.305 244.727 203.221 245.016 203.179 245.324C203.137 245.627 203.116 245.928 203.116 246.227V250H202.087ZM210.153 250.21C209.401 250.21 208.76 250.04 208.228 249.699C207.696 249.358 207.287 248.887 207.003 248.285C206.718 247.683 206.576 246.992 206.576 246.213C206.576 245.42 206.72 244.724 207.01 244.127C207.299 243.53 207.71 243.065 208.242 242.734C208.778 242.398 209.415 242.23 210.153 242.23C210.909 242.23 211.553 242.4 212.085 242.741C212.621 243.077 213.03 243.546 213.31 244.148C213.594 244.745 213.737 245.434 213.737 246.213C213.737 247.006 213.594 247.704 213.31 248.306C213.025 248.903 212.614 249.37 212.078 249.706C211.541 250.042 210.899 250.21 210.153 250.21ZM210.153 249.223C210.993 249.223 211.618 248.945 212.029 248.39C212.439 247.83 212.645 247.104 212.645 246.213C212.645 245.298 212.437 244.57 212.022 244.029C211.611 243.488 210.988 243.217 210.153 243.217C209.588 243.217 209.121 243.345 208.753 243.602C208.389 243.854 208.116 244.206 207.934 244.659C207.756 245.107 207.668 245.625 207.668 246.213C207.668 247.123 207.878 247.853 208.298 248.404C208.718 248.95 209.336 249.223 210.153 249.223ZM220.741 250V246.143C220.741 245.723 220.701 245.338 220.622 244.988C220.542 244.633 220.414 244.325 220.237 244.064C220.064 243.798 219.838 243.593 219.558 243.448C219.282 243.303 218.946 243.231 218.55 243.231C218.186 243.231 217.864 243.294 217.584 243.42C217.308 243.546 217.075 243.728 216.884 243.966C216.697 244.199 216.555 244.484 216.457 244.82C216.359 245.156 216.31 245.539 216.31 245.968L215.582 245.807C215.582 245.032 215.717 244.381 215.988 243.854C216.258 243.327 216.632 242.928 217.108 242.657C217.584 242.386 218.13 242.251 218.746 242.251C219.198 242.251 219.593 242.321 219.929 242.461C220.269 242.601 220.556 242.79 220.79 243.028C221.028 243.266 221.219 243.539 221.364 243.847C221.508 244.15 221.613 244.475 221.679 244.82C221.744 245.161 221.777 245.501 221.777 245.842V250H220.741ZM215.274 250V242.44H216.205V244.302H216.31V250H215.274ZM232.609 250L232.616 245.037C232.616 244.454 232.453 243.996 232.126 243.665C231.804 243.329 231.394 243.161 230.894 243.161C230.61 243.161 230.332 243.226 230.061 243.357C229.791 243.488 229.567 243.698 229.389 243.987C229.217 244.276 229.13 244.654 229.13 245.121L228.521 244.946C228.507 244.405 228.612 243.931 228.836 243.525C229.065 243.119 229.378 242.804 229.774 242.58C230.176 242.351 230.628 242.237 231.132 242.237C231.893 242.237 232.502 242.473 232.959 242.944C233.417 243.411 233.645 244.043 233.645 244.841L233.638 250H232.609ZM223.586 250V242.44H224.51V244.302H224.622V250H223.586ZM228.108 250L228.115 245.107C228.115 244.505 227.954 244.031 227.632 243.686C227.315 243.336 226.895 243.161 226.372 243.161C225.85 243.161 225.427 243.341 225.105 243.7C224.783 244.055 224.622 244.528 224.622 245.121L224.006 244.785C224.006 244.3 224.121 243.866 224.349 243.483C224.578 243.096 224.891 242.792 225.287 242.573C225.684 242.349 226.134 242.237 226.638 242.237C227.119 242.237 227.546 242.34 227.919 242.545C228.297 242.75 228.594 243.049 228.808 243.441C229.023 243.833 229.13 244.309 229.13 244.869L229.123 250H228.108ZM238.618 250.21C237.881 250.21 237.242 250.047 236.7 249.72C236.164 249.393 235.746 248.934 235.447 248.341C235.149 247.748 234.999 247.053 234.999 246.255C234.999 245.429 235.146 244.715 235.44 244.113C235.734 243.511 236.147 243.047 236.679 242.72C237.216 242.393 237.848 242.23 238.576 242.23C239.323 242.23 239.96 242.403 240.487 242.748C241.015 243.089 241.414 243.579 241.684 244.218C241.955 244.857 242.079 245.62 242.055 246.507H241.005V246.143C240.987 245.163 240.774 244.423 240.368 243.924C239.967 243.425 239.379 243.175 238.604 243.175C237.792 243.175 237.169 243.439 236.735 243.966C236.306 244.493 236.091 245.245 236.091 246.22C236.091 247.172 236.306 247.912 236.735 248.439C237.169 248.962 237.783 249.223 238.576 249.223C239.118 249.223 239.589 249.099 239.99 248.852C240.396 248.6 240.716 248.238 240.949 247.767L241.908 248.138C241.61 248.796 241.169 249.307 240.585 249.671C240.007 250.03 239.351 250.21 238.618 250.21ZM235.727 246.507V245.646H241.502V246.507H235.727ZM248.864 250V246.143C248.864 245.723 248.824 245.338 248.745 244.988C248.665 244.633 248.537 244.325 248.36 244.064C248.187 243.798 247.961 243.593 247.681 243.448C247.405 243.303 247.069 243.231 246.673 243.231C246.309 243.231 245.987 243.294 245.707 243.42C245.431 243.546 245.198 243.728 245.007 243.966C244.82 244.199 244.678 244.484 244.58 244.82C244.482 245.156 244.433 245.539 244.433 245.968L243.705 245.807C243.705 245.032 243.84 244.381 244.111 243.854C244.381 243.327 244.755 242.928 245.231 242.657C245.707 242.386 246.253 242.251 246.869 242.251C247.321 242.251 247.716 242.321 248.052 242.461C248.392 242.601 248.679 242.79 248.913 243.028C249.151 243.266 249.342 243.539 249.487 243.847C249.631 244.15 249.736 244.475 249.802 244.82C249.867 245.161 249.9 245.501 249.9 245.842V250H248.864ZM243.397 250V242.44H244.328V244.302H244.433V250H243.397ZM255.832 250C255.408 250.089 254.988 250.124 254.572 250.105C254.162 250.086 253.793 249.998 253.466 249.839C253.144 249.68 252.899 249.433 252.731 249.097C252.596 248.817 252.521 248.535 252.507 248.25C252.498 247.961 252.493 247.632 252.493 247.263V240.34H253.515V247.221C253.515 247.538 253.518 247.804 253.522 248.019C253.532 248.229 253.581 248.416 253.669 248.579C253.837 248.892 254.103 249.078 254.467 249.139C254.836 249.2 255.291 249.186 255.832 249.097V250ZM250.876 243.322V242.44H255.832V243.322H250.876ZM262.288 250.21C261.718 250.21 261.24 250.107 260.853 249.902C260.47 249.697 260.183 249.424 259.992 249.083C259.8 248.742 259.705 248.371 259.705 247.97C259.705 247.559 259.786 247.209 259.95 246.92C260.118 246.626 260.344 246.386 260.629 246.199C260.918 246.012 261.252 245.87 261.63 245.772C262.012 245.679 262.435 245.597 262.897 245.527C263.363 245.452 263.818 245.389 264.262 245.338C264.71 245.282 265.102 245.228 265.438 245.177L265.074 245.401C265.088 244.654 264.943 244.101 264.64 243.742C264.336 243.383 263.809 243.203 263.058 243.203C262.54 243.203 262.101 243.32 261.742 243.553C261.387 243.786 261.137 244.155 260.993 244.659L259.992 244.365C260.164 243.688 260.512 243.163 261.035 242.79C261.557 242.417 262.236 242.23 263.072 242.23C263.762 242.23 264.348 242.361 264.829 242.622C265.314 242.879 265.657 243.252 265.858 243.742C265.951 243.961 266.012 244.206 266.04 244.477C266.068 244.748 266.082 245.023 266.082 245.303V250H265.165V248.103L265.431 248.215C265.174 248.864 264.775 249.358 264.234 249.699C263.692 250.04 263.044 250.21 262.288 250.21ZM262.407 249.321C262.887 249.321 263.307 249.235 263.667 249.062C264.026 248.889 264.315 248.654 264.535 248.355C264.754 248.052 264.896 247.711 264.962 247.333C265.018 247.09 265.048 246.824 265.053 246.535C265.057 246.241 265.06 246.022 265.06 245.877L265.452 246.08C265.102 246.127 264.721 246.173 264.311 246.22C263.905 246.267 263.503 246.32 263.107 246.381C262.715 246.442 262.36 246.514 262.043 246.598C261.828 246.659 261.62 246.745 261.42 246.857C261.219 246.964 261.053 247.109 260.923 247.291C260.797 247.473 260.734 247.699 260.734 247.97C260.734 248.189 260.787 248.402 260.895 248.607C261.007 248.812 261.184 248.983 261.427 249.118C261.674 249.253 262.001 249.321 262.407 249.321ZM273.364 250V246.143C273.364 245.723 273.324 245.338 273.245 244.988C273.165 244.633 273.037 244.325 272.86 244.064C272.687 243.798 272.461 243.593 272.181 243.448C271.905 243.303 271.569 243.231 271.173 243.231C270.809 243.231 270.487 243.294 270.207 243.42C269.931 243.546 269.698 243.728 269.507 243.966C269.32 244.199 269.178 244.484 269.08 244.82C268.982 245.156 268.933 245.539 268.933 245.968L268.205 245.807C268.205 245.032 268.34 244.381 268.611 243.854C268.881 243.327 269.255 242.928 269.731 242.657C270.207 242.386 270.753 242.251 271.369 242.251C271.821 242.251 272.216 242.321 272.552 242.461C272.892 242.601 273.179 242.79 273.413 243.028C273.651 243.266 273.842 243.539 273.987 243.847C274.131 244.15 274.236 244.475 274.302 244.82C274.367 245.161 274.4 245.501 274.4 245.842V250H273.364ZM267.897 250V242.44H268.828V244.302H268.933V250H267.897ZM279.108 250.21C278.404 250.21 277.802 250.035 277.302 249.685C276.803 249.33 276.42 248.852 276.154 248.25C275.888 247.648 275.755 246.969 275.755 246.213C275.755 245.462 275.886 244.785 276.147 244.183C276.413 243.581 276.794 243.105 277.288 242.755C277.783 242.405 278.376 242.23 279.066 242.23C279.776 242.23 280.373 242.403 280.858 242.748C281.344 243.093 281.71 243.567 281.957 244.169C282.209 244.766 282.335 245.448 282.335 246.213C282.335 246.964 282.212 247.643 281.964 248.25C281.717 248.852 281.353 249.33 280.872 249.685C280.392 250.035 279.804 250.21 279.108 250.21ZM279.213 249.251C279.75 249.251 280.193 249.12 280.543 248.859C280.893 248.598 281.155 248.238 281.327 247.781C281.5 247.319 281.586 246.796 281.586 246.213C281.586 245.62 281.5 245.098 281.327 244.645C281.155 244.188 280.893 243.831 280.543 243.574C280.198 243.317 279.762 243.189 279.234 243.189C278.693 243.189 278.245 243.322 277.89 243.588C277.536 243.854 277.272 244.216 277.099 244.673C276.931 245.13 276.847 245.644 276.847 246.213C276.847 246.787 276.934 247.305 277.106 247.767C277.284 248.224 277.547 248.586 277.897 248.852C278.247 249.118 278.686 249.251 279.213 249.251ZM281.586 250V244.309H281.474V239.92H282.51V250H281.586ZM292.737 250V246.143C292.737 245.723 292.697 245.338 292.618 244.988C292.539 244.633 292.41 244.325 292.233 244.064C292.06 243.798 291.834 243.593 291.554 243.448C291.279 243.303 290.943 243.231 290.546 243.231C290.182 243.231 289.86 243.294 289.58 243.42C289.305 243.546 289.071 243.728 288.88 243.966C288.693 244.199 288.551 244.484 288.453 244.82C288.355 245.156 288.306 245.539 288.306 245.968L287.578 245.807C287.578 245.032 287.713 244.381 287.984 243.854C288.255 243.327 288.628 242.928 289.104 242.657C289.58 242.386 290.126 242.251 290.742 242.251C291.195 242.251 291.589 242.321 291.925 242.461C292.266 242.601 292.553 242.79 292.786 243.028C293.024 243.266 293.215 243.539 293.36 243.847C293.505 244.15 293.61 244.475 293.675 244.82C293.74 245.161 293.773 245.501 293.773 245.842V250H292.737ZM287.27 250V239.92H288.201V245.611H288.306V250H287.27ZM295.729 241.005V239.85H296.758V241.005H295.729ZM295.729 250V242.44H296.758V250H295.729ZM302.973 250C302.548 250.089 302.128 250.124 301.713 250.105C301.302 250.086 300.934 249.998 300.607 249.839C300.285 249.68 300.04 249.433 299.872 249.097C299.737 248.817 299.662 248.535 299.648 248.25C299.639 247.961 299.634 247.632 299.634 247.263V240.34H300.656V247.221C300.656 247.538 300.658 247.804 300.663 248.019C300.672 248.229 300.721 248.416 300.81 248.579C300.978 248.892 301.244 249.078 301.608 249.139C301.977 249.2 302.432 249.186 302.973 249.097V250ZM298.017 243.322V242.44H302.973V243.322H298.017ZM37.096 270C36.6713 270.089 36.2513 270.124 35.836 270.105C35.4253 270.086 35.0567 269.998 34.73 269.839C34.408 269.68 34.163 269.433 33.995 269.097C33.8597 268.817 33.785 268.535 33.771 268.25C33.7617 267.961 33.757 267.632 33.757 267.263V260.34H34.779V267.221C34.779 267.538 34.7813 267.804 34.786 268.019C34.7953 268.229 34.8443 268.416 34.933 268.579C35.101 268.892 35.367 269.078 35.731 269.139C36.0997 269.2 36.5547 269.186 37.096 269.097V270ZM32.14 263.322V262.44H37.096V263.322H32.14ZM44.0455 270V266.143C44.0455 265.723 44.0058 265.338 43.9265 264.988C43.8471 264.633 43.7188 264.325 43.5415 264.064C43.3688 263.798 43.1425 263.593 42.8625 263.448C42.5871 263.303 42.2511 263.231 41.8545 263.231C41.4905 263.231 41.1685 263.294 40.8885 263.42C40.6131 263.546 40.3798 263.728 40.1885 263.966C40.0018 264.199 39.8595 264.484 39.7615 264.82C39.6635 265.156 39.6145 265.539 39.6145 265.968L38.8865 265.807C38.8865 265.032 39.0218 264.381 39.2925 263.854C39.5631 263.327 39.9365 262.928 40.4125 262.657C40.8885 262.386 41.4345 262.251 42.0505 262.251C42.5031 262.251 42.8975 262.321 43.2335 262.461C43.5741 262.601 43.8611 262.79 44.0945 263.028C44.3325 263.266 44.5238 263.539 44.6685 263.847C44.8131 264.15 44.9181 264.475 44.9835 264.82C45.0488 265.161 45.0815 265.501 45.0815 265.842V270H44.0455ZM38.5785 270V259.92H39.5095V265.611H39.6145V270H38.5785ZM50.097 270.21C49.3596 270.21 48.7203 270.047 48.179 269.72C47.6423 269.393 47.2246 268.934 46.926 268.341C46.6273 267.748 46.478 267.053 46.478 266.255C46.478 265.429 46.625 264.715 46.919 264.113C47.213 263.511 47.626 263.047 48.158 262.72C48.6946 262.393 49.327 262.23 50.055 262.23C50.8016 262.23 51.4386 262.403 51.966 262.748C52.4933 263.089 52.8923 263.579 53.163 264.218C53.4336 264.857 53.5573 265.62 53.534 266.507H52.484V266.143C52.4653 265.163 52.253 264.423 51.847 263.924C51.4456 263.425 50.8576 263.175 50.083 263.175C49.271 263.175 48.648 263.439 48.214 263.966C47.7846 264.493 47.57 265.245 47.57 266.22C47.57 267.172 47.7846 267.912 48.214 268.439C48.648 268.962 49.2616 269.223 50.055 269.223C50.5963 269.223 51.0676 269.099 51.469 268.852C51.875 268.6 52.1946 268.238 52.428 267.767L53.387 268.138C53.0883 268.796 52.6473 269.307 52.064 269.671C51.4853 270.03 50.8296 270.21 50.097 270.21ZM47.206 266.507V265.646H52.981V266.507H47.206ZM61.2852 270.21C60.5898 270.21 60.0018 270.035 59.5212 269.685C59.0405 269.33 58.6765 268.852 58.4292 268.25C58.1818 267.643 58.0582 266.964 58.0582 266.213C58.0582 265.448 58.1818 264.766 58.4292 264.169C58.6812 263.567 59.0498 263.093 59.5352 262.748C60.0205 262.403 60.6178 262.23 61.3272 262.23C62.0178 262.23 62.6105 262.405 63.1052 262.755C63.5998 263.105 63.9778 263.581 64.2392 264.183C64.5052 264.785 64.6382 265.462 64.6382 266.213C64.6382 266.969 64.5052 267.648 64.2392 268.25C63.9732 268.852 63.5905 269.33 63.0912 269.685C62.5918 270.035 61.9898 270.21 61.2852 270.21ZM57.8832 273.36V262.44H58.8072V268.131H58.9192V273.36H57.8832ZM61.1802 269.251C61.7075 269.251 62.1462 269.118 62.4962 268.852C62.8462 268.586 63.1075 268.224 63.2802 267.767C63.4575 267.305 63.5462 266.787 63.5462 266.213C63.5462 265.644 63.4598 265.13 63.2872 264.673C63.1145 264.216 62.8508 263.854 62.4962 263.588C62.1462 263.322 61.7005 263.189 61.1592 263.189C60.6318 263.189 60.1932 263.317 59.8432 263.574C59.4978 263.831 59.2388 264.188 59.0662 264.645C58.8935 265.098 58.8072 265.62 58.8072 266.213C58.8072 266.796 58.8935 267.319 59.0662 267.781C59.2388 268.238 59.5002 268.598 59.8502 268.859C60.2002 269.12 60.6435 269.251 61.1802 269.251ZM66.1753 270V262.44H67.0993V264.26L66.9173 264.022C67.0013 263.798 67.111 263.593 67.2463 263.406C67.3816 263.215 67.5286 263.058 67.6873 262.937C67.8833 262.764 68.112 262.634 68.3733 262.545C68.6346 262.452 68.8983 262.398 69.1643 262.384C69.4303 262.365 69.673 262.384 69.8923 262.44V263.406C69.617 263.336 69.316 263.32 68.9893 263.357C68.6626 263.394 68.3616 263.525 68.0863 263.749C67.8343 263.945 67.6453 264.181 67.5193 264.456C67.3933 264.727 67.3093 265.016 67.2673 265.324C67.2253 265.627 67.2043 265.928 67.2043 266.227V270H66.1753ZM74.2405 270.21C73.4892 270.21 72.8475 270.04 72.3155 269.699C71.7835 269.358 71.3752 268.887 71.0905 268.285C70.8058 267.683 70.6635 266.992 70.6635 266.213C70.6635 265.42 70.8082 264.724 71.0975 264.127C71.3868 263.53 71.7975 263.065 72.3295 262.734C72.8662 262.398 73.5032 262.23 74.2405 262.23C74.9965 262.23 75.6405 262.4 76.1725 262.741C76.7092 263.077 77.1175 263.546 77.3975 264.148C77.6822 264.745 77.8245 265.434 77.8245 266.213C77.8245 267.006 77.6822 267.704 77.3975 268.306C77.1128 268.903 76.7022 269.37 76.1655 269.706C75.6288 270.042 74.9872 270.21 74.2405 270.21ZM74.2405 269.223C75.0805 269.223 75.7058 268.945 76.1165 268.39C76.5272 267.83 76.7325 267.104 76.7325 266.213C76.7325 265.298 76.5248 264.57 76.1095 264.029C75.6988 263.488 75.0758 263.217 74.2405 263.217C73.6758 263.217 73.2092 263.345 72.8405 263.602C72.4765 263.854 72.2035 264.206 72.0215 264.659C71.8442 265.107 71.7555 265.625 71.7555 266.213C71.7555 267.123 71.9655 267.853 72.3855 268.404C72.8055 268.95 73.4238 269.223 74.2405 269.223ZM80.1177 270V261.88C80.1177 261.684 80.127 261.49 80.1457 261.299C80.169 261.108 80.2133 260.926 80.2787 260.753C80.344 260.576 80.4467 260.412 80.5867 260.263C80.7407 260.095 80.9087 259.974 81.0907 259.899C81.2727 259.82 81.4617 259.768 81.6577 259.745C81.8583 259.722 82.0543 259.71 82.2457 259.71H83.2117V260.578H82.3157C81.9237 260.578 81.6297 260.674 81.4337 260.865C81.2423 261.056 81.1467 261.357 81.1467 261.768V270H80.1177ZM78.8087 263.322V262.44H83.2117V263.322H78.8087ZM84.6817 261.005V259.85H85.7107V261.005H84.6817ZM84.6817 270V262.44H85.7107V270H84.6817ZM91.9202 270C91.4956 270.089 91.0756 270.124 90.6602 270.105C90.2496 270.086 89.8809 269.998 89.5542 269.839C89.2322 269.68 88.9872 269.433 88.8192 269.097C88.6839 268.817 88.6092 268.535 88.5952 268.25C88.5859 267.961 88.5812 267.632 88.5812 267.263V260.34H89.6032V267.221C89.6032 267.538 89.6056 267.804 89.6102 268.019C89.6196 268.229 89.6686 268.416 89.7572 268.579C89.9252 268.892 90.1912 269.078 90.5552 269.139C90.9239 269.2 91.3789 269.186 91.9202 269.097V270ZM86.9642 263.322V262.44H91.9202V263.322H86.9642ZM100.328 270C99.9038 270.089 99.4838 270.124 99.0684 270.105C98.6578 270.086 98.2891 269.998 97.9624 269.839C97.6404 269.68 97.3954 269.433 97.2274 269.097C97.0921 268.817 97.0174 268.535 97.0034 268.25C96.9941 267.961 96.9894 267.632 96.9894 267.263V260.34H98.0114V267.221C98.0114 267.538 98.0138 267.804 98.0184 268.019C98.0278 268.229 98.0768 268.416 98.1654 268.579C98.3334 268.892 98.5994 269.078 98.9634 269.139C99.3321 269.2 99.7871 269.186 100.328 269.097V270ZM95.3724 263.322V262.44H100.328V263.322H95.3724ZM103.981 270.21C103.412 270.21 102.933 270.107 102.546 269.902C102.163 269.697 101.876 269.424 101.685 269.083C101.494 268.742 101.398 268.371 101.398 267.97C101.398 267.559 101.48 267.209 101.643 266.92C101.811 266.626 102.037 266.386 102.322 266.199C102.611 266.012 102.945 265.87 103.323 265.772C103.706 265.679 104.128 265.597 104.59 265.527C105.057 265.452 105.512 265.389 105.955 265.338C106.403 265.282 106.795 265.228 107.131 265.177L106.767 265.401C106.781 264.654 106.636 264.101 106.333 263.742C106.03 263.383 105.502 263.203 104.751 263.203C104.233 263.203 103.794 263.32 103.435 263.553C103.08 263.786 102.831 264.155 102.686 264.659L101.685 264.365C101.858 263.688 102.205 263.163 102.728 262.79C103.251 262.417 103.93 262.23 104.765 262.23C105.456 262.23 106.041 262.361 106.522 262.622C107.007 262.879 107.35 263.252 107.551 263.742C107.644 263.961 107.705 264.206 107.733 264.477C107.761 264.748 107.775 265.023 107.775 265.303V270H106.858V268.103L107.124 268.215C106.867 268.864 106.468 269.358 105.927 269.699C105.386 270.04 104.737 270.21 103.981 270.21ZM104.1 269.321C104.581 269.321 105.001 269.235 105.36 269.062C105.719 268.889 106.009 268.654 106.228 268.355C106.447 268.052 106.59 267.711 106.655 267.333C106.711 267.09 106.741 266.824 106.746 266.535C106.751 266.241 106.753 266.022 106.753 265.877L107.145 266.08C106.795 266.127 106.415 266.173 106.004 266.22C105.598 266.267 105.197 266.32 104.8 266.381C104.408 266.442 104.053 266.514 103.736 266.598C103.521 266.659 103.314 266.745 103.113 266.857C102.912 266.964 102.747 267.109 102.616 267.291C102.49 267.473 102.427 267.699 102.427 267.97C102.427 268.189 102.481 268.402 102.588 268.607C102.7 268.812 102.877 268.983 103.12 269.118C103.367 269.253 103.694 269.321 104.1 269.321ZM109.597 270V262.44H110.521V264.26L110.339 264.022C110.423 263.798 110.533 263.593 110.668 263.406C110.804 263.215 110.951 263.058 111.109 262.937C111.305 262.764 111.534 262.634 111.795 262.545C112.057 262.452 112.32 262.398 112.586 262.384C112.852 262.365 113.095 262.384 113.314 262.44V263.406C113.039 263.336 112.738 263.32 112.411 263.357C112.085 263.394 111.784 263.525 111.508 263.749C111.256 263.945 111.067 264.181 110.941 264.456C110.815 264.727 110.731 265.016 110.689 265.324C110.647 265.627 110.626 265.928 110.626 266.227V270H109.597ZM117.372 273.57C116.984 273.57 116.602 273.512 116.224 273.395C115.85 273.283 115.505 273.103 115.188 272.856C114.87 272.613 114.604 272.296 114.39 271.904L115.321 271.386C115.531 271.806 115.825 272.107 116.203 272.289C116.585 272.476 116.975 272.569 117.372 272.569C117.918 272.569 118.359 272.466 118.695 272.261C119.035 272.06 119.283 271.762 119.437 271.365C119.591 270.968 119.665 270.474 119.661 269.881V267.865H119.78V262.44H120.697V269.895C120.697 270.11 120.69 270.315 120.676 270.511C120.666 270.712 120.645 270.908 120.613 271.099C120.524 271.664 120.34 272.128 120.06 272.492C119.784 272.856 119.42 273.127 118.968 273.304C118.52 273.481 117.988 273.57 117.372 273.57ZM117.302 270.21C116.597 270.21 115.995 270.035 115.496 269.685C114.996 269.33 114.614 268.852 114.348 268.25C114.082 267.648 113.949 266.969 113.949 266.213C113.949 265.462 114.079 264.785 114.341 264.183C114.607 263.581 114.987 263.105 115.482 262.755C115.976 262.405 116.569 262.23 117.26 262.23C117.969 262.23 118.566 262.403 119.052 262.748C119.537 263.093 119.903 263.567 120.151 264.169C120.403 264.766 120.529 265.448 120.529 266.213C120.529 266.964 120.405 267.643 120.158 268.25C119.91 268.852 119.546 269.33 119.066 269.685C118.585 270.035 117.997 270.21 117.302 270.21ZM117.407 269.251C117.943 269.251 118.387 269.12 118.737 268.859C119.087 268.598 119.348 268.238 119.521 267.781C119.693 267.319 119.78 266.796 119.78 266.213C119.78 265.62 119.693 265.098 119.521 264.645C119.348 264.188 119.087 263.831 118.737 263.574C118.391 263.317 117.955 263.189 117.428 263.189C116.886 263.189 116.438 263.322 116.084 263.588C115.729 263.854 115.465 264.216 115.293 264.673C115.125 265.13 115.041 265.644 115.041 266.213C115.041 266.787 115.127 267.305 115.3 267.767C115.477 268.224 115.741 268.586 116.091 268.852C116.441 269.118 116.879 269.251 117.407 269.251ZM125.853 270.21C125.115 270.21 124.476 270.047 123.935 269.72C123.398 269.393 122.98 268.934 122.682 268.341C122.383 267.748 122.234 267.053 122.234 266.255C122.234 265.429 122.381 264.715 122.675 264.113C122.969 263.511 123.382 263.047 123.914 262.72C124.45 262.393 125.083 262.23 125.811 262.23C126.557 262.23 127.194 262.403 127.722 262.748C128.249 263.089 128.648 263.579 128.919 264.218C129.189 264.857 129.313 265.62 129.29 266.507H128.24V266.143C128.221 265.163 128.009 264.423 127.603 263.924C127.201 263.425 126.613 263.175 125.839 263.175C125.027 263.175 124.404 263.439 123.97 263.966C123.54 264.493 123.326 265.245 123.326 266.22C123.326 267.172 123.54 267.912 123.97 268.439C124.404 268.962 125.017 269.223 125.811 269.223C126.352 269.223 126.823 269.099 127.225 268.852C127.631 268.6 127.95 268.238 128.184 267.767L129.143 268.138C128.844 268.796 128.403 269.307 127.82 269.671C127.241 270.03 126.585 270.21 125.853 270.21ZM122.962 266.507V265.646H128.737V266.507H122.962ZM134.959 270C134.535 270.089 134.115 270.124 133.699 270.105C133.289 270.086 132.92 269.998 132.593 269.839C132.271 269.68 132.026 269.433 131.858 269.097C131.723 268.817 131.648 268.535 131.634 268.25C131.625 267.961 131.62 267.632 131.62 267.263V260.34H132.642V267.221C132.642 267.538 132.645 267.804 132.649 268.019C132.659 268.229 132.708 268.416 132.796 268.579C132.964 268.892 133.23 269.078 133.594 269.139C133.963 269.2 134.418 269.186 134.959 269.097V270ZM130.003 263.322V262.44H134.959V263.322H130.003ZM139.27 270.203C138.383 270.203 137.653 270.012 137.079 269.629C136.509 269.246 136.159 268.714 136.029 268.033L137.079 267.858C137.191 268.287 137.445 268.63 137.842 268.887C138.243 269.139 138.738 269.265 139.326 269.265C139.9 269.265 140.352 269.146 140.684 268.908C141.015 268.665 141.181 268.336 141.181 267.921C141.181 267.688 141.127 267.499 141.02 267.354C140.917 267.205 140.705 267.067 140.383 266.941C140.061 266.815 139.58 266.666 138.941 266.493C138.255 266.306 137.718 266.12 137.331 265.933C136.943 265.746 136.668 265.532 136.505 265.289C136.341 265.042 136.26 264.741 136.26 264.386C136.26 263.957 136.381 263.581 136.624 263.259C136.866 262.932 137.202 262.68 137.632 262.503C138.061 262.321 138.56 262.23 139.13 262.23C139.699 262.23 140.208 262.323 140.656 262.51C141.108 262.692 141.472 262.949 141.748 263.28C142.023 263.611 142.186 263.996 142.238 264.435L141.188 264.624C141.118 264.181 140.896 263.831 140.523 263.574C140.154 263.313 139.685 263.177 139.116 263.168C138.579 263.154 138.143 263.257 137.807 263.476C137.471 263.691 137.303 263.978 137.303 264.337C137.303 264.538 137.363 264.71 137.485 264.855C137.606 264.995 137.825 265.128 138.143 265.254C138.465 265.38 138.922 265.518 139.515 265.667C140.21 265.844 140.756 266.031 141.153 266.227C141.549 266.423 141.832 266.654 142 266.92C142.168 267.186 142.252 267.515 142.252 267.907C142.252 268.621 141.986 269.183 141.454 269.594C140.926 270 140.198 270.203 139.27 270.203ZM144 270V268.803H145.197V270H144Z" fill="#9D63D9"/>
<g filter="url(#filter0_f_561_3814)">
<rect x="170" y="75" width="188" height="153" rx="25" fill="url(#paint7_linear_561_3814)" fill-opacity="0.2"/>
</g>
<path d="M283.15 169.968L283.182 165.747L303.688 147.225C305.452 145.629 306.618 144.117 307.185 142.689C307.773 141.24 308.067 139.728 308.067 138.153C308.067 136.284 307.626 134.594 306.744 133.082C305.862 131.57 304.675 130.373 303.184 129.491C301.693 128.588 300.024 128.136 298.176 128.136C296.244 128.136 294.522 128.598 293.01 129.522C291.498 130.446 290.301 131.664 289.419 133.176C288.558 134.688 288.138 136.337 288.159 138.122H283.434C283.434 135.371 284.085 132.903 285.387 130.719C286.689 128.535 288.453 126.824 290.679 125.585C292.905 124.325 295.425 123.695 298.239 123.695C300.99 123.695 303.457 124.346 305.641 125.648C307.846 126.929 309.579 128.672 310.839 130.877C312.12 133.061 312.76 135.497 312.76 138.185C312.76 140.075 312.529 141.744 312.067 143.193C311.626 144.621 310.923 145.955 309.957 147.194C309.012 148.412 307.804 149.672 306.334 150.974L288.127 167.417L287.403 165.527H312.76V169.968H283.15Z" fill="#A770E1" fill-opacity="0.3"/>
<defs>
<filter id="filter0_f_561_3814" x="95" y="0" width="338" height="303" filterUnits="userSpaceOnUse" color-interpolation-filters="sRGB">
<feFlood flood-opacity="0" result="BackgroundImageFix"/>
<feBlend mode="normal" in="SourceGraphic" in2="BackgroundImageFix" result="shape"/>
<feGaussianBlur stdDeviation="37.5" result="effect1_foregroundBlur_561_3814"/>
</filter>
<linearGradient id="paint0_linear_561_3814" x1="179" y1="75" x2="179" y2="303" gradientUnits="userSpaceOnUse">
<stop stop-color="#4D1891"/>
<stop offset="1" stop-color="#1E0933"/>
</linearGradient>
<linearGradient id="paint1_linear_561_3814" x1="-2.99361e-07" y1="189" x2="301.584" y2="155.38" gradientUnits="userSpaceOnUse">
<stop stop-color="#A770E1"/>
<stop offset="1" stop-color="#542388"/>
</linearGradient>
<linearGradient id="paint2_linear_561_3814" x1="25.5" y1="104.5" x2="98" y2="177" gradientUnits="userSpaceOnUse">
<stop stop-color="#A770E1"/>
<stop offset="0.5" stop-color="#280D46"/>
<stop offset="1" stop-color="#542388"/>
</linearGradient>
<linearGradient id="paint3_linear_561_3814" x1="46.4081" y1="122.733" x2="82.5919" y2="165.767" gradientUnits="userSpaceOnUse">
<stop stop-color="#A770E1"/>
<stop offset="0.5" stop-color="#230B3E"/>
<stop offset="1" stop-color="#542388"/>
</linearGradient>
<linearGradient id="paint4_linear_561_3814" x1="98" y1="145.5" x2="194" y2="145.5" gradientUnits="userSpaceOnUse">
<stop stop-color="#41196B"/>
<stop offset="1" stop-color="#260C43" stop-opacity="0"/>
</linearGradient>
<linearGradient id="paint5_linear_561_3814" x1="32" y1="144.5" x2="4.37114e-08" y2="144.5" gradientUnits="userSpaceOnUse">
<stop stop-color="#41196B"/>
<stop offset="1" stop-color="#260C43" stop-opacity="0"/>
</linearGradient>
<linearGradient id="paint6_linear_561_3814" x1="65.5" y1="111" x2="65.5" y2="75" gradientUnits="userSpaceOnUse">
<stop stop-color="#41196B"/>
<stop offset="1" stop-color="#260C43" stop-opacity="0"/>
</linearGradient>
<linearGradient id="paint7_linear_561_3814" x1="352.268" y1="75" x2="205.315" y2="224.998" gradientUnits="userSpaceOnUse">
<stop stop-color="#DAB6FF"/>
<stop offset="1" stop-color="#1E0933"/>
</linearGradient>
<clipPath id="clip0_561_3814">
<rect width="26" height="26" fill="white" transform="translate(52 131)"/>
</clipPath>
</defs>
</svg>
