<svg width="194" height="102" viewBox="0 0 194 102" fill="none" xmlns="http://www.w3.org/2000/svg">
<circle cx="65" cy="69" r="32.5" stroke="url(#paint0_linear_786_93)"/>
<circle cx="65" cy="69" r="27.5" stroke="url(#paint1_linear_786_93)" stroke-opacity="0.25"/>
<line x1="98" y1="69.5" x2="194" y2="69.5" stroke="url(#paint2_linear_786_93)"/>
<line x1="32" y1="70.5" x2="-4.37114e-08" y2="70.5" stroke="url(#paint3_linear_786_93)"/>
<line x1="64.5" y1="36" x2="64.5" y2="2.18557e-08" stroke="url(#paint4_linear_786_93)"/>
<path d="M63.9167 62.8501C63.9167 62.4478 64.0765 62.0621 64.3609 61.7776C64.6453 61.4932 65.0311 61.3334 65.4333 61.3334H72.15C72.5522 61.3334 72.938 61.4932 73.2224 61.7776C73.5069 62.0621 73.6667 62.4478 73.6667 62.8501V77.1501C73.6667 77.5523 73.5069 77.9381 73.2224 78.2225C72.938 78.507 72.5522 78.6667 72.15 78.6667H65.4333C65.0311 78.6667 64.6453 78.507 64.3609 78.2225C64.0765 77.9381 63.9167 77.5523 63.9167 77.1501V74.3334C63.9167 74.0461 63.8025 73.7705 63.5994 73.5674C63.3962 73.3642 63.1207 73.2501 62.8333 73.2501C62.546 73.2501 62.2705 73.3642 62.0673 73.5674C61.8641 73.7705 61.75 74.0461 61.75 74.3334V77.1501C61.75 78.127 62.1381 79.0638 62.8288 79.7546C63.5196 80.4453 64.4565 80.8334 65.4333 80.8334H72.15C73.1269 80.8334 74.0638 80.4453 74.7545 79.7546C75.4453 79.0638 75.8333 78.127 75.8333 77.1501V62.8501C75.8333 61.8732 75.4453 60.9363 74.7545 60.2456C74.0638 59.5548 73.1269 59.1667 72.15 59.1667H65.4333C64.9496 59.1667 64.4707 59.262 64.0238 59.4471C63.5769 59.6322 63.1709 59.9035 62.8288 60.2456C62.4868 60.5876 62.2155 60.9936 62.0304 61.4405C61.8453 61.8874 61.75 62.3664 61.75 62.8501V65.6667C61.75 65.9541 61.8641 66.2296 62.0673 66.4328C62.2705 66.6359 62.546 66.7501 62.8333 66.7501C63.1207 66.7501 63.3962 66.6359 63.5994 66.4328C63.8025 66.2296 63.9167 65.9541 63.9167 65.6667V62.8501Z" fill="white"/>
<path d="M66.4007 65.9841C66.6039 65.781 66.8794 65.6669 67.1666 65.6669C67.4539 65.6669 67.7294 65.781 67.9325 65.9841L71.1825 69.2341C71.3856 69.4372 71.4997 69.7127 71.4997 70C71.4997 70.2872 71.3856 70.5627 71.1825 70.7659L67.9325 74.0159C67.7282 74.2132 67.4546 74.3224 67.1705 74.32C66.8865 74.3175 66.6148 74.2036 66.4139 74.0027C66.213 73.8018 66.0991 73.5301 66.0966 73.2461C66.0942 72.962 66.2034 72.6884 66.4007 72.4841L67.8015 71.0833H55.25C54.9626 71.0833 54.6871 70.9692 54.4839 70.766C54.2808 70.5628 54.1666 70.2873 54.1666 70C54.1666 69.7127 54.2808 69.4371 54.4839 69.2339C54.6871 69.0308 54.9626 68.9166 55.25 68.9166H67.8015L66.4007 67.5159C66.1976 67.3127 66.0835 67.0372 66.0835 66.75C66.0835 66.4627 66.1976 66.1872 66.4007 65.9841Z" fill="white"/>
<defs>
<linearGradient id="paint0_linear_786_93" x1="25.5" y1="29.5" x2="98" y2="102" gradientUnits="userSpaceOnUse">
<stop stop-color="#A770E1"/>
<stop offset="0.5" stop-color="#280D46"/>
<stop offset="1" stop-color="#542388"/>
</linearGradient>
<linearGradient id="paint1_linear_786_93" x1="46.4081" y1="47.7327" x2="82.5919" y2="90.7673" gradientUnits="userSpaceOnUse">
<stop stop-color="#A770E1"/>
<stop offset="0.5" stop-color="#230B3E"/>
<stop offset="1" stop-color="#542388"/>
</linearGradient>
<linearGradient id="paint2_linear_786_93" x1="98" y1="70.5" x2="194" y2="70.5" gradientUnits="userSpaceOnUse">
<stop stop-color="#41196B"/>
<stop offset="1" stop-color="#260C43" stop-opacity="0"/>
</linearGradient>
<linearGradient id="paint3_linear_786_93" x1="32" y1="69.5" x2="4.37114e-08" y2="69.5" gradientUnits="userSpaceOnUse">
<stop stop-color="#41196B"/>
<stop offset="1" stop-color="#260C43" stop-opacity="0"/>
</linearGradient>
<linearGradient id="paint4_linear_786_93" x1="65.5" y1="36" x2="65.5" y2="-2.18557e-08" gradientUnits="userSpaceOnUse">
<stop stop-color="#41196B"/>
<stop offset="1" stop-color="#260C43" stop-opacity="0"/>
</linearGradient>
</defs>
</svg>
