<?xml version="1.0" encoding="UTF-8"?>
<svg version="1.1" xmlns="http://www.w3.org/2000/svg" width="173" height="196">
<path d="M0 0 C0 8.58 0 17.16 0 26 C33.33 26 66.66 26 101 26 C101 17.42 101 8.84 101 0 C111.12695109 6.75130073 111.12695109 6.75130073 114.75390625 9.4375 C115.54603516 10.02273438 116.33816406 10.60796875 117.15429688 11.2109375 C117.94900391 11.80132812 118.74371094 12.39171875 119.5625 13 C120.36107422 13.59039062 121.15964844 14.18078125 121.98242188 14.7890625 C127.00421896 18.5052742 132.00197284 22.25147963 137 26 C137 36.56 137 47.12 137 58 C114.23 58 91.46 58 68 58 C68 61.63 68 65.26 68 69 C69.32 69.165 70.64 69.33 72 69.5 C85.56994544 72.25248539 100.03881757 80.83542643 108.1875 92.0625 C108.785625 93.031875 109.38375 94.00125 110 95 C108.59921602 96.53547475 107.17879097 98.05305148 105.75 99.5625 C104.96109375 100.40941406 104.1721875 101.25632812 103.359375 102.12890625 C101 104 101 104 98.95703125 104.09765625 C96.17020892 102.53458824 94.81455237 100.45024568 92.9375 97.875 C85.61891192 88.63678226 76.31173648 83.21722046 64.609375 81.6875 C53.86031214 81.13270966 43.18286256 85.12838722 35 92 C26.29230467 99.93057835 22.36442947 111.60545932 21.74609375 123.10546875 C21.23990537 137.49260403 23.84782829 151.03778163 33.84765625 162.03125 C42.42714483 170.08198282 53.80435618 173.56277304 65.48828125 173.33203125 C70.30143934 172.69576618 78.46852541 171.53147459 82 168 C82.08783542 165.78144736 82.10694609 163.56011504 82.09765625 161.33984375 C82.0962413 160.67537735 82.09482635 160.01091095 82.09336853 159.3263092 C82.08775518 157.19666101 82.07520054 155.06711661 82.0625 152.9375 C82.05748671 151.49674631 82.05292351 150.05599097 82.04882812 148.61523438 C82.03863076 145.07675042 82.0190583 141.53849187 82 138 C76.06 137.67 70.12 137.34 64 137 C64 134.36 64 131.72 64 129 C79.18 129 94.36 129 110 129 C110 143.19 110 157.38 110 172 C95.61477929 178.713103 83.46664622 183.04740014 68 185 C67.67 188.63 67.34 192.26 67 196 C56.11 196 45.22 196 34 196 C34 191.05 34 186.1 34 181 C32.02 180.67 30.04 180.34 28 180 C13.78514467 173.80864079 1.15333172 164.67355325 -5.28125 150.09765625 C-10.88286571 135.19335731 -11.02497962 118.3981245 -4.55859375 103.73046875 C3.09817596 88.47022472 14.90035071 77.81301813 31 72 C31.99 72 32.98 72 34 72 C33.67 67.71 33.34 63.42 33 59 C10.23 58.67 -12.54 58.34 -36 58 C-36 26 -36 26 -30.625 19.8125 C-28.80619873 18.86008042 -26.98264398 17.91185828 -25.11083984 17.06835938 C-20.88546895 14.9297724 -17.21738774 11.89300453 -13.4375 9.0625 C-11.917952 7.96645595 -10.39595666 6.87379383 -8.87109375 5.78515625 C-6.83005872 4.32510704 -4.81092326 2.85476653 -2.82055664 1.32592773 C-1 0 -1 0 0 0 Z " fill="#FEFEFE" transform="translate(36,0)"/>
</svg>
