<svg width="14" height="14" viewBox="0 0 14 14" fill="none" xmlns="http://www.w3.org/2000/svg">
<path d="M4.49176 3.67498C4.38174 3.56872 4.23439 3.50992 4.08144 3.51125C3.92849 3.51258 3.78218 3.57393 3.67403 3.68209C3.56587 3.79024 3.50452 3.93655 3.5032 4.0895C3.50187 4.24244 3.56066 4.38979 3.66692 4.49981L6.17526 7.00815L3.66692 9.51648C3.56066 9.6265 3.50187 9.77385 3.5032 9.9268C3.50452 10.0797 3.56587 10.2261 3.67403 10.3342C3.78218 10.4424 3.92849 10.5037 4.08144 10.505C4.23439 10.5064 4.38174 10.4476 4.49176 10.3413L7.00009 7.83298L9.50842 10.3413C9.61844 10.4476 9.76579 10.5064 9.91874 10.505C10.0717 10.5037 10.218 10.4424 10.3261 10.3342C10.4343 10.2261 10.4957 10.0797 10.497 9.9268C10.4983 9.77385 10.4395 9.6265 10.3333 9.51648L7.82492 7.00815L10.3333 4.49981C10.4395 4.38979 10.4983 4.24244 10.497 4.0895C10.4957 3.93655 10.4343 3.79024 10.3261 3.68209C10.218 3.57393 10.0717 3.51258 9.91874 3.51125C9.76579 3.50992 9.61844 3.56872 9.50842 3.67498L7.00009 6.18331L4.49176 3.67498Z" fill="#B682FF"/>
</svg>
