<svg width="14" height="14" viewBox="0 0 14 14" fill="none" xmlns="http://www.w3.org/2000/svg">
<path d="M3.50008 9.33317C3.33791 9.33317 3.20025 9.27659 3.08708 9.16342C2.97353 9.05025 2.91675 8.91278 2.91675 8.751C2.91675 8.58923 2.97353 8.45136 3.08708 8.33742C3.20064 8.22348 3.3383 8.1665 3.50008 8.1665H10.5001C10.6622 8.1665 10.7999 8.22309 10.9131 8.33625C11.0266 8.44942 11.0834 8.58689 11.0834 8.74867C11.0834 8.91045 11.0266 9.04831 10.9131 9.16225C10.7995 9.2762 10.6619 9.33317 10.5001 9.33317H3.50008ZM3.50008 5.83317C3.33791 5.83317 3.20025 5.77659 3.08708 5.66342C2.97353 5.55025 2.91675 5.41278 2.91675 5.251C2.91675 5.08923 2.97353 4.95137 3.08708 4.83742C3.20064 4.72348 3.3383 4.6665 3.50008 4.6665H10.5001C10.6622 4.6665 10.7999 4.72309 10.9131 4.83625C11.0266 4.94942 11.0834 5.08689 11.0834 5.24867C11.0834 5.41045 11.0266 5.54831 10.9131 5.66225C10.7995 5.7762 10.6619 5.83317 10.5001 5.83317H3.50008Z" fill="#B682FF"/>
</svg>
