<svg width="20" height="20" viewBox="0 0 20 20" fill="none" xmlns="http://www.w3.org/2000/svg">
<path fill-rule="evenodd" clip-rule="evenodd" d="M10 3.5C8.27609 3.5 6.62279 4.18482 5.40381 5.40381C4.18482 6.62279 3.5 8.27609 3.5 10C3.5 11.7239 4.18482 13.3772 5.40381 14.5962C6.62279 15.8152 8.27609 16.5 10 16.5C11.7239 16.5 13.3772 15.8152 14.5962 14.5962C15.8152 13.3772 16.5 11.7239 16.5 10C16.5 8.27609 15.8152 6.62279 14.5962 5.40381C13.3772 4.18482 11.7239 3.5 10 3.5ZM2.5 10C2.5 8.01088 3.29018 6.10322 4.6967 4.6967C6.10322 3.29018 8.01088 2.5 10 2.5C11.9891 2.5 13.8968 3.29018 15.3033 4.6967C16.7098 6.10322 17.5 8.01088 17.5 10C17.5 11.9891 16.7098 13.8968 15.3033 15.3033C13.8968 16.7098 11.9891 17.5 10 17.5C8.01088 17.5 6.10322 16.7098 4.6967 15.3033C3.29018 13.8968 2.5 11.9891 2.5 10Z" fill="white"/>
<path fill-rule="evenodd" clip-rule="evenodd" d="M15.3041 4.69717C15.3978 4.79094 15.4505 4.91809 15.4505 5.05067C15.4505 5.18326 15.3978 5.31041 15.3041 5.40417L5.40408 15.3042C5.35795 15.3519 5.30278 15.39 5.24178 15.4162C5.18078 15.4424 5.11517 15.4562 5.04878 15.4568C4.98239 15.4574 4.91655 15.4447 4.8551 15.4196C4.79365 15.3944 4.73783 15.3573 4.69088 15.3104C4.64393 15.2634 4.60681 15.2076 4.58167 15.1462C4.55653 15.0847 4.54388 15.0189 4.54445 14.9525C4.54503 14.8861 4.55882 14.8205 4.58503 14.7595C4.61123 14.6985 4.64932 14.6433 4.69708 14.5972L14.5971 4.69717C14.6908 4.60344 14.818 4.55078 14.9506 4.55078C15.0832 4.55078 15.2103 4.60344 15.3041 4.69717Z" fill="white"/>
</svg>
