<svg width="17" height="17" viewBox="0 0 17 17" fill="none" xmlns="http://www.w3.org/2000/svg">
<g clip-path="url(#clip0_1033_1620)">
<path d="M14.4084 4.04834C15.5391 4.1304 16.4113 5.00268 16.4934 6.1333C16.5603 7.05214 16.6233 8.41143 16.6233 10.271C16.6233 12.1306 16.5603 13.4899 16.4934 14.4087C16.4113 15.5393 15.5391 16.4116 14.4084 16.4937C13.4896 16.5606 12.1303 16.6235 10.2708 16.6235C8.41118 16.6235 7.0519 16.5606 6.13306 16.4937C5.00243 16.4116 4.13016 15.5393 4.0481 14.4087L4.04126 14.3169C4.48741 14.3342 4.9337 14.3475 5.38013 14.355C6.27856 14.3708 7.17798 14.3708 8.07642 14.355L8.07544 14.354C9.34796 14.3327 10.3381 14.2834 11.0715 14.23C12.7777 14.1059 14.1056 12.7776 14.2297 11.0718C14.3006 10.0969 14.3665 8.66938 14.3665 6.729C14.3662 6.1973 14.3615 5.70315 14.3528 5.24658L14.3489 5.05029H14.3479C14.3397 4.68936 14.3289 4.35311 14.3167 4.0415C14.3477 4.04369 14.3783 4.04613 14.4084 4.04834ZM6.72876 0.377441C8.5886 0.377441 9.94859 0.44041 10.8674 0.507324C11.9979 0.589491 12.8694 1.46076 12.9514 2.59131C13.0183 3.5101 13.0813 4.86937 13.0813 6.729C13.0813 8.58885 13.0183 9.94883 12.9514 10.8677C12.8693 11.9981 11.9979 12.8695 10.8674 12.9517C9.94859 13.0186 8.5886 13.0815 6.72876 13.0815C4.86913 13.0815 3.50985 13.0186 2.59106 12.9517C1.46052 12.8696 0.589247 11.9982 0.50708 10.8677C0.440165 9.94883 0.377197 8.58885 0.377197 6.729C0.377205 4.86935 0.44017 3.5101 0.50708 2.59131C0.589142 1.46068 1.46044 0.589386 2.59106 0.507324C3.50985 0.440414 4.86911 0.377449 6.72876 0.377441ZM6.72876 1.39404C4.89197 1.39405 3.55694 1.45617 2.66431 1.521C2.03739 1.56661 1.5667 2.03794 1.52075 2.66455C1.45592 3.55684 1.39381 4.89186 1.3938 6.729C1.3938 8.56631 1.45592 9.90147 1.52075 10.7935C1.56624 11.4208 2.03755 11.892 2.66431 11.938C3.55659 12.0028 4.89198 12.0649 6.72876 12.0649C8.56571 12.0649 9.90088 12.0028 10.7932 11.938C11.4207 11.8925 11.8919 11.4204 11.9377 10.7935C12.0026 9.90112 12.0647 8.56577 12.0647 6.729C12.0647 4.89222 12.0026 3.55719 11.9377 2.66455C11.895 2.0768 11.4777 1.62654 10.9094 1.53467L10.7932 1.521L10.0403 1.47412C9.20222 1.42929 8.10649 1.39404 6.72876 1.39404ZM10.2708 3.91846C10.4241 3.91846 10.5742 3.91961 10.7209 3.92041C10.7346 4.22858 10.7457 4.56738 10.7551 4.93799C10.5937 4.93696 10.4322 4.93606 10.2708 4.93604C8.43381 4.93604 7.09835 4.99779 6.2063 5.06299C5.6182 5.10577 5.16778 5.52261 5.07642 6.09131L5.06274 6.20654C4.99755 7.09929 4.93579 8.43405 4.93579 10.271C4.93579 10.4368 4.93672 10.5986 4.93774 10.7563C4.59844 10.7478 4.25925 10.7361 3.92017 10.7212C3.91937 10.5745 3.91821 10.4244 3.91821 10.271C3.91821 8.41143 3.98119 7.05214 4.0481 6.1333C4.13016 5.00268 5.00243 4.1304 6.13306 4.04834C7.0519 3.98144 8.41118 3.91846 10.2708 3.91846Z" fill="white" stroke="#22093D" stroke-width="0.4"/>
</g>
<defs>
<clipPath id="clip0_1033_1620">
<rect width="17" height="17" fill="white"/>
</clipPath>
</defs>
</svg>
