<svg width="28" height="28" viewBox="0 0 28 28" fill="none" xmlns="http://www.w3.org/2000/svg">
<path fill-rule="evenodd" clip-rule="evenodd" d="M9.42186 8.46998L9.53269 8.56682L19.433 18.466C19.5628 18.5956 19.6602 18.754 19.7172 18.9283C19.7743 19.1026 19.7895 19.2879 19.7615 19.4692C19.7336 19.6505 19.6633 19.8226 19.5563 19.9716C19.4494 20.1206 19.3088 20.2423 19.146 20.3268L19.0107 20.3851L6.89486 24.85C4.61753 25.69 2.39969 23.5491 3.09153 21.2753L3.14986 21.105L7.61353 8.98915C7.67254 8.82866 7.76611 8.6831 7.88762 8.56278C8.00912 8.44246 8.15559 8.35032 8.31666 8.29288C8.47772 8.23544 8.64944 8.21412 8.81967 8.23041C8.98989 8.2467 9.15445 8.30021 9.30169 8.38715L9.42186 8.46998ZM9.17219 11.5057L5.33969 21.9123C5.30406 22.0091 5.29475 22.1137 5.3127 22.2153C5.33065 22.3169 5.37522 22.4119 5.44188 22.4906C5.50853 22.5694 5.59488 22.629 5.69211 22.6635C5.78934 22.698 5.89398 22.7061 5.99536 22.687L6.08869 22.6601L16.493 18.8265L9.17219 11.5057ZM19.958 13.538C21.0209 13.594 22.478 13.818 23.745 14.5786C24.0019 14.7309 24.1906 14.9759 24.2722 15.2631C24.3539 15.5503 24.3223 15.8579 24.184 16.1226C24.0457 16.3872 23.8112 16.5887 23.5288 16.6857C23.2464 16.7826 22.9375 16.7676 22.6659 16.6436L22.5445 16.5795C21.7489 16.1011 20.7315 15.9145 19.8355 15.8678C19.4663 15.8474 19.0962 15.849 18.7272 15.8725L18.3585 15.9086C18.0542 15.9479 17.7466 15.8657 17.5025 15.6798C17.2583 15.4939 17.0972 15.2193 17.0541 14.9155C17.011 14.6117 17.0893 14.3031 17.2721 14.0566C17.4549 13.8101 17.7274 13.6456 18.0307 13.5986C18.6697 13.5162 19.3151 13.4955 19.958 13.5368M22.3205 10.2865C22.6178 10.2871 22.9036 10.4012 23.1196 10.6054C23.3356 10.8096 23.4655 11.0886 23.4828 11.3854C23.5 11.6821 23.4034 11.9743 23.2125 12.2022C23.0217 12.4301 22.751 12.5765 22.4559 12.6116L22.3205 12.6198H21.4945C21.1973 12.6192 20.9115 12.5051 20.6955 12.3009C20.4795 12.0967 20.3496 11.8177 20.3323 11.5209C20.315 11.2242 20.4117 10.932 20.6025 10.7041C20.7934 10.4762 21.064 10.3298 21.3592 10.2947L21.4945 10.2865H22.3205ZM18.6082 9.39165C18.8091 9.59254 18.9297 9.85983 18.9476 10.1434C18.9654 10.4269 18.8792 10.7072 18.705 10.9317L18.6082 11.0413L17.3715 12.2791C17.1621 12.4906 16.8797 12.614 16.5822 12.6241C16.2847 12.6342 15.9947 12.5302 15.7713 12.3334C15.548 12.1367 15.4084 11.862 15.381 11.5656C15.3535 11.2692 15.4404 10.9736 15.6239 10.7392L15.7207 10.6295L16.9574 9.39282C17.0657 9.28434 17.1944 9.19829 17.336 9.13958C17.4776 9.08087 17.6295 9.05065 17.7828 9.05065C17.9361 9.05065 18.0879 9.08087 18.2295 9.13958C18.3712 9.19829 18.4998 9.28318 18.6082 9.39165ZM15.59 3.24915C16.1127 4.81948 15.8327 6.53915 15.506 7.74082C15.3105 8.49024 15.0408 9.21833 14.701 9.91432C14.5629 10.1912 14.3204 10.402 14.0269 10.5001C13.7333 10.5982 13.4129 10.5757 13.1359 10.4376C12.859 10.2994 12.6483 10.0569 12.5502 9.76339C12.4521 9.46988 12.4745 9.14941 12.6127 8.87248C12.8841 8.31352 13.0991 7.72884 13.2544 7.12715C13.5192 6.15648 13.6522 5.10298 13.448 4.23965L13.3769 3.98765C13.326 3.84175 13.3047 3.6872 13.314 3.53297C13.3234 3.37875 13.3633 3.22792 13.4315 3.08924C13.4996 2.95057 13.5946 2.82681 13.711 2.72516C13.8273 2.6235 13.9627 2.54597 14.1093 2.49706C14.2558 2.44815 14.4107 2.42885 14.5647 2.44026C14.7188 2.45168 14.8691 2.49358 15.0069 2.56355C15.1446 2.63352 15.2671 2.73016 15.3672 2.84785C15.4673 2.96554 15.5431 3.10195 15.59 3.24915ZM21.9075 6.09348C22.1262 6.31227 22.2491 6.60896 22.2491 6.91832C22.2491 7.22767 22.1262 7.52437 21.9075 7.74315L21.0827 8.56798C20.9751 8.67941 20.8463 8.76829 20.704 8.82944C20.5617 8.89058 20.4086 8.92276 20.2537 8.92411C20.0988 8.92546 19.9451 8.89594 19.8017 8.83728C19.6584 8.77861 19.5281 8.69199 19.4186 8.58244C19.309 8.4729 19.2224 8.34264 19.1637 8.19926C19.1051 8.05588 19.0756 7.90226 19.0769 7.74735C19.0782 7.59244 19.1104 7.43935 19.1716 7.29701C19.2327 7.15467 19.3216 7.02594 19.433 6.91832L20.2579 6.09348C20.4766 5.87477 20.7733 5.7519 21.0827 5.7519C21.3921 5.7519 21.6887 5.87477 21.9075 6.09348Z" fill="white"/>
</svg>
