<svg width="28" height="28" viewBox="0 0 28 28" fill="none" xmlns="http://www.w3.org/2000/svg">
<path d="M19.8337 7H8.16699C6.31048 7 4.53 7.7375 3.21724 9.05025C1.90449 10.363 1.16699 12.1435 1.16699 14C1.16699 15.8565 1.90449 17.637 3.21724 18.9497C4.53 20.2625 6.31048 21 8.16699 21H19.8337C21.6902 21 23.4707 20.2625 24.7834 18.9497C26.0962 17.637 26.8337 15.8565 26.8337 14C26.8337 12.1435 26.0962 10.363 24.7834 9.05025C23.4707 7.7375 21.6902 7 19.8337 7Z" stroke="white" stroke-width="1.75" stroke-miterlimit="10" stroke-linejoin="round"/>
<path d="M19.834 17.5C20.7622 17.5 21.6525 17.1313 22.3089 16.4749C22.9652 15.8185 23.334 14.9283 23.334 14C23.334 13.0717 22.9652 12.1815 22.3089 11.5251C21.6525 10.8687 20.7622 10.5 19.834 10.5C18.9057 10.5 18.0155 10.8687 17.3591 11.5251C16.7027 12.1815 16.334 13.0717 16.334 14C16.334 14.9283 16.7027 15.8185 17.3591 16.4749C18.0155 17.1313 18.9057 17.5 19.834 17.5Z" stroke="white" stroke-width="1.75" stroke-miterlimit="10" stroke-linejoin="round"/>
</svg>
