<svg width="36" height="36" viewBox="0 0 36 36" fill="none" xmlns="http://www.w3.org/2000/svg">
<path d="M9.135 22.5C8.55078 21.1795 8.24932 19.7514 8.25 18.3075C8.25 12.753 12.615 8.25 18 8.25C23.385 8.25 27.75 12.7545 27.75 18.309C27.7505 19.7524 27.449 21.18 26.865 22.5" stroke="white" stroke-width="2" stroke-linecap="round"/>
<path d="M18 3V4.5M33 18H31.5M4.5 18H3M28.605 7.392L27.5445 8.4525M8.4555 8.454L7.395 7.3935M21.7755 28.959C23.2905 28.4685 23.8995 27.081 24.0705 25.686C24.1215 25.269 23.778 24.9225 23.358 24.9225H12.7155C12.6129 24.9209 12.5112 24.941 12.417 24.9817C12.3228 25.0223 12.2383 25.0824 12.1691 25.1582C12.0999 25.2339 12.0476 25.3234 12.0156 25.4209C11.9836 25.5184 11.9727 25.6215 11.9835 25.7235C12.1515 27.1155 12.5745 28.134 14.1795 28.959M21.7755 28.959H14.1795M21.7755 28.959C21.594 31.8765 20.751 33.0315 18.0105 32.9985C15.0795 33.0525 14.4045 31.6245 14.1795 28.959" stroke="white" stroke-width="2" stroke-linecap="round" stroke-linejoin="round"/>
</svg>
