<svg width="36" height="36" viewBox="0 0 36 36" fill="none" xmlns="http://www.w3.org/2000/svg">
<path d="M32.625 16.0312H18.8438V12.0938H20.25C20.7721 12.0938 21.2729 11.8863 21.6421 11.5171C22.0113 11.1479 22.2188 10.6471 22.2188 10.125V5.625C22.2188 5.10286 22.0113 4.6021 21.6421 4.23288C21.2729 3.86367 20.7721 3.65625 20.25 3.65625H15.75C15.2279 3.65625 14.7271 3.86367 14.3579 4.23288C13.9887 4.6021 13.7812 5.10286 13.7812 5.625V10.125C13.7812 10.6471 13.9887 11.1479 14.3579 11.5171C14.7271 11.8863 15.2279 12.0938 15.75 12.0938H17.1562V16.0312H3.375C3.15122 16.0312 2.93661 16.1201 2.77838 16.2784C2.62014 16.4366 2.53125 16.6512 2.53125 16.875C2.53125 17.0988 2.62014 17.3134 2.77838 17.4716C2.93661 17.6299 3.15122 17.7188 3.375 17.7188H8.15625V22.7812H6.75C6.22785 22.7812 5.7271 22.9887 5.35788 23.3579C4.98867 23.7271 4.78125 24.2279 4.78125 24.75V29.25C4.78125 29.7721 4.98867 30.2729 5.35788 30.6421C5.7271 31.0113 6.22785 31.2188 6.75 31.2188H11.25C11.7721 31.2188 12.2729 31.0113 12.6421 30.6421C13.0113 30.2729 13.2188 29.7721 13.2188 29.25V24.75C13.2188 24.2279 13.0113 23.7271 12.6421 23.3579C12.2729 22.9887 11.7721 22.7812 11.25 22.7812H9.84375V17.7188H26.1562V22.7812H24.75C24.2279 22.7812 23.7271 22.9887 23.3579 23.3579C22.9887 23.7271 22.7812 24.2279 22.7812 24.75V29.25C22.7812 29.7721 22.9887 30.2729 23.3579 30.6421C23.7271 31.0113 24.2279 31.2188 24.75 31.2188H29.25C29.7721 31.2188 30.2729 31.0113 30.6421 30.6421C31.0113 30.2729 31.2188 29.7721 31.2188 29.25V24.75C31.2188 24.2279 31.0113 23.7271 30.6421 23.3579C30.2729 22.9887 29.7721 22.7812 29.25 22.7812H27.8438V17.7188H32.625C32.8488 17.7188 33.0634 17.6299 33.2216 17.4716C33.3799 17.3134 33.4688 17.0988 33.4688 16.875C33.4688 16.6512 33.3799 16.4366 33.2216 16.2784C33.0634 16.1201 32.8488 16.0312 32.625 16.0312ZM15.4688 10.125V5.625C15.4688 5.55041 15.4984 5.47887 15.5511 5.42613C15.6039 5.37338 15.6754 5.34375 15.75 5.34375H20.25C20.3246 5.34375 20.3961 5.37338 20.4489 5.42613C20.5016 5.47887 20.5312 5.55041 20.5312 5.625V10.125C20.5312 10.1996 20.5016 10.2711 20.4489 10.3239C20.3961 10.3766 20.3246 10.4062 20.25 10.4062H15.75C15.6754 10.4062 15.6039 10.3766 15.5511 10.3239C15.4984 10.2711 15.4688 10.1996 15.4688 10.125ZM11.5312 24.75V29.25C11.5312 29.3246 11.5016 29.3961 11.4489 29.4489C11.3961 29.5016 11.3246 29.5312 11.25 29.5312H6.75C6.67541 29.5312 6.60387 29.5016 6.55113 29.4489C6.49838 29.3961 6.46875 29.3246 6.46875 29.25V24.75C6.46875 24.6754 6.49838 24.6039 6.55113 24.5511C6.60387 24.4984 6.67541 24.4688 6.75 24.4688H11.25C11.3246 24.4688 11.3961 24.4984 11.4489 24.5511C11.5016 24.6039 11.5312 24.6754 11.5312 24.75ZM29.5312 24.75V29.25C29.5312 29.3246 29.5016 29.3961 29.4489 29.4489C29.3961 29.5016 29.3246 29.5312 29.25 29.5312H24.75C24.6754 29.5312 24.6039 29.5016 24.5511 29.4489C24.4984 29.3961 24.4688 29.3246 24.4688 29.25V24.75C24.4688 24.6754 24.4984 24.6039 24.5511 24.5511C24.6039 24.4984 24.6754 24.4688 24.75 24.4688H29.25C29.3246 24.4688 29.3961 24.4984 29.4489 24.5511C29.5016 24.6039 29.5312 24.6754 29.5312 24.75Z" fill="white"/>
</svg>
