<svg width="36" height="36" viewBox="0 0 36 36" fill="none" xmlns="http://www.w3.org/2000/svg">
<path d="M27.3075 14.5409L29.9655 17.2034L32.625 14.5409M8.6925 21.4094L6.0345 18.7454L3.375 21.4094" stroke="white" stroke-width="2" stroke-linecap="round" stroke-linejoin="round"/>
<path d="M6.03433 18.7455C6.03433 21.9255 7.29433 24.972 9.53833 27.2205C10.6487 28.3331 11.9676 29.2158 13.4195 29.8181C14.8715 30.4204 16.4279 30.7304 17.9998 30.7305C19.5267 30.7317 21.0395 30.4378 22.4548 29.865C24.0348 29.2315 25.4616 28.2682 26.6398 27.0396C27.818 25.811 28.7206 24.3451 29.2873 22.74M29.9653 17.205C29.963 14.4231 28.9943 11.7285 27.2248 9.58197C25.4573 7.43798 22.9981 5.97665 20.27 5.44915C17.5419 4.92164 14.7152 5.36092 12.2758 6.69146C9.83657 8.02472 7.93586 10.1635 6.89833 12.7425" stroke="white" stroke-width="2" stroke-linecap="round" stroke-linejoin="round"/>
<path d="M21.6299 15.033C21.5518 14.1425 21.1282 13.318 20.4497 12.7359C19.7713 12.1539 18.8919 11.8607 17.9999 11.919C15.0719 11.919 14.3699 13.6035 14.3699 15.033C14.3699 16.4625 15.5804 17.9775 17.9999 17.9775C20.4194 17.9775 21.6299 18.9345 21.6299 20.8845C21.5963 21.5602 21.3577 22.2096 20.9458 22.7464C20.534 23.2831 19.9684 23.6817 19.3244 23.889C18.8969 24.027 18.4469 24.0765 17.9999 24.0345C17.1067 24.0733 16.2327 23.7684 15.5575 23.1825C14.8823 22.5965 14.4573 21.7742 14.3699 20.8845M17.9999 10.104V11.6805M17.9999 25.8555V24.0405" stroke="white" stroke-width="2" stroke-linecap="round" stroke-linejoin="round"/>
</svg>
