<svg width="36" height="36" viewBox="0 0 36 36" fill="none" xmlns="http://www.w3.org/2000/svg">
<path d="M10.125 10.1252L15.75 15.7502M10.125 10.1252L12.75 7.50016V7.12516L10.59 6.22516C9.03752 5.57818 7.58337 4.7168 6.27 3.66616L4.5 2.25016H4.125L2.25 4.12516V4.50016L3.666 6.27016C4.71664 7.58353 5.57802 9.03768 6.225 10.5902L7.125 12.7502H7.5L10.125 10.1252ZM20.601 25.5002C22.9543 28.1705 25.2136 30.9222 27.375 33.7502H27.75L33.75 27.7502V27.3752C33.75 27.3752 30.045 24.5972 25.5 20.6012M26.25 17.2502C27.4955 17.2505 28.7215 16.9407 29.8173 16.3486C30.9131 15.7566 31.8442 14.9009 32.5265 13.859C33.2088 12.817 33.6209 11.6215 33.7256 10.3804C33.8303 9.13931 33.6242 7.89169 33.126 6.75016H32.25L27.75 11.2502H24.75V8.25016L29.25 3.75016V2.87416C27.9056 2.28637 26.4182 2.10586 24.9722 2.35499C23.5262 2.60412 22.185 3.27195 21.1148 4.27577C20.0445 5.27958 19.2922 6.57528 18.9511 8.0024C18.61 9.42952 18.6949 10.9254 19.1955 12.3047L16.5 15.0002C9.75 21.7502 2.25 27.3752 2.25 27.3752V27.7502L8.25 33.7502H8.625C8.625 33.7502 14.25 26.2502 21 19.5002L23.6955 16.8047C24.5147 17.1004 25.3791 17.2511 26.25 17.2502Z" stroke="white" stroke-width="1.6"/>
</svg>
