<svg width="36" height="36" viewBox="0 0 36 36" fill="none" xmlns="http://www.w3.org/2000/svg">
<g clip-path="url(#clip0_1669_2116)">
<path d="M7.71373 18.0001V11.2372C7.73381 9.90788 8.01601 8.59557 8.54414 7.37547C9.07227 6.15537 9.83597 5.05147 10.7915 4.12703C11.747 3.20259 12.8755 2.47577 14.1124 1.98822C15.3492 1.50067 16.6702 1.26197 17.9994 1.2858C19.3287 1.26197 20.6497 1.50067 21.8865 1.98822C23.1234 2.47577 24.2519 3.20259 25.2074 4.12703C26.1629 5.05147 26.9266 6.15537 27.4547 7.37547C27.9829 8.59557 28.2651 9.90788 28.2852 11.2372V18.0001M23.1423 31.5001C24.5063 31.5001 25.8144 30.9583 26.7788 29.9938C27.7433 29.0293 28.2852 27.7212 28.2852 26.3572V20.5715M23.1423 31.5001C23.1423 32.3526 22.8037 33.1701 22.2009 33.7729C21.5981 34.3757 20.7805 34.7144 19.928 34.7144H16.0709C15.2184 34.7144 14.4008 34.3757 13.798 33.7729C13.1952 33.1701 12.8566 32.3526 12.8566 31.5001C12.8566 30.6476 13.1952 29.83 13.798 29.2272C14.4008 28.6244 15.2184 28.2858 16.0709 28.2858H19.928C20.7805 28.2858 21.5981 28.6244 22.2009 29.2272C22.8037 29.83 23.1423 30.6476 23.1423 31.5001ZM3.85658 14.1429H6.42801C6.76901 14.1429 7.09603 14.2784 7.33715 14.5195C7.57827 14.7606 7.71373 15.0877 7.71373 15.4287V23.1429C7.71373 23.4839 7.57827 23.811 7.33715 24.0521C7.09603 24.2932 6.76901 24.4287 6.42801 24.4287H3.85658C3.1746 24.4287 2.52055 24.1577 2.03831 23.6755C1.55607 23.1933 1.28516 22.5392 1.28516 21.8572V16.7144C1.28516 16.0324 1.55607 15.3783 2.03831 14.8961C2.52055 14.4139 3.1746 14.1429 3.85658 14.1429ZM32.1423 24.4287H29.5709C29.2299 24.4287 28.9029 24.2932 28.6617 24.0521C28.4206 23.811 28.2852 23.4839 28.2852 23.1429V15.4287C28.2852 15.0877 28.4206 14.7606 28.6617 14.5195C28.9029 14.2784 29.2299 14.1429 29.5709 14.1429H32.1423C32.8243 14.1429 33.4783 14.4139 33.9606 14.8961C34.4428 15.3783 34.7137 16.0324 34.7137 16.7144V21.8572C34.7137 22.5392 34.4428 23.1933 33.9606 23.6755C33.4783 24.1577 32.8243 24.4287 32.1423 24.4287Z" stroke="white" stroke-width="2" stroke-linecap="round" stroke-linejoin="round"/>
</g>
<defs>
<clipPath id="clip0_1669_2116">
<rect width="36" height="36" fill="white"/>
</clipPath>
</defs>
</svg>
