<svg width="426" height="102" viewBox="0 0 426 102" fill="none" xmlns="http://www.w3.org/2000/svg">
<path d="M385.135 20.9101C396.181 20.5694 406 40.5433 406 40.5433H364.884C364.884 40.5433 374.089 21.2507 385.135 20.9101Z" fill="url(#paint0_linear_1503_118)"/>
<path d="M40.2512 20.9141C53.1383 20.9136 61.7297 40.5473 61.7297 40.5473H20C20 40.5473 27.3641 20.9145 40.2512 20.9141Z" fill="url(#paint1_linear_1503_118)"/>
<g filter="url(#filter0_d_1503_118)">
<path d="M20 40.2398C20 40.2398 20.5535 38.7869 21.6351 36.6779C24.9113 29.9408 32.6464 16 40.558 16L61.4509 16C135.119 16.0001 376.462 16.0002 385.442 16C395.874 15.9998 406 40.2398 406 40.2398C406 40.2398 396.488 20.9091 384.828 20.9091C373.168 20.9091 359.668 50.3653 359.668 50.3653L352.899 62.7748C347.992 71.7701 338.564 77.3669 328.318 77.3669H98.438C88.279 77.3669 78.917 71.8643 73.9748 62.9885L66.9459 50.3653C66.9459 50.3653 54.3657 20.9091 40.8649 20.9091C31.0653 20.9091 24.4989 31.0937 21.6351 36.6779C20.5912 38.8245 20 40.2398 20 40.2398Z" fill="url(#paint2_linear_1503_118)"/>
</g>
<defs>
<filter id="filter0_d_1503_118" x="0" y="0" width="426" height="101.367" filterUnits="userSpaceOnUse" color-interpolation-filters="sRGB">
<feFlood flood-opacity="0" result="BackgroundImageFix"/>
<feColorMatrix in="SourceAlpha" type="matrix" values="0 0 0 0 0 0 0 0 0 0 0 0 0 0 0 0 0 0 127 0" result="hardAlpha"/>
<feOffset dy="4"/>
<feGaussianBlur stdDeviation="10"/>
<feComposite in2="hardAlpha" operator="out"/>
<feColorMatrix type="matrix" values="0 0 0 0 0 0 0 0 0 0 0 0 0 0 0 0 0 0 0.25 0"/>
<feBlend mode="normal" in2="BackgroundImageFix" result="effect1_dropShadow_1503_118"/>
<feBlend mode="normal" in="SourceGraphic" in2="effect1_dropShadow_1503_118" result="shape"/>
</filter>
<linearGradient id="paint0_linear_1503_118" x1="385.14" y1="20.901" x2="385.14" y2="40.5428" gradientUnits="userSpaceOnUse">
<stop/>
<stop offset="1" stop-color="#3F1276"/>
</linearGradient>
<linearGradient id="paint1_linear_1503_118" x1="40.558" y1="20.9093" x2="40.558" y2="40.5468" gradientUnits="userSpaceOnUse">
<stop/>
<stop offset="1" stop-color="#3F1276"/>
</linearGradient>
<linearGradient id="paint2_linear_1503_118" x1="213" y1="77.3669" x2="213" y2="16" gradientUnits="userSpaceOnUse">
<stop stop-color="#440784"/>
<stop offset="1" stop-color="#9D52FF"/>
</linearGradient>
</defs>
</svg>
