<svg width="28" height="28" viewBox="0 0 28 28" fill="none" xmlns="http://www.w3.org/2000/svg">
<path d="M24.7188 20.426H3.28125C3.16094 20.426 3.0625 20.5245 3.0625 20.6448V22.176C3.0625 22.2964 3.16094 22.3948 3.28125 22.3948H24.7188C24.8391 22.3948 24.9375 22.2964 24.9375 22.176V20.6448C24.9375 20.5245 24.8391 20.426 24.7188 20.426ZM4.53086 17.0026L5.61641 18.0827C5.70117 18.1675 5.84062 18.1675 5.92539 18.0827L12.343 11.687L15.0117 14.3475C15.1761 14.5104 15.3982 14.6018 15.6297 14.6018C15.8611 14.6018 16.0832 14.5104 16.2477 14.3475L23.4719 7.15066C23.5566 7.06589 23.5566 6.92644 23.4719 6.84167L22.3863 5.75886C22.3452 5.71815 22.2897 5.69531 22.2318 5.69531C22.174 5.69531 22.1185 5.71815 22.0773 5.75886L15.6324 12.1846L12.9609 9.52409C12.7965 9.36119 12.5744 9.26979 12.343 9.26979C12.1115 9.26979 11.8894 9.36119 11.725 9.52409L4.53086 16.6936C4.51041 16.7138 4.49417 16.7379 4.48308 16.7644C4.472 16.7909 4.46629 16.8194 4.46629 16.8481C4.46629 16.8769 4.472 16.9053 4.48308 16.9318C4.49417 16.9584 4.51041 16.9824 4.53086 17.0026Z" fill="#7F89EC"/>
</svg>
