<svg width="28" height="28" viewBox="0 0 28 28" fill="none" xmlns="http://www.w3.org/2000/svg">
<path d="M14 3.5C13.6553 3.5 13.3139 3.5679 12.9955 3.69982C12.677 3.83173 12.3876 4.02509 12.1438 4.26884C11.9001 4.5126 11.7067 4.80198 11.5748 5.12046C11.4429 5.43894 11.375 5.78028 11.375 6.125C11.375 6.46972 11.4429 6.81106 11.5748 7.12954C11.7067 7.44802 11.9001 7.7374 12.1438 7.98116C12.3876 8.22491 12.677 8.41827 12.9955 8.55018C13.3139 8.6821 13.6553 8.75 14 8.75C14.6962 8.75 15.3639 8.47344 15.8562 7.98116C16.3484 7.48887 16.625 6.82119 16.625 6.125C16.625 5.42881 16.3484 4.76113 15.8562 4.26884C15.3639 3.77656 14.6962 3.5 14 3.5ZM9.625 6.125C9.625 4.96468 10.0859 3.85188 10.9064 3.03141C11.7269 2.21094 12.8397 1.75 14 1.75C15.1603 1.75 16.2731 2.21094 17.0936 3.03141C17.9141 3.85188 18.375 4.96468 18.375 6.125C18.375 7.28532 17.9141 8.39812 17.0936 9.21859C16.2731 10.0391 15.1603 10.5 14 10.5C12.8397 10.5 11.7269 10.0391 10.9064 9.21859C10.0859 8.39812 9.625 7.28532 9.625 6.125ZM7 14.875C7.00117 14.5553 7.03383 14.2462 7.098 13.9475L3.696 14.8575C3.36296 14.9468 3.05079 15.1009 2.77731 15.3109C2.50383 15.5209 2.27441 15.7828 2.10215 16.0815C1.92989 16.3802 1.81816 16.7099 1.77335 17.0517C1.72854 17.3936 1.75153 17.741 1.841 18.074L2.52 20.6098C2.70255 21.2902 3.02017 21.9269 3.45394 22.4819C3.88772 23.037 4.42876 23.4991 5.04486 23.8407C5.66096 24.1823 6.3395 24.3964 7.04009 24.4703C7.74067 24.5442 8.44895 24.4763 9.12275 24.2708C8.65472 23.8168 8.25241 23.2996 7.9275 22.7343C7.10311 22.8138 6.27721 22.5985 5.59663 22.1265C4.91605 21.6545 4.4249 20.9565 4.2105 20.1565L3.52975 17.619C3.46991 17.3948 3.50156 17.1561 3.61773 16.9552C3.73391 16.7544 3.92509 16.6079 4.14925 16.548L7 15.785V14.875ZM19.0505 24.3215L18.8755 24.2725C19.3428 23.8175 19.747 23.3013 20.0725 22.7343C20.8969 22.8138 21.7228 22.5985 22.4034 22.1265C23.0839 21.6545 23.5751 20.9565 23.7895 20.1565L24.4685 17.619C24.5284 17.3951 24.497 17.1565 24.3812 16.9557C24.2654 16.7549 24.0746 16.6083 23.8507 16.548L21 15.785V14.875C20.9988 14.5553 20.9662 14.2462 20.902 13.9475L24.3022 14.8575C24.6354 14.9466 24.9478 15.1006 25.2215 15.3105C25.4951 15.5204 25.7248 15.7822 25.8972 16.081C26.0696 16.3797 26.1815 16.7095 26.2264 17.0514C26.2714 17.3934 26.2484 17.7409 26.159 18.074L25.48 20.6098C25.1191 21.9542 24.2391 23.1002 23.0334 23.796C21.8277 24.4917 20.3951 24.6818 19.0505 24.3215ZM3.5 8.75C3.5 8.28587 3.68437 7.84075 4.01256 7.51256C4.34075 7.18437 4.78587 7 5.25 7C5.71413 7 6.15925 7.18437 6.48744 7.51256C6.81563 7.84075 7 8.28587 7 8.75C7 9.21413 6.81563 9.65925 6.48744 9.98744C6.15925 10.3156 5.71413 10.5 5.25 10.5C4.78587 10.5 4.34075 10.3156 4.01256 9.98744C3.68437 9.65925 3.5 9.21413 3.5 8.75ZM5.25 5.25C4.32174 5.25 3.4315 5.61875 2.77513 6.27513C2.11875 6.9315 1.75 7.82174 1.75 8.75C1.75 9.67826 2.11875 10.5685 2.77513 11.2249C3.4315 11.8813 4.32174 12.25 5.25 12.25C6.17826 12.25 7.0685 11.8813 7.72487 11.2249C8.38125 10.5685 8.75 9.67826 8.75 8.75C8.75 7.82174 8.38125 6.9315 7.72487 6.27513C7.0685 5.61875 6.17826 5.25 5.25 5.25ZM22.75 7C22.2859 7 21.8408 7.18437 21.5126 7.51256C21.1844 7.84075 21 8.28587 21 8.75C21 9.21413 21.1844 9.65925 21.5126 9.98744C21.8408 10.3156 22.2859 10.5 22.75 10.5C23.2141 10.5 23.6592 10.3156 23.9874 9.98744C24.3156 9.65925 24.5 9.21413 24.5 8.75C24.5 8.28587 24.3156 7.84075 23.9874 7.51256C23.6592 7.18437 23.2141 7 22.75 7ZM19.25 8.75C19.25 7.82174 19.6187 6.9315 20.2751 6.27513C20.9315 5.61875 21.8217 5.25 22.75 5.25C23.6783 5.25 24.5685 5.61875 25.2249 6.27513C25.8813 6.9315 26.25 7.82174 26.25 8.75C26.25 9.67826 25.8813 10.5685 25.2249 11.2249C24.5685 11.8813 23.6783 12.25 22.75 12.25C21.8217 12.25 20.9315 11.8813 20.2751 11.2249C19.6187 10.5685 19.25 9.67826 19.25 8.75ZM11.375 12.25C10.6788 12.25 10.0111 12.5266 9.51884 13.0188C9.02656 13.5111 8.75 14.1788 8.75 14.875V19.25C8.75 20.6424 9.30312 21.9777 10.2877 22.9623C11.2723 23.9469 12.6076 24.5 14 24.5C15.3924 24.5 16.7277 23.9469 17.7123 22.9623C18.6969 21.9777 19.25 20.6424 19.25 19.25V14.875C19.25 14.1788 18.9734 13.5111 18.4812 13.0188C17.9889 12.5266 17.3212 12.25 16.625 12.25H11.375ZM10.5 14.875C10.5 14.6429 10.5922 14.4204 10.7563 14.2563C10.9204 14.0922 11.1429 14 11.375 14H16.625C16.8571 14 17.0796 14.0922 17.2437 14.2563C17.4078 14.4204 17.5 14.6429 17.5 14.875V19.25C17.5 20.1783 17.1313 21.0685 16.4749 21.7249C15.8185 22.3813 14.9283 22.75 14 22.75C13.0717 22.75 12.1815 22.3813 11.5251 21.7249C10.8687 21.0685 10.5 20.1783 10.5 19.25V14.875Z" fill="#7F89EC"/>
</svg>
