<svg width="28" height="28" viewBox="0 0 28 28" fill="none" xmlns="http://www.w3.org/2000/svg">
<path d="M16.5 4.81381C16.5 3.71981 15.193 3.15381 14.395 3.90181L9.458 8.53181C9.13357 8.8358 8.7056 9.00492 8.261 9.00481H5.25C4.38805 9.00481 3.5614 9.34722 2.9519 9.95671C2.34241 10.5662 2 11.3929 2 12.2548V15.7468C2 16.6088 2.34241 17.4354 2.9519 18.0449C3.5614 18.6544 4.38805 18.9968 5.25 18.9968H8.262C8.706 18.9968 9.134 19.1668 9.458 19.4698L14.395 24.0958C15.194 24.8438 16.5 24.2778 16.5 23.1838V4.81381ZM10.484 9.62581L15 5.38981V22.6058L10.484 18.3738C9.88167 17.8096 9.08728 17.4957 8.262 17.4958H5.25C4.78587 17.4958 4.34075 17.3114 4.01256 16.9832C3.68437 16.6551 3.5 16.2099 3.5 15.7458V12.2538C3.5 11.2878 4.284 10.5038 5.25 10.5038H8.261C9.0869 10.5036 9.88173 10.1889 10.484 9.62381M20.353 8.30081C20.2939 8.22201 20.2199 8.15563 20.1351 8.10545C20.0504 8.05527 19.9566 8.02227 19.8591 8.00835C19.7616 7.99442 19.6623 7.99983 19.5669 8.02427C19.4715 8.04872 19.3818 8.09171 19.303 8.15081C19.2242 8.2099 19.1578 8.28394 19.1076 8.36869C19.0575 8.45344 19.0245 8.54724 19.0105 8.64474C18.9966 8.74224 19.002 8.84153 19.0265 8.93694C19.0509 9.03235 19.0939 9.12201 19.153 9.20081C20.1929 10.5843 20.7535 12.2691 20.75 13.9998C20.75 15.7998 20.156 17.4598 19.153 18.7968C19.0939 18.8756 19.0509 18.9653 19.0265 19.0607C19.002 19.1561 18.9966 19.2554 19.0105 19.3529C19.0245 19.4504 19.0575 19.5442 19.1076 19.6289C19.1578 19.7137 19.2242 19.7877 19.303 19.8468C19.3818 19.9059 19.4715 19.9489 19.5669 19.9733C19.6623 19.9978 19.7616 20.0032 19.8591 19.9893C19.9566 19.9753 20.0504 19.9423 20.1351 19.8922C20.2199 19.842 20.2939 19.7756 20.353 19.6968C21.5872 18.0542 22.2531 16.0544 22.25 13.9998C22.2531 11.9452 21.5872 9.94541 20.353 8.30281" fill="#7F89EC"/>
</svg>
