<svg width="28" height="28" viewBox="0 0 28 28" fill="none" xmlns="http://www.w3.org/2000/svg">
<path d="M14 24.5C16.3297 24.4997 18.5932 23.7245 20.434 22.2966C22.2749 20.8687 23.5885 18.8691 24.1682 16.6126C24.7479 14.3562 24.5607 11.971 23.636 9.83261C22.7114 7.69423 21.1018 5.9241 19.0607 4.8009C17.0196 3.67769 14.6629 3.26521 12.3617 3.62838C10.0604 3.99155 7.94529 5.10975 6.3493 6.80694C4.7533 8.50412 3.76708 10.6839 3.54589 13.0031C3.3247 15.3223 3.8811 17.6492 5.12751 19.6175L3.50001 24.5L8.38251 22.8725C10.062 23.9385 12.0108 24.5031 14 24.5Z" stroke="#7F89EC" stroke-width="2" stroke-linecap="round" stroke-linejoin="round"/>
</svg>
