<svg width="34" height="34" viewBox="0 0 34 34" fill="none" xmlns="http://www.w3.org/2000/svg">
<path fill-rule="evenodd" clip-rule="evenodd" d="M17.833 7.11165C19.0392 5.92921 20.6633 5.27061 22.3524 5.27901C24.0415 5.28741 25.659 5.96212 26.8534 7.1565C28.0478 8.35088 28.7225 9.96839 28.7309 11.6575C28.7393 13.3466 28.0807 14.9707 26.8982 16.1769L26.8841 16.1911L23.6767 19.3984C23.0268 20.0486 22.2447 20.5513 21.3834 20.8726C20.5221 21.1939 19.6017 21.3262 18.6848 21.2605C17.7679 21.1947 16.8758 20.9326 16.0691 20.4918C15.2624 20.051 14.56 19.4418 14.0094 18.7056C13.922 18.5942 13.8578 18.4665 13.8205 18.3299C13.7832 18.1933 13.7736 18.0506 13.7922 17.9103C13.8108 17.7699 13.8573 17.6347 13.9289 17.5125C14.0005 17.3904 14.0958 17.2838 14.2092 17.199C14.3226 17.1142 14.4518 17.053 14.5892 17.0188C14.7266 16.9847 14.8695 16.9783 15.0094 17.0002C15.1493 17.022 15.2834 17.0716 15.4038 17.146C15.5243 17.2204 15.6287 17.3182 15.7108 17.4335C16.079 17.9255 16.5487 18.3325 17.0879 18.6271C17.6272 18.9217 18.2235 19.0969 18.8365 19.1408C19.4494 19.1847 20.0646 19.0964 20.6404 18.8817C21.2162 18.6671 21.7391 18.3312 22.1737 17.8967L25.3753 14.6951C26.1396 13.8835 26.5576 12.8062 26.5409 11.6915C26.5241 10.5769 26.0738 9.51265 25.2854 8.72449C24.4971 7.93633 23.4327 7.48626 22.3181 7.46973C21.2034 7.45321 20.1262 7.87153 19.3148 8.63598L17.4817 10.4592C17.2818 10.658 17.0111 10.7692 16.7292 10.7684C16.4473 10.7676 16.1773 10.6549 15.9786 10.455C15.7798 10.2551 15.6686 9.98444 15.6694 9.70256C15.6702 9.42068 15.7829 9.15066 15.9828 8.9519L17.833 7.11165ZM12.6154 13.1268C13.9136 12.6427 15.3338 12.5922 16.6631 12.983C17.9925 13.3737 19.1594 14.1847 19.9892 15.2943C20.1502 15.5204 20.2164 15.8005 20.1736 16.0747C20.1307 16.3489 19.9823 16.5955 19.76 16.7617C19.5377 16.9279 19.2592 17.0006 18.9841 16.9641C18.709 16.9276 18.459 16.7849 18.2877 16.5665C17.9198 16.0741 17.4503 15.6667 16.911 15.3718C16.3717 15.077 15.7753 14.9016 15.1622 14.8577C14.5491 14.8137 13.9338 14.9022 13.358 15.1171C12.7821 15.3321 12.2593 15.6684 11.8249 16.1032L8.62323 19.3049C7.83967 20.1125 7.40519 21.1959 7.41363 22.3211C7.42206 23.4464 7.87274 24.5231 8.66832 25.3189C9.46391 26.1147 10.5406 26.5656 11.6658 26.5743C12.791 26.583 13.8745 26.1488 14.6823 25.3654L16.5042 23.5436C16.7044 23.3499 16.9728 23.2427 17.2514 23.245C17.53 23.2473 17.7965 23.3589 17.9936 23.5558C18.1907 23.7527 18.3026 24.0191 18.3051 24.2977C18.3077 24.5763 18.2007 24.8447 18.0072 25.0452L16.1656 26.8869C14.9572 28.0575 13.337 28.7061 11.6546 28.6928C9.97228 28.6795 8.36258 28.0053 7.17284 26.8158C5.9831 25.6262 5.3087 24.0166 5.29513 22.3343C5.28156 20.6519 5.92992 19.0317 7.10032 17.8231L7.11448 17.8089L10.3218 14.6016C10.9716 13.9507 11.7545 13.448 12.6168 13.1282" fill="white"/>
</svg>
