<svg width="34" height="34" viewBox="0 0 34 34" fill="none" xmlns="http://www.w3.org/2000/svg">
<path d="M8.20958 20.2669L5.69925 17.7524L3.1875 20.2669M25.7904 13.78L28.3007 16.296L30.8125 13.78" stroke="white" stroke-width="1.5" stroke-linecap="round" stroke-linejoin="round"/>
<path d="M28.3007 16.296C28.3007 13.2926 27.1107 10.4154 24.9914 8.29181C23.9427 7.24101 22.6971 6.40734 21.3258 5.83851C19.9545 5.26968 18.4845 4.97686 17 4.97681C15.5579 4.97567 14.1292 5.25323 12.7925 5.79423C11.3002 6.39253 9.95278 7.30224 8.84002 8.46263C7.72727 9.62302 6.87482 11.0074 6.33955 12.5234M5.69922 17.7509C5.70139 20.3782 6.6163 22.9231 8.28747 24.9504C9.95682 26.9753 12.2794 28.3554 14.8559 28.8536C17.4325 29.3518 20.1021 28.9369 22.406 27.6803C24.7097 26.4211 26.5048 24.4012 27.4847 21.9655" stroke="white" stroke-width="1.5" stroke-linecap="round" stroke-linejoin="round"/>
<path d="M13.5718 19.8022C13.6455 20.6432 14.0456 21.4219 14.6864 21.9716C15.3271 22.5213 16.1577 22.7983 17.0001 22.7432C19.7654 22.7432 20.4284 21.1523 20.4284 19.8022C20.4284 18.4521 19.2852 17.0213 17.0001 17.0213C14.715 17.0213 13.5718 16.1174 13.5718 14.2758C13.6035 13.6376 13.8288 13.0242 14.2178 12.5173C14.6068 12.0104 15.141 11.634 15.7492 11.4382C16.1529 11.3079 16.5779 11.2611 17.0001 11.3008C17.8436 11.2641 18.6691 11.5521 19.3068 12.1054C19.9445 12.6588 20.3459 13.4355 20.4284 14.2758M17.0001 24.4574V22.9684M17.0001 9.58093V11.2951" stroke="white" stroke-width="1.5" stroke-linecap="round" stroke-linejoin="round"/>
</svg>
